<svg xmlns="http://www.w3.org/2000/svg" xmlns:xlink="http://www.w3.org/1999/xlink" viewBox="0 0 270.19 289.97"><defs><style>.cls-1{fill:none;}.cls-2{fill:#f9a198;}.cls-3{clip-path:url(#clip-path);}.cls-4{fill:#0e2a54;}.cls-5{fill:#9dcdfd;}.cls-6{fill:#b1a4ff;}.cls-7{fill:#7754ff;}.cls-8{fill:#e34525;}.cls-9{fill:#fff;}</style><clipPath id="clip-path"><path class="cls-1" d="M133.32,0H270.19a0,0,0,0,1,0,0V270a0,0,0,0,1,0,0H0a0,0,0,0,1,0,0V133.32A133.32,133.32,0,0,1,133.32,0Z" transform="translate(270.19 270) rotate(180)"/></clipPath></defs><g id="Capa_2" data-name="Capa 2"><g id="Capa_1-2" data-name="Capa 1"><path class="cls-2" d="M133.32,0H270.19a0,0,0,0,1,0,0V270a0,0,0,0,1,0,0H0a0,0,0,0,1,0,0V133.32A133.32,133.32,0,0,1,133.32,0Z" transform="translate(270.19 270) rotate(180)"/><g class="cls-3"><path class="cls-4" d="M199.41,161.18a13.28,13.28,0,0,0-4.94.88,15.47,15.47,0,0,0-1.18-1.37,14.59,14.59,0,0,0-13.73-10.14,14.43,14.43,0,0,0-7.1,1.76,13.84,13.84,0,0,0,.15-1.84,13.6,13.6,0,0,0-27.2-.29v.32a18.86,18.86,0,0,0-3.45.93,17.38,17.38,0,1,0-10.8,31.14,16.92,16.92,0,0,0,3.12-.26,19.25,19.25,0,0,0,27.53,1.28,13,13,0,0,0,19.32-1,12.83,12.83,0,0,0,2.79.34,13,13,0,0,0,4.16-.64,13.5,13.5,0,1,0,11.33-21.07"/><path class="cls-5" d="M219.79,122a9.63,9.63,0,0,0-1.52.1,14.53,14.53,0,0,0-23.16-7.86,10,10,0,0,0-19.88.55V115a12.13,12.13,0,0,0-2-.2,12,12,0,1,0,5.3,22.65,11.56,11.56,0,0,0,20.67,1.82,14.62,14.62,0,0,0,4.84.88,14.47,14.47,0,0,0,8.14-2.39A9.67,9.67,0,1,0,219.79,122"/><path class="cls-6" d="M129.62,155.6a8.22,8.22,0,0,0-1.41.1,13.43,13.43,0,0,0-21.41-7.27,9.2,9.2,0,0,0-18.38.51v.16a11.38,11.38,0,0,0-1.86-.18,11.07,11.07,0,1,0-.24,22.13,11,11,0,0,0,5.13-1.2,10.69,10.69,0,0,0,19.11,1.69,13.48,13.48,0,0,0,12-1.4,8.94,8.94,0,1,0,7.06-14.54"/><path class="cls-7" d="M64.17,136.51l-7.55,8,4.12,0-.22,22.72c-.18,18.9,8.74,28.38,16.24,33a38.29,38.29,0,0,0,16.47,5.5h.07l23.29.41.06-6.36-23.12-.41a31.55,31.55,0,0,1-13.63-4.66c-8.74-5.51-13.15-14.74-13-27.43l.22-22.71,4.46,0Z"/><path class="cls-8" d="M79.12,44.94a1.87,1.87,0,0,0,1.33-3.17L75,36.25a1.86,1.86,0,1,0-2.64,2.62l5.47,5.52A1.81,1.81,0,0,0,79.12,44.94Z"/><path class="cls-8" d="M194.7,36.76a1.86,1.86,0,0,0-2.63,0l-5.52,5.47a1.86,1.86,0,0,0,0,2.63,1.82,1.82,0,0,0,1.31.55,1.9,1.9,0,0,0,1.33-.54l5.51-5.47A1.86,1.86,0,0,0,194.7,36.76Z"/><path class="cls-8" d="M101.77,22.59a1.87,1.87,0,0,0,1.76,1.28,1.78,1.78,0,0,0,.59-.1,1.86,1.86,0,0,0,1.19-2.34l-2.72-8.25a1.86,1.86,0,1,0-3.53,1.16Z"/><path class="cls-8" d="M163,21.91a2,2,0,0,0,.59.1,1.86,1.86,0,0,0,1.77-1.27l2.78-8.22a1.86,1.86,0,1,0-3.52-1.19l-2.78,8.22A1.85,1.85,0,0,0,163,21.91Z"/><path class="cls-8" d="M133.59,15.9a1.92,1.92,0,0,0,.59-.09,1.86,1.86,0,0,0,1.28-1.76l.07-8.68a1.86,1.86,0,1,0-3.72,0L131.74,14A1.85,1.85,0,0,0,133.59,15.9Z"/><path class="cls-8" d="M150,129.17v3.07a1.62,1.62,0,0,1-1.64,1.61l-29.39-.12a1.62,1.62,0,0,1-1.62-1.63V129a1.64,1.64,0,0,1,1.64-1.62l29.39.13A1.63,1.63,0,0,1,150,129.17Z"/><path class="cls-8" d="M121.5,137.69l24.24.1c-2,3.65-6.7,6.2-12.15,6.18S123.48,141.36,121.5,137.69Z"/><path class="cls-8" d="M134.06,32.37c-24.75-.11-44.89,19.23-45,44-.06,15.18,15.56,32.92,15.56,32.92,1.86,2.12,3.89,3.23,4.48,6l1.18,3.54c.59,2.76,3.39,4.56,6.21,4.57l33.41.14c2.83,0,5.72-1.74,6.43-4.47l1.34-3.27c.71-2.74,2.83-3.8,4.74-5.89,0,0,16.22-17.76,16.28-33.16C178.8,52,158.82,32.47,134.06,32.37Z"/><path class="cls-9" d="M153.64,93.44a14.78,14.78,0,0,1-1.18,5.64,18.46,18.46,0,0,1-3.29,5.23,21.9,21.9,0,0,1-5.24,4.28,22.69,22.69,0,0,1-7,2.69l0,7-5,0,0-6.42a3.87,3.87,0,0,0-.52,0,3.23,3.23,0,0,1-.46,0,37,37,0,0,1-5.12-.35,35.74,35.74,0,0,1-4.41-.9,29.51,29.51,0,0,1-4-1.39c-1.27-.56-2.53-1.16-3.79-1.83l2.92-9a33.19,33.19,0,0,0,3,1.75,39.32,39.32,0,0,0,3.9,1.79,38.48,38.48,0,0,0,4.29,1.42,20.7,20.7,0,0,0,4.22.74l.08-18.76q-2.88-1.12-5.76-2.52a21.93,21.93,0,0,1-5.2-3.49,16.22,16.22,0,0,1-3.77-5.23,18.14,18.14,0,0,1-1.45-7.78A12,12,0,0,1,117,61.57a17.71,17.71,0,0,1,3.2-4.78,21.38,21.38,0,0,1,12-6.41l0-6.56,5,0,0,6.1h.07a58.62,58.62,0,0,1,7.21.43q3.28.41,6.69,1.08l-1.81,9a52,52,0,0,0-6.12-1.93,31.27,31.27,0,0,0-6.07-.94l-.07,16.52c1.87.75,3.8,1.6,5.76,2.52a22.68,22.68,0,0,1,5.37,3.53,16.39,16.39,0,0,1,3.91,5.34A18.54,18.54,0,0,1,153.64,93.44ZM126.27,64.59a5.94,5.94,0,0,0,1.62,4.4,15.05,15.05,0,0,0,4.25,2.91l.06-14.3a9.78,9.78,0,0,0-3.74,1.1,3.86,3.86,0,0,0-1.65,2.16A11.68,11.68,0,0,0,126.27,64.59ZM143.2,95a6,6,0,0,0-1.69-4.5,16.31,16.31,0,0,0-4.45-3L137,103.86a9.53,9.53,0,0,0,1.74-.35,10.94,10.94,0,0,0,1.48-.55,4.5,4.5,0,0,0,2.15-2.58A14.38,14.38,0,0,0,143.2,95Z"/><path class="cls-8" d="M232.27,215.94c-3.48,6.89-10.85,15.09-26.4,15.09H187.4v4.19l-7.56-7,7.56-7v3.87h18.47c10,0,17-3.91,21-11.63A30.21,30.21,0,0,0,230,201.16V176h6v25.15A35.81,35.81,0,0,1,232.27,215.94Z"/><path class="cls-6" d="M219.8,209a8.44,8.44,0,0,1-6.59,2.65H201v4.41l-7.56-7,7.56-7v3.65h12.24c1.53,0,2-.49,2.17-.66a4.07,4.07,0,0,0,.7-2.68l0-.11V178.85h6v23.08C222,202.86,222.18,206.38,219.8,209Z"/><path class="cls-7" d="M217.87,145.14A15.85,15.85,0,1,0,240,148.39,15.85,15.85,0,0,0,217.87,145.14Z"/><path class="cls-7" d="M219.39,137.5a21.81,21.81,0,0,0-3.16,1.52l-.09-.1-4.08-3.39-4.15,3.54,2.67,4.76a21.69,21.69,0,0,0-2.05,2.86l-.1,0-5.21-1-1.94,5.09,4.62,2.89a21.57,21.57,0,0,0-.41,3.5l-.1,0-5,1.62.75,5.4,5.44.33a12.18,12.18,0,0,0,1.37,3.31l-.08.06-3.59,3.71,3.26,4.37,4.84-2.3a21.71,21.71,0,0,0,3.63,2.84l-.05.1-1.1,5.2,5.07,2,3-4.58a21.24,21.24,0,0,0,5.28.47l0,.12,2,4.93,5.35-1.1-.06-5.48h0a22.28,22.28,0,0,0,3.15-1.53l.09.1,4.09,3.39,4.15-3.54-2.68-4.77,0,0a21.36,21.36,0,0,0,2-2.85l.15.06,5.22,1,1.93-5.1-4.64-2.9-.06,0a22.22,22.22,0,0,0,.4-3.46l.19,0,5.06-1.63-.75-5.4-5.47-.31-.3-.3a15.58,15.58,0,0,0-1.55-3.52l.17-.13,3.58-2.83L246.85,140l-4.67,2.16.08-.06a22,22,0,0,0-3.53-2.83l.1-.21,1.11-5.21-5.06-2-3,4.6,0,0a22.48,22.48,0,0,0-5.24-.48l0-.17-2-4.93-5.34,1.1,0,5.47ZM241.87,147a18.13,18.13,0,1,1-25.37-3.72A18.12,18.12,0,0,1,241.87,147Z"/><path class="cls-9" d="M236.58,162.47a2.86,2.86,0,0,1-2.85,2.85H221a2.86,2.86,0,0,1-2.86-2.85v-5.71a2.86,2.86,0,0,1,2.86-2.85h12.69a2.86,2.86,0,0,1,2.85,2.85Z"/><path class="cls-9" d="M230.79,153.75a3.41,3.41,0,0,0-6.82,0h.55a2.87,2.87,0,0,1,5.73,0Z"/><path class="cls-7" d="M236.58,156.83v-.3l-8.32,2.84v-.45a.29.29,0,0,0-.28-.28h-1.19a.3.3,0,0,0-.29.28v.45l-8.3-2.86,0,.31,8.32,2.82v.48a.3.3,0,0,0,.29.28H228a.29.29,0,0,0,.28-.28v-.48Zm-8.6,3a.3.3,0,0,1-.28.29h-.63a.3.3,0,0,1-.28-.29v-.62a.3.3,0,0,1,.28-.29h.63a.3.3,0,0,1,.28.29Z"/><path class="cls-7" d="M68.31,211.52a9,9,0,0,0-2.82,7v13h-4.7l7.47,8,7.47-8H71.85v-13c0-1.63.52-2.14.7-2.31a4.34,4.34,0,0,1,2.85-.75l.12,0H115v-6.36H75.85C74.86,209.16,71.11,209,68.31,211.52Z"/><polygon class="cls-8" points="41.84 25.41 34.44 17.42 27.03 25.41 31.22 25.41 31.22 80.7 37.52 80.7 37.52 25.41 41.84 25.41"/><polygon class="cls-4" points="47.7 173.36 40.3 165.37 32.89 173.36 37.08 173.36 37.08 240.13 43.38 240.13 43.38 173.36 47.7 173.36"/><polygon class="cls-7" points="59.77 47.67 52.37 39.68 44.95 47.67 49.15 47.67 49.15 82.15 55.45 82.15 55.45 47.67 59.77 47.67"/><path class="cls-5" d="M135.29,191.3a19.66,19.66,0,1,0,24,14.1A19.66,19.66,0,0,0,135.29,191.3Z"/><path class="cls-5" d="M140.61,183.23a26.37,26.37,0,0,0-4.33.27l-.06-.16-3.11-5.8-6.42,2.13.84,6.72a25.52,25.52,0,0,0-3.69,2.33l-.1-.09L118.23,185l-4.61,5,4,5.47a26.94,26.94,0,0,0-2.11,3.83l-.12,0-6.56-.49-1.66,6.56,6.09,2.92a15.31,15.31,0,0,0,0,4.44l-.12,0-5.86,2.59,1.7,6.55,6.64-.38a26.55,26.55,0,0,0,2.85,5l-.1.09-3.7,5.46,4.87,4.69,5.54-3.87a27,27,0,0,0,5.85,3l0,.15-.07,6.58,6.66,1.23,2.49-6.32h0a25.33,25.33,0,0,0,4.33-.28l.06.16,3.11,5.81,6.42-2.13-.85-6.74,0,0a26.38,26.38,0,0,0,3.66-2.32l.15.14,5.52,3.59,4.61-5-4-5.5-.06,0a28.36,28.36,0,0,0,2.07-3.79l.24.06,6.56.5,1.66-6.56-6.14-2.91-.19-.48a18.59,18.59,0,0,0-.15-4.78l.26-.06,5.43-1.58L171,199l-6.37.3.12,0a27.56,27.56,0,0,0-2.73-4.91l.21-.19,3.71-5.46L161.06,184l-5.56,3.89,0,0a27.25,27.25,0,0,0-5.8-3l0-.21.07-6.58-6.66-1.23-2.5,6.31ZM162,204.69a22.49,22.49,0,1,1-27.42-16.13A22.48,22.48,0,0,1,162,204.69Z"/><path class="cls-9" d="M131.9,203.11l-4.18,0a2.08,2.08,0,0,0-2.12,1.72V211a.69.69,0,1,0,1.38,0v-5.05h.59v4.84a1.15,1.15,0,0,0,0,.19v8.64a1,1,0,1,0,1.92,0V212H130v7.62a1,1,0,1,0,1.92,0V205.92h.52V211a.74.74,0,0,0,1.47,0v-6.24A2,2,0,0,0,131.9,203.11Z"/><path class="cls-9" d="M129.75,202.79a1.66,1.66,0,1,0-1.66-1.66A1.65,1.65,0,0,0,129.75,202.79Z"/><path class="cls-9" d="M142.94,203.11l-4.18,0a2.08,2.08,0,0,0-2.12,1.72V211a.69.69,0,0,0,1.38,0v-5.05h.59v4.84a1.11,1.11,0,0,0,0,.19v8.64a1,1,0,0,0,1,1,1,1,0,0,0,1-1V212H141v7.62a1,1,0,1,0,1.92,0V205.92h.52V211a.74.74,0,0,0,1.48,0v-6.24A2,2,0,0,0,142.94,203.11Z"/><path class="cls-9" d="M140.79,202.79a1.66,1.66,0,1,0-1.66-1.66A1.66,1.66,0,0,0,140.79,202.79Z"/><path class="cls-9" d="M152.77,203.11l-4.18,0a2.09,2.09,0,0,0-2.12,1.72V211a.69.69,0,0,0,1.38,0v-5.05h.59v4.84a1.11,1.11,0,0,0,0,.19v8.64a1,1,0,1,0,1.92,0V212h.47v7.62a1,1,0,1,0,1.92,0V205.92h.52V211a.74.74,0,0,0,1.48,0v-6.24A2,2,0,0,0,152.77,203.11Z"/><path class="cls-9" d="M150.62,202.79a1.66,1.66,0,1,0-1.66-1.66A1.66,1.66,0,0,0,150.62,202.79Z"/><path class="cls-4" d="M37.37,86.76a19.29,19.29,0,1,0,23.52,13.82A19.28,19.28,0,0,0,37.37,86.76Z"/><path class="cls-4" d="M42.59,78.84a26.44,26.44,0,0,0-4.25.26l-.05-.16-3-5.69-6.31,2.09.83,6.59a26.93,26.93,0,0,0-3.62,2.28l-.09-.08-5.41-3.52-4.53,4.86L20,90.83a27,27,0,0,0-2.08,3.76l-.11,0-6.44-.49-1.63,6.44,6,2.87a15,15,0,0,0,0,4.35l-.11,0-5.75,2.54,1.67,6.42,6.52-.37a26.07,26.07,0,0,0,2.78,4.86l-.09.09-3.63,5.36,4.78,4.6,5.44-3.8a27.32,27.32,0,0,0,5.74,2.95l0,.14L33,137l6.53,1.2L42,132h0a26.47,26.47,0,0,0,4.25-.28l.06.16,3.05,5.69,6.3-2.08-.83-6.61,0-.05a25.35,25.35,0,0,0,3.59-2.27l.15.13,5.41,3.53,4.52-4.86-3.9-5.4-.06,0a27.2,27.2,0,0,0,2-3.71l.24.06,6.44.48,1.62-6.43-6-2.86-.19-.47a19.24,19.24,0,0,0-.14-4.69l.25-.06,5.33-1.55-1.67-6.43-6.26.3.13,0a26.78,26.78,0,0,0-2.69-4.81l.22-.19,3.63-5.36-4.77-4.61L57.2,83.39l0,0a26.26,26.26,0,0,0-5.69-3l0-.21.07-6.45-6.53-1.21-2.45,6.2Zm21,21a22.07,22.07,0,1,1-26.9-15.83A22.07,22.07,0,0,1,63.58,99.89Z"/><path class="cls-9" d="M34.58,112.86h-.45c-.71,0-1.53.26-1.53,1v.45c0,.71.82,1.19,1.53,1.19h.45A1.32,1.32,0,0,0,36,114.28v-.45C36,113.12,35.29,112.86,34.58,112.86Z"/><path class="cls-9" d="M37.9,109.73h-.44c-.72,0-1.21.36-1.21,1.07v3.48a1.14,1.14,0,0,0,1.21,1.19h.44a1.37,1.37,0,0,0,1.47-1.19V110.8C39.37,110.09,38.62,109.73,37.9,109.73Z"/><path class="cls-9" d="M41.59,107.13h-.34a1.46,1.46,0,0,0-1.36,1.41v5.69a1.31,1.31,0,0,0,1.36,1.24h.34a1.15,1.15,0,0,0,1.17-1.24v-5.69A1.31,1.31,0,0,0,41.59,107.13Z"/><rect class="cls-9" x="43.28" y="104.26" width="2.87" height="11.21" rx="1.29"/><path class="cls-9" d="M48.45,101.13h-.26a1.32,1.32,0,0,0-1.26,1.36v11.64a1.31,1.31,0,0,0,1.26,1.34h.26a1.39,1.39,0,0,0,1.35-1.34V102.49A1.41,1.41,0,0,0,48.45,101.13Z"/><path class="cls-9" d="M49.61,93.29a1,1,0,0,0-1.29-.49l-4.45,1.72a1,1,0,0,0,.37,2,.92.92,0,0,0,.36-.07l1.69-.65a32.2,32.2,0,0,1-13.36,10.28,1,1,0,0,0,.35,2,1.39,1.39,0,0,0,.4-.06A35.44,35.44,0,0,0,47.45,97.75v1a1.19,1.19,0,0,0,2.35,0V93.94h0A1.23,1.23,0,0,0,49.61,93.29Z"/><path class="cls-8" d="M37.2,244.68a17,17,0,1,0,20.44,12.56A17,17,0,0,0,37.2,244.68Z"/><path class="cls-8" d="M41.93,237.81a23.64,23.64,0,0,0-3.75.16l0-.14-2.59-5.05L30,234.5l.61,5.81a23.77,23.77,0,0,0-3.22,1.95l-.08-.07-4.7-3.2-4.06,4.2L21.85,248A23.6,23.6,0,0,0,20,251.25l-.1,0-5.66-.54-1.54,5.63,5.21,2.63a13.51,13.51,0,0,0-.05,3.83l-.1,0-5.1,2.13L14,270.6l5.73-.21a23.33,23.33,0,0,0,2.37,4.31l-.08.08-3.28,4.65,4.12,4.13,4.85-3.25a23.55,23.55,0,0,0,5,2.69l0,.12-.17,5.68L38.22,290l2.26-5.4h0a23.65,23.65,0,0,0,3.75-.17l0,.14,2.59,5.06,5.58-1.73L51.82,282l0,0a24,24,0,0,0,3.2-1.95l.12.12,4.7,3.2,4.06-4.2-3.34-4.81,0,0a23.5,23.5,0,0,0,1.84-3.24l.21.06,5.66.54,1.54-5.63-5.25-2.61-.16-.42a16.38,16.38,0,0,0,0-4.13l.22-.05,4.71-1.27-1.36-5.68-5.5.15.11,0a23.65,23.65,0,0,0-2.28-4.28l.19-.16,3.29-4.65-4.12-4.13-4.86,3.27,0,0a23.93,23.93,0,0,0-4.95-2.68l0-.19.16-5.67-5.72-1.17-2.26,5.4ZM60,256.67a19.41,19.41,0,1,1-23.38-14.36A19.41,19.41,0,0,1,60,256.67Z"/><path class="cls-9" d="M44.75,264v-2H43.1a6.63,6.63,0,0,0-1.28-3L43,257.8l-1.43-1.41-1.16,1.16a6.63,6.63,0,0,0-3-1.25v-1.64h-2v1.64a6.7,6.7,0,0,0-3.06,1.25l-1.14-1.14-1.42,1.42L30.88,259A6.83,6.83,0,0,0,29.62,262H28v2h1.61a6.93,6.93,0,0,0,1.27,3.07l-1.12,1.14,1.42,1.41,1.13-1.14a6.83,6.83,0,0,0,3.07,1.25v1.62h2v-1.63a6.76,6.76,0,0,0,3.05-1.29l1.15,1.16L43,268.21l-1.16-1.16A6.71,6.71,0,0,0,43.1,264Zm-3.45-1a4.94,4.94,0,1,1-4.94-4.95A4.94,4.94,0,0,1,41.3,263"/><path class="cls-9" d="M52.88,266.05v-1h-.82a3.44,3.44,0,0,0-.64-1.52L52,263l-.71-.71-.58.58a3.67,3.67,0,0,0-1.52-.63v-.81h-1v.81a3.66,3.66,0,0,0-1.54.64l-.57-.57-.7.71.56.56a3.61,3.61,0,0,0-.63,1.55h-.8v1h.8a3.52,3.52,0,0,0,.64,1.53l-.56.56.71.7.56-.56a3.49,3.49,0,0,0,1.55.63v.81h1v-.82a3.44,3.44,0,0,0,1.52-.64l.57.56.71-.7-.58-.57a3.4,3.4,0,0,0,.62-1.53Zm-1.72-.48a2.47,2.47,0,1,1-2.46-2.47,2.46,2.46,0,0,1,2.46,2.47"/><path class="cls-9" d="M52.88,255.78v-1.32H51.79a4.32,4.32,0,0,0-.84-2l.78-.76-.94-.93-.76.77a4.4,4.4,0,0,0-2-.83V249.6H46.69v1.09a4.52,4.52,0,0,0-2,.83l-.75-.74-.94.92.76.76a4.17,4.17,0,0,0-.83,2H41.84v1.33h1.07a4.36,4.36,0,0,0,.84,2l-.75.74.94.94.75-.75a4.58,4.58,0,0,0,2,.83v1.06H48v-1.07a4.53,4.53,0,0,0,2-.86l.76.77.93-.94-.77-.76a4.42,4.42,0,0,0,.83-2Zm-2.27-.65a3.26,3.26,0,1,1-3.27-3.26,3.27,3.27,0,0,1,3.27,3.26"/></g></g></g></svg>