<svg xmlns="http://www.w3.org/2000/svg" xmlns:xlink="http://www.w3.org/1999/xlink" viewBox="0 0 384.19 348.12"><defs><style>.cls-1{fill:none;}.cls-2{fill:#f9a198;}.cls-3{clip-path:url(#clip-path);}.cls-4{fill:#fff;}.cls-5{fill:#ffcab3;}.cls-6{fill:#0f2a55;}.cls-7{fill:#b1b0bd;}.cls-8{fill:#bec7ce;}.cls-9{fill:#64617a;}.cls-10{fill:#e34525;}.cls-11{fill:#72a684;}.cls-12{fill:#3d3959;}.cls-13{fill:#b6232f;}.cls-14{fill:#567d63;}.cls-15{fill:#a3a3a3;}.cls-16{fill:#f26835;}.cls-17{fill:#1d1d1b;}.cls-18{fill:#f29a2e;}.cls-19{fill:#020202;}.cls-20{fill:#aacab5;}</style><clipPath id="clip-path"><path class="cls-1" d="M0,0H384.19a0,0,0,0,1,0,0V221.36A125.14,125.14,0,0,1,259,346.5H0a0,0,0,0,1,0,0V0A0,0,0,0,1,0,0Z"/></clipPath></defs><g id="Capa_2" data-name="Capa 2"><g id="Capa_1-2" data-name="Capa 1"><path class="cls-2" d="M0,0H384.19a0,0,0,0,1,0,0V221.36A125.14,125.14,0,0,1,259,346.5H0a0,0,0,0,1,0,0V0A0,0,0,0,1,0,0Z"/><g class="cls-3"><path class="cls-4" d="M186.88,6.78A125.42,125.42,0,0,0,61.61,132.05,104.68,104.68,0,0,0,166.16,236.62a87.52,87.52,0,0,0,46.55-13.35C210,257.49,182,286.71,150.88,298.55a21.65,21.65,0,0,0,3.64,43A183.58,183.58,0,0,0,338.09,158C338.09,74.6,270.26,6.78,186.88,6.78Z"/><path class="cls-5" d="M188.46,340H119.19v-8.15c0-4.24,3.43-7.21,7.68-7.21h69.27v8.14C196.14,337.05,192.7,340,188.46,340Z"/><path class="cls-6" d="M188.46,340.31H119.19a.29.29,0,0,1-.29-.29v-8.15c0-4.28,3.42-7.5,8-7.5h69.27a.29.29,0,0,1,.29.29v8.14C196.43,337.08,193,340.31,188.46,340.31Zm-69-.58h69c4.22,0,7.39-3,7.39-6.93V325h-69c-4.22,0-7.39,3-7.39,6.92Z"/><rect class="cls-7" x="288.38" y="204.73" width="3.85" height="3.94"/><rect class="cls-7" x="307.02" y="200.97" width="4.02" height="7.7"/><rect class="cls-8" x="288.38" y="208.67" width="22.65" height="7.7"/><path class="cls-6" d="M311,216.66H288.38a.29.29,0,0,1-.29-.29V204.73a.29.29,0,0,1,.29-.29h2.11a.29.29,0,1,1,0,.58h-1.82v11.06h22.08V201.26h-2a.29.29,0,0,1,0-.58H311a.29.29,0,0,1,.29.29v15.4A.29.29,0,0,1,311,216.66Zm-4-7.7h-1.54a.29.29,0,1,1,0-.58h1.25V195.32h-14.2v13.06h1.39a.29.29,0,1,1,0,.58h-1.68a.29.29,0,0,1-.29-.29V195a.29.29,0,0,1,.29-.29H307a.29.29,0,0,1,.29.29v13.64A.29.29,0,0,1,307,209Z"/><rect class="cls-9" x="293.91" y="196.75" width="5.32" height="5.32"/><path class="cls-6" d="M299.23,202.35h-5.32a.29.29,0,0,1-.29-.29v-5.31a.29.29,0,0,1,.29-.29h5.32a.29.29,0,0,1,.29.29v5.31A.29.29,0,0,1,299.23,202.35Zm-5-.58h4.74V197H294.2Z"/><path class="cls-10" d="M287.91,241.63H276.27V230h11.64Z"/><path class="cls-6" d="M287.91,241.92H276.27a.29.29,0,0,1-.29-.29V230a.29.29,0,0,1,.29-.29h11.64a.29.29,0,0,1,.29.29v11.64A.29.29,0,0,1,287.91,241.92Zm-11.35-.58h11.06V230.28H276.56Z"/><path class="cls-11" d="M305.67,241.63H294V230h11.64Z"/><path class="cls-6" d="M305.67,241.92H294a.29.29,0,0,1-.29-.29V230a.29.29,0,0,1,.29-.29h11.64a.29.29,0,0,1,.29.29v11.64A.29.29,0,0,1,305.67,241.92Zm-11.35-.58h11.06V230.28H294.32Z"/><path class="cls-10" d="M323.13,241.63H311.49V230h11.64Z"/><path class="cls-6" d="M323.13,241.92H311.49a.29.29,0,0,1-.29-.29V230a.29.29,0,0,1,.29-.29h11.64a.29.29,0,0,1,.29.29v11.64A.29.29,0,0,1,323.13,241.92Zm-11.35-.58h11.06V230.28H311.78Z"/><path class="cls-6" d="M299.7,228a.29.29,0,0,1-.29-.29v-9a.29.29,0,1,1,.58,0v9A.29.29,0,0,1,299.7,228Z"/><path class="cls-6" d="M317.31,224.71H282.09a.29.29,0,1,1,0-.58h35.22a.29.29,0,0,1,0,.58Z"/><path class="cls-6" d="M317.31,228a.29.29,0,0,1-.29-.29v-3.25a.29.29,0,1,1,.58,0v3.25A.29.29,0,0,1,317.31,228Z"/><path class="cls-6" d="M282.09,228a.29.29,0,0,1-.29-.29v-3.25a.29.29,0,1,1,.58,0v3.25A.29.29,0,0,1,282.09,228Z"/><path class="cls-6" d="M305.67,241.92a.32.32,0,0,1-.21-.08L293.82,230.2a.3.3,0,0,1,0-.41.28.28,0,0,1,.41,0l11.64,11.64a.28.28,0,0,1,0,.41A.3.3,0,0,1,305.67,241.92Z"/><path class="cls-6" d="M294,241.92a.34.34,0,0,1-.21-.08.3.3,0,0,1,0-.41l11.64-11.64a.29.29,0,0,1,.41.41l-11.64,11.64A.3.3,0,0,1,294,241.92Z"/><path class="cls-6" d="M311,209H288.38a.29.29,0,1,1,0-.58H311a.29.29,0,1,1,0,.58Z"/><path class="cls-6" d="M292.24,205h-1.75a.29.29,0,1,1,0-.58h1.75a.29.29,0,1,1,0,.58Z"/><path class="cls-6" d="M308.76,201.26H307a.29.29,0,0,1,0-.58h1.74a.29.29,0,0,1,0,.58Z"/><path class="cls-6" d="M305.49,197.6h-5a.29.29,0,1,1,0-.58h5a.29.29,0,1,1,0,.58Z"/><path class="cls-6" d="M305.49,201.37h-5a.29.29,0,1,1,0-.58h5a.29.29,0,0,1,0,.58Z"/><path class="cls-6" d="M305.49,205H293.91a.29.29,0,1,1,0-.58h11.58a.29.29,0,1,1,0,.58Z"/><polygon class="cls-7" points="155.22 228.6 138.42 228.65 138.42 222.28 139.44 218.8 141.68 216.24 143.49 215.23 146 214.66 150.57 214.65 151.46 216.79 147.7 221.08 155.22 228.6"/><polygon class="cls-12" points="173.69 228.65 155.22 228.6 147.7 221.08 151.46 216.79 154 223.67 155.18 219.33 153.99 218.14 156.07 216.06 158.15 218.14 156.96 219.33 158.15 223.4 161.76 214.65 167.49 214.87 169.34 215.56 171.26 216.96 172.63 218.74 173.51 221.04 173.69 222.73 173.69 228.65"/><path class="cls-11" d="M156.07,186.91a13.67,13.67,0,1,0,13.66,13.67A13.68,13.68,0,0,0,156.07,186.91Z"/><path class="cls-6" d="M156.07,214.53a14,14,0,1,1,14-13.95A14,14,0,0,1,156.07,214.53Zm0-27.33a13.38,13.38,0,1,0,13.37,13.38A13.39,13.39,0,0,0,156.07,187.2Z"/><path class="cls-6" d="M173.69,228.94H138.42a.29.29,0,0,1-.29-.29v-5.92a8.38,8.38,0,0,1,8.37-8.37h4.07a.29.29,0,0,1,.26.17l.9,2.15h0l2.22,6,.89-3.31-1.07-1.07a.3.3,0,0,1-.08-.2.32.32,0,0,1,.08-.21l2.08-2.08a.3.3,0,0,1,.41,0l2.08,2.08a.29.29,0,0,1,.09.21.27.27,0,0,1-.09.2l-1.07,1.07.88,3.22,3.34-8.1a.29.29,0,0,1,.26-.17h3.84a8.38,8.38,0,0,1,8.38,8.37v5.92A.29.29,0,0,1,173.69,228.94Zm-18.3-.58h18v-5.63a7.8,7.8,0,0,0-7.8-7.79H162l-3.59,8.69a.29.29,0,0,1-.55,0l-1.14-4.2a.29.29,0,0,1,.07-.28l1-1-1.67-1.67-1.67,1.67,1,1a.27.27,0,0,1,.08.28l-1.18,4.34a.3.3,0,0,1-.27.22.31.31,0,0,1-.29-.19l-2.36-6.42-3.26,3.71Zm-16.68,0h15.86l-7.07-7.08a.29.29,0,0,1,0-.4l3.65-4.14-.76-1.8h-3.86a7.8,7.8,0,0,0-7.8,7.79Z"/><path class="cls-6" d="M156.07,202a.29.29,0,0,1-.29-.29v-6.8a.29.29,0,1,1,.58,0v6.8A.29.29,0,0,1,156.07,202Z"/><path class="cls-6" d="M156.07,202h0l-4.23-.74a.3.3,0,0,1-.24-.34.29.29,0,0,1,.34-.23l4.23.74a.27.27,0,0,1,.23.33A.28.28,0,0,1,156.07,202Z"/><path class="cls-6" d="M156.07,193.56a.29.29,0,0,1-.29-.29V191a.29.29,0,1,1,.58,0v2.29A.29.29,0,0,1,156.07,193.56Z"/><path class="cls-6" d="M152.41,194.54a.31.31,0,0,1-.25-.15l-1.14-2a.29.29,0,0,1,.1-.4.29.29,0,0,1,.4.11l1.14,2a.29.29,0,0,1-.1.4A.42.42,0,0,1,152.41,194.54Z"/><path class="cls-6" d="M149.74,197.21a.28.28,0,0,1-.15,0l-2-1.14a.29.29,0,0,1-.11-.4.29.29,0,0,1,.4-.1l2,1.14a.29.29,0,0,1,.11.4A.3.3,0,0,1,149.74,197.21Z"/><path class="cls-6" d="M148.76,200.87h-2.29a.29.29,0,0,1,0-.58h2.29a.29.29,0,0,1,0,.58Z"/><path class="cls-6" d="M147.75,205.67a.29.29,0,0,1-.25-.15.28.28,0,0,1,.11-.39l2-1.15a.29.29,0,0,1,.4.11.28.28,0,0,1-.11.39l-2,1.15A.42.42,0,0,1,147.75,205.67Z"/><path class="cls-6" d="M151.27,209.18a.29.29,0,0,1-.25-.43l1.14-2a.3.3,0,0,1,.4-.1.28.28,0,0,1,.1.39l-1.14,2A.29.29,0,0,1,151.27,209.18Z"/><path class="cls-6" d="M156.07,210.47a.29.29,0,0,1-.29-.29v-2.29a.29.29,0,0,1,.29-.29h0a.29.29,0,0,1,.29.29v2.29a.29.29,0,0,1-.29.29Z"/><path class="cls-6" d="M160.87,209.18a.29.29,0,0,1-.25-.14l-1.15-2a.29.29,0,0,1,.5-.29l1.15,2a.29.29,0,0,1-.1.39A.28.28,0,0,1,160.87,209.18Z"/><path class="cls-6" d="M164.38,205.67a.33.33,0,0,1-.14,0l-2-1.15a.29.29,0,0,1-.1-.39.29.29,0,0,1,.39-.11l2,1.15a.28.28,0,0,1,.11.39A.32.32,0,0,1,164.38,205.67Z"/><path class="cls-6" d="M163.38,200.87a.29.29,0,0,1,0-.58h2.29a.29.29,0,0,1,0,.58Z"/><path class="cls-6" d="M162.4,197.21a.29.29,0,0,1-.25-.14.3.3,0,0,1,.1-.4l2-1.15a.28.28,0,0,1,.39.11.29.29,0,0,1-.1.4l-2,1.14A.23.23,0,0,1,162.4,197.21Z"/><path class="cls-6" d="M159.72,194.54a.33.33,0,0,1-.14,0,.29.29,0,0,1-.11-.4l1.15-2A.28.28,0,0,1,161,192a.29.29,0,0,1,.11.4l-1.15,2A.29.29,0,0,1,159.72,194.54Z"/><path class="cls-5" d="M284.84,290.94l0-9.16h0l0-7.37h0l-.05-15.89v-.67a2.82,2.82,0,0,0-2.82-2.81h0a2.79,2.79,0,0,0-2.81,2.75h0v-2a2.82,2.82,0,0,0-2.82-2.82h0a3,3,0,0,0-2.81,2.82h0v-1.83a2.82,2.82,0,0,0-2.82-2.82h0A2.83,2.83,0,0,0,267.8,254v1.81h0A2.93,2.93,0,0,0,265,253h0a2.82,2.82,0,0,0-2.81,2.83l0,4.78a2.81,2.81,0,0,0-2.8,2.83l0,6.66c0,1.55,1.24,2.42,2.82,3.58v4.78s0,0,0,.07v3.34h0l0,9.16Z"/><path class="cls-6" d="M262.27,291.3A.29.29,0,0,1,262,291l0-9.11v0l0-8.05c-1.58-1.15-2.82-2.06-2.82-3.72l0-6.66a3.12,3.12,0,0,1,2.79-3.11v-4.5a3.11,3.11,0,0,1,3.1-3.12h0a3.2,3.2,0,0,1,2.53,1.37V254a3.11,3.11,0,1,1,6.22,0v.12a3.23,3.23,0,0,1,2.53-1.4,3.11,3.11,0,0,1,3.12,3.1V256a3.06,3.06,0,0,1,2.53-1.29,3.12,3.12,0,0,1,3.12,3.1l.05,16.5a.13.13,0,0,1,0,.06l0,7.36v.06l0,9.11a.29.29,0,0,1-.29.29h0a.29.29,0,0,1-.29-.29l0-9.16v-.06l0-7.25a.13.13,0,0,1,0-.06l-.05-16.56a2.53,2.53,0,0,0-2.53-2.52,2.49,2.49,0,0,0-2.53,2.47.3.3,0,0,1-.29.28.3.3,0,0,1-.3-.29v-2a2.53,2.53,0,0,0-2.53-2.53,2.69,2.69,0,0,0-2.53,2.53.29.29,0,0,1-.29.29h0a.29.29,0,0,1-.29-.29h0v-1.83a2.53,2.53,0,1,0-5.06,0v1.82a.28.28,0,0,1-.08.2.3.3,0,0,1-.5-.2,2.64,2.64,0,0,0-2.52-2.49h0a2.54,2.54,0,0,0-2.53,2.54l0,4.78a.3.3,0,0,1-.29.29,2.52,2.52,0,0,0-2.51,2.53l0,6.67c0,1.37,1.09,2.16,2.59,3.27l.11.07a.31.31,0,0,1,.12.24l0,8.13v.06l0,9.16a.28.28,0,0,1-.28.29Z"/><path class="cls-6" d="M262.18,274a.29.29,0,0,1-.29-.29V260.59a.29.29,0,1,1,.58,0v13.07A.29.29,0,0,1,262.18,274Z"/><path class="cls-10" d="M285.66,291h-24.2l0,7.37h24.2Zm-20.16,5.55a1.88,1.88,0,1,1,1.87-1.89A1.87,1.87,0,0,1,265.5,296.53Z"/><path class="cls-6" d="M285.68,298.64h-24.2a.29.29,0,0,1-.29-.29l0-7.37a.27.27,0,0,1,.29-.29h24.2a.29.29,0,0,1,.29.29l0,7.37a.3.3,0,0,1-.08.2A.29.29,0,0,1,285.68,298.64Zm-23.91-.58h23.62l0-6.79H261.75Zm3.73-1.24a2.17,2.17,0,0,1,0-4.34h0a2.17,2.17,0,0,1,0,4.34Zm0-4.05v.29a1.59,1.59,0,1,0,1.59,1.58,1.59,1.59,0,0,0-1.59-1.58Z"/><polygon class="cls-11" points="284.59 281.83 279.1 281.83 277.67 283.13 275.96 284.04 273.54 284.48 271.48 284.17 269.35 283.07 268.08 281.83 262.46 281.83 262.46 274.47 267.35 274.47 268.58 272.74 270.9 271.17 273.67 270.65 276.31 271.24 278.75 273.05 279.82 274.47 284.59 274.47 284.59 281.83"/><path class="cls-6" d="M262.22,274.76a.29.29,0,1,1,0-.58h4.95a7.18,7.18,0,0,1,6.33-3.81h0a7.19,7.19,0,0,1,6.33,3.77h4.94a.29.29,0,1,1,0,.58h-5.11a.3.3,0,0,1-.26-.15,6.61,6.61,0,0,0-5.9-3.62h0a6.61,6.61,0,0,0-5.89,3.65.29.29,0,0,1-.26.16Z"/><path class="cls-6" d="M273.53,284.77a7.15,7.15,0,0,1-5.58-2.65h-5.7a.29.29,0,0,1,0-.58h5.83a.28.28,0,0,1,.23.11,6.58,6.58,0,0,0,5.22,2.54h0a6.58,6.58,0,0,0,5.22-2.57.29.29,0,0,1,.23-.12h5.83a.29.29,0,0,1,0,.58h-5.69a7.14,7.14,0,0,1-5.58,2.69Z"/><path class="cls-6" d="M267.8,268.07a.29.29,0,0,1-.29-.29v-6.09a.29.29,0,0,1,.58,0v6.09A.29.29,0,0,1,267.8,268.07Z"/><path class="cls-6" d="M273.51,268.07a.29.29,0,0,1-.29-.29v-6.09a.29.29,0,0,1,.58,0v6.09A.29.29,0,0,1,273.51,268.07Z"/><path class="cls-6" d="M279.07,268.07a.29.29,0,0,1-.29-.29v-6.09a.29.29,0,0,1,.58,0v6.09A.29.29,0,0,1,279.07,268.07Z"/><rect class="cls-13" x="273.47" y="290.98" width="12.21" height="7.37"/><path class="cls-6" d="M285.68,298.64H273.47a.29.29,0,1,1,0-.58h11.92v-6.79H273.47a.29.29,0,1,1,0-.58h12.21a.29.29,0,0,1,.29.29v7.37A.29.29,0,0,1,285.68,298.64Z"/><path class="cls-14" d="M280.49,277.57a6.92,6.92,0,1,1-6.92-6.92A6.91,6.91,0,0,1,280.49,277.57Z"/><path class="cls-6" d="M273.57,284.77a7.21,7.21,0,1,1,7.21-7.2A7.21,7.21,0,0,1,273.57,284.77Zm0-13.83a6.63,6.63,0,1,0,6.63,6.63A6.63,6.63,0,0,0,273.57,270.94Z"/><path class="cls-4" d="M278.69,277.55a5.17,5.17,0,1,1-5.18-5.15A5.17,5.17,0,0,1,278.69,277.55Z"/><path class="cls-6" d="M273.52,283a5.46,5.46,0,1,1,5.46-5.47,5.46,5.46,0,0,1-5.46,5.47Zm0-10.33a4.88,4.88,0,0,0,0,9.75v.29l0-.29a4.88,4.88,0,0,0,0-9.75Z"/><path class="cls-6" d="M274.41,277.56a.94.94,0,1,1-.94-.94A.94.94,0,0,1,274.41,277.56Z"/><path class="cls-6" d="M273.47,278.79a1.23,1.23,0,1,1,1.23-1.23A1.23,1.23,0,0,1,273.47,278.79Zm0-1.88a.65.65,0,1,0,.65.65A.65.65,0,0,0,273.47,276.91Z"/><path class="cls-6" d="M273.47,276.91a.29.29,0,0,1-.29-.29v-3a.29.29,0,0,1,.58,0v3A.29.29,0,0,1,273.47,276.91Z"/><path class="cls-6" d="M276.66,277.85h-2.25a.29.29,0,0,1,0-.58h2.25a.29.29,0,1,1,0,.58Z"/><rect class="cls-9" x="190.44" y="293.65" width="12.05" height="2.11"/><rect class="cls-9" x="190.44" y="307.91" width="12.05" height="2.11"/><rect class="cls-8" x="174.03" y="289.37" width="10.66" height="10.66"/><path class="cls-6" d="M184.69,300.33H174a.29.29,0,0,1-.29-.29V289.37a.29.29,0,0,1,.29-.29h10.66a.29.29,0,0,1,.29.29V300A.29.29,0,0,1,184.69,300.33Zm-10.37-.58H184.4V289.66H174.32Z"/><rect class="cls-8" x="174.03" y="303.64" width="10.66" height="10.66"/><path class="cls-6" d="M184.69,314.59H174a.29.29,0,0,1-.29-.29V303.64a.29.29,0,0,1,.29-.29h10.66a.29.29,0,0,1,.29.29V314.3A.29.29,0,0,1,184.69,314.59ZM174.32,314H184.4V303.93H174.32Z"/><path class="cls-6" d="M178.13,314.58H174a.29.29,0,0,1-.29-.29v-4.1a.29.29,0,0,1,.58,0V314h3.81a.29.29,0,0,1,0,.58Z"/><path class="cls-6" d="M184.69,314.58h-6.56a.29.29,0,1,1,0-.58h6.27v-3.83a.29.29,0,0,1,.58,0v4.12A.29.29,0,0,1,184.69,314.58Z"/><path class="cls-6" d="M174,307a.29.29,0,0,1-.29-.29v-3.1a.29.29,0,0,1,.29-.29h10.29a.29.29,0,1,1,0,.58h-10v2.81A.29.29,0,0,1,174,307Z"/><path class="cls-6" d="M178.13,300.33H174a.29.29,0,0,1-.29-.29v-4.1a.29.29,0,0,1,.58,0v3.81h3.81a.29.29,0,0,1,0,.58Z"/><path class="cls-6" d="M184.69,300.33h-6.56a.29.29,0,1,1,0-.58h6.27v-3.83a.29.29,0,0,1,.58,0V300A.29.29,0,0,1,184.69,300.33Z"/><path class="cls-6" d="M174,292.76a.29.29,0,0,1-.29-.29v-3.1a.29.29,0,0,1,.29-.29h10.29a.29.29,0,1,1,0,.58h-10v2.81A.29.29,0,0,1,174,292.76Z"/><rect class="cls-13" x="175.99" y="305.12" width="2.44" height="8.85" transform="translate(-166.98 215.97) rotate(-45)"/><rect class="cls-10" x="176.78" y="307.04" width="12.48" height="2.45" transform="translate(-164.35 219.63) rotate(-44.99)"/><rect class="cls-14" x="175.99" y="290.96" width="2.44" height="8.85" transform="translate(-156.96 211.83) rotate(-45)"/><rect class="cls-11" x="176.78" y="292.87" width="12.48" height="2.45" transform="translate(-154.33 215.48) rotate(-44.99)"/><polygon class="cls-4" points="273.45 108.22 281.58 108.22 281.58 136.53 244.36 136.53 244.36 108.22 252.5 108.22 273.45 108.22"/><path class="cls-6" d="M281.59,136.81H244.36a.29.29,0,0,1-.29-.29v-28.3a.29.29,0,0,1,.29-.29h8.14a.29.29,0,1,1,0,.58h-7.85v27.72H281.3V108.51h-7.85a.29.29,0,0,1,0-.58h8.14a.29.29,0,0,1,.29.29v28.3A.29.29,0,0,1,281.59,136.81Z"/><rect class="cls-10" x="249.07" y="127.36" width="5.06" height="5.06"/><path class="cls-6" d="M254.13,132.7h-5.06a.29.29,0,0,1-.29-.29v-5a.29.29,0,0,1,.29-.29h5.06a.29.29,0,0,1,.29.29v5A.29.29,0,0,1,254.13,132.7Zm-4.77-.58h4.48v-4.47h-4.48Z"/><rect class="cls-11" x="256.66" y="127.36" width="5.06" height="5.06"/><path class="cls-6" d="M261.71,132.7h-5a.29.29,0,0,1-.29-.29v-5a.29.29,0,0,1,.29-.29h5a.29.29,0,0,1,.29.29v5A.29.29,0,0,1,261.71,132.7Zm-4.76-.58h4.47v-4.47H257Z"/><rect class="cls-11" x="264.24" y="127.36" width="5.06" height="5.06"/><path class="cls-6" d="M269.3,132.7h-5.06a.29.29,0,0,1-.29-.29v-5a.29.29,0,0,1,.29-.29h5.06a.29.29,0,0,1,.29.29v5A.29.29,0,0,1,269.3,132.7Zm-4.77-.58H269v-4.47h-4.48Z"/><rect class="cls-10" x="249.07" y="119.84" width="5.06" height="5.06"/><path class="cls-6" d="M254.13,125.19h-5.06a.29.29,0,0,1-.29-.29v-5.06a.29.29,0,0,1,.29-.29h5.06a.29.29,0,0,1,.29.29v5.06A.29.29,0,0,1,254.13,125.19Zm-4.77-.58h4.48v-4.48h-4.48Z"/><rect class="cls-10" x="256.66" y="119.84" width="5.06" height="5.06"/><path class="cls-6" d="M261.71,125.19h-5a.29.29,0,0,1-.29-.29v-5.06a.29.29,0,0,1,.29-.29h5a.29.29,0,0,1,.29.29v5.06A.29.29,0,0,1,261.71,125.19Zm-4.76-.58h4.47v-4.48H257Z"/><rect class="cls-10" x="264.24" y="119.84" width="5.06" height="5.06"/><path class="cls-6" d="M269.3,125.19h-5.06a.29.29,0,0,1-.29-.29v-5.06a.29.29,0,0,1,.29-.29h5.06a.29.29,0,0,1,.29.29v5.06A.29.29,0,0,1,269.3,125.19Zm-4.77-.58H269v-4.48h-4.48Z"/><rect class="cls-10" x="271.83" y="119.84" width="5.06" height="5.06"/><path class="cls-6" d="M276.88,125.19h-5.05a.29.29,0,0,1-.29-.29v-5.06a.29.29,0,0,1,.29-.29h5.05a.29.29,0,0,1,.29.29v5.06A.29.29,0,0,1,276.88,125.19Zm-4.76-.58h4.47v-4.48h-4.47Z"/><polygon class="cls-8" points="276.53 136.53 276.53 131.47 281.58 131.47 276.53 136.53"/><path class="cls-6" d="M276.53,136.81a.29.29,0,0,1-.29-.29v-5.05a.29.29,0,0,1,.29-.29h5.06a.29.29,0,0,1,0,.58h-4.77v4.76A.29.29,0,0,1,276.53,136.81Z"/><path class="cls-6" d="M271.53,108.45H268.7a.29.29,0,0,1,0-.58h2.83a.29.29,0,0,1,0,.58Z"/><rect class="cls-8" x="249.07" y="108.37" width="27.81" height="7.7"/><path class="cls-6" d="M276.88,116.36H249.07a.29.29,0,0,1-.29-.29v-7.7a.29.29,0,1,1,.58,0v7.41h27.23v-7.41a.29.29,0,1,1,.58,0v7.7A.29.29,0,0,1,276.88,116.36Z"/><path class="cls-6" d="M276.53,136.81a.28.28,0,0,1-.21-.08.3.3,0,0,1,0-.41l5.06-5.06a.29.29,0,1,1,.41.41l-5.06,5.06A.26.26,0,0,1,276.53,136.81Z"/><path class="cls-11" d="M272.49,111.63a1,1,0,0,1-1-1v-5a1,1,0,0,1,1-1h0a1,1,0,0,1,1,1v5a1,1,0,0,1-1,1Z"/><path class="cls-6" d="M272.49,111.92a1.25,1.25,0,0,1-1.25-1.25v-5a1.25,1.25,0,1,1,2.5,0v5A1.25,1.25,0,0,1,272.49,111.92Zm0-7a.67.67,0,0,0-.67.67v5a.67.67,0,1,0,1.34,0v-5A.67.67,0,0,0,272.49,105Z"/><path class="cls-11" d="M267.73,111.63a1,1,0,0,1-1-1v-5a1,1,0,0,1,1-1h0a1,1,0,0,1,1,1v5a1,1,0,0,1-1,1Z"/><path class="cls-6" d="M267.73,111.92a1.25,1.25,0,0,1-1.25-1.25v-5a1.26,1.26,0,0,1,2.51,0v5A1.25,1.25,0,0,1,267.73,111.92Zm0-7a.67.67,0,0,0-.67.67v5a.68.68,0,0,0,1.35,0v-5A.67.67,0,0,0,267.73,105Z"/><path class="cls-11" d="M263,111.63a1,1,0,0,1-1-1v-5a1,1,0,0,1,1-1h0a1,1,0,0,1,1,1v5a1,1,0,0,1-1,1Z"/><path class="cls-6" d="M263,111.92a1.26,1.26,0,0,1-1.26-1.25v-5a1.26,1.26,0,0,1,2.51,0v5A1.25,1.25,0,0,1,263,111.92Zm0-7a.68.68,0,0,0-.68.67v5a.68.68,0,0,0,.68.67.67.67,0,0,0,.67-.67v-5A.67.67,0,0,0,263,105Z"/><path class="cls-11" d="M258.22,111.63a1,1,0,0,1-1-1v-5a1,1,0,0,1,1-1h0a1,1,0,0,1,1,1v5a1,1,0,0,1-1,1Z"/><path class="cls-6" d="M258.22,111.92a1.25,1.25,0,0,1-1.25-1.25v-5a1.26,1.26,0,0,1,2.51,0v5A1.26,1.26,0,0,1,258.22,111.92Zm0-7a.67.67,0,0,0-.67.67v5a.67.67,0,0,0,.67.67.68.68,0,0,0,.68-.67v-5A.68.68,0,0,0,258.22,105Z"/><path class="cls-11" d="M253.47,111.63a1,1,0,0,1-1-1v-5a1,1,0,0,1,1-1h0a1,1,0,0,1,1,1v5a1,1,0,0,1-1,1Z"/><path class="cls-6" d="M253.47,111.92a1.26,1.26,0,0,1-1.26-1.25v-5a1.26,1.26,0,0,1,2.51,0v5A1.25,1.25,0,0,1,253.47,111.92Zm0-7a.68.68,0,0,0-.68.67v5a.68.68,0,0,0,.68.67.67.67,0,0,0,.67-.67v-5A.67.67,0,0,0,253.47,105Z"/><path class="cls-6" d="M266.57,108.45h-2.63a.29.29,0,0,1,0-.58h2.63a.29.29,0,0,1,0,.58Z"/><path class="cls-6" d="M262,108.45h-2.82a.29.29,0,0,1,0-.58H262a.29.29,0,0,1,0,.58Z"/><path class="cls-6" d="M257.26,108.45h-2.83a.29.29,0,0,1,0-.58h2.83a.29.29,0,0,1,0,.58Z"/><path class="cls-6" d="M254.13,125.19a.3.3,0,0,1-.21-.09l-5-5a.29.29,0,1,1,.41-.41l5.05,5a.28.28,0,0,1,0,.41A.27.27,0,0,1,254.13,125.19Z"/><path class="cls-6" d="M249.07,125.19a.27.27,0,0,1-.2-.09.28.28,0,0,1,0-.41l5-5a.29.29,0,0,1,.41.41l-5.05,5A.29.29,0,0,1,249.07,125.19Z"/><path class="cls-6" d="M276.88,114H249.07a.29.29,0,0,1,0-.58h27.81a.29.29,0,0,1,0,.58Z"/><path class="cls-7" d="M237,46.5a14.54,14.54,0,0,0-4.33-.23l.13-.32a1.46,1.46,0,0,0-2.35-1.62,17.36,17.36,0,0,0,.56-4.41,17.58,17.58,0,0,0-.62-4.62,1.46,1.46,0,0,0,2.34-1.64l-.14-.32a15,15,0,0,0,4.33-.27,2.79,2.79,0,0,0-2.16-5.15,14.27,14.27,0,0,0-3.22,2.91l-.14-.32a1.46,1.46,0,0,0-1.91-.79,1.48,1.48,0,0,0-.9,1.32,17.59,17.59,0,0,0-6.43-6.36,1.47,1.47,0,0,0,.5-2.82l-.32-.13a14.83,14.83,0,0,0,2.87-3.25A2.8,2.8,0,0,0,220,16.37a15,15,0,0,0-.22,4.33l-.32-.13a1.46,1.46,0,0,0-1.62,2.35,17.82,17.82,0,0,0-4.41-.56,17.58,17.58,0,0,0-4.62.62,1.46,1.46,0,0,0-1.64-2.34l-.32.14a15,15,0,0,0-.27-4.33,2.79,2.79,0,0,0-5.15,2.16,14.49,14.49,0,0,0,2.91,3.23L204,22a1.46,1.46,0,0,0,.54,2.81,17.61,17.61,0,0,0-6.36,6.44,1.47,1.47,0,0,0-2.82-.51l-.13.33A14.94,14.94,0,0,0,192,28.16a2.8,2.8,0,0,0-2.11,5.18,15,15,0,0,0,4.33.22l-.13.32a1.48,1.48,0,0,0,.8,1.91,1.46,1.46,0,0,0,1.55-.29,17.84,17.84,0,0,0-.56,4.42,17.56,17.56,0,0,0,.62,4.61,1.46,1.46,0,0,0-2.34,1.64l.14.33a14.67,14.67,0,0,0-4.33.26,2.79,2.79,0,0,0,2.16,5.15,14.64,14.64,0,0,0,3.23-2.9l.13.32a1.46,1.46,0,0,0,2.81-.54,17.61,17.61,0,0,0,6.44,6.36,1.47,1.47,0,0,0-.51,2.82l.32.13a14.83,14.83,0,0,0-2.87,3.25,2.8,2.8,0,0,0,5.18,2.11,15,15,0,0,0,.22-4.33l.32.13A1.46,1.46,0,0,0,209,56.91a17.38,17.38,0,0,0,4.42.56,17.56,17.56,0,0,0,4.61-.62,1.46,1.46,0,0,0,1.64,2.34l.32-.14a15,15,0,0,0,.27,4.33,2.79,2.79,0,0,0,5.15-2.16A14.27,14.27,0,0,0,222.51,58l.33-.14a1.46,1.46,0,0,0,.78-1.91,1.48,1.48,0,0,0-1.32-.9,17.66,17.66,0,0,0,6.36-6.43,1.47,1.47,0,0,0,2.82.5l.13-.32a14.83,14.83,0,0,0,3.25,2.87A2.79,2.79,0,1,0,237,46.5Z"/><path class="cls-6" d="M204.26,65.49a3.09,3.09,0,0,1-2.86-4.25,12.62,12.62,0,0,1,2.62-3,1.75,1.75,0,0,1,0-3.15,17.85,17.85,0,0,1-5.59-5.52,1.7,1.7,0,0,1-.89.84,1.77,1.77,0,0,1-2.25-.84,12.09,12.09,0,0,1-3,2.65,3.08,3.08,0,1,1-2.4-5.68,9.48,9.48,0,0,1,3.08-.32h.93a1.75,1.75,0,0,1,1-2.2,1.77,1.77,0,0,1,1.22-.05,17.94,17.94,0,0,1,0-7.85,1.77,1.77,0,0,1-1.22,0,1.76,1.76,0,0,1-1-2.2l-1.3,0a8.38,8.38,0,0,1-2.71-.28A3.1,3.1,0,0,1,188.09,32a3.09,3.09,0,0,1,2.85-4.28,2.93,2.93,0,0,1,1.16.23,12.42,12.42,0,0,1,3.05,2.61,1.78,1.78,0,0,1,2.24-.87,1.72,1.72,0,0,1,.9.84,18.07,18.07,0,0,1,5.52-5.59,1.76,1.76,0,0,1,0-3.15,12.39,12.39,0,0,1-2.65-3,3.08,3.08,0,1,1,5.68-2.39,12.11,12.11,0,0,1,.31,4,1.77,1.77,0,0,1,2.2,1,1.71,1.71,0,0,1,.05,1.22,18.08,18.08,0,0,1,7.85-.05,1.74,1.74,0,0,1,0-1.21,1.77,1.77,0,0,1,2.19-1,12.13,12.13,0,0,1,.26-4,3.08,3.08,0,0,1,5.71,2.33,12.24,12.24,0,0,1-2.62,3,1.78,1.78,0,0,1,.86.91,1.73,1.73,0,0,1,0,1.34,1.68,1.68,0,0,1-.84.9,18.07,18.07,0,0,1,5.59,5.52,1.74,1.74,0,0,1,.89-.84,1.78,1.78,0,0,1,2.26.84,12.2,12.2,0,0,1,3-2.65,3.08,3.08,0,0,1,2.4,5.68,9.16,9.16,0,0,1-3.07.32H233a1.69,1.69,0,0,1,0,1.25,1.75,1.75,0,0,1-2.16,1,17.73,17.73,0,0,1,.46,4,18.16,18.16,0,0,1-.41,3.82,1.77,1.77,0,0,1,1.22,0,1.72,1.72,0,0,1,.95.94,1.74,1.74,0,0,1,0,1.25l1.3,0a8.3,8.3,0,0,1,2.71.29,3.07,3.07,0,0,1,1.68,1.66,3.08,3.08,0,0,1-2.84,4.27h0a3.15,3.15,0,0,1-1.17-.22,12.43,12.43,0,0,1-3-2.62,1.79,1.79,0,0,1-2.25.87,1.72,1.72,0,0,1-.9-.84A17.85,17.85,0,0,1,223,54.94a1.74,1.74,0,0,1,.84.89,1.76,1.76,0,0,1-.84,2.26,12.39,12.39,0,0,1,2.65,3,3.09,3.09,0,0,1-1.65,4,3,3,0,0,1-1.19.24A3.08,3.08,0,0,1,220,63.5a12.22,12.22,0,0,1-.31-4,1.77,1.77,0,0,1-2.2-1,1.71,1.71,0,0,1-.05-1.22,17.93,17.93,0,0,1-7.85.05,1.77,1.77,0,0,1,0,1.22,1.79,1.79,0,0,1-2.2,1,12.17,12.17,0,0,1-.25,4A3.08,3.08,0,0,1,204.26,65.49Zm-6-17a.29.29,0,0,1,.25.14,17.43,17.43,0,0,0,6.33,6.26.3.3,0,0,1,.14.32.28.28,0,0,1-.27.22,1.18,1.18,0,0,0-1.05.73,1.17,1.17,0,0,0,.64,1.53l.32.13a.29.29,0,0,1,.18.22.27.27,0,0,1-.09.26,14.18,14.18,0,0,0-2.8,3.15,2.51,2.51,0,0,0,4.64,1.89c.16-.38.32-1.42.2-4.21a.28.28,0,0,1,.12-.25.28.28,0,0,1,.28,0l.32.13a1.2,1.2,0,0,0,1.53-.64,1.18,1.18,0,0,0-.23-1.24.29.29,0,0,1,0-.35.28.28,0,0,1,.32-.13,17.4,17.4,0,0,0,8.89-.06.3.3,0,0,1,.32.13.3.3,0,0,1,0,.35A1.18,1.18,0,0,0,218,58.3a1.2,1.2,0,0,0,1.54.62l.32-.13a.28.28,0,0,1,.28,0,.25.25,0,0,1,.12.24,13.83,13.83,0,0,0,.25,4.21,2.51,2.51,0,0,0,4.62-1.94,14.16,14.16,0,0,0-2.84-3.12.29.29,0,0,1-.09-.26.3.3,0,0,1,.17-.22l.33-.14a1.18,1.18,0,0,0,.63-.63,1.22,1.22,0,0,0,0-.9,1.17,1.17,0,0,0-1-.72.29.29,0,0,1-.28-.21.3.3,0,0,1,.13-.33,17.35,17.35,0,0,0,6.26-6.33.3.3,0,0,1,.32-.14.3.3,0,0,1,.22.28,1.17,1.17,0,0,0,.73,1,1.2,1.2,0,0,0,1.53-.64l.13-.32a.31.31,0,0,1,.22-.18.28.28,0,0,1,.26.09A13.74,13.74,0,0,0,235,51.4a2.59,2.59,0,0,0,.95.18,2.5,2.5,0,0,0,.94-4.82,7.65,7.65,0,0,0-2.49-.24c-.56,0-1.15,0-1.72,0a.25.25,0,0,1-.25-.12.29.29,0,0,1,0-.27l.13-.33a1.13,1.13,0,0,0,0-.9,1.15,1.15,0,0,0-.63-.63,1.18,1.18,0,0,0-1.24.24.3.3,0,0,1-.35,0,.27.27,0,0,1-.13-.32,17.3,17.3,0,0,0-.06-8.88.29.29,0,0,1,.48-.29,1.19,1.19,0,0,0,1.25.22,1.17,1.17,0,0,0,.62-1.54l-.13-.32a.28.28,0,0,1,0-.28.29.29,0,0,1,.24-.12l1.37,0a8.71,8.71,0,0,0,2.84-.27,2.5,2.5,0,0,0-1-4.81,2.48,2.48,0,0,0-1,.2A14,14,0,0,0,231.72,31a.27.27,0,0,1-.26.09.28.28,0,0,1-.22-.17l-.14-.32a1.19,1.19,0,0,0-1.53-.63,1.17,1.17,0,0,0-.72,1.06.29.29,0,0,1-.21.27.3.3,0,0,1-.33-.13A17.27,17.27,0,0,0,222,24.93a.3.3,0,0,1-.14-.32.3.3,0,0,1,.28-.22,1.17,1.17,0,0,0,.4-2.26L222.2,22a.29.29,0,0,1-.18-.22.29.29,0,0,1,.09-.26,14,14,0,0,0,2.8-3.15,2.49,2.49,0,0,0-1.37-3.26,2.41,2.41,0,0,0-.95-.19,2.5,2.5,0,0,0-2.32,1.56,12.76,12.76,0,0,0-.2,4.21.28.28,0,0,1-.12.25.27.27,0,0,1-.27,0l-.33-.13a1.17,1.17,0,0,0-1.3,1.89.28.28,0,0,1-.28.47,17.36,17.36,0,0,0-8.88.06.29.29,0,0,1-.29-.48,1.17,1.17,0,0,0,.22-1.24,1.2,1.2,0,0,0-1.54-.63L207,21a.31.31,0,0,1-.28,0,.28.28,0,0,1-.12-.25c.09-2.93-.12-3.9-.25-4.21A2.5,2.5,0,0,0,204,15a2.34,2.34,0,0,0-1,.2,2.48,2.48,0,0,0-1.33,3.27c.16.39.78,1.24,2.83,3.12a.27.27,0,0,1,.09.26.28.28,0,0,1-.17.22l-.32.14a1.13,1.13,0,0,0-.63.64,1.15,1.15,0,0,0,0,.89,1.17,1.17,0,0,0,1.06.72.28.28,0,0,1,.27.22.3.3,0,0,1-.13.32,17.27,17.27,0,0,0-6.26,6.33.3.3,0,0,1-.32.14.29.29,0,0,1-.22-.27,1.17,1.17,0,0,0-.73-1.05,1.2,1.2,0,0,0-1.53.64l-.13.32a.29.29,0,0,1-.22.18.27.27,0,0,1-.26-.09,14.47,14.47,0,0,0-3.15-2.8,2.53,2.53,0,0,0-.94-.18,2.48,2.48,0,0,0-2.32,1.56,2.44,2.44,0,0,0,0,1.91A2.47,2.47,0,0,0,190,33.07a7.65,7.65,0,0,0,2.49.24c.56,0,1.15,0,1.72,0a.26.26,0,0,1,.25.12.28.28,0,0,1,0,.28l-.13.32a1.13,1.13,0,0,0,0,.9,1.15,1.15,0,0,0,.63.63,1.2,1.2,0,0,0,1.25-.23.27.27,0,0,1,.34,0,.28.28,0,0,1,.13.32,17.33,17.33,0,0,0,.06,8.89.3.3,0,0,1-.13.32.29.29,0,0,1-.35,0,1.21,1.21,0,0,0-1.25-.22,1.18,1.18,0,0,0-.62,1.54l.13.32a.31.31,0,0,1,0,.28.32.32,0,0,1-.25.12l-1.36,0a8.75,8.75,0,0,0-2.85.27,2.5,2.5,0,0,0,1,4.81,2.47,2.47,0,0,0,1-.19,12.91,12.91,0,0,0,3.12-2.84.29.29,0,0,1,.48.08l.14.33a1.18,1.18,0,0,0,1.53.62,1.17,1.17,0,0,0,.72-1.06.29.29,0,0,1,.22-.27Z"/><path class="cls-10" d="M195.88,39.9a17.55,17.55,0,1,0,17.55-17.54A17.55,17.55,0,0,0,195.88,39.9Z"/><path class="cls-6" d="M213.43,57.74A17.84,17.84,0,1,1,231.26,39.9,17.86,17.86,0,0,1,213.43,57.74Zm0-35.09A17.26,17.26,0,1,0,230.68,39.9,17.27,17.27,0,0,0,213.43,22.65Z"/><path class="cls-4" d="M227.78,39.9a14.36,14.36,0,1,1-14.35-14.35A14.35,14.35,0,0,1,227.78,39.9Z"/><path class="cls-6" d="M213.43,54.54A14.64,14.64,0,1,1,228.07,39.9,14.66,14.66,0,0,1,213.43,54.54Zm0-28.7A14.06,14.06,0,1,0,227.49,39.9,14.08,14.08,0,0,0,213.43,25.84Z"/><path class="cls-6" d="M213.43,40.84a.29.29,0,0,1-.23-.1l-1.71-2.07a.29.29,0,0,1,0-.41.3.3,0,0,1,.41,0l1.72,2.07a.28.28,0,0,1-.22.47Z"/><path class="cls-6" d="M213.43,40.84a.31.31,0,0,1-.2-.07.29.29,0,0,1,0-.41l2.76-3.1a.28.28,0,0,1,.4,0,.29.29,0,0,1,0,.41l-2.76,3.1A.29.29,0,0,1,213.43,40.84Z"/><path class="cls-6" d="M213.43,34.39a.29.29,0,0,1-.29-.29V32.05a.29.29,0,1,1,.58,0V34.1A.29.29,0,0,1,213.43,34.39Z"/><path class="cls-6" d="M210.55,35.16a.31.31,0,0,1-.25-.15l-1-1.77a.29.29,0,1,1,.5-.29l1,1.77a.29.29,0,0,1-.11.4A.42.42,0,0,1,210.55,35.16Z"/><path class="cls-6" d="M208.45,37.26a.23.23,0,0,1-.14,0l-1.77-1a.29.29,0,1,1,.29-.51l1.77,1a.28.28,0,0,1,.1.39A.27.27,0,0,1,208.45,37.26Z"/><path class="cls-6" d="M207.68,40.13h-2a.29.29,0,0,1,0-.58h2a.29.29,0,1,1,0,.58Z"/><path class="cls-6" d="M206.68,44a.3.3,0,0,1-.25-.14.29.29,0,0,1,.11-.4l1.77-1a.29.29,0,0,1,.29.5l-1.77,1A.28.28,0,0,1,206.68,44Z"/><path class="cls-6" d="M209.53,46.87a.23.23,0,0,1-.14,0,.28.28,0,0,1-.11-.39l1-1.77a.29.29,0,1,1,.51.29l-1,1.77A.29.29,0,0,1,209.53,46.87Z"/><path class="cls-6" d="M213.43,47.91a.28.28,0,0,1-.29-.29v-2a.29.29,0,1,1,.58,0v2A.28.28,0,0,1,213.43,47.91Z"/><path class="cls-6" d="M217.32,46.87a.29.29,0,0,1-.25-.14l-1-1.77a.29.29,0,0,1,.1-.4.29.29,0,0,1,.4.11l1,1.77a.28.28,0,0,1-.11.39A.23.23,0,0,1,217.32,46.87Z"/><path class="cls-6" d="M220.17,44a.28.28,0,0,1-.15,0l-1.77-1a.29.29,0,0,1-.1-.39.29.29,0,0,1,.39-.11l1.77,1a.29.29,0,0,1,.11.4A.29.29,0,0,1,220.17,44Z"/><path class="cls-6" d="M221.21,40.13h-2a.29.29,0,1,1,0-.58h2a.29.29,0,1,1,0,.58Z"/><path class="cls-6" d="M218.4,37.26a.27.27,0,0,1-.25-.15.29.29,0,0,1,.1-.39l1.77-1a.29.29,0,1,1,.29.51l-1.77,1A.23.23,0,0,1,218.4,37.26Z"/><path class="cls-6" d="M216.3,35.16a.42.42,0,0,1-.15,0,.29.29,0,0,1-.1-.4l1-1.77a.29.29,0,0,1,.39-.11.29.29,0,0,1,.11.4l-1,1.77A.31.31,0,0,1,216.3,35.16Z"/><path class="cls-6" d="M204.34,22.12a.28.28,0,0,1-.27-.17.29.29,0,0,1,.15-.38l2.51-1.06a.29.29,0,0,1,.38.16.28.28,0,0,1-.15.38l-2.51,1.05A.23.23,0,0,1,204.34,22.12Z"/><path class="cls-6" d="M222.31,22l-.11,0-2.52-1a.29.29,0,0,1-.16-.38.28.28,0,0,1,.37-.15l2.53,1a.3.3,0,0,1,.16.38A.3.3,0,0,1,222.31,22Z"/><path class="cls-6" d="M232.56,33.63a.28.28,0,0,1-.26-.18l-1.06-2.51a.29.29,0,0,1,.53-.23l1.06,2.51a.29.29,0,0,1-.15.38Z"/><path class="cls-6" d="M231.61,49.09l-.11,0a.29.29,0,0,1-.16-.38l1-2.52a.29.29,0,0,1,.38-.16.28.28,0,0,1,.16.37l-1,2.53A.3.3,0,0,1,231.61,49.09Z"/><path class="cls-6" d="M220,59.34a.27.27,0,0,1-.26-.17.29.29,0,0,1,.15-.38l2.51-1.06a.29.29,0,1,1,.23.53l-2.51,1.06A.25.25,0,0,1,220,59.34Z"/><path class="cls-6" d="M207.07,59.42l-.11,0-2.52-1a.29.29,0,0,1-.16-.38.28.28,0,0,1,.37-.16l2.53,1a.3.3,0,0,1,.16.38A.3.3,0,0,1,207.07,59.42Z"/><path class="cls-6" d="M195.35,49.3a.29.29,0,0,1-.27-.18L194,46.61a.29.29,0,0,1,.15-.38.29.29,0,0,1,.38.15l1.06,2.51a.28.28,0,0,1-.15.38Z"/><path class="cls-6" d="M194.21,33.85l-.11,0a.29.29,0,0,1-.15-.38l1-2.52a.29.29,0,0,1,.38-.16.28.28,0,0,1,.16.37l-1,2.53A.28.28,0,0,1,194.21,33.85Z"/><path class="cls-6" d="M213.42,51.06a11.15,11.15,0,1,1,11.15-11.14A11.16,11.16,0,0,1,213.42,51.06Zm0-21.71A10.57,10.57,0,1,0,224,39.92,10.58,10.58,0,0,0,213.42,29.35Z"/><path class="cls-6" d="M209.21,30.2A.28.28,0,0,1,209,30l-6.3-14.95a.29.29,0,0,1,.16-.38.29.29,0,0,1,.38.16l6.29,15a.29.29,0,0,1-.15.38Z"/><path class="cls-6" d="M217.64,30.2l-.11,0a.29.29,0,0,1-.16-.38l6-15.07a.28.28,0,0,1,.37-.16.29.29,0,0,1,.16.38l-6,15.07A.3.3,0,0,1,217.64,30.2Z"/><path class="cls-6" d="M203.43,36a.18.18,0,0,1-.1,0l-15.08-6a.29.29,0,0,1-.16-.37.3.3,0,0,1,.38-.17l15.07,6a.29.29,0,0,1,.16.38A.28.28,0,0,1,203.43,36Z"/><path class="cls-6" d="M188.48,50.69a.29.29,0,0,1-.27-.18.3.3,0,0,1,.15-.38l14.91-6.41a.29.29,0,0,1,.23.54l-14.91,6.41Z"/><path class="cls-6" d="M203.21,65.26l-.11,0a.29.29,0,0,1-.16-.38l6-15.07a.28.28,0,0,1,.37-.16.29.29,0,0,1,.17.37l-6,15.07A.3.3,0,0,1,203.21,65.26Z"/><path class="cls-6" d="M223.92,65.14a.27.27,0,0,1-.26-.17l-6.41-14.91a.28.28,0,0,1,.15-.38.29.29,0,0,1,.38.15l6.41,14.91a.3.3,0,0,1-.15.38Z"/><path class="cls-6" d="M238.49,50.41a.22.22,0,0,1-.11,0l-15.07-6a.28.28,0,0,1-.16-.37.3.3,0,0,1,.38-.17l15.07,6a.29.29,0,0,1,.16.38A.3.3,0,0,1,238.49,50.41Z"/><path class="cls-6" d="M223.47,36.1a.29.29,0,0,1-.12-.55l14.91-6.41a.29.29,0,0,1,.38.15.28.28,0,0,1-.15.38l-14.91,6.41A.2.2,0,0,1,223.47,36.1Z"/><path class="cls-7" d="M114.74,43.52h-7.5a1,1,0,0,0-1,1V87.83a1,1,0,0,0,1,1h34.69a1,1,0,0,0,1-1V44.48a1,1,0,0,0-1-1H114.74Z"/><path class="cls-6" d="M141.93,89.08H107.24A1.25,1.25,0,0,1,106,87.83V44.48a1.25,1.25,0,0,1,1.25-1.25h7.5a.29.29,0,0,1,0,.58h-7.5a.67.67,0,0,0-.67.67V87.83a.67.67,0,0,0,.67.67h34.69a.67.67,0,0,0,.67-.67V44.48a.67.67,0,0,0-.67-.67h-7.5a.29.29,0,1,1,0-.58h7.5a1.25,1.25,0,0,1,1.25,1.25V87.83A1.25,1.25,0,0,1,141.93,89.08Z"/><polygon class="cls-4" points="134.43 47.83 139.11 47.83 139.11 55.71 139.11 63.59 139.11 84.1 109.87 84.1 109.87 47.83 114.74 47.83 134.43 47.83"/><path class="cls-6" d="M139.11,84.39H109.87a.29.29,0,0,1-.29-.29V47.83a.29.29,0,0,1,.29-.29h4.87a.29.29,0,0,1,0,.58h-4.58V83.81h28.66V48.12h-4.39a.29.29,0,1,1,0-.58h4.68a.29.29,0,0,1,.29.29V84.1A.29.29,0,0,1,139.11,84.39Z"/><path class="cls-6" d="M136.08,76.77H118.59a.29.29,0,1,1,0-.58h17.49a.29.29,0,1,1,0,.58Z"/><path class="cls-6" d="M136.08,72.5H118.59a.29.29,0,1,1,0-.58h17.49a.29.29,0,1,1,0,.58Z"/><path class="cls-6" d="M136.08,68.21H118.59a.29.29,0,1,1,0-.58h17.49a.29.29,0,1,1,0,.58Z"/><path class="cls-6" d="M136.08,63.93H118.59a.29.29,0,1,1,0-.58h17.49a.29.29,0,1,1,0,.58Z"/><path class="cls-6" d="M136.08,59.65H118.59a.29.29,0,1,1,0-.58h17.49a.29.29,0,1,1,0,.58Z"/><path class="cls-6" d="M136.08,55.36H118.59a.29.29,0,1,1,0-.58h17.49a.29.29,0,1,1,0,.58Z"/><rect class="cls-10" x="114.74" y="43.52" width="19.69" height="6.04"/><path class="cls-6" d="M134.43,49.86H114.74a.29.29,0,0,1-.29-.29v-6a.29.29,0,0,1,.29-.29h19.69a.29.29,0,0,1,.29.29v6A.29.29,0,0,1,134.43,49.86ZM115,49.28h19.11V43.81H115Z"/><polygon class="cls-11" points="117.38 56.82 116.39 55.83 113.76 58.46 112.28 56.98 111.29 57.97 113.76 60.43 113.76 60.43 113.76 60.43 117.38 56.82"/><polygon class="cls-11" points="117.38 64.84 116.39 63.85 113.76 66.48 112.28 65 111.29 65.99 113.76 68.46 113.76 68.45 113.76 68.46 117.38 64.84"/><polygon class="cls-11" points="117.38 72.87 116.39 71.88 113.76 74.5 112.28 73.02 111.29 74.01 113.76 76.48 113.76 76.48 113.76 76.48 117.38 72.87"/><circle class="cls-13" cx="124.59" cy="43.51" r="6.05" transform="translate(53.7 154.83) rotate(-76.76)"/><path class="cls-6" d="M124.59,49.86a6.35,6.35,0,1,1,6.34-6.35A6.36,6.36,0,0,1,124.59,49.86Zm0-12.11a5.77,5.77,0,1,0,5.76,5.76A5.77,5.77,0,0,0,124.59,37.75Z"/><path class="cls-4" d="M124.59,41a2.52,2.52,0,1,1-2.52,2.51A2.52,2.52,0,0,1,124.59,41Z"/><path class="cls-6" d="M124.59,46.33a2.81,2.81,0,1,1,2.8-2.81A2.81,2.81,0,0,1,124.59,46.33Zm0-5a2.23,2.23,0,1,0,2.22,2.22A2.23,2.23,0,0,0,124.59,41.3Z"/><path class="cls-9" d="M297.76,104.53l-1.24-1.24a4.24,4.24,0,0,0-4.66-.9,4,4,0,0,0-1.1,1.13l4,4Z"/><path class="cls-7" d="M289.76,104.35a4.24,4.24,0,0,0,.78,4.92l1.24,1.24,3-3-4-4A3.27,3.27,0,0,0,289.76,104.35Z"/><path class="cls-9" d="M317,110.48l1.24-1.24a4.24,4.24,0,0,0,.82-4.84c-.2-.41-1.11-.86-1.11-.86L314,107.48Z"/><path class="cls-7" d="M318,103.49c-.33-.32-.5-.81-.89-1a4.16,4.16,0,0,0-4.85.78L311,104.5l3,3,4-4Z"/><path class="cls-8" d="M312.88,116.76a8.49,8.49,0,0,0-8.48-8.48v17A8.5,8.5,0,0,0,312.88,116.76Z"/><path class="cls-4" d="M295.91,116.76a8.5,8.5,0,0,0,8.49,8.49v-17A8.49,8.49,0,0,0,295.91,116.76Z"/><path class="cls-14" d="M304.4,104.76v3.52a8.49,8.49,0,0,1,0,17v3.51a12,12,0,0,0,0-24Z"/><path class="cls-11" d="M295.91,116.76a8.49,8.49,0,0,1,8.49-8.48v-3.52a12,12,0,0,0,0,24v-3.51A8.5,8.5,0,0,1,295.91,116.76Z"/><path class="cls-6" d="M304.4,129.18a12.29,12.29,0,1,1,12.28-12.29A12.3,12.3,0,0,1,304.4,129.18Zm0-24a11.71,11.71,0,1,0,11.7,11.71A11.72,11.72,0,0,0,304.4,105.18Z"/><polygon class="cls-13" points="304.42 115.46 295.8 106.83 296.98 105.66 292.59 105.51 292.58 110.05 293.9 108.72 302.54 117.35 304.42 115.46"/><polygon class="cls-10" points="321.41 117.01 318.38 114.01 318.38 115.68 304.67 115.68 304.67 118.34 318.38 118.34 318.38 120.01 321.41 117.01"/><path class="cls-6" d="M318.42,120.19a.27.27,0,0,1-.2-.09.29.29,0,0,1,0-.41l2.7-2.68-2.74-2.72a.29.29,0,0,1,.41-.41l3,2.93a.28.28,0,0,1,.08.2.29.29,0,0,1-.09.21l-2.9,2.88A.29.29,0,0,1,318.42,120.19Z"/><path class="cls-6" d="M292.59,110.06a.29.29,0,0,1-.29-.29v-4.26a.3.3,0,0,1,.08-.2.46.46,0,0,1,.21-.09l4.25,0a.28.28,0,0,1,.29.29.29.29,0,0,1-.29.29h0l-4,0v4a.29.29,0,0,1-.29.29Z"/><path class="cls-6" d="M313,107a.29.29,0,0,1-.21-.09l-2.07-2.07a.3.3,0,0,1,0-.41l1.24-1.24a4.51,4.51,0,0,1,2.48-1.26s2.06-.3,2.85.48a.3.3,0,0,1,0,.41.28.28,0,0,1-.41,0c-.49-.48-2-.37-2.35-.32a4,4,0,0,0-2.16,1.1l-1,1,1.86,1.86a.29.29,0,0,1,0,.41A.27.27,0,0,1,313,107Z"/><path class="cls-6" d="M297.67,104.91a.3.3,0,0,1-.2-.08l-1.22-1.21a4,4,0,0,0-2.15-1.1c-.3,0-1.7-.29-2.31.31a.3.3,0,0,1-.41,0,.29.29,0,0,1,0-.41c.8-.79,2.35-.56,2.81-.47a4.52,4.52,0,0,1,2.47,1.26l1.21,1.2a.29.29,0,0,1,0,.41A.3.3,0,0,1,297.67,104.91Z"/><path class="cls-6" d="M317,110.9a.29.29,0,0,1-.21-.09l-2-2a.29.29,0,1,1,.41-.41L317,110.2l1-1a3.92,3.92,0,0,0,.74-4.54.29.29,0,0,1,.06-.33l.55-.56a1,1,0,0,0,0-1.46,1,1,0,0,0-1.46,0l-.54.54a.28.28,0,0,1-.41,0l-3.66-3.66A.45.45,0,0,0,313,99H295.85a.51.51,0,0,0-.37.12l-3.67,3.67-.08.05a.32.32,0,0,1-.35,0l-.56-.56a1,1,0,0,0-1.46,1.46l.54.55a.29.29,0,0,1,.06.34,3.92,3.92,0,0,0,.72,4.57L292,110.4a.29.29,0,1,1-.39.42l-1.3-1.21a4.51,4.51,0,0,1-.93-5.07l-.4-.4a1.61,1.61,0,0,1,2.28-2.28l.36.36,3.48-3.48a1,1,0,0,1,.75-.29h17.11a1.07,1.07,0,0,1,.74.29l3.45,3.46.34-.34a1.61,1.61,0,1,1,2.28,2.28l-.41.42a4.49,4.49,0,0,1-.94,5l-1.24,1.24A.27.27,0,0,1,317,110.9Z"/><path class="cls-6" d="M289.7,104.77a.29.29,0,0,1-.21-.08.29.29,0,0,1,0-.41l1.88-1.86a.29.29,0,0,1,.41,0,.3.3,0,0,1,0,.41l-1.89,1.86A.26.26,0,0,1,289.7,104.77Z"/><path class="cls-6" d="M319,104.78a.26.26,0,0,1-.2-.08l-1.86-1.89a.3.3,0,0,1,0-.41.29.29,0,0,1,.41,0l1.86,1.88a.3.3,0,0,1,0,.41A.28.28,0,0,1,319,104.78Z"/><path class="cls-6" d="M314.91,108.86a.29.29,0,0,1-.21-.09l-1.87-1.87a.29.29,0,1,1,.41-.41l1.87,1.87a.28.28,0,0,1,0,.41A.27.27,0,0,1,314.91,108.86Z"/><path class="cls-6" d="M290.73,131.17a.29.29,0,0,1-.21-.09.3.3,0,0,1,0-.41l5.33-5.33a.29.29,0,0,1,.41.41l-5.33,5.33A.27.27,0,0,1,290.73,131.17Z"/><path class="cls-6" d="M318,131.17a.28.28,0,0,1-.2-.09l-5.33-5.32a.3.3,0,0,1,0-.41.28.28,0,0,1,.41,0l5.33,5.32a.3.3,0,0,1,0,.41A.29.29,0,0,1,318,131.17Z"/><path class="cls-6" d="M313,108.88a.3.3,0,0,1-.2-.08.28.28,0,0,1,0-.41l.87-.88a.3.3,0,0,1,.41,0,.29.29,0,0,1,0,.41l-.88.88A.32.32,0,0,1,313,108.88Z"/><path class="cls-12" d="M306.35,116.88a1.91,1.91,0,1,1-1.9-1.9A1.91,1.91,0,0,1,306.35,116.88Z"/><path class="cls-6" d="M291.77,110.9a.32.32,0,0,1-.2-.08.29.29,0,0,1,0-.41l.81-.84a.29.29,0,0,1,.42.4l-.82.84A.29.29,0,0,1,291.77,110.9Z"/><path class="cls-6" d="M296.83,105.82a.27.27,0,0,1-.19-.08.29.29,0,0,1,0-.41l.84-.91a.29.29,0,0,1,.42.4l-.83.91A.31.31,0,0,1,296.83,105.82Z"/><path class="cls-10" d="M99.31,82.39a24.7,24.7,0,1,0,24.7,24.7A24.7,24.7,0,0,0,99.31,82.39Zm0,43.92a19.22,19.22,0,1,1,19.22-19.22A19.23,19.23,0,0,1,99.31,126.31Z"/><path class="cls-6" d="M99.31,132.08a25,25,0,1,1,25-25A25,25,0,0,1,99.31,132.08Zm0-49.4a24.41,24.41,0,1,0,24.41,24.41A24.44,24.44,0,0,0,99.31,82.68Zm0,43.92a19.51,19.51,0,1,1,19.51-19.51A19.53,19.53,0,0,1,99.31,126.6Zm0-38.44a18.93,18.93,0,1,0,18.93,18.93A18.95,18.95,0,0,0,99.31,88.16Z"/><path class="cls-10" d="M99.31,93a14.09,14.09,0,1,0,14.09,14.09A14.09,14.09,0,0,0,99.31,93Z"/><path class="cls-6" d="M99.31,121.44a14.38,14.38,0,1,1,14.38-14.38A14.4,14.4,0,0,1,99.31,121.44Zm0-28.18a13.8,13.8,0,1,0,13.8,13.8A13.81,13.81,0,0,0,99.31,93.26Z"/><path class="cls-13" d="M99.31,87.87a19.22,19.22,0,0,1,0,38.44v5.48a24.7,24.7,0,1,0,0-49.4Z"/><path class="cls-6" d="M99.31,132.08H99V126h.29a18.93,18.93,0,0,0,0-37.86v-.58a19.51,19.51,0,0,1,.29,39v4.9a24.41,24.41,0,0,0-.29-48.82V82.1a25,25,0,0,1,0,50Z"/><path class="cls-13" d="M99.31,121.15a14.09,14.09,0,0,0,0-28.18Z"/><path class="cls-6" d="M99.31,121.44v-.58a13.8,13.8,0,0,0,0-27.6v-.58a14.38,14.38,0,0,1,0,28.76Z"/><path class="cls-6" d="M133,105.66h-29.2a.29.29,0,1,1,0-.58H133a.29.29,0,1,1,0,.58Z"/><path class="cls-11" d="M133.05,108.81h3.65a1.72,1.72,0,0,0,1.72-1.72s0,0,0-.07a1.72,1.72,0,0,0-1.71-1.65H133Z"/><path class="cls-6" d="M136.7,109.1h-3.65a.29.29,0,0,1,0-.58h3.65a1.43,1.43,0,0,0,0-2.86H133a.29.29,0,0,1,0-.58h3.71a2,2,0,0,1,2,1.93.22.22,0,0,1,0,.08A2,2,0,0,1,136.7,109.1Z"/><path class="cls-6" d="M133.05,109.1H103.79a.29.29,0,1,1,0-.58h29.26a.29.29,0,1,1,0,.58Z"/><path class="cls-6" d="M124.05,105.54a.26.26,0,0,1-.2-.08.28.28,0,0,1,0-.41l5.3-5.31a.3.3,0,0,1,.41,0,.28.28,0,0,1,0,.41l-5.3,5.31A.28.28,0,0,1,124.05,105.54Z"/><path class="cls-6" d="M128.85,105.54a.26.26,0,0,1-.2-.08.28.28,0,0,1,0-.41l5.3-5.31a.3.3,0,0,1,.41,0,.28.28,0,0,1,0,.41l-5.3,5.31A.28.28,0,0,1,128.85,105.54Z"/><path class="cls-6" d="M133.69,105.59a.28.28,0,0,1-.2-.09.3.3,0,0,1,0-.41l5.35-5.35a.29.29,0,1,1,.41.41l-5.35,5.35A.29.29,0,0,1,133.69,105.59Z"/><path class="cls-6" d="M139,114.53a.28.28,0,0,1-.2-.09l-5.34-5.34a.29.29,0,1,1,.41-.41l5.34,5.34a.3.3,0,0,1,0,.41A.29.29,0,0,1,139,114.53Z"/><path class="cls-6" d="M134.16,114.53a.29.29,0,0,1-.21-.09l-5.33-5.33a.29.29,0,1,1,.41-.41l5.33,5.33a.28.28,0,0,1,0,.41A.27.27,0,0,1,134.16,114.53Z"/><path class="cls-6" d="M129.36,114.53a.3.3,0,0,1-.21-.09l-5.35-5.35a.29.29,0,0,1,.41-.41l5.35,5.35a.28.28,0,0,1,0,.41A.27.27,0,0,1,129.36,114.53Z"/><polygon class="cls-4" points="102.14 112.82 96.48 112.82 99.31 110.52 102.14 112.82"/><polygon class="cls-4" points="96.48 103.77 102.14 103.77 101.44 105.42 99.31 107.86 97.16 105.47 96.48 103.77"/><rect class="cls-4" x="93.73" y="114.42" width="11.15" height="1.9"/><rect class="cls-4" x="93.73" y="97.88" width="11.15" height="1.9"/><path class="cls-6" d="M104.88,116.61H93.73a.29.29,0,0,1-.29-.29v-1.9a.29.29,0,0,1,.29-.29h.81a.29.29,0,1,1,0,.58H94V116h10.57v-1.32h-.51a.29.29,0,0,1,0-.58h.8a.29.29,0,0,1,.29.29v1.9A.29.29,0,0,1,104.88,116.61Zm-2.74-1.9a.29.29,0,0,1-.29-.29v-1.54l-2.54-2L96.77,113v1.46a.29.29,0,0,1-.58,0v-1.56a9.74,9.74,0,0,1-.31-1.89c0-.88.67-2.08,2-3.57A.66.66,0,0,0,98,107a.68.68,0,0,0-.12-.38l-.12-.13,0,0c-1.21-1.4-1.84-2.55-1.84-3.39a8.21,8.21,0,0,1,.31-1.77V99.78a.29.29,0,0,1,.58,0v1.6a.19.19,0,0,1,0,.08,8.47,8.47,0,0,0-.3,1.65,1.89,1.89,0,0,0,.05.38h5.6a1.89,1.89,0,0,0,0-.38,8.47,8.47,0,0,0-.3-1.65.19.19,0,0,1,0-.08v-1.6a.29.29,0,1,1,.58,0v1.56a8.21,8.21,0,0,1,.31,1.77,2.17,2.17,0,0,1-.12.68.28.28,0,0,1-.05.16,9.33,9.33,0,0,1-1.83,2.73.66.66,0,0,0-.1.36.69.69,0,0,0,.12.39c1.31,1.46,2,2.66,2,3.54a9.74,9.74,0,0,1-.31,1.89v1.56A.29.29,0,0,1,102.14,114.71Zm-3.63-7.32a1.49,1.49,0,0,1-.17.36c-1.22,1.38-1.88,2.51-1.88,3.22a7.72,7.72,0,0,0,.19,1.34l2.48-2a.3.3,0,0,1,.36,0l2.49,2a7.3,7.3,0,0,0,.18-1.28c0-.71-.66-1.84-1.86-3.19a1.4,1.4,0,0,1-.19-.39l-.58.66a.32.32,0,0,1-.22.1h0a.32.32,0,0,1-.22-.1Zm-.33-1.25h0l1.13,1.28,1.3-1.48,0,0a9.35,9.35,0,0,0,1.26-1.85H96.73A9.65,9.65,0,0,0,98.18,106.14Zm6.7-6.07h-.8a.29.29,0,0,1,0-.58h.51V98.17H94v1.32h.52a.29.29,0,1,1,0,.58h-.81a.29.29,0,0,1-.29-.29v-1.9a.29.29,0,0,1,.29-.29h11.15a.29.29,0,0,1,.29.29v1.9A.29.29,0,0,1,104.88,100.07Z"/><path class="cls-6" d="M102.14,101.67H96.48a.29.29,0,0,1,0-.58h5.66a.29.29,0,0,1,0,.58Z"/><path class="cls-6" d="M102.14,113.11H96.48a.29.29,0,1,1,0-.58h5.66a.29.29,0,0,1,0,.58Z"/><path class="cls-6" d="M104.25,100.07H94.54a.29.29,0,1,1,0-.58h9.71a.29.29,0,1,1,0,.58Z"/><path class="cls-6" d="M104.08,114.71H94.54a.29.29,0,1,1,0-.58h9.54a.29.29,0,0,1,0,.58Z"/><path class="cls-6" d="M95.07,114.71a.29.29,0,0,1-.29-.29V99.78a.29.29,0,1,1,.58,0v14.64A.29.29,0,0,1,95.07,114.71Z"/><path class="cls-6" d="M103.52,114.71a.29.29,0,0,1-.29-.29V99.78a.29.29,0,1,1,.58,0v14.64A.29.29,0,0,1,103.52,114.71Z"/><path class="cls-6" d="M99.31,110.81a.29.29,0,0,1-.29-.29v-2.66a.29.29,0,0,1,.58,0v2.66A.29.29,0,0,1,99.31,110.81Z"/><polygon class="cls-11" points="133.97 105.37 103.52 105.37 103.52 108.81 133.69 108.81 133.97 105.37"/><path class="cls-6" d="M133.69,109.1H103.52a.29.29,0,0,1-.29-.29v-3.44a.29.29,0,0,1,.29-.29H134a.29.29,0,1,1,0,.58H103.81v2.86h29.88a.29.29,0,1,1,0,.58Z"/><path class="cls-6" d="M182.67,44.9a.3.3,0,0,1-.25-.14l-9.21-15.9a.29.29,0,0,1,.51-.29l9.2,15.89a.29.29,0,0,1-.1.4A.28.28,0,0,1,182.67,44.9Z"/><path class="cls-6" d="M182.64,44.9H166.76a.29.29,0,0,1,0-.58h15.88a.29.29,0,0,1,0,.58Z"/><path class="cls-6" d="M171,35.8h-7.55a.29.29,0,1,1,0-.58H171a.29.29,0,0,1,0,.58Z"/><path class="cls-6" d="M170.27,38.08h-5.44a.29.29,0,1,1,0-.58h5.44a.29.29,0,1,1,0,.58Z"/><path class="cls-6" d="M177.89,40.34H166.14a.29.29,0,0,1,0-.58h11.75a.29.29,0,0,1,0,.58Z"/><polygon class="cls-10" points="181.96 29.03 181.06 28.14 180.31 27.37 172.97 34.71 173.73 35.47 174.62 36.37 175.38 37.13 182.72 29.79 181.96 29.03"/><polygon class="cls-11" points="171.75 38.34 172.93 37.95 172.15 37.16 171.75 38.34"/><polygon class="cls-4" points="174.18 35.92 172.97 34.72 172.15 37.16 172.54 37.55 172.93 37.95 175.38 37.12 174.18 35.92"/><polygon class="cls-7" points="182.91 27.18 181.71 25.98 180.31 27.38 181.51 28.58 182.72 29.78 184.12 28.38 182.91 27.18"/><path class="cls-11" d="M184.63,25.46a1.5,1.5,0,0,0-2.23-.17l-.69.69,1.2,1.2,1.21,1.2.69-.69A1.51,1.51,0,0,0,184.63,25.46Z"/><polygon class="cls-8" points="173.34 28.82 157.77 28.87 157.78 31.86 175.09 31.82 173.34 28.82"/><path class="cls-6" d="M173.46,29H157.52a.29.29,0,0,1,0-.58h15.94a.29.29,0,0,1,0,.58Z"/><path class="cls-7" d="M171,26.52a2,2,0,0,0-1.65.86,2.06,2.06,0,0,0-1.66-.85,2,2,0,0,0-1.65.86,2.06,2.06,0,0,0-1.66-.85,2,2,0,0,0-1.65.86A2,2,0,0,0,159,28.59h.76a1.28,1.28,0,0,1,2.55,0v0h0a1.26,1.26,0,0,1-.88,1.22h0a.37.37,0,0,0-.28.36.37.37,0,0,0,.38.37l.13,0h0a2,2,0,0,0,1.42-1.94v0a1.28,1.28,0,1,1,1.67,1.24h0a.36.36,0,0,0-.27.36.37.37,0,0,0,.38.37l.12,0h0a2,2,0,0,0,1.41-1.94h0a1.28,1.28,0,1,1,1.67,1.21h0a.37.37,0,0,0,.11.73l.12,0h0a2,2,0,0,0,1.41-1.94h0a1.28,1.28,0,1,1,1.67,1.21h0a.37.37,0,0,0-.28.36.37.37,0,0,0,.38.37l.13,0h0a2,2,0,0,0-.63-4Z"/><polygon class="cls-11" points="148.37 44.67 157.52 28.72 166.76 44.61 148.37 44.67"/><path class="cls-6" d="M148.37,45a.29.29,0,0,1-.25-.15.3.3,0,0,1,0-.29l9.14-16a.3.3,0,0,1,.26-.14h0a.3.3,0,0,1,.25.14L167,44.46a.3.3,0,0,1,0,.29.29.29,0,0,1-.25.15L148.37,45Zm9.15-15.66-8.65,15.07,17.38,0Z"/><path class="cls-6" d="M175.38,37.4a.27.27,0,0,1-.2-.09l-2.42-2.4a.3.3,0,0,1,0-.41l7.3-7.34a.29.29,0,0,1,.41,0l2.42,2.41a.3.3,0,0,1,.08.2.32.32,0,0,1-.08.21l-7.3,7.34a.27.27,0,0,1-.2.09Zm-2-2.7,2,2,6.89-6.93-2-2Z"/><path class="cls-6" d="M171.75,38.63a.3.3,0,0,1-.2-.08.28.28,0,0,1-.07-.3l.39-1.18a.27.27,0,0,1,.21-.19.27.27,0,0,1,.27.07l.79.79a.3.3,0,0,1,.08.27.33.33,0,0,1-.19.21l-1.18.4Z"/><path class="cls-6" d="M184.08,28.64a.27.27,0,0,1-.2-.08l-2.42-2.4a.3.3,0,0,1,0-.41l.69-.7a1.83,1.83,0,0,1,2.65.17,2.19,2.19,0,0,1,.67,1.29,1.6,1.6,0,0,1-.49,1.35l-.69.7A.28.28,0,0,1,184.08,28.64Zm-2-2.69,2,2,.49-.49a1.07,1.07,0,0,0,.33-.88,1.67,1.67,0,0,0-.51-.94,1.24,1.24,0,0,0-1.83-.17Z"/><path class="cls-6" d="M172.15,37.45l-.09,0a.28.28,0,0,1-.19-.36l.82-2.46a.29.29,0,0,1,.55.19l-.82,2.45A.29.29,0,0,1,172.15,37.45Z"/><path class="cls-6" d="M172.93,38.23a.28.28,0,0,1-.27-.19.29.29,0,0,1,.18-.37l2.45-.84a.29.29,0,0,1,.37.19.28.28,0,0,1-.18.36l-2.45.84Z"/><path class="cls-6" d="M180.26,27.65a.3.3,0,0,1-.2-.08.28.28,0,0,1,0-.41l1.4-1.41a.29.29,0,0,1,.41,0,.3.3,0,0,1,0,.41l-1.4,1.42A.32.32,0,0,1,180.26,27.65Z"/><path class="cls-6" d="M182.68,30.05a.26.26,0,0,1-.2-.08.28.28,0,0,1,0-.41l1.4-1.41a.29.29,0,0,1,.41.41L182.89,30A.28.28,0,0,1,182.68,30.05Z"/><path class="cls-8" d="M294.57,154.42a2.91,2.91,0,0,0-2.13.92h0a1.56,1.56,0,0,1-2.63-1.12v-6.88h-6.89a1.56,1.56,0,0,1-1.11-2.64h0a2.95,2.95,0,1,0-4.05,0h0a1.56,1.56,0,0,1-1.12,2.64h-6.88v6.88a1.55,1.55,0,0,0,1.55,1.55,1.53,1.53,0,0,0,1.08-.43h0a2.94,2.94,0,1,1,0,4h0a1.53,1.53,0,0,0-1.08-.43,1.55,1.55,0,0,0-1.55,1.55v6.88h6.88a1.55,1.55,0,0,0,1.12-2.63h0a2.94,2.94,0,1,1,4.05,0h0a1.55,1.55,0,0,0,1.11,2.63h6.89V160.5a1.56,1.56,0,0,1,2.63-1.12h0a2.94,2.94,0,1,0,2.13-5Z"/><path class="cls-10" d="M314.62,154.42a2.91,2.91,0,0,0-2.13.92h0a1.56,1.56,0,0,1-2.63-1.12v-6.88H303a1.56,1.56,0,0,1-1.11-2.64h0a2.94,2.94,0,0,0-2-5.07,2.94,2.94,0,0,0-2,5.07h0a1.56,1.56,0,0,1-1.12,2.64h-6.88v6.88a1.56,1.56,0,0,0,2.63,1.12h0a2.94,2.94,0,1,1,0,4h0a1.56,1.56,0,0,0-2.63,1.12v6.88h6.88a1.55,1.55,0,0,0,1.12-2.63h0a2.94,2.94,0,1,1,5-2.13,2.91,2.91,0,0,1-.92,2.13h0a1.55,1.55,0,0,0,1.11,2.63h6.89V160.5a1.56,1.56,0,0,1,2.63-1.12h0a2.94,2.94,0,1,0,2.13-5Z"/><path class="cls-11" d="M294.57,174.47a3,3,0,0,0-2.13.92h0a1.55,1.55,0,0,1-2.63-1.12v-6.88h-6.89a1.56,1.56,0,0,1-1.11-2.64h0a2.95,2.95,0,1,0-4.05,0h0a1.56,1.56,0,0,1-1.12,2.64h-6.88v6.88a1.56,1.56,0,0,0,1.55,1.56,1.54,1.54,0,0,0,1.08-.44h0a3,3,0,0,1,2.14-.92,2.94,2.94,0,1,1-2.14,5h0a1.49,1.49,0,0,0-1.08-.44,1.55,1.55,0,0,0-1.55,1.55v6.89h6.88a1.56,1.56,0,0,0,1.12-2.64h0a2.94,2.94,0,1,1,4.05,0h0a1.56,1.56,0,0,0,1.11,2.64h6.89v-6.89a1.54,1.54,0,0,1,1.55-1.55,1.51,1.51,0,0,1,1.08.44h0a2.94,2.94,0,1,0,2.13-5Z"/><path class="cls-9" d="M314.62,174.47a3,3,0,0,0-2.13.92h0a1.55,1.55,0,0,1-2.63-1.12v-6.88H303a1.56,1.56,0,0,1-1.11-2.64h0a2.9,2.9,0,0,0,.92-2.13,2.94,2.94,0,1,0-5,2.13h0a1.56,1.56,0,0,1-1.12,2.64h-6.88v6.88c0,.86,2.35,1.39,2.63,1.12,0,0-2.63,4.3-2.63,5.16v6.89h6.88a1.56,1.56,0,0,0,1.12-2.64h0a2.94,2.94,0,1,1,5-2.13,2.91,2.91,0,0,1-.92,2.13h0a1.56,1.56,0,0,0,1.11,2.64h6.89v-6.89a1.54,1.54,0,0,1,1.55-1.55,1.51,1.51,0,0,1,1.08.44h0a2.94,2.94,0,1,0,2.13-5Z"/><path class="cls-12" d="M302.91,164.29a13.51,13.51,0,0,0-11.09-11.1H287.4a13.51,13.51,0,0,0-11.13,11.11v4.43a13.52,13.52,0,0,0,11.13,11.12h4.42a13.52,13.52,0,0,0,11.09-11.11Z"/><path class="cls-4" d="M303.45,166.52h0a11.12,11.12,0,0,0-.06-1.16c0-.35-.08-.7-.13-1v0h0a13.5,13.5,0,0,0-11.08-11.1h0c-.35-.06-.7-.11-1.07-.14a11.15,11.15,0,0,0-2.31,0c-.34,0-.69.08-1,.13h0a13.51,13.51,0,0,0-11.13,11.11h0v0c-.06.34-.11.69-.14,1a11.12,11.12,0,0,0-.06,1.16h0c0,.39,0,.77.06,1.14s.08.71.14,1.05h0a13.52,13.52,0,0,0,11.13,11.12h0c.34,0,.69.1,1,.13a11.15,11.15,0,0,0,2.31,0c.37,0,.72-.08,1.07-.14h0a13.51,13.51,0,0,0,11.08-11.11h0c.05-.34.1-.69.13-1.05A10.6,10.6,0,0,0,303.45,166.52Zm-11.28,11.85v-3h-4.43v3a12.09,12.09,0,0,1-9.68-9.66h3v-4.43h-3a12.09,12.09,0,0,1,9.68-9.65v3h4.43v-3a12.11,12.11,0,0,1,9.63,9.65h-3v4.43h3A12.1,12.1,0,0,1,292.17,178.37Z"/><polygon class="cls-10" points="294.9 164.46 293.35 162.92 289.26 167.02 286.95 164.71 285.4 166.25 289.25 170.1 289.26 170.1 289.26 170.1 294.9 164.46"/><path class="cls-6" d="M309.64,187.69h-6.88a1.85,1.85,0,0,1-1.85-1.85,2.94,2.94,0,0,1,.48-1.24,2.69,2.69,0,0,0,.87-2,2.65,2.65,0,1,0-4.47,1.92,2.8,2.8,0,0,1,.53,1.29,1.85,1.85,0,0,1-1.85,1.85H282.71a1.85,1.85,0,0,1-1.35-3.11s0,0,0,0a2.66,2.66,0,1,0-3.65,0l0,0a1.85,1.85,0,0,1-1.36,3.1h-6.88a.29.29,0,0,1-.29-.29v-6.89a1.85,1.85,0,0,1,1.85-1.84,1.82,1.82,0,0,1,1.25.49l0,0a2.65,2.65,0,1,0,1.93-4.47,2.67,2.67,0,0,0-1.93.83.08.08,0,0,1,0,0,1.84,1.84,0,0,1-3.09-1.36V160.46a1.85,1.85,0,0,1,1.85-1.84,1.82,1.82,0,0,1,1.28.52,4.64,4.64,0,0,0,1.93.83,2.65,2.65,0,0,0,0-5.3,4.69,4.69,0,0,0-2,.86,1.76,1.76,0,0,1-1.24.5,1.85,1.85,0,0,1-1.85-1.85V147.3a.29.29,0,0,1,.29-.29h6.88a1.27,1.27,0,0,0,.91-2.15,5.22,5.22,0,0,1-1-2.33,3.24,3.24,0,1,1,5.46,2.34,2.38,2.38,0,0,0-.35.87,1.27,1.27,0,0,0,1.27,1.27h13.76a1.27,1.27,0,0,0,.91-2.15h0a3.2,3.2,0,0,1-1-2.32,3.23,3.23,0,1,1,6.46,0,3.19,3.19,0,0,1-1,2.32h0a1.27,1.27,0,0,0,.91,2.15h6.88a.29.29,0,0,1,.29.29v6.88a1.26,1.26,0,0,0,2.14.91l0,0a3.19,3.19,0,0,1,2.31-1,3.23,3.23,0,1,1-2.31,5.48l0,0a1.25,1.25,0,0,0-.87-.35,1.26,1.26,0,0,0-1.27,1.26v13.77a1.26,1.26,0,0,0,2.14.91,5.22,5.22,0,0,1,2.33-1,3.23,3.23,0,1,1,0,6.46,5.28,5.28,0,0,1-2.3-1,1.27,1.27,0,0,0-2.17.88v6.89A.29.29,0,0,1,309.64,187.69Zm-10-8.29a3.23,3.23,0,0,1,3.23,3.23,3.2,3.2,0,0,1-1,2.34,2.38,2.38,0,0,0-.35.87,1.27,1.27,0,0,0,1.27,1.27h6.59v-6.6a1.85,1.85,0,0,1,3.12-1.33,4.63,4.63,0,0,0,1.93.84,2.65,2.65,0,1,0,0-5.3,4.7,4.7,0,0,0-2,.86,1.76,1.76,0,0,1-1.24.5,1.85,1.85,0,0,1-1.85-1.85v-6.59h-6a.29.29,0,0,1,0-.58h6v-6.6a1.85,1.85,0,0,1,3.09-1.36l0,0a2.61,2.61,0,0,0,1.92.83,2.65,2.65,0,1,0,0-5.3,2.61,2.61,0,0,0-1.92.83l0,0a1.84,1.84,0,0,1-3.1-1.35v-6.59h-6.59a1.85,1.85,0,0,1-1.85-1.85,1.8,1.8,0,0,1,.49-1.25l0,0a2.66,2.66,0,1,0-3.65,0s0,0,0,0a1.81,1.81,0,0,1,.5,1.25,1.85,1.85,0,0,1-1.85,1.85H282.71a1.85,1.85,0,0,1-1.85-1.85,2.94,2.94,0,0,1,.48-1.24,2.7,2.7,0,0,0,.88-2,2.66,2.66,0,0,0-5.31,0,4.65,4.65,0,0,0,.87,2,1.8,1.8,0,0,1,.49,1.25,1.85,1.85,0,0,1-1.85,1.85h-6.59v6.59a1.27,1.27,0,0,0,1.27,1.27,1.24,1.24,0,0,0,.87-.36,5.22,5.22,0,0,1,2.34-1,3.23,3.23,0,1,1,0,6.46,5.17,5.17,0,0,1-2.3-1,1.3,1.3,0,0,0-.91-.38,1.26,1.26,0,0,0-1.27,1.26v6.6h6.54a.29.29,0,0,1,0,.58h-6.54v6.59a1.27,1.27,0,0,0,1.27,1.27,1.24,1.24,0,0,0,.87-.36l0,0a3.23,3.23,0,1,1,0,4.5l0,0a1.23,1.23,0,0,0-.87-.35,1.27,1.27,0,0,0-1.27,1.26v6.6h6.59a1.27,1.27,0,0,0,.91-2.15v0a3.16,3.16,0,0,1-1-2.31,3.24,3.24,0,0,1,6.47,0,3.2,3.2,0,0,1-1,2.32h0a1.27,1.27,0,0,0,.91,2.15h6.59V180a.29.29,0,1,1,.58,0v7.08h6.59a1.27,1.27,0,0,0,1.27-1.27,2.35,2.35,0,0,0-.39-.92,3.13,3.13,0,0,1-1-2.29A3.23,3.23,0,0,1,299.61,179.4Z"/><path class="cls-6" d="M289.89,180.32a13.81,13.81,0,1,1,13.81-13.81A13.83,13.83,0,0,1,289.89,180.32Zm0-27a13.23,13.23,0,1,0,13.23,13.23A13.25,13.25,0,0,0,289.89,153.28Z"/><path class="cls-6" d="M289.89,153.28a.29.29,0,0,1-.29-.29V147.3a.29.29,0,1,1,.58,0V153A.29.29,0,0,1,289.89,153.28Z"/><polygon class="cls-9" points="235.2 96.52 221.48 96.52 215.07 103.14 221.24 109.7 215.07 116.37 221.06 122.94 215.07 129.41 221.11 135.93 215.07 142.44 221.11 148.96 220.07 150.08 235.2 150.08 235.2 96.52"/><path class="cls-12" d="M228.36,103.48a3.39,3.39,0,0,0-3.39,3.39v58.37a3.39,3.39,0,0,0,3.39,3.39h0V103.48Z"/><path class="cls-7" d="M228.36,103.48v65.15a3.39,3.39,0,0,0,3.38-3.39V106.87A3.39,3.39,0,0,0,228.36,103.48Z"/><path class="cls-4" d="M227.47,151.08a15.45,15.45,0,1,0,15.45,15.45A15.46,15.46,0,0,0,227.47,151.08Z"/><path class="cls-15" d="M227.47,149.34a17.29,17.29,0,1,0,17.29,17.28A17.31,17.31,0,0,0,227.47,149.34Zm0,32.63a15.45,15.45,0,1,1,15.45-15.44A15.46,15.46,0,0,1,227.47,182Z"/><path class="cls-14" d="M227.47,147.3v3.78a15.45,15.45,0,1,1,0,30.89v3.78a19.23,19.23,0,1,0,0-38.45Z"/><path class="cls-11" d="M208.25,166.53a19.24,19.24,0,0,0,19.22,19.22V182a15.45,15.45,0,0,1,0-30.89V147.3A19.25,19.25,0,0,0,208.25,166.53Z"/><rect class="cls-10" x="226.87" y="152.45" width="1.21" height="3.8"/><rect class="cls-10" x="220.78" y="154.08" width="1.21" height="3.8" transform="translate(-48.31 131.36) rotate(-29.95)"/><rect class="cls-10" x="216.32" y="158.54" width="1.21" height="3.8" transform="translate(-30.54 267.93) rotate(-59.96)"/><rect class="cls-10" x="213.4" y="165.92" width="3.8" height="1.21"/><rect class="cls-10" x="215.03" y="172.01" width="3.8" height="1.21" transform="translate(-57.21 131.35) rotate(-29.95)"/><rect class="cls-10" x="219.48" y="176.46" width="3.8" height="1.21" transform="translate(-42.58 280.44) rotate(-60.04)"/><rect class="cls-10" x="226.87" y="176.8" width="1.21" height="3.8"/><rect class="cls-10" x="232.96" y="175.17" width="1.21" height="3.8" transform="translate(-57.25 140.59) rotate(-30.02)"/><rect class="cls-10" x="237.41" y="170.71" width="1.21" height="3.8" transform="translate(-30.44 292.52) rotate(-60.02)"/><rect class="cls-10" x="237.75" y="165.92" width="3.8" height="1.21"/><rect class="cls-10" x="236.12" y="159.83" width="3.8" height="1.21" transform="translate(-48.34 140.68) rotate(-30.04)"/><rect class="cls-10" x="231.66" y="155.37" width="3.8" height="1.21" transform="translate(-18.23 280.4) rotate(-60.03)"/><path class="cls-6" d="M227.56,186a19.52,19.52,0,1,1,19.51-19.52A19.55,19.55,0,0,1,227.56,186Zm0-38.45a18.94,18.94,0,1,0,18.93,18.93A19,19,0,0,0,227.56,147.59Zm0,34.67a15.74,15.74,0,1,1,15.73-15.74A15.76,15.76,0,0,1,227.56,182.26Zm0-30.89a15.16,15.16,0,1,0,15.15,15.15A15.17,15.17,0,0,0,227.56,151.37Z"/><path class="cls-6" d="M231.83,148.07a.29.29,0,0,1-.29-.29V106.87a3.1,3.1,0,1,0-6.2,0v40.57a.29.29,0,0,1-.58,0V106.87a3.68,3.68,0,0,1,7.36,0v40.91A.29.29,0,0,1,231.83,148.07Z"/><path class="cls-6" d="M235.28,149.21a.29.29,0,0,1-.29-.29V96.8h-13.3l-6.14,6.34,6,6.36a.28.28,0,0,1,0,.4l-6,6.47,5.81,6.38a.28.28,0,0,1,0,.39l-5.81,6.27,5.86,6.32a.27.27,0,0,1,0,.39l-5.86,6.33,5.36,5.83a.29.29,0,0,1-.43.39l-5.54-6a.29.29,0,0,1,0-.39l5.87-6.33-5.87-6.32a.29.29,0,0,1,0-.39l5.82-6.27-5.82-6.38a.29.29,0,0,1,0-.39l6-6.47-6-6.36a.28.28,0,0,1,0-.4l6.41-6.63a.33.33,0,0,1,.21-.09h13.72a.29.29,0,0,1,.29.29v52.41A.29.29,0,0,1,235.28,149.21Z"/><path class="cls-6" d="M227.56,168.25a.29.29,0,0,1-.29-.29v-8.47a.29.29,0,0,1,.58,0V168A.29.29,0,0,1,227.56,168.25Z"/><path class="cls-6" d="M227.56,168.25h-.05l-4.68-.71a.29.29,0,1,1,.09-.57l4.68.71a.28.28,0,0,1,.24.33A.29.29,0,0,1,227.56,168.25Z"/><path class="cls-5" d="M126.81,240.39h-35v-53.7a17.52,17.52,0,0,1,17.52-17.51h0a17.51,17.51,0,0,1,17.52,17.51Z"/><path class="cls-6" d="M126.81,240.68h-35a.29.29,0,0,1-.29-.29v-53.7a17.81,17.81,0,0,1,35.62,0v53.7A.29.29,0,0,1,126.81,240.68Zm-34.75-.58h34.46V186.69a17.23,17.23,0,0,0-34.46,0Z"/><path class="cls-12" d="M147.43,347.83H71.15v-68a38.11,38.11,0,0,1,38.14-38.08h0a38.11,38.11,0,0,1,38.14,38.08Z"/><path class="cls-6" d="M147.43,348.12H71.15a.29.29,0,0,1-.29-.29v-68a38.43,38.43,0,0,1,76.86,0v68A.29.29,0,0,1,147.43,348.12Zm-76-.58h75.7v-67.7a37.85,37.85,0,0,0-75.7,0Z"/><path class="cls-5" d="M126.81,215.6V202.52h5.62a6.54,6.54,0,0,1,6.54,6.54h0a6.54,6.54,0,0,1-6.54,6.54Z"/><path class="cls-6" d="M132.43,215.89h-5.62a.29.29,0,0,1-.29-.29V202.52a.29.29,0,0,1,.29-.29h5.62a6.83,6.83,0,0,1,0,13.66Zm-5.33-.58h5.33a6.25,6.25,0,0,0,0-12.5H127.1Z"/><path class="cls-6" d="M120.32,203.3A.29.29,0,0,1,120,203a6.22,6.22,0,0,0-12.44,0,.29.29,0,1,1-.58,0,6.8,6.8,0,0,1,13.6,0A.29.29,0,0,1,120.32,203.3Z"/><path class="cls-6" d="M120.32,228.73a6.81,6.81,0,0,1-6.8-6.8.29.29,0,0,1,.58,0,6.23,6.23,0,0,0,12.45,0,.28.28,0,0,1,.29-.29.29.29,0,0,1,.29.29A6.82,6.82,0,0,1,120.32,228.73Z"/><rect class="cls-7" x="83.26" y="240.39" width="52.06" height="12.11"/><path class="cls-6" d="M135.32,252.79H83.26a.29.29,0,0,1-.29-.29V240.39a.29.29,0,0,1,.29-.29h52.06a.29.29,0,0,1,.29.29V252.5A.29.29,0,0,1,135.32,252.79Zm-51.77-.58H135V240.68H83.55Z"/><path class="cls-5" d="M164.5,309.17H95.23v8.15c0,4.24,3.43,7.21,7.68,7.21h69.27v-8.14C172.18,312.14,168.74,309.17,164.5,309.17Z"/><path class="cls-6" d="M102.91,324.82c-4.55,0-8-3.22-8-7.5v-8.15a.29.29,0,0,1,.29-.29H164.5c4.55,0,8,3.23,8,7.51v8.14a.29.29,0,0,1-.29.29Zm-7.39-15.36v7.86c0,3.94,3.17,6.92,7.39,6.92h69v-7.85c0-3.95-3.17-6.93-7.39-6.93Z"/><path class="cls-7" d="M123.36,309.17H95.23v-31.9a14.06,14.06,0,0,1,14.06-14.06h0a14.07,14.07,0,0,1,14.07,14.06Z"/><path class="cls-6" d="M123.36,309.46H95.23a.29.29,0,0,1-.29-.29v-31.9a14.36,14.36,0,0,1,28.71,0v31.9A.29.29,0,0,1,123.36,309.46Zm-27.84-.58h27.55V277.27a13.78,13.78,0,0,0-27.55,0Z"/><polygon class="cls-12" points="230.6 297.69 225.32 292.4 193.06 324.66 147.43 324.66 147.43 332.13 196.14 332.13 196.14 332.12 196.16 332.13 230.6 297.69"/><path class="cls-6" d="M196.16,332.42H147.43a.29.29,0,0,1-.29-.29v-7.47a.29.29,0,0,1,.29-.29h45.51l32.17-32.17a.29.29,0,0,1,.21-.09h0a.27.27,0,0,1,.2.09l5.29,5.28a.3.3,0,0,1,0,.41l-34.45,34.45A.28.28,0,0,1,196.16,332.42Zm-48.44-.58H196l34.15-34.15-4.87-4.88-32,32.05a.29.29,0,0,1-.21.09H147.72Z"/><path class="cls-6" d="M126.55,188.11h.54c0-16.28-9.16-20.66-18-20.66-13.8,0-25,7.34-25,26.54v19.34H99.88A26.71,26.71,0,0,1,126.55,188.11Z"/><rect class="cls-9" x="90.22" y="297.06" width="38.28" height="12.11"/><path class="cls-6" d="M128.5,309.46H90.22a.29.29,0,0,1-.29-.29V297.06a.29.29,0,0,1,.29-.29H128.5a.29.29,0,0,1,.29.29v12.11A.29.29,0,0,1,128.5,309.46Zm-38-.58h37.7V297.35H90.51Z"/><polygon class="cls-16" points="286.27 87.41 242.2 87.41 242.2 77.45 254.82 70.74 261.13 75.04 267.35 72.88 273.65 74.94 286.27 66.32 286.27 87.41"/><rect class="cls-17" x="235.65" y="57.53" width="0.58" height="33.66"/><rect class="cls-17" x="235.94" y="90.9" width="59.41" height="0.58"/><rect class="cls-17" x="241.91" y="77.45" width="0.58" height="9.95"/><rect class="cls-17" x="248.22" y="74.18" width="0.58" height="13.23"/><rect class="cls-17" x="254.53" y="70.74" width="0.58" height="16.67"/><rect class="cls-17" x="260.84" y="75.04" width="0.58" height="12.36"/><rect class="cls-17" x="267.06" y="72.88" width="0.58" height="14.52"/><rect class="cls-17" x="273.36" y="74.95" width="0.58" height="12.46"/><rect class="cls-17" x="279.67" y="70.63" width="0.58" height="16.77"/><rect class="cls-17" x="285.98" y="66.32" width="0.58" height="21.09"/><polygon class="cls-17" points="289.2 58.18 288.99 58.1 283.71 58.1 283.71 58.67 288.07 58.67 272.8 69.27 269.05 66.64 268.35 66.14 262.14 70.42 255.39 65.58 254.8 65.13 239.58 73.02 239.84 73.53 254.34 66 254.73 65.81 262.14 71.13 267.94 67.11 268.34 66.84 272.8 69.98 288.6 59.02 287.9 63.17 288.48 63.27 289.28 58.43 289.2 58.18"/><polygon class="cls-17" points="230.09 214.13 229.57 213.87 230.94 211.2 231.46 211.47 230.09 214.13"/><path class="cls-17" d="M228.1,218.1l-.52-.26.65-1.33c.33-.67.68-1.34.68-1.34l.51.27s-.34.66-.66,1.32Z"/><path class="cls-17" d="M226.46,222.11l-.55-.2.53-1.43c.13-.33.25-.65.36-.89l.19-.42.53.25a3.79,3.79,0,0,0-.19.41c-.11.24-.23.54-.34.85Z"/><path class="cls-17" d="M225.55,226.25l-.58-.08s.1-.73.24-1.44c0-.28.11-.56.16-.79l.16-.64.56.15-.16.6c0,.24-.1.51-.15.79C225.64,225.54,225.55,226.25,225.55,226.25Z"/><path class="cls-17" d="M224.77,230.51s-.05-.74,0-1.47.07-1.43.07-1.46l.58,0s-.06.72-.07,1.42,0,1.41,0,1.42Z"/><path class="cls-17" d="M225.92,234.9a5.72,5.72,0,0,1-.65-1.52,11.56,11.56,0,0,1-.33-1.44l.57-.1a12.24,12.24,0,0,0,.32,1.37,10.23,10.23,0,0,0,.48,1.3l-.25.13h0Z"/><path class="cls-17" d="M228.55,238.2a4,4,0,0,1-.37-.3l-.74-.7c-.22-.22-.41-.47-.57-.66l-.36-.5.48-.33.33.47c.15.18.33.41.53.61l.71.67a3.39,3.39,0,0,0,.32.27Z"/><path class="cls-17" d="M232.45,240.15,232,240a8.67,8.67,0,0,1-1-.36,8.54,8.54,0,0,1-.92-.43l-.4-.21.29-.5s.15.09.38.2.51.26.88.41a7.81,7.81,0,0,0,.91.34l.42.15Z"/><path class="cls-17" d="M236.73,241l-.57-.06c-.25,0-.57-.06-.88-.11-.71-.1-1.41-.26-1.44-.27l.14-.57a11.48,11.48,0,0,0,1.39.26,8,8,0,0,0,.85.11l.57.06Z"/><path class="cls-17" d="M253,222.55l-.13-.45c-.06-.13-.13-.31-.21-.51l-.16-.38-.36-.8c-.13-.28-.25-.56-.3-.68a4.29,4.29,0,0,0-.18-.4l.53-.25s.08.17.19.44c0,.11.16.38.29.65s.29.64.36.82l.16.38c.09.2.17.39.23.55l.14.47Z"/><path class="cls-17" d="M251,218.09l-.19-.41c-.12-.25-.28-.58-.45-.91l-.69-1.33.52-.26.68,1.32c.17.33.34.67.46.93l.2.42Z"/><polygon class="cls-17" points="249.01 214.14 247.64 211.47 248.15 211.2 249.52 213.87 249.01 214.14"/><rect class="cls-18" x="227.03" y="202.23" width="25.32" height="4.83"/><path class="cls-18" d="M244.91,238.69a12.38,12.38,0,0,0,.19,2c0,.18.06.35.1.53A12,12,0,0,0,269,238.69,11.92,11.92,0,0,0,268,234l0-.09c-.14-.31-.28-.62-.45-.93s-.24-.41-.37-.62-.13-.23-.21-.34a12.14,12.14,0,0,0-1.49-1.81,11.9,11.9,0,0,0-7.16-3.45,0,0,0,0,1,0,0,11.9,11.9,0,0,0-1.34-.08A12,12,0,0,0,244.91,238.69Z"/><path class="cls-17" d="M266.89,232.54v0l-.19-.3.48-.33a.57.57,0,0,1,.08.13l.13.22Z"/><path class="cls-17" d="M267.69,234.05c-.07-.18-.16-.36-.25-.54h0l-.18-.36h0l.51-.28.19.39h0l.26.57Z"/><path class="cls-17" d="M260.53,241.78c0-1.77-1-2.89-3.22-3.76l-.16-.06c-1.53-.59-2.64-1-2.64-2.8a2.11,2.11,0,0,1,.7-1.38,2.93,2.93,0,0,1,2.31-.67,4.38,4.38,0,0,1,1.88.63l.13.07.28-.52-.12-.06a5,5,0,0,0-2.12-.7h-.36v-2h-.58v2a3.19,3.19,0,0,0-1.82.81,2.6,2.6,0,0,0-.89,1.8c0,2.18,1.46,2.74,3,3.34l.16.06c2,.78,2.84,1.71,2.85,3.22,0,1.78-1.08,2.64-3.3,2.64h0a5.85,5.85,0,0,1-2.87-.7l-.32.48a6.4,6.4,0,0,0,3.17.8h0v1.82h.58V245C259.93,244.79,260.52,243.16,260.53,241.78Z"/><path class="cls-17" d="M238.46,194.93a4.11,4.11,0,1,0-4.11,4.1,4.45,4.45,0,0,0,1.46-.28l.73,2.07.55-.19-.77-2.17A4.29,4.29,0,0,0,238.46,194.93Zm-2.62,3.15-.06,0a3.31,3.31,0,0,1-1.43.33,3.53,3.53,0,1,1,3.53-3.52A3.73,3.73,0,0,1,235.84,198.08Z"/><path class="cls-17" d="M245,190.82a4.11,4.11,0,0,0-4.1,4.11,3.87,3.87,0,0,0,2.06,3.4l-.82,2.3.54.19.81-2.24A4.36,4.36,0,0,0,245,199a4,4,0,0,0,4.11-4A4.12,4.12,0,0,0,245,190.82Zm0,7.55a4.05,4.05,0,0,1-1.56-.45,3.25,3.25,0,0,1-2-3,3.53,3.53,0,1,1,7,0A3.45,3.45,0,0,1,245,198.37Z"/><rect class="cls-17" x="238.19" y="240.5" width="3.21" height="0.58"/><path class="cls-17" d="M268.27,233.91l0-.09c-.14-.33-.3-.65-.46-1s-.23-.38-.39-.63l-.07-.12c0-.08-.09-.15-.14-.23a12.3,12.3,0,0,0-1.53-1.86,12.08,12.08,0,0,0-6.74-3.43c-.62-5-3.57-9.82-5.94-13.71l-1.18-1.95a36.7,36.7,0,0,1-1.59-3.58h2.44v-5.41H226.74v5.41h1.69c-.21.42-.53,1-.83,1.6s-.69,1.3-.87,1.67c-.53,1.08-1.09,2.17-1.65,3.25-2.75,5.36-5.59,10.9-5.59,15.9,0,10.32,7.74,16.73,20.2,16.73l.75,0a26.55,26.55,0,0,0,6.32-.9,12.29,12.29,0,0,0,22.48-6.88A12.19,12.19,0,0,0,268.27,233.91Zm-40.95-31.39h24.73v4.25H227.32Zm13.1,43.37-.74,0c-12.1,0-19.61-6.19-19.61-16.15,0-4.86,2.81-10.34,5.53-15.63.56-1.09,1.12-2.18,1.65-3.27.18-.36.52-1,.86-1.65s.76-1.45,1-1.87h20.49a36.53,36.53,0,0,0,1.71,3.88l1.18,2c2.31,3.79,5.17,8.5,5.84,13.28a13.35,13.35,0,0,0-1.37-.08,12.47,12.47,0,0,0-2.22.21l-.81-2.92-.56.15.8,2.89a12.33,12.33,0,0,0-9.52,12,13.25,13.25,0,0,0,.11,1.5l-1.82.18.06.58,1.84-.19v0c0,.18.07.36.1.54a12.22,12.22,0,0,0,1.52,3.75A27.06,27.06,0,0,1,240.42,245.89Zm16.51,4.53a11.79,11.79,0,0,1-11.45-9.22c0-.17-.06-.34-.09-.51a11.13,11.13,0,0,1-.19-2A11.74,11.74,0,0,1,256.93,227,10.75,10.75,0,0,1,258,227l.2,0a11.62,11.62,0,0,1,7,3.36,11.24,11.24,0,0,1,1.46,1.78l.12.19.12.19c.11.18.23.36.33.55s.3.6.43.91l.27-.12-.23.2a11.52,11.52,0,0,1,.93,4.56A11.75,11.75,0,0,1,256.93,250.42Z"/><path class="cls-17" d="M256.93,249.22a10.54,10.54,0,1,1,10.53-10.53A10.55,10.55,0,0,1,256.93,249.22Zm0-20.49a10,10,0,1,0,9.95,10A10,10,0,0,0,256.93,228.73Z"/><path class="cls-18" d="M169.75,136.43a10.25,10.25,0,1,0,3,7.23A10.15,10.15,0,0,0,169.75,136.43Z"/><path class="cls-17" d="M165.21,145.84c0-1.33-.71-2.17-2.39-2.81l-.11-.05c-1.14-.43-1.88-.72-1.88-2a1.44,1.44,0,0,1,.48-.94,2.05,2.05,0,0,1,1.63-.47,3.15,3.15,0,0,1,1.34.44l.09.05.28-.51-.09,0A3.73,3.73,0,0,0,163,139c-.07,0-.13,0-.19,0v-1.36h-.58v1.39a2.43,2.43,0,0,0-1.3.59,2,2,0,0,0-.67,1.37c0,1.64,1.09,2.07,2.25,2.51l.11,0c1.46.56,2,1.19,2,2.27,0,1.24-.76,1.85-2.32,1.85h0a4.28,4.28,0,0,1-2-.5l-.32.48a4.65,4.65,0,0,0,2.28.59v1.26h.58v-1.27A2.3,2.3,0,0,0,165.21,145.84Z"/><path class="cls-17" d="M162.36,152.26a8.6,8.6,0,1,1,8.6-8.6A8.6,8.6,0,0,1,162.36,152.26Zm0-16.62a8,8,0,1,0,8,8A8,8,0,0,0,162.36,135.64Z"/><path class="cls-18" d="M209.74,78.11a10.26,10.26,0,1,0,3,7.24A10.2,10.2,0,0,0,209.74,78.11Z"/><path class="cls-17" d="M205.2,87.52c0-1.32-.71-2.16-2.39-2.8l-.12,0c-1.13-.44-1.88-.73-1.88-2a1.48,1.48,0,0,1,.49-1,2.08,2.08,0,0,1,1.62-.47,3.14,3.14,0,0,1,1.35.45l.09,0,.28-.51-.09,0a3.61,3.61,0,0,0-1.58-.51h-.18V79.34h-.58v1.39a2.46,2.46,0,0,0-1.3.6,2,2,0,0,0-.68,1.37c0,1.64,1.1,2.06,2.25,2.51l.12.05c1.45.56,2,1.19,2,2.26,0,1.25-.76,1.86-2.32,1.86h0a4.09,4.09,0,0,1-2-.51l-.32.49a4.65,4.65,0,0,0,2.28.59V91.2h.58V89.93A2.29,2.29,0,0,0,205.2,87.52Z"/><path class="cls-17" d="M202.35,94a8.6,8.6,0,1,1,8.6-8.6A8.61,8.61,0,0,1,202.35,94Zm0-16.62a8,8,0,1,0,8,8A8,8,0,0,0,202.35,77.33Z"/><path class="cls-18" d="M251.6,292.8a10.25,10.25,0,1,0,3,7.24A10.17,10.17,0,0,0,251.6,292.8Z"/><path class="cls-17" d="M247.06,302.21c0-1.32-.71-2.16-2.39-2.81l-.11,0c-1.14-.44-1.88-.73-1.88-2a1.43,1.43,0,0,1,.49-.95,2.05,2.05,0,0,1,1.62-.47,3.14,3.14,0,0,1,1.34.45l.09.05.28-.51-.09,0a3.73,3.73,0,0,0-1.57-.52h-.19V294h-.58v1.39a2.43,2.43,0,0,0-1.3.59,2,2,0,0,0-.67,1.38c0,1.64,1.09,2.06,2.25,2.51l.11,0c1.46.56,2,1.2,2,2.27,0,1.25-.77,1.85-2.33,1.85h0a4.28,4.28,0,0,1-2-.5l-.32.48a4.65,4.65,0,0,0,2.28.6v1.25h.58v-1.27A2.3,2.3,0,0,0,247.06,302.21Z"/><path class="cls-17" d="M244.21,308.64a8.6,8.6,0,1,1,8.6-8.6A8.61,8.61,0,0,1,244.21,308.64Zm0-16.62a8,8,0,1,0,8,8A8,8,0,0,0,244.21,292Z"/><path class="cls-18" d="M264.5,39.37a10.25,10.25,0,1,0,3,7.23A10.17,10.17,0,0,0,264.5,39.37Z"/><path class="cls-17" d="M260,48.78c0-1.33-.71-2.17-2.39-2.81l-.12,0c-1.13-.44-1.88-.72-1.88-2a1.44,1.44,0,0,1,.49-.94,2,2,0,0,1,1.62-.47A3.15,3.15,0,0,1,259,43l.09.05.28-.51-.09,0a3.73,3.73,0,0,0-1.58-.52h-.18V40.6H257V42a2.39,2.39,0,0,0-1.3.59A2,2,0,0,0,255,44c0,1.64,1.1,2.07,2.25,2.51l.12,0c1.45.56,2,1.19,2,2.27,0,1.24-.76,1.85-2.32,1.85h0a4.21,4.21,0,0,1-2-.5l-.32.48a4.65,4.65,0,0,0,2.28.59v1.26h.58V51.19A2.3,2.3,0,0,0,260,48.78Z"/><path class="cls-17" d="M257.11,55.2a8.6,8.6,0,1,1,8.6-8.6A8.61,8.61,0,0,1,257.11,55.2Zm0-16.62a8,8,0,1,0,8,8A8,8,0,0,0,257.11,38.58Z"/><path class="cls-18" d="M192.51,143.74a10.22,10.22,0,1,0,3,7.24A10.17,10.17,0,0,0,192.51,143.74Z"/><path class="cls-17" d="M185.57,152.16h3v-.58h-3v-.86h-.07c.31-.38,1-1.46,3-4.47l-.48-.32c-.94,1.4-2.28,3.4-2.82,4.19-.32-.49-1-1.59-2.72-4.13l-.48.32,2.93,4.45,0,0v.79h-3v.58h3v1.31h-3v.58h3v2.75h.58v-2.75h3v-.58h-3Z"/><path class="cls-17" d="M185.29,159.59a8.6,8.6,0,1,1,8.6-8.6A8.61,8.61,0,0,1,185.29,159.59Zm0-16.62a8,8,0,1,0,8,8A8,8,0,0,0,185.29,143Z"/><path class="cls-18" d="M90.5,151.84a10.25,10.25,0,1,0,3,7.24A10.17,10.17,0,0,0,90.5,151.84Z"/><polygon class="cls-17" points="80.65 158.89 80.6 158.8 81.13 158.57 80.65 158.89"/><path class="cls-17" d="M86.49,163.2a2.23,2.23,0,0,1-.48.38,2.19,2.19,0,0,1-1.64.23,9.56,9.56,0,0,1-1.22-.36,2.81,2.81,0,0,0-2.48.2l-.34-.46.27-.25a5.62,5.62,0,0,0,1-1.19,3,3,0,0,0,0-2.38h1.71v-.58H81.32c-.07-.13-.17-.29-.27-.46s-.32-.52-.4-.68a1.71,1.71,0,0,1-.16-.91,2.51,2.51,0,0,1,1.6-2.19,3.17,3.17,0,0,1,1.68-.25,2.55,2.55,0,0,1,1.35.48,2.13,2.13,0,0,1,.89,1.41c0,.19,0,.38.06.57s0,.21,0,.37l.58,0V157c0-.11,0-.21,0-.31s0-.42-.07-.62a2.67,2.67,0,0,0-1.12-1.78,3.18,3.18,0,0,0-1.64-.59,3.79,3.79,0,0,0-2,.31,3.06,3.06,0,0,0-1.92,2.67,2.14,2.14,0,0,0,.21,1.21c.08.17.26.45.42.73l.1.15h-.82v.58H81c.41,1.2.31,1.8.14,2.09a5.13,5.13,0,0,1-.89,1.06l-.35.32-.29.27.8,1.1.22.18.23-.15a2.26,2.26,0,0,1,2.13-.25,8.53,8.53,0,0,0,1.31.38,3.25,3.25,0,0,0,.69.08,2.67,2.67,0,0,0,1.36-.37,3.1,3.1,0,0,0,.61-.47Z"/><path class="cls-17" d="M83.11,167.68a8.6,8.6,0,1,1,8.6-8.6A8.61,8.61,0,0,1,83.11,167.68Zm0-16.62a8,8,0,1,0,8,8A8,8,0,0,0,83.11,151.06Z"/><path class="cls-16" d="M175.89,160.37a10.22,10.22,0,1,0,3,7.23A10.13,10.13,0,0,0,175.89,160.37Z"/><path class="cls-17" d="M169.26,171.73a3.64,3.64,0,0,1-3.7-2.51h3.95v-.58H165.4a5.9,5.9,0,0,1-.09-1,5.16,5.16,0,0,1,.14-1.14h4.06V166h-3.89a4,4,0,0,1,4-2.52,5,5,0,0,1,2,.41l.26-.52a5.62,5.62,0,0,0-2.28-.47A4.62,4.62,0,0,0,165,166h-1.65v.58h1.49a6,6,0,0,0-.12,1.14,6,6,0,0,0,.08,1h-1.45v.58H165a4.25,4.25,0,0,0,4.3,3.09,6.14,6.14,0,0,0,2.59-.52l-.27-.52A5.52,5.52,0,0,1,169.26,171.73Z"/><path class="cls-17" d="M168.65,176.2a8.6,8.6,0,1,1,8.6-8.6A8.61,8.61,0,0,1,168.65,176.2Zm0-16.62a8,8,0,1,0,8,8A8,8,0,0,0,168.65,159.58Z"/><path class="cls-11" d="M243.81,254.52l-.52-.69a1.69,1.69,0,0,0-.61-.45,3.05,3.05,0,0,0-1.38-.2H195a3.16,3.16,0,0,0-2.56,1.49,3.25,3.25,0,0,0-.55,1.77v25.83a3,3,0,0,0,.26,1.18,3.3,3.3,0,0,0,.39.65l.58.52a2.3,2.3,0,0,0,1.19.35h9.53v0l37.91,0a2.37,2.37,0,0,0,2.37-2.37V255.56A2.26,2.26,0,0,0,243.81,254.52Zm-3.49,26.77H230.11V277h10.21Zm.76-26.21-47.29,28Z"/><path class="cls-17" d="M203.5,285.29v0h-9.24a2.51,2.51,0,0,1-1.34-.39l-.63-.55a3.45,3.45,0,0,1-.74-2.05V256.45a3.54,3.54,0,0,1,.6-1.93,3.44,3.44,0,0,1,2.8-1.62H241.3a3.36,3.36,0,0,1,1.5.22,2.07,2.07,0,0,1,.71.53l.56.75a2.59,2.59,0,0,1,.29,1.17v27.05a2.67,2.67,0,0,1-2.66,2.66ZM195,253.48a2.87,2.87,0,0,0-2.32,1.36,2.93,2.93,0,0,0-.5,1.61v25.83a2.55,2.55,0,0,0,.24,1.06,2.35,2.35,0,0,0,.34.59l.55.49a2,2,0,0,0,1,.27H241.7a2.08,2.08,0,0,0,2.08-2.08V255.56a2,2,0,0,0-.21-.88l-.51-.67a1.45,1.45,0,0,0-.5-.37,2.77,2.77,0,0,0-1.25-.17Zm-1,29.87-.29-.5,47.28-28,.3.49Zm46.67-1.77H229.82v-4.85h10.79ZM230.4,281H240v-3.69H230.4Z"/><rect class="cls-18" x="197.38" y="261.1" width="9.05" height="9.05" rx="1.08"/><path class="cls-17" d="M205.36,260.81h-6.9a1.37,1.37,0,0,0-1.37,1.37v6.9a1.37,1.37,0,0,0,1.37,1.36h6.9a1.37,1.37,0,0,0,1.37-1.36v-6.9A1.37,1.37,0,0,0,205.36,260.81Zm.79,1.37v1h-2.43v-1.82h1.64A.79.79,0,0,1,206.15,262.18Zm-5.5,5.31v-1.62h2.49v1.62Zm2.49.58v1.8h-2.49v-1.8Zm-5.47-2.2h2.4v1.62h-2.4Zm5.47-2.08v1.5h-2.49v-1.5Zm-2.49-.58v-1.82h2.49v1.82Zm-.58,2.08h-2.4v-1.5h2.4Zm3.65.58h2.43v1.62h-2.43Zm0-.58v-1.5h2.43v1.5Zm-5.26-3.9h1.61v1.82h-2.4v-1A.79.79,0,0,1,198.46,261.39Zm-.79,7.69v-1h2.4v1.8h-1.61A.8.8,0,0,1,197.67,269.08Zm7.69.79h-1.64v-1.8h2.43v1A.8.8,0,0,1,205.36,269.87Z"/><rect class="cls-17" x="201.65" y="270.69" width="37.42" height="0.58" transform="translate(-107.32 150.08) rotate(-30.63)"/><path class="cls-10" d="M213.63,212.43,207,208.49a16.9,16.9,0,1,0-29.35-.41l-6.76,3.75a24.64,24.64,0,1,1,42.76.6Z"/><path class="cls-18" d="M197.27,214.4a12.71,12.71,0,0,1,2.77-7.93h0a10.28,10.28,0,1,0-15.51,0h0a12.7,12.7,0,0,1,2.76,7.93Z"/><path class="cls-18" d="M195.71,227.5a1.25,1.25,0,0,1-1.26,1.26h-4.39a1.26,1.26,0,0,1-1.26-1.26h0a1.27,1.27,0,0,1,1.26-1.26h4.39a1.26,1.26,0,0,1,1.26,1.26Z"/><path class="cls-6" d="M192.28,207.63a.29.29,0,0,1-.29-.29v-13a.29.29,0,0,1,.58,0v13A.29.29,0,0,1,192.28,207.63Z"/><path class="cls-4" d="M193.84,210.81a1.58,1.58,0,1,1-1.58-1.58A1.59,1.59,0,0,1,193.84,210.81Z"/><path class="cls-6" d="M168.74,213.42a.29.29,0,0,1-.25-.14.3.3,0,0,1,.1-.4l10.72-6.18a.28.28,0,0,1,.39.1.29.29,0,0,1-.1.4l-10.72,6.18A.23.23,0,0,1,168.74,213.42Z"/><path class="cls-6" d="M177.82,197.32h0l-12.19-2.15a.29.29,0,0,1-.23-.34.29.29,0,0,1,.34-.23l12.18,2.15a.27.27,0,0,1,.23.33A.28.28,0,0,1,177.82,197.32Z"/><path class="cls-6" d="M182.94,188.67a.27.27,0,0,1-.22-.1l-7.95-9.48a.29.29,0,0,1,0-.41.3.3,0,0,1,.41,0l7.95,9.48a.28.28,0,0,1,0,.4A.26.26,0,0,1,182.94,188.67Z"/><path class="cls-6" d="M192.42,185.34a.29.29,0,0,1-.29-.29V172.68a.29.29,0,1,1,.58,0v12.37A.29.29,0,0,1,192.42,185.34Z"/><path class="cls-6" d="M201.83,188.88a.31.31,0,0,1-.19-.06.3.3,0,0,1,0-.41l8-9.48a.29.29,0,0,1,.41,0,.28.28,0,0,1,0,.4l-7.95,9.48A.28.28,0,0,1,201.83,188.88Z"/><path class="cls-6" d="M206.75,197.64a.29.29,0,0,1-.28-.24.28.28,0,0,1,.23-.33l12.18-2.15a.29.29,0,0,1,.34.23.29.29,0,0,1-.24.34l-12.18,2.15Z"/><path class="cls-6" d="M215.61,213.7a.28.28,0,0,1-.15,0l-10.71-6.18a.29.29,0,0,1-.1-.4.28.28,0,0,1,.39-.1l10.71,6.18a.29.29,0,0,1,.11.4A.29.29,0,0,1,215.61,213.7Z"/><path class="cls-6" d="M198.44,217.11H186.07a.29.29,0,0,1,0-.58h12.37a.29.29,0,1,1,0,.58Z"/><path class="cls-6" d="M198.44,220.4H186.07a.29.29,0,0,1,0-.58h12.37a.29.29,0,1,1,0,.58Z"/><path class="cls-6" d="M198.44,223.69H186.07a.29.29,0,0,1,0-.58h12.37a.29.29,0,0,1,0,.58Z"/><path class="cls-6" d="M162.75,111.7a.29.29,0,0,1-.29-.29V90.52a.29.29,0,1,1,.58,0v20.89A.29.29,0,0,1,162.75,111.7Z"/><polygon class="cls-9" points="170.69 115.26 162.75 108.21 162.75 115.25 170.69 115.26"/><polygon class="cls-7" points="162.75 115.25 162.75 108.21 154.8 115.25 162.75 115.25"/><polygon class="cls-7" points="150.01 76.91 155.53 85.94 162.75 93.79 162.75 76.91 150.01 76.91"/><polygon class="cls-9" points="175.47 76.91 162.75 76.91 162.75 93.79 171.48 84.01 175.47 76.91"/><rect class="cls-10" x="139.11" y="122.05" width="23.19" height="8.4"/><rect class="cls-13" x="162.3" y="122.05" width="23.19" height="8.4"/><rect class="cls-13" x="150.75" y="59.94" width="24" height="6.8"/><rect class="cls-13" x="150.75" y="115.06" width="24" height="6.8"/><path class="cls-6" d="M186.4,130.4H139.11a.29.29,0,0,1-.29-.29v-8.06a.29.29,0,0,1,.29-.29h3.41a.29.29,0,0,1,0,.58H139.4v7.48h47a.29.29,0,1,1,0,.58Z"/><polygon class="cls-10" points="182.99 59.94 186.4 59.94 186.4 51.89 162.75 51.89 139.11 51.89 139.11 59.94 142.51 59.94 182.99 59.94"/><path class="cls-6" d="M186.4,60.23H183a.29.29,0,1,1,0-.58h3.12V52.18H139.4v7.47h3.12a.29.29,0,0,1,0,.58h-3.41a.29.29,0,0,1-.29-.29v-8a.29.29,0,0,1,.29-.29H186.4a.29.29,0,0,1,.29.29v8A.29.29,0,0,1,186.4,60.23Z"/><path class="cls-6" d="M175.47,105.12a.26.26,0,0,1-.24-.13,2.91,2.91,0,0,1-.2-.49,22.55,22.55,0,0,0-2.27-4.72,76.88,76.88,0,0,0-5.08-6.53,4.41,4.41,0,0,1,0-5c3.73-4.19,8.13-10,8.13-14.18a13,13,0,0,0-2.16-7.15.3.3,0,0,1,0-.3.3.3,0,0,1,.26-.15h.6V59.94a.29.29,0,0,1,.29-.29h3.56a.29.29,0,1,1,0,.58H175v6.51a.29.29,0,0,1-.29.29h-.37a13.45,13.45,0,0,1,2,7c0,4.34-4.48,10.3-8.25,14.54a3.81,3.81,0,0,0,0,4.3,78.19,78.19,0,0,1,5.1,6.55,23,23,0,0,1,2.33,4.86c.08.21.13.35.16.4a.3.3,0,0,1-.12.39A.32.32,0,0,1,175.47,105.12Z"/><path class="cls-6" d="M173.86,67H151.65a.29.29,0,0,1,0-.58h22.21a.29.29,0,0,1,0,.58Z"/><path class="cls-6" d="M150.75,122.34h-3.56a.29.29,0,0,1,0-.58h3.27v-6.5a.29.29,0,0,1,.29-.29h.71a13.43,13.43,0,0,1-2.32-7.57c0-4.34,4.49-10.3,8.25-14.54a3.78,3.78,0,0,0,0-4.3c-3.74-4.21-8.23-10.17-8.23-14.51a13.45,13.45,0,0,1,2-7h-.37a.29.29,0,0,1-.29-.29V60.23h-3.27a.29.29,0,0,1,0-.58h3.56a.29.29,0,0,1,.29.29v6.51h.61a.29.29,0,0,1,.24.45,12.89,12.89,0,0,0-2.17,7.15c0,4.15,4.41,10,8.11,14.15a4.38,4.38,0,0,1,0,5c-3.72,4.19-8.13,10-8.13,14.18a12.86,12.86,0,0,0,2.53,7.69.29.29,0,0,1,0,.3.29.29,0,0,1-.26.16h-1v6.5A.29.29,0,0,1,150.75,122.34Z"/><path class="cls-6" d="M183,60.23H142.52a.29.29,0,1,1,0-.58H183a.29.29,0,1,1,0,.58Z"/><path class="cls-6" d="M176,122.34H142.52a.29.29,0,1,1,0-.58H176a.29.29,0,1,1,0,.58Z"/><path class="cls-6" d="M173.14,115.55H152a.29.29,0,0,1,0-.58h21.13a.29.29,0,0,1,0,.58Z"/><path class="cls-6" d="M180.62,103.11a.29.29,0,0,1-.29-.29V59.94a.29.29,0,1,1,.58,0v42.88A.29.29,0,0,1,180.62,103.11Z"/><path class="cls-6" d="M144.69,122.34a.29.29,0,0,1-.29-.29V59.94a.29.29,0,1,1,.58,0v62.11A.29.29,0,0,1,144.69,122.34Z"/><path class="cls-11" d="M197.31,104.15a15.43,15.43,0,1,0,0,21.82A15.42,15.42,0,0,0,197.31,104.15Z"/><path class="cls-19" d="M186.05,122.45a7.42,7.42,0,0,1-3.69-.93.29.29,0,1,1,.32-.48,7,7,0,0,0,3.37.83h0c2.58,0,3.9-1.05,3.9-3.14,0-1.79-1-2.89-3.36-3.81l-.19-.07c-1.87-.73-3.49-1.35-3.49-3.87a3,3,0,0,1,1-2.07,4,4,0,0,1,3.18-1,5.82,5.82,0,0,1,2.46.8l.14.08a.29.29,0,0,1,.12.39.28.28,0,0,1-.39.12l-.15-.08a5.26,5.26,0,0,0-2.22-.74,3.43,3.43,0,0,0-2.74.8,2.51,2.51,0,0,0-.84,1.65c0,2.12,1.31,2.63,3.12,3.33l.19.07c2.61,1,3.73,2.31,3.73,4.35,0,1.7-.78,3.72-4.48,3.72Z"/><rect class="cls-19" x="186.11" y="105.3" width="0.58" height="3.06" rx="0.29"/><path class="cls-19" d="M186.4,124.92a.29.29,0,0,1-.29-.29v-2.47a.29.29,0,0,1,.58,0v2.47A.29.29,0,0,1,186.4,124.92Z"/><rect class="cls-13" x="162.3" y="51.89" width="24.1" height="8.05"/><path class="cls-6" d="M186.4,60.23H162.3a.29.29,0,1,1,0-.58h23.81V52.18H162.3a.29.29,0,1,1,0-.58h24.1a.29.29,0,0,1,.29.29v8A.29.29,0,0,1,186.4,60.23Z"/><rect class="cls-13" x="123.72" y="121.85" width="6.74" height="5.12"/><rect class="cls-10" x="127.09" y="123.57" width="6.75" height="3.41"/><rect class="cls-8" x="118.17" y="127.06" width="29.96" height="35.19" rx="4"/><path class="cls-6" d="M144.14,162.54h-22a4.3,4.3,0,0,1-4.29-4.29v-27.2a4.29,4.29,0,0,1,4.29-4.28h22a4.28,4.28,0,0,1,4.28,4.28v27.2A4.29,4.29,0,0,1,144.14,162.54Zm-22-35.19a3.71,3.71,0,0,0-3.71,3.7v27.2a3.72,3.72,0,0,0,3.71,3.71h22a3.71,3.71,0,0,0,3.7-3.71v-27.2a3.7,3.7,0,0,0-3.7-3.7Z"/><path class="cls-11" d="M121.78,132.25a1,1,0,0,1-1,1h-5.22a1,1,0,0,1-1-1h0a1,1,0,0,1,1-1h5.22a1,1,0,0,1,1,1Z"/><path class="cls-6" d="M120.78,133.55h-5.22a1.3,1.3,0,0,1,0-2.59h5.22a1.3,1.3,0,0,1,0,2.59Zm-5.22-2a.72.72,0,0,0,0,1.43h5.22a.72.72,0,0,0,0-1.43Z"/><path class="cls-11" d="M121.78,137.19a1,1,0,0,1-1,1h-5.22a1,1,0,0,1-1-1h0a1,1,0,0,1,1-1h5.22a1,1,0,0,1,1,1Z"/><path class="cls-6" d="M120.78,138.48h-5.22a1.29,1.29,0,0,1,0-2.58h5.22a1.29,1.29,0,1,1,0,2.58Zm-5.22-2a.71.71,0,0,0,0,1.42h5.22a.71.71,0,0,0,0-1.42Z"/><path class="cls-11" d="M121.78,142.13a1,1,0,0,1-1,1h-5.22a1,1,0,0,1-1-1h0a1,1,0,0,1,1-1h5.22a1,1,0,0,1,1,1Z"/><path class="cls-6" d="M120.78,143.42h-5.22a1.29,1.29,0,0,1,0-2.58h5.22a1.29,1.29,0,1,1,0,2.58Zm-5.22-2a.71.71,0,0,0,0,1.42h5.22a.71.71,0,0,0,0-1.42Z"/><path class="cls-11" d="M121.78,147.07a1,1,0,0,1-1,1h-5.22a1,1,0,0,1-1-1h0a1,1,0,0,1,1-1h5.22a1,1,0,0,1,1,1Z"/><path class="cls-6" d="M120.78,148.36h-5.22a1.29,1.29,0,1,1,0-2.58h5.22a1.29,1.29,0,0,1,0,2.58Zm-5.22-2a.71.71,0,1,0,0,1.42h5.22a.71.71,0,1,0,0-1.42Z"/><path class="cls-11" d="M121.78,152a1,1,0,0,1-1,1h-5.22a1,1,0,0,1-1-1h0a1,1,0,0,1,1-1h5.22a1,1,0,0,1,1,1Z"/><path class="cls-6" d="M120.78,153.3h-5.22a1.29,1.29,0,1,1,0-2.58h5.22a1.29,1.29,0,0,1,0,2.58Zm-5.22-2a.71.71,0,1,0,0,1.42h5.22a.71.71,0,1,0,0-1.42Z"/><path class="cls-11" d="M121.78,157a1,1,0,0,1-1,1h-5.22a1,1,0,0,1-1-1h0a1,1,0,0,1,1-1h5.22a1,1,0,0,1,1,1Z"/><path class="cls-6" d="M120.78,158.24h-5.22a1.29,1.29,0,1,1,0-2.58h5.22a1.29,1.29,0,0,1,0,2.58Zm-5.22-2a.71.71,0,1,0,0,1.42h5.22a.71.71,0,1,0,0-1.42Z"/><path class="cls-6" d="M143.81,132.54H126.63a.29.29,0,0,1,0-.58h17.18a.29.29,0,0,1,0,.58Z"/><path class="cls-6" d="M143.81,137.48h-7.4a.29.29,0,1,1,0-.58h7.4a.29.29,0,0,1,0,.58Z"/><path class="cls-6" d="M143.64,142.42h-2.36a.29.29,0,1,1,0-.58h2.36a.29.29,0,0,1,0,.58Z"/><path class="cls-6" d="M126,142.42h-1.4a.29.29,0,1,1,0-.58H126a.29.29,0,0,1,0,.58Z"/><path class="cls-6" d="M130.21,147.36h-5.65a.29.29,0,0,1,0-.58h5.65a.29.29,0,1,1,0,.58Z"/><path class="cls-6" d="M135.34,152.3H124.56a.29.29,0,0,1,0-.58h10.78a.29.29,0,1,1,0,.58Z"/><path class="cls-6" d="M140.28,157.24H124.61a.29.29,0,0,1,0-.58h15.67a.29.29,0,1,1,0,.58Z"/><rect class="cls-20" x="135.24" y="137.73" width="2.22" height="21.42" transform="translate(-65.03 139.9) rotate(-45)"/><rect class="cls-14" x="138.66" y="134.31" width="2.22" height="21.42" transform="translate(-61.61 141.31) rotate(-45)"/><rect class="cls-11" x="136.75" y="136.02" width="2.61" height="21.42" transform="translate(-63.32 140.6) rotate(-45)"/><polygon class="cls-10" points="125.18 133.85 126.05 136.44 127.76 134.72 125.18 133.85"/><polygon class="cls-7" points="127.76 134.72 126.91 135.58 130.49 139.16 133.12 136.52 127.76 134.72"/><polygon class="cls-4" points="126.05 136.44 127.85 141.79 130.49 139.16 126.91 135.58 126.05 136.44"/><rect class="cls-4" x="143.99" y="154.98" width="3.72" height="4.34" transform="translate(-68.4 149.09) rotate(-44.98)"/><rect class="cls-7" x="146.62" y="152.35" width="3.72" height="4.34" transform="translate(-65.77 150.21) rotate(-44.99)"/><path class="cls-13" d="M148.7,157.37l3.76,3.76c1.45-1.45,1.84-3.42.39-4.87l-1.52-1.52Z"/><path class="cls-10" d="M146.07,160l1.51,1.52c1.46,1.45,3.43,1.07,4.88-.39l-3.76-3.76Z"/><path d="M143.14,157.09a.32.32,0,0,1-.21-.08l-15.15-15.15a.32.32,0,0,1-.08-.21.28.28,0,0,1,.08-.2l1.58-1.57a.28.28,0,0,1,.41,0L144.91,155a.28.28,0,0,1,0,.41L143.34,157A.3.3,0,0,1,143.14,157.09ZM128.4,141.65l14.74,14.74,1.16-1.16-14.74-14.74Z"/><path d="M146.56,153.67a.32.32,0,0,1-.21-.08L131.2,138.44a.32.32,0,0,1-.08-.21.28.28,0,0,1,.08-.2l1.57-1.57a.28.28,0,0,1,.41,0l15.15,15.14a.29.29,0,0,1,.09.21.25.25,0,0,1-.09.2l-1.57,1.58A.3.3,0,0,1,146.56,153.67Zm-14.74-15.44L146.56,153l1.16-1.16L133,137.07Z"/><path d="M144.71,155.52a.29.29,0,0,1-.21-.09l-15.14-15.14a.28.28,0,0,1,0-.41L131.2,138a.3.3,0,0,1,.41,0l15.15,15.15a.25.25,0,0,1,.09.2.29.29,0,0,1-.09.21l-1.85,1.84A.27.27,0,0,1,144.71,155.52ZM130,140.08l14.74,14.74,1.44-1.44-14.74-14.74Z"/></g></g></g></svg>