<svg xmlns="http://www.w3.org/2000/svg" xmlns:xlink="http://www.w3.org/1999/xlink" viewBox="0 0 646.64 500"><defs><style>.cls-1,.cls-35,.cls-38,.cls-40,.cls-44,.cls-50,.cls-9{fill:none;}.cls-2{isolation:isolate;}.cls-3{opacity:0.4;}.cls-3,.cls-42{mix-blend-mode:multiply;}.cls-4{fill:#a595fa;}.cls-5{fill:#e54525;}.cls-6{fill:#84ba4d;}.cls-7{fill:#d1d3d4;}.cls-10,.cls-11,.cls-12,.cls-8{fill:#dcdcff;}.cls-9{stroke:#fff;stroke-linejoin:round;stroke-width:1.66px;}.cls-40,.cls-44,.cls-50,.cls-9{stroke-linecap:round;}.cls-10,.cls-13{opacity:0.3;}.cls-11{opacity:0.7;}.cls-12{opacity:0.2;}.cls-14{fill:#ebae39;}.cls-15{clip-path:url(#clip-path);}.cls-16{fill:#e1841f;}.cls-17{fill:#f2d25e;}.cls-18{fill:#e69d25;}.cls-19{clip-path:url(#clip-path-2);}.cls-20{clip-path:url(#clip-path-3);}.cls-21{clip-path:url(#clip-path-4);}.cls-22{clip-path:url(#clip-path-5);}.cls-23{clip-path:url(#clip-path-6);}.cls-24{clip-path:url(#clip-path-7);}.cls-25{clip-path:url(#clip-path-8);}.cls-26{clip-path:url(#clip-path-9);}.cls-27{clip-path:url(#clip-path-10);}.cls-28{clip-path:url(#clip-path-11);}.cls-29{clip-path:url(#clip-path-12);}.cls-30{clip-path:url(#clip-path-13);}.cls-31{fill:#66c;}.cls-32{fill:#0f2a55;}.cls-33{fill:#0a0f2b;}.cls-34,.cls-42{fill:#edbc9c;}.cls-35{stroke:#a73c31;stroke-width:0.51px;}.cls-35,.cls-38,.cls-40,.cls-44,.cls-50{stroke-miterlimit:10;}.cls-36{fill:#f8e8b5;}.cls-37{fill:#10163e;}.cls-38{stroke:#cc7332;}.cls-38,.cls-40{stroke-width:0.89px;}.cls-39{fill:#fefdff;}.cls-40{stroke:#232375;}.cls-41{fill:#2d1a14;}.cls-42{opacity:0.5;}.cls-43{fill:#4545a0;}.cls-44{stroke:#fefdff;stroke-width:1.78px;}.cls-45{clip-path:url(#clip-path-14);}.cls-46{clip-path:url(#clip-path-15);}.cls-47{clip-path:url(#clip-path-16);}.cls-48{clip-path:url(#clip-path-17);}.cls-49{clip-path:url(#clip-path-18);}.cls-50{stroke:#d4691a;stroke-width:0.67px;}</style><clipPath id="clip-path"><path class="cls-1" d="M419,446.38v11.91c0,4.13-22.05,7.48-49.26,7.48s-49.27-3.35-49.27-7.48V446.38Z"/></clipPath><clipPath id="clip-path-2"><path class="cls-1" d="M415.58,432.66v11.91c0,4.13-22.06,7.48-49.27,7.48s-49.26-3.35-49.26-7.48V432.66Z"/></clipPath><clipPath id="clip-path-3"><path class="cls-1" d="M427.34,419.11V431c0,4.13-22.06,7.48-49.27,7.48s-49.26-3.35-49.26-7.48V419.11Z"/></clipPath><clipPath id="clip-path-4"><path class="cls-1" d="M417.83,405.56v11.92c0,4.13-22.06,7.48-49.27,7.48s-49.26-3.35-49.26-7.48V405.56Z"/></clipPath><clipPath id="clip-path-5"><path class="cls-1" d="M426.36,392v11.91c0,4.13-22.05,7.48-49.26,7.48s-49.27-3.35-49.27-7.48V392Z"/></clipPath><clipPath id="clip-path-6"><path class="cls-1" d="M590.8,443.7v11.92c0,4.13-22,7.48-49.26,7.48s-49.27-3.35-49.27-7.48V443.7Z"/></clipPath><clipPath id="clip-path-7"><path class="cls-1" d="M587.34,430V441.9c0,4.13-22.06,7.48-49.27,7.48s-49.26-3.35-49.26-7.48V430Z"/></clipPath><clipPath id="clip-path-8"><path class="cls-1" d="M599.09,416.44v11.92c0,4.13-22.05,7.47-49.26,7.47s-49.27-3.34-49.27-7.47V416.44Z"/></clipPath><clipPath id="clip-path-9"><path class="cls-1" d="M589.59,402.89v11.92c0,4.13-22.06,7.48-49.27,7.48s-49.26-3.35-49.26-7.48V402.89Z"/></clipPath><clipPath id="clip-path-10"><path class="cls-1" d="M598.12,389.34v11.92c0,4.13-22.06,7.48-49.27,7.48s-49.26-3.35-49.26-7.48V389.34Z"/></clipPath><clipPath id="clip-path-11"><path class="cls-1" d="M592.09,376.41v11.92c0,4.13-22.06,7.48-49.27,7.48s-49.26-3.35-49.26-7.48V376.41Z"/></clipPath><clipPath id="clip-path-12"><path class="cls-1" d="M582.58,362.86v11.92c0,4.13-22.05,7.48-49.26,7.48s-49.27-3.35-49.27-7.48V362.86Z"/></clipPath><clipPath id="clip-path-13"><path class="cls-1" d="M591.12,349.31v11.92c0,4.13-22.06,7.48-49.27,7.48s-49.26-3.35-49.26-7.48V349.31Z"/></clipPath><clipPath id="clip-path-14"><path class="cls-1" d="M283.13,446.38v11.91c0,4.13-22.05,7.48-49.26,7.48s-49.27-3.35-49.27-7.48V446.38Z"/></clipPath><clipPath id="clip-path-15"><path class="cls-1" d="M290.27,432.92v11.91c0,4.14-22.06,7.48-49.27,7.48s-49.26-3.34-49.26-7.48V432.92Z"/></clipPath><clipPath id="clip-path-16"><path class="cls-1" d="M282.26,419.37v11.92c0,4.13-22.05,7.48-49.26,7.48s-49.27-3.35-49.27-7.48V419.37Z"/></clipPath><clipPath id="clip-path-17"><path class="cls-1" d="M134.59,446.38v11.91c0,4.13-22,7.48-49.26,7.48s-49.27-3.35-49.27-7.48V446.38Z"/></clipPath><clipPath id="clip-path-18"><path class="cls-1" d="M141.73,432.92v11.91c0,4.14-22.06,7.48-49.27,7.48S43.2,449,43.2,444.83V432.92Z"/></clipPath></defs><g class="cls-2"><g id="Capa_2" data-name="Capa 2"><g id="Capa_1-2" data-name="Capa 1"><g class="cls-3"><path class="cls-4" d="M111.57,440.73C71.23,436.81,30.73,416.6,11,381.25s-12.74-86.07,21-108.5c13.27-8.82,29.67-13.14,40.77-24.57,19.62-20.17,15-53,24.62-79.48,14.11-38.93,59.8-59.84,101-55.74,25.86,2.58,50.26,13.06,75.82,17.78,34.69,6.4,57.39-13.87,89.42-28.64,14.8-6.82,42.36-25.91,57.54-31.83s44.48-6.62,60.62-4.41c65.75,9,52.79,62.29,104.31,95.78,28.34,18.43,63,61.67,60.43,98.28-1.74,25.12-33.27,42.31-34.75,67.44-1.27,21.49,16.48,37.72,19,46.09,10.49,34.86.54,74.66-116.21,70.4Z"/></g><polygon class="cls-5" points="95.45 375.43 94.77 374.38 198.66 307.42 301.03 249.39 301.11 249.37 410.8 220.46 510.51 125.9 511.37 126.81 411.43 221.58 411.27 221.62 301.5 250.56 199.31 308.49 95.45 375.43"/><path class="cls-6" d="M206.41,307.23a7.44,7.44,0,1,1-8.13-6.69A7.44,7.44,0,0,1,206.41,307.23Z"/><path class="cls-7" d="M198.52,303a4.95,4.95,0,1,1-4.44,5.41,5,5,0,0,1,4.44-5.41m-.24-2.48a7.44,7.44,0,1,0,8.13,6.69,7.44,7.44,0,0,0-8.13-6.69Z"/><path class="cls-6" d="M102.52,374.19a7.44,7.44,0,1,1-8.13-6.7A7.44,7.44,0,0,1,102.52,374.19Z"/><path class="cls-7" d="M94.63,370a4.95,4.95,0,1,1-4.45,5.41A4.95,4.95,0,0,1,94.63,370m-.24-2.49a7.45,7.45,0,1,0,8.13,6.7,7.44,7.44,0,0,0-8.13-6.7Z"/><circle class="cls-6" cx="303.61" cy="249.75" r="7.45"/><path class="cls-7" d="M303.13,244.82a4.95,4.95,0,1,1-4.44,5.41,5,5,0,0,1,4.44-5.41m-.24-2.49A7.45,7.45,0,1,0,311,249a7.46,7.46,0,0,0-8.13-6.7Z"/><path class="cls-6" d="M418.52,220.3a7.44,7.44,0,1,1-8.13-6.69A7.44,7.44,0,0,1,418.52,220.3Z"/><path class="cls-7" d="M410.63,216.09a4.95,4.95,0,1,1-4.44,5.41,5,5,0,0,1,4.44-5.41m-.24-2.48a7.44,7.44,0,1,0,8.13,6.69,7.43,7.43,0,0,0-8.13-6.69Z"/><path class="cls-6" d="M518.35,125.63a7.45,7.45,0,1,1-8.13-6.69A7.45,7.45,0,0,1,518.35,125.63Z"/><path class="cls-7" d="M510.46,121.43a4.95,4.95,0,1,1-4.45,5.4,4.95,4.95,0,0,1,4.45-5.4m-.24-2.49a7.45,7.45,0,1,0,8.13,6.69,7.46,7.46,0,0,0-8.13-6.69Z"/><path class="cls-8" d="M539.62,182.67a7.83,7.83,0,1,1-6.68-8.83A7.83,7.83,0,0,1,539.62,182.67Z"/><polyline class="cls-9" points="528.4 181.48 531.05 184.87 535.89 179.93"/><path class="cls-8" d="M307.21,228.51a7.83,7.83,0,1,1-7.77-7.89A7.83,7.83,0,0,1,307.21,228.51Z"/><polyline class="cls-9" points="295.93 228.79 298.99 231.81 303.15 226.28"/><path class="cls-8" d="M180.43,119.79a2.88,2.88,0,1,1-2.88-2.88A2.88,2.88,0,0,1,180.43,119.79Z"/><path class="cls-8" d="M122.59,395.61a1.77,1.77,0,1,1-1.77-1.76A1.76,1.76,0,0,1,122.59,395.61Z"/><path class="cls-8" d="M104.13,428.37a1.77,1.77,0,1,1-1.77-1.76A1.76,1.76,0,0,1,104.13,428.37Z"/><path class="cls-8" d="M548.35,313.73a2.88,2.88,0,1,1-2.88-2.88A2.88,2.88,0,0,1,548.35,313.73Z"/><path class="cls-8" d="M465.34,180.33a2.88,2.88,0,1,1-2.88-2.88A2.88,2.88,0,0,1,465.34,180.33Z"/><path class="cls-8" d="M148.5,294.34a.92.92,0,0,1-.92-.92v-6.48a.92.92,0,0,1,1.83,0v6.48A.92.92,0,0,1,148.5,294.34Z"/><path class="cls-8" d="M151.74,291.1h-6.48a.92.92,0,0,1,0-1.84h6.48a.92.92,0,0,1,0,1.84Z"/><path class="cls-8" d="M465.85,396.25a.92.92,0,0,1-.92-.92v-6.48a.92.92,0,0,1,1.84,0v6.48A.92.92,0,0,1,465.85,396.25Z"/><path class="cls-8" d="M469.09,393h-6.48a.92.92,0,0,1,0-1.84h6.48a.92.92,0,0,1,0,1.84Z"/><path class="cls-8" d="M123.33,348.13a.92.92,0,0,1-.92-.91v-6.48a.92.92,0,1,1,1.84,0v6.48A.92.92,0,0,1,123.33,348.13Z"/><path class="cls-8" d="M126.57,344.89h-6.48a.92.92,0,1,1,0-1.83h6.48a.92.92,0,1,1,0,1.83Z"/><path class="cls-8" d="M287.28,167.71a.92.92,0,0,1-.92-.92v-6.48a.92.92,0,0,1,1.84,0v6.48A.92.92,0,0,1,287.28,167.71Z"/><path class="cls-8" d="M290.52,164.47H284a.92.92,0,1,1,0-1.84h6.48a.92.92,0,1,1,0,1.84Z"/><path class="cls-8" d="M306.39,441.55h-2.32v-2.32a.92.92,0,0,0-1.84,0v2.32h-2.32a.92.92,0,1,0,0,1.84h2.32v2.32a.92.92,0,1,0,1.84,0v-2.32h2.32a.92.92,0,1,0,0-1.84Z"/><path class="cls-10" d="M594.45,216.78a23.26,23.26,0,0,1-.89,6.45,23.58,23.58,0,1,1-22.69-30v23.58l20.34-11.9A23.44,23.44,0,0,1,594.45,216.78Z"/><path class="cls-11" d="M593.34,200.74A23.54,23.54,0,0,0,573,189.05v23.58Z"/><path class="cls-10" d="M594.45,216.78a23.26,23.26,0,0,1-.89,6.45l-22.69-6.45,20.34-11.9A23.44,23.44,0,0,1,594.45,216.78Z"/><path class="cls-12" d="M570.87,193.2v23.58l-19.45,13.33a23.58,23.58,0,0,1,19.45-36.91Z"/><path class="cls-11" d="M175.6,155c0-.24-.11-.51-.18-.75a23.57,23.57,0,0,0-.81-2.94,26,26,0,0,0-3.05-6.1l3-3-7.13-7.12-.14.13-2.82,2.84a26.51,26.51,0,0,0-9.79-4v-4.2H144.59v4.2a26.51,26.51,0,0,0-9.79,4l-3-3-7.12,7.12,3,3a26.52,26.52,0,0,0-4.06,9.79h-4.2v10.07h4.22a26.16,26.16,0,0,0,4,9.79l-3,3,7.12,7.12,3-3a26.16,26.16,0,0,0,9.79,4v4.22h10.07V186a26.16,26.16,0,0,0,9.79-4l2.82,2.84.14.14,4.29-4.28,2.84-2.84L171.7,175l-.14-.14c.05-.07.08-.14.14-.21a26.23,26.23,0,0,0,3.9-9.58h4.21V155Zm-26,21.84a16.81,16.81,0,1,1,16.81-16.81A16.8,16.8,0,0,1,149.63,176.88Z"/><path class="cls-11" d="M139.68,198c0-.15-.06-.31-.1-.45a14.4,14.4,0,0,0-.49-1.77,15.67,15.67,0,0,0-1.83-3.66L139,190.3,134.77,186l-.08.08-1.7,1.71a15.74,15.74,0,0,0-5.87-2.44v-2.52h-6v2.52a15.79,15.79,0,0,0-5.88,2.44L113.42,186l-4.27,4.27,1.79,1.78A16,16,0,0,0,108.5,198H106v6h2.53a15.72,15.72,0,0,0,2.43,5.87l-1.79,1.78,4.27,4.27,1.78-1.78a15.75,15.75,0,0,0,5.88,2.42v2.53h6v-2.53a15.71,15.71,0,0,0,5.87-2.42l1.7,1.7.08.08,2.57-2.57,1.7-1.7-1.7-1.69-.08-.09.08-.12a15.56,15.56,0,0,0,2.34-5.75h2.53v-6Zm-15.58,13.1A10.09,10.09,0,1,1,134.18,201,10.08,10.08,0,0,1,124.1,211.06Z"/><g class="cls-13"><path class="cls-8" d="M478.17,300.45A12.6,12.6,0,1,0,490.78,313,12.6,12.6,0,0,0,478.17,300.45Zm0,18.28a5.69,5.69,0,1,1,5.7-5.69A5.67,5.67,0,0,1,478.17,318.73Z"/><path class="cls-8" d="M478.17,287.06a26,26,0,1,0,26,26A26,26,0,0,0,478.17,287.06Zm0,45.28a19.29,19.29,0,1,1,19.3-19.3A19.29,19.29,0,0,1,478.17,332.34Z"/><path class="cls-8" d="M478.17,300.45A12.6,12.6,0,1,0,490.78,313,12.6,12.6,0,0,0,478.17,300.45Zm0,18.28a5.69,5.69,0,1,1,5.7-5.69A5.67,5.67,0,0,1,478.17,318.73Z"/><path class="cls-8" d="M478.17,300.45A12.6,12.6,0,1,0,490.78,313,12.6,12.6,0,0,0,478.17,300.45Zm0,18.28a5.69,5.69,0,1,1,5.7-5.69A5.67,5.67,0,0,1,478.17,318.73Z"/><rect class="cls-8" x="472.54" y="299.26" width="36.51" height="1.18" transform="translate(-65.16 447.19) rotate(-46.27)"/><rect class="cls-8" x="477.84" y="311.29" width="0.59" height="3.52" transform="translate(-74.85 457.34) rotate(-47.84)"/><rect class="cls-8" x="476.38" y="312.76" width="3.52" height="0.59" transform="translate(-74.83 457.43) rotate(-47.85)"/><path class="cls-8" d="M507.42,287.28h-4a.58.58,0,0,1-.44-.19.6.6,0,0,1-.15-.45l.37-4.35a.59.59,0,0,1,.64-.54.6.6,0,0,1,.54.64l-.32,3.71h3.34a.59.59,0,0,1,.59.59A.58.58,0,0,1,507.42,287.28Z"/><path class="cls-8" d="M505.19,289.52h-4a.59.59,0,0,1-.43-.19.61.61,0,0,1-.16-.45l.37-4.35a.58.58,0,0,1,.64-.54.59.59,0,0,1,.54.64l-.31,3.71h3.34a.6.6,0,0,1,.59.59A.59.59,0,0,1,505.19,289.52Z"/></g><path class="cls-14" d="M419,446.38v11.91c0,4.13-22.05,7.48-49.26,7.48s-49.27-3.35-49.27-7.48V446.38Z"/><g class="cls-15"><rect class="cls-16" x="415.63" y="441.43" width="2.33" height="27.31"/><rect class="cls-16" x="409.59" y="441.43" width="2.33" height="27.31"/><rect class="cls-16" x="402.68" y="441.43" width="2.33" height="27.31"/><rect class="cls-16" x="394.07" y="441.43" width="2.33" height="27.31"/><rect class="cls-16" x="384.6" y="441.43" width="2.33" height="27.31"/><rect class="cls-16" x="374.27" y="441.43" width="2.33" height="27.31"/><rect class="cls-16" x="321.59" y="441.43" width="2.33" height="27.31"/><rect class="cls-16" x="327.64" y="441.43" width="2.33" height="27.31"/><rect class="cls-16" x="334.54" y="441.43" width="2.33" height="27.31"/><rect class="cls-16" x="343.16" y="441.43" width="2.33" height="27.31"/><rect class="cls-16" x="352.63" y="441.43" width="2.33" height="27.31"/><rect class="cls-16" x="362.95" y="441.43" width="2.33" height="27.31"/></g><path class="cls-17" d="M320.51,446.15c0,4.14,22.06,7.48,49.27,7.48S419,450.29,419,446.15s-22.05-7.47-49.26-7.47S320.51,442,320.51,446.15Z"/><path class="cls-18" d="M330.61,445.37c0,1.92,17.54,3.47,39.17,3.47s39.16-1.55,39.16-3.47-17.53-3.47-39.16-3.47S330.61,443.45,330.61,445.37Z"/><path class="cls-16" d="M407.26,446.38c-4.88-1.43-19.81-2.46-37.48-2.46s-32.6,1-37.48,2.46c-1.09-.32-1.69-.66-1.69-1,0-1.92,17.54-3.47,39.17-3.47s39.16,1.55,39.16,3.47C408.94,445.72,408.35,446.06,407.26,446.38Z"/><path class="cls-14" d="M415.58,432.66v11.91c0,4.13-22.06,7.48-49.27,7.48s-49.26-3.35-49.26-7.48V432.66Z"/><g class="cls-19"><rect class="cls-16" x="412.17" y="427.71" width="2.33" height="27.32"/><rect class="cls-16" x="406.12" y="427.71" width="2.33" height="27.32"/><rect class="cls-16" x="399.22" y="427.71" width="2.33" height="27.32"/><rect class="cls-16" x="390.6" y="427.71" width="2.33" height="27.32"/><rect class="cls-16" x="381.13" y="427.71" width="2.33" height="27.32"/><rect class="cls-16" x="370.8" y="427.71" width="2.33" height="27.32"/><rect class="cls-16" x="318.13" y="427.71" width="2.33" height="27.32"/><rect class="cls-16" x="324.17" y="427.71" width="2.33" height="27.32"/><rect class="cls-16" x="331.08" y="427.71" width="2.33" height="27.32"/><rect class="cls-16" x="339.69" y="427.71" width="2.33" height="27.32"/><rect class="cls-16" x="349.16" y="427.71" width="2.33" height="27.32"/><rect class="cls-16" x="359.49" y="427.71" width="2.33" height="27.32"/></g><path class="cls-17" d="M317.05,432.43c0,4.14,22.05,7.48,49.26,7.48s49.27-3.34,49.27-7.48S393.52,425,366.31,425,317.05,428.3,317.05,432.43Z"/><path class="cls-18" d="M327.15,431.65c0,1.92,17.53,3.47,39.16,3.47s39.17-1.55,39.17-3.47-17.54-3.47-39.17-3.47S327.15,429.73,327.15,431.65Z"/><path class="cls-16" d="M403.79,432.66c-4.88-1.43-19.81-2.46-37.48-2.46s-32.6,1-37.47,2.46c-1.1-.32-1.69-.66-1.69-1,0-1.92,17.53-3.47,39.16-3.47s39.17,1.55,39.17,3.47C405.48,432,404.88,432.34,403.79,432.66Z"/><path class="cls-14" d="M427.34,419.11V431c0,4.13-22.06,7.48-49.27,7.48s-49.26-3.35-49.26-7.48V419.11Z"/><g class="cls-20"><rect class="cls-16" x="423.93" y="414.16" width="2.33" height="27.32"/><rect class="cls-16" x="417.88" y="414.16" width="2.33" height="27.32"/><rect class="cls-16" x="410.97" y="414.16" width="2.33" height="27.32"/><rect class="cls-16" x="402.36" y="414.16" width="2.33" height="27.32"/><rect class="cls-16" x="392.89" y="414.16" width="2.33" height="27.32"/><rect class="cls-16" x="382.56" y="414.16" width="2.33" height="27.32"/><rect class="cls-16" x="329.88" y="414.16" width="2.33" height="27.32"/><rect class="cls-16" x="335.93" y="414.16" width="2.33" height="27.32"/><rect class="cls-16" x="342.84" y="414.16" width="2.33" height="27.32"/><rect class="cls-16" x="351.45" y="414.16" width="2.33" height="27.32"/><rect class="cls-16" x="360.92" y="414.16" width="2.33" height="27.32"/><rect class="cls-16" x="371.25" y="414.16" width="2.33" height="27.32"/></g><ellipse class="cls-17" cx="378.07" cy="418.89" rx="49.27" ry="7.48"/><ellipse class="cls-18" cx="378.07" cy="418.1" rx="39.16" ry="3.47"/><path class="cls-16" d="M415.55,419.11c-4.88-1.42-19.81-2.46-37.48-2.46s-32.6,1-37.48,2.46c-1.09-.32-1.68-.65-1.68-1,0-1.91,17.53-3.47,39.16-3.47s39.17,1.56,39.17,3.47C417.24,418.46,416.64,418.79,415.55,419.11Z"/><path class="cls-14" d="M417.83,405.56v11.92c0,4.13-22.06,7.48-49.27,7.48s-49.26-3.35-49.26-7.48V405.56Z"/><g class="cls-21"><rect class="cls-16" x="414.42" y="400.62" width="2.33" height="27.31"/><rect class="cls-16" x="408.37" y="400.62" width="2.33" height="27.31"/><rect class="cls-16" x="401.47" y="400.62" width="2.33" height="27.31"/><rect class="cls-16" x="392.85" y="400.62" width="2.33" height="27.31"/><rect class="cls-16" x="383.38" y="400.62" width="2.33" height="27.31"/><rect class="cls-16" x="373.05" y="400.62" width="2.33" height="27.31"/><rect class="cls-16" x="320.38" y="400.62" width="2.33" height="27.31"/><rect class="cls-16" x="326.42" y="400.62" width="2.33" height="27.31"/><rect class="cls-16" x="333.33" y="400.62" width="2.33" height="27.31"/><rect class="cls-16" x="341.94" y="400.62" width="2.33" height="27.31"/><rect class="cls-16" x="351.41" y="400.62" width="2.33" height="27.31"/><rect class="cls-16" x="361.74" y="400.62" width="2.33" height="27.31"/></g><ellipse class="cls-17" cx="368.56" cy="405.34" rx="49.27" ry="7.48"/><path class="cls-18" d="M329.4,404.56c0,1.91,17.53,3.47,39.16,3.47s39.17-1.56,39.17-3.47-17.54-3.48-39.17-3.48S329.4,402.64,329.4,404.56Z"/><path class="cls-16" d="M406,405.56c-4.88-1.42-19.81-2.46-37.48-2.46s-32.59,1-37.47,2.46c-1.1-.31-1.69-.65-1.69-1,0-1.92,17.53-3.48,39.16-3.48s39.17,1.56,39.17,3.48C407.73,404.91,407.13,405.25,406,405.56Z"/><path class="cls-14" d="M426.36,392v11.91c0,4.13-22.05,7.48-49.26,7.48s-49.27-3.35-49.27-7.48V392Z"/><g class="cls-22"><rect class="cls-16" x="422.95" y="387.07" width="2.33" height="27.32"/><rect class="cls-16" x="416.9" y="387.07" width="2.33" height="27.32"/><rect class="cls-16" x="410" y="387.07" width="2.33" height="27.32"/><rect class="cls-16" x="401.38" y="387.07" width="2.33" height="27.32"/><rect class="cls-16" x="391.91" y="387.07" width="2.33" height="27.32"/><rect class="cls-16" x="381.59" y="387.07" width="2.33" height="27.32"/><rect class="cls-16" x="328.91" y="387.07" width="2.33" height="27.32"/><rect class="cls-16" x="334.96" y="387.07" width="2.33" height="27.32"/><rect class="cls-16" x="341.86" y="387.07" width="2.33" height="27.32"/><rect class="cls-16" x="350.48" y="387.07" width="2.33" height="27.32"/><rect class="cls-16" x="359.95" y="387.07" width="2.33" height="27.32"/><rect class="cls-16" x="370.27" y="387.07" width="2.33" height="27.32"/></g><path class="cls-17" d="M327.83,391.79c0,4.13,22.06,7.48,49.27,7.48s49.26-3.35,49.26-7.48-22.05-7.48-49.26-7.48S327.83,387.66,327.83,391.79Z"/><path class="cls-14" d="M337.93,391c0,1.91,17.54,3.47,39.17,3.47s39.16-1.56,39.16-3.47-17.53-3.47-39.16-3.47S337.93,389.09,337.93,391Z"/><path class="cls-16" d="M414.57,392c-4.87-1.43-19.8-2.47-37.47-2.47s-32.6,1-37.48,2.47c-1.09-.32-1.69-.66-1.69-1,0-1.92,17.54-3.47,39.17-3.47s39.16,1.55,39.16,3.47C416.26,391.36,415.67,391.7,414.57,392Z"/><path class="cls-14" d="M590.8,443.7v11.92c0,4.13-22,7.48-49.26,7.48s-49.27-3.35-49.27-7.48V443.7Z"/><g class="cls-23"><rect class="cls-16" x="587.39" y="438.75" width="2.33" height="27.31"/><rect class="cls-16" x="581.34" y="438.75" width="2.33" height="27.31"/><rect class="cls-16" x="574.44" y="438.75" width="2.33" height="27.31"/><rect class="cls-16" x="565.82" y="438.75" width="2.33" height="27.31"/><rect class="cls-16" x="556.35" y="438.75" width="2.33" height="27.31"/><rect class="cls-16" x="546.03" y="438.75" width="2.33" height="27.31"/><rect class="cls-16" x="493.35" y="438.75" width="2.33" height="27.31"/><rect class="cls-16" x="499.4" y="438.75" width="2.33" height="27.31"/><rect class="cls-16" x="506.3" y="438.75" width="2.33" height="27.31"/><rect class="cls-16" x="514.92" y="438.75" width="2.33" height="27.31"/><rect class="cls-16" x="524.39" y="438.75" width="2.33" height="27.31"/><rect class="cls-16" x="534.71" y="438.75" width="2.33" height="27.31"/></g><path class="cls-17" d="M492.27,443.48c0,4.13,22.06,7.48,49.27,7.48s49.26-3.35,49.26-7.48-22-7.48-49.26-7.48S492.27,439.35,492.27,443.48Z"/><path class="cls-18" d="M502.37,442.69c0,1.92,17.54,3.48,39.17,3.48s39.16-1.56,39.16-3.48-17.53-3.47-39.16-3.47S502.37,440.78,502.37,442.69Z"/><path class="cls-16" d="M579,443.7c-4.88-1.42-19.81-2.46-37.47-2.46s-32.6,1-37.48,2.46c-1.09-.32-1.69-.66-1.69-1,0-1.91,17.54-3.47,39.17-3.47s39.16,1.56,39.16,3.47C580.7,443,580.11,443.38,579,443.7Z"/><path class="cls-14" d="M587.34,430V441.9c0,4.13-22.06,7.48-49.27,7.48s-49.26-3.35-49.26-7.48V430Z"/><g class="cls-24"><rect class="cls-16" x="583.92" y="425.03" width="2.33" height="27.32"/><rect class="cls-16" x="577.88" y="425.03" width="2.33" height="27.32"/><rect class="cls-16" x="570.97" y="425.03" width="2.33" height="27.32"/><rect class="cls-16" x="562.36" y="425.03" width="2.33" height="27.32"/><rect class="cls-16" x="552.89" y="425.03" width="2.33" height="27.32"/><rect class="cls-16" x="542.56" y="425.03" width="2.33" height="27.32"/><rect class="cls-16" x="489.88" y="425.03" width="2.33" height="27.32"/><rect class="cls-16" x="495.93" y="425.03" width="2.33" height="27.32"/><rect class="cls-16" x="502.84" y="425.03" width="2.33" height="27.32"/><rect class="cls-16" x="511.45" y="425.03" width="2.33" height="27.32"/><rect class="cls-16" x="520.92" y="425.03" width="2.33" height="27.32"/><rect class="cls-16" x="531.25" y="425.03" width="2.33" height="27.32"/></g><path class="cls-17" d="M488.81,429.76c0,4.13,22.05,7.48,49.26,7.48s49.27-3.35,49.27-7.48-22.06-7.48-49.27-7.48S488.81,425.63,488.81,429.76Z"/><path class="cls-18" d="M498.91,429c0,1.92,17.53,3.48,39.16,3.48s39.16-1.56,39.16-3.48-17.53-3.47-39.16-3.47S498.91,427.06,498.91,429Z"/><path class="cls-16" d="M575.55,430c-4.88-1.42-19.81-2.46-37.48-2.46s-32.6,1-37.48,2.46c-1.09-.32-1.68-.66-1.68-1,0-1.91,17.53-3.47,39.16-3.47s39.16,1.56,39.16,3.47C577.23,429.32,576.64,429.66,575.55,430Z"/><path class="cls-14" d="M599.09,416.44v11.92c0,4.13-22.05,7.47-49.26,7.47s-49.27-3.34-49.27-7.47V416.44Z"/><g class="cls-25"><rect class="cls-16" x="595.68" y="411.49" width="2.33" height="27.32"/><rect class="cls-16" x="589.63" y="411.49" width="2.33" height="27.32"/><rect class="cls-16" x="582.73" y="411.49" width="2.33" height="27.32"/><rect class="cls-16" x="574.12" y="411.49" width="2.33" height="27.32"/><rect class="cls-16" x="564.65" y="411.49" width="2.33" height="27.32"/><rect class="cls-16" x="554.32" y="411.49" width="2.33" height="27.32"/><rect class="cls-16" x="501.64" y="411.49" width="2.33" height="27.32"/><rect class="cls-16" x="507.69" y="411.49" width="2.33" height="27.32"/><rect class="cls-16" x="514.59" y="411.49" width="2.33" height="27.32"/><rect class="cls-16" x="523.21" y="411.49" width="2.33" height="27.32"/><rect class="cls-16" x="532.68" y="411.49" width="2.33" height="27.32"/><rect class="cls-16" x="543" y="411.49" width="2.33" height="27.32"/></g><ellipse class="cls-17" cx="549.83" cy="416.22" rx="49.27" ry="7.48"/><ellipse class="cls-18" cx="549.83" cy="415.43" rx="39.16" ry="3.47"/><path class="cls-16" d="M587.31,416.44C582.43,415,567.5,414,549.83,414s-32.6,1-37.48,2.46c-1.09-.32-1.69-.66-1.69-1,0-1.92,17.54-3.47,39.17-3.47S589,413.51,589,415.43C589,415.78,588.4,416.12,587.31,416.44Z"/><path class="cls-14" d="M589.59,402.89v11.92c0,4.13-22.06,7.48-49.27,7.48s-49.26-3.35-49.26-7.48V402.89Z"/><g class="cls-26"><rect class="cls-16" x="586.18" y="397.94" width="2.33" height="27.31"/><rect class="cls-16" x="580.13" y="397.94" width="2.33" height="27.31"/><rect class="cls-16" x="573.22" y="397.94" width="2.33" height="27.31"/><rect class="cls-16" x="564.61" y="397.94" width="2.33" height="27.31"/><rect class="cls-16" x="555.14" y="397.94" width="2.33" height="27.31"/><rect class="cls-16" x="544.81" y="397.94" width="2.33" height="27.31"/><rect class="cls-16" x="492.13" y="397.94" width="2.33" height="27.31"/><rect class="cls-16" x="498.18" y="397.94" width="2.33" height="27.31"/><rect class="cls-16" x="505.09" y="397.94" width="2.33" height="27.31"/><rect class="cls-16" x="513.7" y="397.94" width="2.33" height="27.31"/><rect class="cls-16" x="523.17" y="397.94" width="2.33" height="27.31"/><rect class="cls-16" x="533.5" y="397.94" width="2.33" height="27.31"/></g><ellipse class="cls-17" cx="540.32" cy="402.67" rx="49.27" ry="7.48"/><path class="cls-18" d="M501.16,401.88c0,1.92,17.53,3.47,39.16,3.47s39.17-1.55,39.17-3.47-17.54-3.47-39.17-3.47S501.16,400,501.16,401.88Z"/><path class="cls-16" d="M577.8,402.89c-4.88-1.42-19.81-2.46-37.48-2.46s-32.6,1-37.48,2.46c-1.09-.32-1.68-.66-1.68-1,0-1.92,17.53-3.47,39.16-3.47s39.17,1.55,39.17,3.47C579.49,402.23,578.89,402.57,577.8,402.89Z"/><path class="cls-14" d="M598.12,389.34v11.92c0,4.13-22.06,7.48-49.27,7.48s-49.26-3.35-49.26-7.48V389.34Z"/><g class="cls-27"><rect class="cls-16" x="594.71" y="384.39" width="2.33" height="27.32"/><rect class="cls-16" x="588.66" y="384.39" width="2.33" height="27.32"/><rect class="cls-16" x="581.76" y="384.39" width="2.33" height="27.32"/><rect class="cls-16" x="573.14" y="384.39" width="2.33" height="27.32"/><rect class="cls-16" x="563.67" y="384.39" width="2.33" height="27.32"/><rect class="cls-16" x="553.35" y="384.39" width="2.33" height="27.32"/><rect class="cls-16" x="500.67" y="384.39" width="2.33" height="27.32"/><rect class="cls-16" x="506.71" y="384.39" width="2.33" height="27.32"/><rect class="cls-16" x="513.62" y="384.39" width="2.33" height="27.32"/><rect class="cls-16" x="522.23" y="384.39" width="2.33" height="27.32"/><rect class="cls-16" x="531.7" y="384.39" width="2.33" height="27.32"/><rect class="cls-16" x="542.03" y="384.39" width="2.33" height="27.32"/></g><path class="cls-17" d="M499.59,389.12c0,4.13,22.06,7.48,49.26,7.48s49.27-3.35,49.27-7.48-22.06-7.48-49.27-7.48S499.59,385,499.59,389.12Z"/><path class="cls-14" d="M509.69,388.33c0,1.92,17.53,3.47,39.16,3.47S588,390.25,588,388.33s-17.54-3.47-39.17-3.47S509.69,386.42,509.69,388.33Z"/><path class="cls-16" d="M586.33,389.34c-4.88-1.42-19.81-2.46-37.48-2.46s-32.59,1-37.47,2.46c-1.1-.32-1.69-.66-1.69-1,0-1.91,17.53-3.47,39.16-3.47S588,386.42,588,388.33C588,388.68,587.43,389,586.33,389.34Z"/><path class="cls-14" d="M592.09,376.41v11.92c0,4.13-22.06,7.48-49.27,7.48s-49.26-3.35-49.26-7.48V376.41Z"/><g class="cls-28"><rect class="cls-16" x="588.68" y="371.46" width="2.33" height="27.32"/><rect class="cls-16" x="582.63" y="371.46" width="2.33" height="27.32"/><rect class="cls-16" x="575.73" y="371.46" width="2.33" height="27.32"/><rect class="cls-16" x="567.11" y="371.46" width="2.33" height="27.32"/><rect class="cls-16" x="557.64" y="371.46" width="2.33" height="27.32"/><rect class="cls-16" x="547.32" y="371.46" width="2.33" height="27.32"/><rect class="cls-16" x="494.64" y="371.46" width="2.33" height="27.32"/><rect class="cls-16" x="500.68" y="371.46" width="2.33" height="27.32"/><rect class="cls-16" x="507.59" y="371.46" width="2.33" height="27.32"/><rect class="cls-16" x="516.2" y="371.46" width="2.33" height="27.32"/><rect class="cls-16" x="525.67" y="371.46" width="2.33" height="27.32"/><rect class="cls-16" x="536" y="371.46" width="2.33" height="27.32"/></g><ellipse class="cls-17" cx="542.82" cy="376.19" rx="49.27" ry="7.48"/><path class="cls-18" d="M503.66,375.4c0,1.92,17.53,3.47,39.16,3.47S582,377.32,582,375.4s-17.54-3.47-39.17-3.47S503.66,373.48,503.66,375.4Z"/><path class="cls-16" d="M580.3,376.41C575.42,375,560.49,374,542.82,374s-32.59,1-37.47,2.46c-1.1-.32-1.69-.66-1.69-1,0-1.92,17.53-3.47,39.16-3.47S582,373.48,582,375.4C582,375.75,581.39,376.09,580.3,376.41Z"/><path class="cls-14" d="M582.58,362.86v11.92c0,4.13-22.05,7.48-49.26,7.48s-49.27-3.35-49.27-7.48V362.86Z"/><g class="cls-29"><rect class="cls-16" x="579.17" y="357.91" width="2.33" height="27.31"/><rect class="cls-16" x="573.12" y="357.91" width="2.33" height="27.31"/><rect class="cls-16" x="566.22" y="357.91" width="2.33" height="27.31"/><rect class="cls-16" x="557.6" y="357.91" width="2.33" height="27.31"/><rect class="cls-16" x="548.13" y="357.91" width="2.33" height="27.31"/><rect class="cls-16" x="537.81" y="357.91" width="2.33" height="27.31"/><rect class="cls-16" x="485.13" y="357.91" width="2.33" height="27.31"/><rect class="cls-16" x="491.18" y="357.91" width="2.33" height="27.31"/><rect class="cls-16" x="498.08" y="357.91" width="2.33" height="27.31"/><rect class="cls-16" x="506.7" y="357.91" width="2.33" height="27.31"/><rect class="cls-16" x="516.17" y="357.91" width="2.33" height="27.31"/><rect class="cls-16" x="526.49" y="357.91" width="2.33" height="27.31"/></g><ellipse class="cls-17" cx="533.32" cy="362.64" rx="49.27" ry="7.48"/><path class="cls-18" d="M494.15,361.85c0,1.92,17.54,3.47,39.17,3.47s39.16-1.55,39.16-3.47-17.53-3.47-39.16-3.47S494.15,359.93,494.15,361.85Z"/><path class="cls-16" d="M570.79,362.86c-4.87-1.42-19.8-2.46-37.47-2.46s-32.6,1-37.48,2.46c-1.09-.32-1.69-.66-1.69-1,0-1.92,17.54-3.47,39.17-3.47s39.16,1.55,39.16,3.47C572.48,362.2,571.89,362.54,570.79,362.86Z"/><path class="cls-14" d="M591.12,349.31v11.92c0,4.13-22.06,7.48-49.27,7.48s-49.26-3.35-49.26-7.48V349.31Z"/><g class="cls-30"><rect class="cls-16" x="587.7" y="344.36" width="2.33" height="27.32"/><rect class="cls-16" x="581.66" y="344.36" width="2.33" height="27.32"/><rect class="cls-16" x="574.75" y="344.36" width="2.33" height="27.32"/><rect class="cls-16" x="566.14" y="344.36" width="2.33" height="27.32"/><rect class="cls-16" x="556.67" y="344.36" width="2.33" height="27.32"/><rect class="cls-16" x="546.34" y="344.36" width="2.33" height="27.32"/><rect class="cls-16" x="493.66" y="344.36" width="2.33" height="27.32"/><rect class="cls-16" x="499.71" y="344.36" width="2.33" height="27.32"/><rect class="cls-16" x="506.62" y="344.36" width="2.33" height="27.32"/><rect class="cls-16" x="515.23" y="344.36" width="2.33" height="27.32"/><rect class="cls-16" x="524.7" y="344.36" width="2.33" height="27.32"/><rect class="cls-16" x="535.03" y="344.36" width="2.33" height="27.32"/></g><path class="cls-17" d="M492.59,349.09c0,4.13,22.05,7.48,49.26,7.48s49.27-3.35,49.27-7.48-22.06-7.48-49.27-7.48S492.59,345,492.59,349.09Z"/><path class="cls-14" d="M502.69,348.3c0,1.92,17.53,3.47,39.16,3.47S581,350.22,581,348.3s-17.53-3.47-39.16-3.47S502.69,346.39,502.69,348.3Z"/><path class="cls-16" d="M579.33,349.31c-4.88-1.42-19.81-2.46-37.48-2.46s-32.6,1-37.48,2.46c-1.09-.32-1.68-.66-1.68-1,0-1.91,17.53-3.47,39.16-3.47S581,346.39,581,348.3C581,348.65,580.42,349,579.33,349.31Z"/><path class="cls-31" d="M393.28,377.55a89,89,0,0,0-2.59,13.19,13.76,13.76,0,0,0,6.67,0c3.12-.95,13.19,3.4,18.22-.13l-11.78-7.05a6.45,6.45,0,0,1-3.1-4.87l-.22-2.09Z"/><path class="cls-31" d="M333.46,369.37a89,89,0,0,0-6.11,12,14,14,0,0,0,6.41,1.83c3.27-.06,11.75,6.89,17.56,4.87l-9.4-10a6.45,6.45,0,0,1-1.64-5.53l.37-2.07Z"/><path class="cls-32" d="M402.71,229.09l6.2,77.16a28.58,28.58,0,0,1,0,4.34L403.64,379s-7.25,1.09-12.33,0l-4.17-69.82-14.75-77.35L380.08,209Z"/><path class="cls-33" d="M380.24,272.94l-7.85-41.15L380.08,209l22.63,20.07,1.14,14.2C397.77,246.41,385.44,254.78,380.24,272.94Z"/><path class="cls-32" d="M383.32,229.22l-15.24,75.89a27.5,27.5,0,0,1-1.18,4.17L343,373.57s-7.27-.95-11.86-3.39l15.18-68.27,7.06-78.43,13.66-19.78Z"/><path class="cls-34" d="M459.05,167.07l4.4-6a35.44,35.44,0,0,1,.64-4.82l1.83-5.12.46-.66a1,1,0,0,1,1.46-.25,2.19,2.19,0,0,1,.71,1l-1.66,4.24,2.71-3.62a.91.91,0,0,1,1.18-.22L473,153.4l4.29,3.16a2.08,2.08,0,0,1,.67,2.52c-.94,2.15-3.18,5.73-7.8,6.15l-2.77,6.26Z"/><path class="cls-35" d="M466.78,156a6,6,0,0,1,.57,7.28"/><polygon class="cls-36" points="457.67 166.44 460.41 162.29 470.63 167.97 468.55 172.78 457.67 166.44"/><path class="cls-32" d="M416,157.1c6.53,5,22.85,31.55,22.85,31.55l19-23.53,12.11,6.8s-9.52,22.2-16.46,34.22-23.39,14.7-31,.32c-6.44-12.15-16.18-33.86-16.18-33.86Z"/><path class="cls-37" d="M442.43,194.91l-3.61-6.26L444.2,182C443.28,187.9,442.43,194.91,442.43,194.91Z"/><path class="cls-37" d="M417.29,196.11c-4-8.29-8.07-17.12-9.93-21.19L413.71,164s2.17,24.52,3.58,32.12Z"/><path class="cls-32" d="M382.15,236.31l-2.27-16.52-4.55,16.3a6.26,6.26,0,0,1-7.34,4.45,62.57,62.57,0,0,1-20.56-8.1l8.34-23-4-57.68c13.06-5.1,30.86-6.69,30.86-6.69C404.69,147.44,416,157.1,416,157.1l-14.5,57.75,6,22.33A69.12,69.12,0,0,1,389,241.7,6.26,6.26,0,0,1,382.15,236.31Z"/><path class="cls-5" d="M376.21,148.39l3.7-5.67,10.68,1.19L393,150s-4.76,39.16-12.1,62.69C373.68,189.6,376.21,148.39,376.21,148.39Z"/><polyline class="cls-38" points="383.28 153.85 380.12 155.72 377.07 149.44"/><polyline class="cls-38" points="388.49 154.92 389.77 156.64 391.95 153.56"/><path class="cls-39" d="M376.44,185.27c2.77-10.19,6.66-24.47,7.57-27.72l-1.37-3.63,2.69-1.57a1.39,1.39,0,0,1,1.8.37l1.71,2.34L387,158s-.17,17.86-.61,32.73c-1.59,7.76-3.43,15.49-5.46,22C378.44,204.88,377.12,195,376.44,185.27Z"/><path class="cls-40" d="M394.19,147.12,402.71,159l-9.09,16.05,4.9,8.71S387,206.74,382.64,212.72"/><path class="cls-40" d="M374.7,146.05l-8.77,9.37,6,18.13-6.66,6.37s10.53,25.46,14.28,32.8"/><polygon class="cls-37" points="360.78 163.99 362.52 170.43 355.77 209.41 353.69 179.39 360.78 163.99"/><path class="cls-34" d="M351.83,237.71l2.68,5.59s-.47,9.2,3.75,11.23c0,0,1.8.27,2.2-.85,1.88,1.07,2.64-.37,2.64-.37s2.34.4,2.56-1a2.12,2.12,0,0,0,3.1-1.07c.17-.94-3.82-1.84-4.31-6.21a4.6,4.6,0,0,1,3.73,1.21,1.06,1.06,0,0,0,1.47-.05l.54-.54s-2.92-4.27-6.9-4.48a1.92,1.92,0,0,1-1.58-1l-3-5.42Z"/><path class="cls-41" d="M394,127.27c6-.36,5.38-7.52,1.59-9.11-1.86-.78-2.9-.11-3.46.64a2.49,2.49,0,0,1-2.4.93c-2.16-.33-5.75-.65-7.92.38a3.62,3.62,0,0,0-2.22,4.48s-2.39.58-2.54,2.68c-.32,4.31,4.62,7.48,4.62,7.48Z"/><path class="cls-34" d="M394,127.27l-.68,4.26a9.11,9.11,0,0,1,.68,5.3,5.14,5.14,0,0,1-3,3.95l-.76,5.82a4.12,4.12,0,0,1-1.84,2.92l-2,1.32-4-2.88a4.86,4.86,0,0,1-1.85-5.14l1.74-6.71a3.26,3.26,0,0,1-2.45-2.22c-.4-1.82,1.18-3.77,3.22-1.5a7.72,7.72,0,0,0-.09-5.12c3.54,1.63,6.94,1,3.36-2C391.22,127.81,394,127.27,394,127.27Z"/><path class="cls-42" d="M391,140.78c-1.75.85-5.08.1-6.58-1.53,0,0,.47,4.31,6.22,4.28Z"/><path class="cls-32" d="M351.78,151.73c-5.7,2.79-16,22.19-22.66,37.28a23.19,23.19,0,0,0,1.46,21.48l20,32.59,11.58-5.9-13.19-36.7s9.76-21.21,12.83-27.61S360.49,151.79,351.78,151.73Z"/><polygon class="cls-5" points="461.47 134.16 439.68 85.27 514.86 81.07 461.47 134.16"/><path class="cls-39" d="M464.33,98.37a6,6,0,1,0,8,3A6,6,0,0,0,464.33,98.37Zm3.58,8a2.73,2.73,0,1,1,1.38-3.61A2.74,2.74,0,0,1,467.91,106.38Z"/><path class="cls-39" d="M461.72,92.5a12.46,12.46,0,1,0,16.46,6.31A12.48,12.48,0,0,0,461.72,92.5Zm8.84,19.84a9.25,9.25,0,1,1,4.69-12.22A9.24,9.24,0,0,1,470.56,112.34Z"/><path class="cls-39" d="M464.33,98.37a6,6,0,1,0,8,3A6,6,0,0,0,464.33,98.37Zm3.58,8a2.73,2.73,0,1,1,1.38-3.61A2.74,2.74,0,0,1,467.91,106.38Z"/><path class="cls-39" d="M464.33,98.37a6,6,0,1,0,8,3A6,6,0,0,0,464.33,98.37Zm3.58,8a2.73,2.73,0,1,1,1.38-3.61A2.74,2.74,0,0,1,467.91,106.38Z"/><rect class="cls-43" x="459.14" y="88.77" width="32.6" height="1.05" transform="translate(165.88 461.04) rotate(-60.85)"/><path class="cls-43" d="M487,74.69l-3.45.9a.53.53,0,0,1-.42-.07.56.56,0,0,1-.23-.35l-.66-3.85a.53.53,0,1,1,1-.18l.56,3.28,2.89-.75a.53.53,0,0,1,.64.38A.52.52,0,0,1,487,74.69Z"/><path class="cls-43" d="M485.56,77.13l-3.45.9a.57.57,0,0,1-.42-.07.52.52,0,0,1-.23-.36l-.66-3.84a.53.53,0,0,1,1-.18l.56,3.28,2.89-.75a.52.52,0,0,1,.64.38A.52.52,0,0,1,485.56,77.13Z"/><path class="cls-44" d="M439.68,85.27l43.37,97.31"/><path class="cls-34" d="M475.9,162.29c.34-.38,1.38-2,2.16-3.31a2,2,0,0,0-.39-2.58l-5.43-4.76a2,2,0,0,0-3.05.45l-1,1.56a5.66,5.66,0,0,0,2,4.88A14.17,14.17,0,0,0,475.9,162.29Z"/><path class="cls-35" d="M468.22,153.65a5.66,5.66,0,0,0,2,4.88,14.17,14.17,0,0,0,5.66,3.76"/><path class="cls-14" d="M283.13,446.38v11.91c0,4.13-22.05,7.48-49.26,7.48s-49.27-3.35-49.27-7.48V446.38Z"/><g class="cls-45"><rect class="cls-16" x="279.72" y="441.43" width="2.33" height="27.32"/><rect class="cls-16" x="273.67" y="441.43" width="2.33" height="27.32"/><rect class="cls-16" x="266.77" y="441.43" width="2.33" height="27.32"/><rect class="cls-16" x="258.15" y="441.43" width="2.33" height="27.32"/><rect class="cls-16" x="248.68" y="441.43" width="2.33" height="27.32"/><rect class="cls-16" x="238.36" y="441.43" width="2.33" height="27.32"/><rect class="cls-16" x="185.68" y="441.43" width="2.33" height="27.32"/><rect class="cls-16" x="191.73" y="441.43" width="2.33" height="27.32"/><rect class="cls-16" x="198.63" y="441.43" width="2.33" height="27.32"/><rect class="cls-16" x="207.25" y="441.43" width="2.33" height="27.32"/><rect class="cls-16" x="216.72" y="441.43" width="2.33" height="27.32"/><rect class="cls-16" x="227.04" y="441.43" width="2.33" height="27.32"/></g><ellipse class="cls-17" cx="233.87" cy="446.16" rx="49.27" ry="7.48"/><path class="cls-18" d="M194.7,445.37c0,1.92,17.54,3.47,39.17,3.47S273,447.29,273,445.37s-17.53-3.47-39.16-3.47S194.7,443.45,194.7,445.37Z"/><path class="cls-16" d="M271.34,446.38c-4.88-1.43-19.81-2.46-37.47-2.46s-32.6,1-37.48,2.46c-1.09-.32-1.69-.66-1.69-1,0-1.92,17.54-3.47,39.17-3.47S273,443.45,273,445.37C273,445.72,272.44,446.06,271.34,446.38Z"/><path class="cls-14" d="M290.27,432.92v11.91c0,4.14-22.06,7.48-49.27,7.48s-49.26-3.34-49.26-7.48V432.92Z"/><g class="cls-46"><rect class="cls-16" x="286.86" y="427.97" width="2.33" height="27.31"/><rect class="cls-16" x="280.81" y="427.97" width="2.33" height="27.31"/><rect class="cls-16" x="273.9" y="427.97" width="2.33" height="27.31"/><rect class="cls-16" x="265.29" y="427.97" width="2.33" height="27.31"/><rect class="cls-16" x="255.82" y="427.97" width="2.33" height="27.31"/><rect class="cls-16" x="245.49" y="427.97" width="2.33" height="27.31"/><rect class="cls-16" x="192.81" y="427.97" width="2.33" height="27.31"/><rect class="cls-16" x="198.86" y="427.97" width="2.33" height="27.31"/><rect class="cls-16" x="205.77" y="427.97" width="2.33" height="27.31"/><rect class="cls-16" x="214.38" y="427.97" width="2.33" height="27.31"/><rect class="cls-16" x="223.85" y="427.97" width="2.33" height="27.31"/><rect class="cls-16" x="234.18" y="427.97" width="2.33" height="27.31"/></g><ellipse class="cls-17" cx="241" cy="432.7" rx="49.27" ry="7.48"/><path class="cls-18" d="M201.84,431.91c0,1.92,17.53,3.47,39.16,3.47s39.17-1.55,39.17-3.47-17.54-3.47-39.17-3.47S201.84,430,201.84,431.91Z"/><path class="cls-16" d="M278.48,432.92c-4.88-1.43-19.81-2.46-37.48-2.46s-32.6,1-37.48,2.46c-1.09-.32-1.68-.66-1.68-1,0-1.92,17.53-3.47,39.16-3.47s39.17,1.55,39.17,3.47C280.17,432.26,279.57,432.6,278.48,432.92Z"/><path class="cls-14" d="M282.26,419.37v11.92c0,4.13-22.05,7.48-49.26,7.48s-49.27-3.35-49.27-7.48V419.37Z"/><g class="cls-47"><rect class="cls-16" x="278.85" y="414.42" width="2.33" height="27.31"/><rect class="cls-16" x="272.8" y="414.42" width="2.33" height="27.31"/><rect class="cls-16" x="265.9" y="414.42" width="2.33" height="27.31"/><rect class="cls-16" x="257.28" y="414.42" width="2.33" height="27.31"/><rect class="cls-16" x="247.81" y="414.42" width="2.33" height="27.31"/><rect class="cls-16" x="237.49" y="414.42" width="2.33" height="27.31"/><rect class="cls-16" x="184.81" y="414.42" width="2.33" height="27.31"/><rect class="cls-16" x="190.86" y="414.42" width="2.33" height="27.31"/><rect class="cls-16" x="197.76" y="414.42" width="2.33" height="27.31"/><rect class="cls-16" x="206.38" y="414.42" width="2.33" height="27.31"/><rect class="cls-16" x="215.85" y="414.42" width="2.33" height="27.31"/><rect class="cls-16" x="226.17" y="414.42" width="2.33" height="27.31"/></g><path class="cls-17" d="M183.73,419.15c0,4.13,22.06,7.48,49.27,7.48s49.26-3.35,49.26-7.48-22.05-7.48-49.26-7.48S183.73,415,183.73,419.15Z"/><path class="cls-18" d="M193.83,418.36c0,1.92,17.54,3.47,39.17,3.47s39.16-1.55,39.16-3.47-17.53-3.47-39.16-3.47S193.83,416.44,193.83,418.36Z"/><path class="cls-16" d="M270.47,419.37c-4.88-1.43-19.81-2.46-37.47-2.46s-32.6,1-37.48,2.46c-1.09-.32-1.69-.66-1.69-1,0-1.92,17.54-3.47,39.17-3.47s39.16,1.55,39.16,3.47C272.16,418.71,271.57,419.05,270.47,419.37Z"/><path class="cls-14" d="M134.59,446.38v11.91c0,4.13-22,7.48-49.26,7.48s-49.27-3.35-49.27-7.48V446.38Z"/><g class="cls-48"><rect class="cls-16" x="131.18" y="441.43" width="2.33" height="27.32"/><rect class="cls-16" x="125.13" y="441.43" width="2.33" height="27.32"/><rect class="cls-16" x="118.23" y="441.43" width="2.33" height="27.32"/><rect class="cls-16" x="109.62" y="441.43" width="2.33" height="27.32"/><rect class="cls-16" x="100.14" y="441.43" width="2.33" height="27.32"/><rect class="cls-16" x="89.82" y="441.43" width="2.33" height="27.32"/><rect class="cls-16" x="37.14" y="441.43" width="2.33" height="27.32"/><rect class="cls-16" x="43.19" y="441.43" width="2.33" height="27.32"/><rect class="cls-16" x="50.09" y="441.43" width="2.33" height="27.32"/><rect class="cls-16" x="58.71" y="441.43" width="2.33" height="27.32"/><rect class="cls-16" x="68.18" y="441.43" width="2.33" height="27.32"/><rect class="cls-16" x="78.5" y="441.43" width="2.33" height="27.32"/></g><ellipse class="cls-17" cx="85.33" cy="446.16" rx="49.27" ry="7.48"/><path class="cls-18" d="M46.16,445.37c0,1.92,17.54,3.47,39.17,3.47s39.16-1.55,39.16-3.47S107,441.9,85.33,441.9,46.16,443.45,46.16,445.37Z"/><path class="cls-16" d="M122.8,446.38c-4.87-1.43-19.8-2.46-37.47-2.46s-32.6,1-37.48,2.46c-1.09-.32-1.69-.66-1.69-1,0-1.92,17.54-3.47,39.17-3.47s39.16,1.55,39.16,3.47C124.49,445.72,123.9,446.06,122.8,446.38Z"/><path class="cls-14" d="M141.73,432.92v11.91c0,4.14-22.06,7.48-49.27,7.48S43.2,449,43.2,444.83V432.92Z"/><g class="cls-49"><rect class="cls-16" x="138.32" y="427.97" width="2.33" height="27.31"/><rect class="cls-16" x="132.27" y="427.97" width="2.33" height="27.31"/><rect class="cls-16" x="125.36" y="427.97" width="2.33" height="27.31"/><rect class="cls-16" x="116.75" y="427.97" width="2.33" height="27.31"/><rect class="cls-16" x="107.28" y="427.97" width="2.33" height="27.31"/><rect class="cls-16" x="96.95" y="427.97" width="2.33" height="27.31"/><rect class="cls-16" x="44.28" y="427.97" width="2.33" height="27.31"/><rect class="cls-16" x="50.32" y="427.97" width="2.33" height="27.31"/><rect class="cls-16" x="57.23" y="427.97" width="2.33" height="27.31"/><rect class="cls-16" x="65.84" y="427.97" width="2.33" height="27.31"/><rect class="cls-16" x="75.31" y="427.97" width="2.33" height="27.31"/><rect class="cls-16" x="85.64" y="427.97" width="2.33" height="27.31"/></g><ellipse class="cls-17" cx="92.46" cy="432.7" rx="49.27" ry="7.48"/><path class="cls-18" d="M53.3,431.91c0,1.92,17.53,3.47,39.16,3.47s39.17-1.55,39.17-3.47-17.54-3.47-39.17-3.47S53.3,430,53.3,431.91Z"/><path class="cls-16" d="M129.94,432.92c-4.88-1.43-19.81-2.46-37.48-2.46s-32.6,1-37.47,2.46c-1.1-.32-1.69-.66-1.69-1,0-1.92,17.53-3.47,39.16-3.47s39.17,1.55,39.17,3.47C131.63,432.26,131,432.6,129.94,432.92Z"/><path class="cls-41" d="M240.27,142.45c8.26.23,10.95,3.76,11.25,7.29.39,4.46-3.07,5.14-3,8.44s4.11,6.07,3.13,11.21-3.82,7.37-3.82,7.37l-41,4.15s-1.89-7.75,1.38-13,11.06-5.2,13.4-13.82C224.36,144.14,230.73,137.39,240.27,142.45Z"/><path class="cls-34" d="M298.3,248.12l5.45,3s5,7.71,9.63,6.88c0,0,1.62-.85,1.29-2,2.14-.25,1.91-1.85,1.91-1.85s2.13-1.06,1.52-2.29a2.12,2.12,0,0,0,1.87-2.69c-.42-.85-4.17.76-7.14-2.49a4.65,4.65,0,0,1,3.73-1.22,1.05,1.05,0,0,0,1.16-.89l.12-.76s-4.87-1.74-8.21.43a1.9,1.9,0,0,1-1.84.16l-5.58-2.65Z"/><path class="cls-32" d="M247.73,178.58c-3,5.62.1,27.36,3.57,43.49a23.18,23.18,0,0,0,13.81,16.52l35.31,14.63,5.9-11.58L274.08,219.7s-4.57-22.9-5.84-29.88S254.81,173.52,247.73,178.58Z"/><path class="cls-39" d="M246.83,405.23a89.48,89.48,0,0,0-2.58,13.2,13.86,13.86,0,0,0,6.66,0c3.13-1,13.19,3.4,18.23-.14l-11.79-7.05a6.45,6.45,0,0,1-3.1-4.87l-.21-2.09Z"/><path class="cls-39" d="M187,397.05a89,89,0,0,0-6.11,12,14,14,0,0,0,6.41,1.83c3.27-.06,11.75,6.89,17.56,4.87l-9.39-10a6.42,6.42,0,0,1-1.64-5.53l.37-2.07Z"/><path class="cls-32" d="M256.26,256.78l6.2,77.15a27.34,27.34,0,0,1,0,4.34l-5.27,68.37s-7.25,1.09-12.33,0l-4.17-69.81-14.76-77.36,7.7-22.76Z"/><path class="cls-33" d="M233.79,300.63l-7.85-41.16,7.7-22.76,22.62,20.07L257.4,271C251.32,274.1,239,282.46,233.79,300.63Z"/><path class="cls-32" d="M236.87,256.9l-15.23,75.89a28.39,28.39,0,0,1-1.19,4.17L196.6,401.25s-7.28-.94-11.86-3.39l15.17-68.27L207,251.16l13.65-19.77Z"/><path class="cls-32" d="M235.7,264l-2.26-16.51-4.55,16.29a6.28,6.28,0,0,1-7.35,4.45,62.45,62.45,0,0,1-20.55-8.1l9.89-35-5.54-45.68c13-5.1,30.85-6.69,30.85-6.69,22.05,2.4,26.88,9.72,26.88,9.72l-9.57,47.43,7.51,35a69.3,69.3,0,0,1-18.49,4.52A6.27,6.27,0,0,1,235.7,264Z"/><path class="cls-5" d="M229.77,176.08l3.7-5.67,10.67,1.19,2.41,6.11s-4.76,39.17-12.11,62.69C227.23,217.28,229.77,176.08,229.77,176.08Z"/><polyline class="cls-38" points="236.84 181.53 233.67 183.4 230.63 177.12"/><polyline class="cls-38" points="242.04 182.6 243.33 184.32 245.5 181.24"/><polygon class="cls-37" points="214.34 191.67 216.08 198.11 210.88 225.09 207.25 207.07 214.34 191.67"/><path class="cls-34" d="M205.39,265.39l2.67,5.59s-.46,9.21,3.75,11.24c0,0,1.81.26,2.21-.86,1.87,1.07,2.63-.37,2.63-.37s2.34.4,2.57-.95a2.12,2.12,0,0,0,3.1-1.08c.16-.94-3.82-1.83-4.32-6.21a4.62,4.62,0,0,1,3.74,1.21,1.06,1.06,0,0,0,1.46,0l.54-.55s-2.92-4.27-6.89-4.48a1.88,1.88,0,0,1-1.58-.95l-3-5.42Z"/><path class="cls-32" d="M205.34,179.41c-5.7,2.8-16,22.19-22.67,37.28a23.18,23.18,0,0,0,1.47,21.49l20,32.58,11.58-5.9-13.19-36.7s9.75-21.21,12.82-27.6S214,179.48,205.34,179.41Z"/><path class="cls-5" d="M230.57,166.86s-6.6,3.6-9.59,6.75,9.59,7.44,9.59,7.44-4,1.9,0,4.4,10.29,2.13,12.05,5.35c0,0,1.94-3.58,3.17-5.35,1.79-2.56.41-5-1.84-5.32,2.77-2.84,3.83-6.24,2.25-7.77s-9.4-4-9.4-4Z"/><path class="cls-34" d="M238.51,148.91s-1.52,4.52-5.3,6.56c0,0-.87-2.09-2.66-1.63s-2.44,4.92,1.29,5.38l-4.11,12.62s9.62,7.78,13.36,13.61c0,0,.46-9.77-1.84-13.81l1-5.68a4.66,4.66,0,0,0,3.54-1.87c1.23-1.84.4-4.93,1-6.83s1-3.58,1-3.58A8.33,8.33,0,0,1,238.51,148.91Z"/><path class="cls-42" d="M240.27,166c-3.21.21-6.32-1.83-6.93-3.4.23,3.14,2.47,5.8,6.43,6.14Z"/><path class="cls-50" d="M230.57,181.05s-4,1.9,0,4.4,10.29,2.13,12.05,5.35c0,0,1.94-3.58,3.17-5.35,1.79-2.56.41-5-1.84-5.32"/><rect class="cls-1" x="54.31" width="500" height="500"/></g></g></g></svg>