<svg xmlns="http://www.w3.org/2000/svg" viewBox="0 0 1019.51 974.01"><defs><style>.cls-1{isolation:isolate;}.cls-2{fill:#d1d1d1;mix-blend-mode:luminosity;}.cls-2,.cls-3,.cls-4{fill-rule:evenodd;}.cls-3{fill:#9fcfff;}.cls-4,.cls-5{fill:#0f2a55;}.cls-6{fill:#d7ba8c;}.cls-7{fill:#6b4b2c;}.cls-8{fill:#84ba4d;}.cls-9{fill:#e6e7e8;mix-blend-mode:multiply;}.cls-10{fill:#a48250;}.cls-11{fill:#ff7d6c;}.cls-12{fill:#7dad45;}.cls-13{fill:#d1d3d4;}.cls-14{fill:#d84774;}.cls-15{fill:#f1645b;}.cls-16{fill:#7ea88d;}.cls-17{fill:#739b80;}.cls-18{font-size:21.16px;fill:#fff;font-family:Poppins-Bold, Poppins;font-weight:700;}</style></defs><g class="cls-1"><g id="Capa_2" data-name="Capa 2"><g id="Capa_1-2" data-name="Capa 1"><path class="cls-2" d="M90.52,793.59a45.26,45.26,0,1,0-45.26,45.26,45.26,45.26,0,0,0,45.26-45.26Z"/><path class="cls-3" d="M1019.51,487c0-269-218-487-487-487s-487,218.05-487,487,218,487,487,487,487-218,487-487Z"/><path class="cls-4" d="M813.93,434.06c-31.19,37-87.28,125-143.31,163.75,61.82-5.34,137.8-86.14,173.32-133.23,20.79-27.58,6.91-74.3-30-30.52Z"/><rect class="cls-5" x="346.16" y="137.02" width="0.92" height="1.84"/><path class="cls-5" d="M347.08,498.78h-.92v-3.66h.92Zm0-6.1h-.92V489h.92Zm0-6.1h-.92v-3.66h.92Zm0-6.1h-.92v-3.66h.92Zm0-6.1h-.92v-3.66h.92Zm0-6.1h-.92v-3.66h.92Zm0-6.1h-.92v-3.66h.92Zm0-6.1h-.92v-3.66h.92Zm0-6.1h-.92v-3.66h.92Zm0-6.1h-.92v-3.66h.92Zm0-6.11h-.92v-3.65h.92Zm0-6.1h-.92V428h.92Zm0-6.1h-.92v-3.65h.92Zm0-6.1h-.92v-3.66h.92Zm0-6.1h-.92v-3.66h.92Zm0-6.1h-.92v-3.66h.92Zm0-6.1h-.92v-3.66h.92Zm0-6.1h-.92v-3.66h.92Zm0-6.1h-.92v-3.66h.92Zm0-6.1h-.92v-3.66h.92Zm0-6.1h-.92v-3.66h.92Zm0-6.1h-.92V367h.92Zm0-6.1h-.92v-3.66h.92Zm0-6.1h-.92v-3.66h.92Zm0-6.1h-.92v-3.66h.92Zm0-6.1h-.92v-3.66h.92Zm0-6.1h-.92v-3.66h.92Zm0-6.1h-.92v-3.66h.92Zm0-6.1h-.92v-3.66h.92Zm0-6.1h-.92v-3.66h.92Zm0-6.1h-.92v-3.66h.92Zm0-6.1h-.92V306h.92Zm0-6.1h-.92v-3.66h.92Zm0-6.1h-.92v-3.66h.92Zm0-6.1h-.92v-3.66h.92Zm0-6.1h-.92v-3.66h.92Zm0-6.1h-.92v-3.66h.92Zm0-6.1h-.92v-3.66h.92Zm0-6.1h-.92v-3.66h.92Zm0-6.1h-.92v-3.66h.92Zm0-6.1h-.92v-3.66h.92Zm0-6.1h-.92V245h.92Zm0-6.1h-.92v-3.66h.92Zm0-6.1h-.92v-3.66h.92Zm0-6.1h-.92v-3.66h.92Zm0-6.1h-.92v-3.66h.92Zm0-6.1h-.92v-3.66h.92Zm0-6.11h-.92V208.4h.92Zm0-6.1h-.92V202.3h.92Zm0-6.1h-.92V196.2h.92Zm0-6.1h-.92V190.1h.92Zm0-6.1h-.92V184h.92Zm0-6.1h-.92V177.9h.92Zm0-6.1h-.92V171.8h.92Zm0-6.1h-.92V165.7h.92Zm0-6.1h-.92V159.6h.92Zm0-6.1h-.92V153.5h.92Zm0-6.1h-.92V147.4h.92Zm0-6.1h-.92V141.3h.92Z"/><rect class="cls-5" x="346.16" y="501.22" width="0.92" height="1.84"/><rect class="cls-5" x="453.57" y="137.02" width="0.92" height="1.84"/><path class="cls-5" d="M454.49,498.78h-.92v-3.66h.92Zm0-6.1h-.92V489h.92Zm0-6.1h-.92v-3.66h.92Zm0-6.1h-.92v-3.66h.92Zm0-6.1h-.92v-3.66h.92Zm0-6.1h-.92v-3.66h.92Zm0-6.1h-.92v-3.66h.92Zm0-6.1h-.92v-3.66h.92Zm0-6.1h-.92v-3.66h.92Zm0-6.1h-.92v-3.66h.92Zm0-6.11h-.92v-3.65h.92Zm0-6.1h-.92V428h.92Zm0-6.1h-.92v-3.65h.92Zm0-6.1h-.92v-3.66h.92Zm0-6.1h-.92v-3.66h.92Zm0-6.1h-.92v-3.66h.92Zm0-6.1h-.92v-3.66h.92Zm0-6.1h-.92v-3.66h.92Zm0-6.1h-.92v-3.66h.92Zm0-6.1h-.92v-3.66h.92Zm0-6.1h-.92v-3.66h.92Zm0-6.1h-.92V367h.92Zm0-6.1h-.92v-3.66h.92Zm0-6.1h-.92v-3.66h.92Zm0-6.1h-.92v-3.66h.92Zm0-6.1h-.92v-3.66h.92Zm0-6.1h-.92v-3.66h.92Zm0-6.1h-.92v-3.66h.92Zm0-6.1h-.92v-3.66h.92Zm0-6.1h-.92v-3.66h.92Zm0-6.1h-.92v-3.66h.92Zm0-6.1h-.92V306h.92Zm0-6.1h-.92v-3.66h.92Zm0-6.1h-.92v-3.66h.92Zm0-6.1h-.92v-3.66h.92Zm0-6.1h-.92v-3.66h.92Zm0-6.1h-.92v-3.66h.92Zm0-6.1h-.92v-3.66h.92Zm0-6.1h-.92v-3.66h.92Zm0-6.1h-.92v-3.66h.92Zm0-6.1h-.92v-3.66h.92Zm0-6.1h-.92V245h.92Zm0-6.1h-.92v-3.66h.92Zm0-6.1h-.92v-3.66h.92Zm0-6.1h-.92v-3.66h.92Zm0-6.1h-.92v-3.66h.92Zm0-6.1h-.92v-3.66h.92Zm0-6.11h-.92V208.4h.92Zm0-6.1h-.92V202.3h.92Zm0-6.1h-.92V196.2h.92Zm0-6.1h-.92V190.1h.92Zm0-6.1h-.92V184h.92Zm0-6.1h-.92V177.9h.92Zm0-6.1h-.92V171.8h.92Zm0-6.1h-.92V165.7h.92Zm0-6.1h-.92V159.6h.92Zm0-6.1h-.92V153.5h.92Zm0-6.1h-.92V147.4h.92Zm0-6.1h-.92V141.3h.92Z"/><rect class="cls-5" x="453.57" y="501.22" width="0.92" height="1.84"/><rect class="cls-5" x="585.98" y="137.02" width="0.92" height="1.84"/><path class="cls-5" d="M586.91,498.78H586v-3.66h.93Zm0-6.1H586V489h.93Zm0-6.1H586v-3.66h.93Zm0-6.1H586v-3.66h.93Zm0-6.1H586v-3.66h.93Zm0-6.1H586v-3.66h.93Zm0-6.1H586v-3.66h.93Zm0-6.1H586v-3.66h.93Zm0-6.1H586v-3.66h.93Zm0-6.1H586v-3.66h.93Zm0-6.11H586v-3.65h.93Zm0-6.1H586V428h.93Zm0-6.1H586v-3.65h.93Zm0-6.1H586v-3.66h.93Zm0-6.1H586v-3.66h.93Zm0-6.1H586v-3.66h.93Zm0-6.1H586v-3.66h.93Zm0-6.1H586v-3.66h.93Zm0-6.1H586v-3.66h.93Zm0-6.1H586v-3.66h.93Zm0-6.1H586v-3.66h.93Zm0-6.1H586V367h.93Zm0-6.1H586v-3.66h.93Zm0-6.1H586v-3.66h.93Zm0-6.1H586v-3.66h.93Zm0-6.1H586v-3.66h.93Zm0-6.1H586v-3.66h.93Zm0-6.1H586v-3.66h.93Zm0-6.1H586v-3.66h.93Zm0-6.1H586v-3.66h.93Zm0-6.1H586v-3.66h.93Zm0-6.1H586V306h.93Zm0-6.1H586v-3.66h.93Zm0-6.1H586v-3.66h.93Zm0-6.1H586v-3.66h.93Zm0-6.1H586v-3.66h.93Zm0-6.1H586v-3.66h.93Zm0-6.1H586v-3.66h.93Zm0-6.1H586v-3.66h.93Zm0-6.1H586v-3.66h.93Zm0-6.1H586v-3.66h.93Zm0-6.1H586V245h.93Zm0-6.1H586v-3.66h.93Zm0-6.1H586v-3.66h.93Zm0-6.1H586v-3.66h.93Zm0-6.1H586v-3.66h.93Zm0-6.1H586v-3.66h.93Zm0-6.11H586V208.4h.93Zm0-6.1H586V202.3h.93Zm0-6.1H586V196.2h.93Zm0-6.1H586V190.1h.93Zm0-6.1H586V184h.93Zm0-6.1H586V177.9h.93Zm0-6.1H586V171.8h.93Zm0-6.1H586V165.7h.93Zm0-6.1H586V159.6h.93Zm0-6.1H586V153.5h.93Zm0-6.1H586V147.4h.93Zm0-6.1H586V141.3h.93Z"/><rect class="cls-5" x="585.98" y="501.22" width="0.92" height="1.84"/><rect class="cls-5" x="718.4" y="137.02" width="0.92" height="1.84"/><path class="cls-5" d="M719.32,498.78h-.92v-3.66h.92Zm0-6.1h-.92V489h.92Zm0-6.1h-.92v-3.66h.92Zm0-6.1h-.92v-3.66h.92Zm0-6.1h-.92v-3.66h.92Zm0-6.1h-.92v-3.66h.92Zm0-6.1h-.92v-3.66h.92Zm0-6.1h-.92v-3.66h.92Zm0-6.1h-.92v-3.66h.92Zm0-6.1h-.92v-3.66h.92Zm0-6.11h-.92v-3.65h.92Zm0-6.1h-.92V428h.92Zm0-6.1h-.92v-3.65h.92Zm0-6.1h-.92v-3.66h.92Zm0-6.1h-.92v-3.66h.92Zm0-6.1h-.92v-3.66h.92Zm0-6.1h-.92v-3.66h.92Zm0-6.1h-.92v-3.66h.92Zm0-6.1h-.92v-3.66h.92Zm0-6.1h-.92v-3.66h.92Zm0-6.1h-.92v-3.66h.92Zm0-6.1h-.92V367h.92Zm0-6.1h-.92v-3.66h.92Zm0-6.1h-.92v-3.66h.92Zm0-6.1h-.92v-3.66h.92Zm0-6.1h-.92v-3.66h.92Zm0-6.1h-.92v-3.66h.92Zm0-6.1h-.92v-3.66h.92Zm0-6.1h-.92v-3.66h.92Zm0-6.1h-.92v-3.66h.92Zm0-6.1h-.92v-3.66h.92Zm0-6.1h-.92V306h.92Zm0-6.1h-.92v-3.66h.92Zm0-6.1h-.92v-3.66h.92Zm0-6.1h-.92v-3.66h.92Zm0-6.1h-.92v-3.66h.92Zm0-6.1h-.92v-3.66h.92Zm0-6.1h-.92v-3.66h.92Zm0-6.1h-.92v-3.66h.92Zm0-6.1h-.92v-3.66h.92Zm0-6.1h-.92v-3.66h.92Zm0-6.1h-.92V245h.92Zm0-6.1h-.92v-3.66h.92Zm0-6.1h-.92v-3.66h.92Zm0-6.1h-.92v-3.66h.92Zm0-6.1h-.92v-3.66h.92Zm0-6.1h-.92v-3.66h.92Zm0-6.11h-.92V208.4h.92Zm0-6.1h-.92V202.3h.92Zm0-6.1h-.92V196.2h.92Zm0-6.1h-.92V190.1h.92Zm0-6.1h-.92V184h.92Zm0-6.1h-.92V177.9h.92Zm0-6.1h-.92V171.8h.92Zm0-6.1h-.92V165.7h.92Zm0-6.1h-.92V159.6h.92Zm0-6.1h-.92V153.5h.92Zm0-6.1h-.92V147.4h.92Zm0-6.1h-.92V141.3h.92Z"/><rect class="cls-5" x="718.4" y="501.22" width="0.92" height="1.84"/><rect class="cls-5" x="775.81" y="137.02" width="0.92" height="1.84"/><path class="cls-5" d="M776.73,498.78h-.92v-3.66h.92Zm0-6.1h-.92V489h.92Zm0-6.1h-.92v-3.66h.92Zm0-6.1h-.92v-3.66h.92Zm0-6.1h-.92v-3.66h.92Zm0-6.1h-.92v-3.66h.92Zm0-6.1h-.92v-3.66h.92Zm0-6.1h-.92v-3.66h.92Zm0-6.1h-.92v-3.66h.92Zm0-6.1h-.92v-3.66h.92Zm0-6.11h-.92v-3.65h.92Zm0-6.1h-.92V428h.92Zm0-6.1h-.92v-3.65h.92Zm0-6.1h-.92v-3.66h.92Zm0-6.1h-.92v-3.66h.92Zm0-6.1h-.92v-3.66h.92Zm0-6.1h-.92v-3.66h.92Zm0-6.1h-.92v-3.66h.92Zm0-6.1h-.92v-3.66h.92Zm0-6.1h-.92v-3.66h.92Zm0-6.1h-.92v-3.66h.92Zm0-6.1h-.92V367h.92Zm0-6.1h-.92v-3.66h.92Zm0-6.1h-.92v-3.66h.92Zm0-6.1h-.92v-3.66h.92Zm0-6.1h-.92v-3.66h.92Zm0-6.1h-.92v-3.66h.92Zm0-6.1h-.92v-3.66h.92Zm0-6.1h-.92v-3.66h.92Zm0-6.1h-.92v-3.66h.92Zm0-6.1h-.92v-3.66h.92Zm0-6.1h-.92V306h.92Zm0-6.1h-.92v-3.66h.92Zm0-6.1h-.92v-3.66h.92Zm0-6.1h-.92v-3.66h.92Zm0-6.1h-.92v-3.66h.92Zm0-6.1h-.92v-3.66h.92Zm0-6.1h-.92v-3.66h.92Zm0-6.1h-.92v-3.66h.92Zm0-6.1h-.92v-3.66h.92Zm0-6.1h-.92v-3.66h.92Zm0-6.1h-.92V245h.92Zm0-6.1h-.92v-3.66h.92Zm0-6.1h-.92v-3.66h.92Zm0-6.1h-.92v-3.66h.92Zm0-6.1h-.92v-3.66h.92Zm0-6.1h-.92v-3.66h.92Zm0-6.11h-.92V208.4h.92Zm0-6.1h-.92V202.3h.92Zm0-6.1h-.92V196.2h.92Zm0-6.1h-.92V190.1h.92Zm0-6.1h-.92V184h.92Zm0-6.1h-.92V177.9h.92Zm0-6.1h-.92V171.8h.92Zm0-6.1h-.92V165.7h.92Zm0-6.1h-.92V159.6h.92Zm0-6.1h-.92V153.5h.92Zm0-6.1h-.92V147.4h.92Zm0-6.1h-.92V141.3h.92Z"/><rect class="cls-5" x="775.81" y="501.22" width="0.92" height="1.84"/><rect class="cls-5" x="286.15" y="502.72" width="1.84" height="0.92"/><path class="cls-5" d="M832.45,503.64h-3.67v-.92h3.67Zm-6.12,0h-3.67v-.92h3.67Zm-6.12,0h-3.67v-.92h3.67Zm-6.11,0h-3.67v-.92h3.67Zm-6.12,0h-3.67v-.92H808Zm-6.12,0h-3.67v-.92h3.67Zm-6.11,0h-3.68v-.92h3.68Zm-6.12,0H786v-.92h3.67Zm-6.12,0h-3.67v-.92h3.67Zm-6.12,0h-3.67v-.92h3.67Zm-6.12,0H767.6v-.92h3.67Zm-6.11,0h-3.67v-.92h3.67Zm-6.12,0h-3.67v-.92H759Zm-6.12,0h-3.67v-.92h3.67Zm-6.11,0h-3.68v-.92h3.68Zm-6.12,0H737v-.92h3.67Zm-6.12,0H730.9v-.92h3.67Zm-6.12,0h-3.67v-.92h3.67Zm-6.11,0h-3.68v-.92h3.68Zm-6.12,0h-3.67v-.92h3.67Zm-6.12,0h-3.67v-.92h3.67Zm-6.12,0h-3.67v-.92H704Zm-6.11,0h-3.68v-.92h3.68Zm-6.12,0h-3.67v-.92h3.67Zm-6.12,0H682v-.92h3.67Zm-6.12,0h-3.67v-.92h3.67Zm-6.11,0h-3.68v-.92h3.68Zm-6.12,0h-3.67v-.92h3.67Zm-6.12,0h-3.67v-.92h3.67Zm-6.12,0h-3.67v-.92H655Zm-6.11,0h-3.68v-.92h3.68Zm-6.12,0h-3.67v-.92h3.67Zm-6.12,0H633v-.92h3.67Zm-6.12,0H626.9v-.92h3.67Zm-6.11,0h-3.67v-.92h3.67Zm-6.12,0h-3.67v-.92h3.67Zm-6.12,0h-3.67v-.92h3.67Zm-6.12,0h-3.67v-.92h3.67Zm-6.11,0h-3.68v-.92H600Zm-6.12,0H590.2v-.92h3.67Zm-6.12,0h-3.67v-.92h3.67Zm-6.12,0H578v-.92h3.67Zm-6.11,0h-3.67v-.92h3.67Zm-6.12,0h-3.67v-.92h3.67Zm-6.12,0h-3.67v-.92h3.67Zm-6.12,0h-3.67v-.92h3.67Zm-6.11,0h-3.68v-.92h3.68Zm-6.12,0h-3.67v-.92h3.67Zm-6.12,0h-3.67v-.92h3.67Zm-6.12,0H529v-.92h3.67Zm-6.11,0h-3.67v-.92h3.67Zm-6.12,0h-3.67v-.92h3.67Zm-6.12,0h-3.67v-.92h3.67Zm-6.12,0h-3.67v-.92h3.67Zm-6.11,0h-3.68v-.92h3.68Zm-6.12,0h-3.67v-.92H496Zm-6.12,0H486.2v-.92h3.67Zm-6.12,0h-3.67v-.92h3.67Zm-6.11,0H474v-.92h3.67Zm-6.12,0h-3.67v-.92h3.67Zm-6.12,0h-3.67v-.92h3.67Zm-6.12,0h-3.67v-.92h3.67Zm-6.11,0h-3.68v-.92h3.68Zm-6.12,0h-3.67v-.92h3.67Zm-6.12,0h-3.67v-.92h3.67Zm-6.12,0h-3.67v-.92h3.67Zm-6.11,0H425v-.92h3.68Zm-6.12,0h-3.67v-.92h3.67Zm-6.12,0h-3.67v-.92h3.67Zm-6.12,0h-3.67v-.92h3.67Zm-6.11,0h-3.68v-.92h3.68Zm-6.12,0h-3.67v-.92h3.67Zm-6.12,0h-3.67v-.92H392Zm-6.12,0H382.2v-.92h3.67Zm-6.11,0h-3.68v-.92h3.68Zm-6.12,0H370v-.92h3.67Zm-6.12,0h-3.67v-.92h3.67Zm-6.12,0h-3.67v-.92h3.67Zm-6.11,0h-3.68v-.92h3.68Zm-6.12,0H345.5v-.92h3.67Zm-6.12,0h-3.67v-.92h3.67Zm-6.12,0h-3.67v-.92h3.67Zm-6.11,0h-3.68v-.92h3.68Zm-6.12,0H321v-.92h3.67Zm-6.12,0h-3.67v-.92h3.67Zm-6.12,0h-3.67v-.92h3.67Zm-6.11,0h-3.68v-.92h3.68Zm-6.12,0h-3.67v-.92h3.67Zm-6.12,0h-3.67v-.92h3.67Z"/><rect class="cls-5" x="834.9" y="502.72" width="1.84" height="0.92"/><rect class="cls-5" x="286.15" y="416.29" width="1.84" height="0.92"/><path class="cls-5" d="M832.45,417.21h-3.67v-.92h3.67Zm-6.12,0h-3.67v-.92h3.67Zm-6.12,0h-3.67v-.92h3.67Zm-6.11,0h-3.67v-.92h3.67Zm-6.12,0h-3.67v-.92H808Zm-6.12,0h-3.67v-.92h3.67Zm-6.11,0h-3.68v-.92h3.68Zm-6.12,0H786v-.92h3.67Zm-6.12,0h-3.67v-.92h3.67Zm-6.12,0h-3.67v-.92h3.67Zm-6.12,0H767.6v-.92h3.67Zm-6.11,0h-3.67v-.92h3.67Zm-6.12,0h-3.67v-.92H759Zm-6.12,0h-3.67v-.92h3.67Zm-6.11,0h-3.68v-.92h3.68Zm-6.12,0H737v-.92h3.67Zm-6.12,0H730.9v-.92h3.67Zm-6.12,0h-3.67v-.92h3.67Zm-6.11,0h-3.68v-.92h3.68Zm-6.12,0h-3.67v-.92h3.67Zm-6.12,0h-3.67v-.92h3.67Zm-6.12,0h-3.67v-.92H704Zm-6.11,0h-3.68v-.92h3.68Zm-6.12,0h-3.67v-.92h3.67Zm-6.12,0H682v-.92h3.67Zm-6.12,0h-3.67v-.92h3.67Zm-6.11,0h-3.68v-.92h3.68Zm-6.12,0h-3.67v-.92h3.67Zm-6.12,0h-3.67v-.92h3.67Zm-6.12,0h-3.67v-.92H655Zm-6.11,0h-3.68v-.92h3.68Zm-6.12,0h-3.67v-.92h3.67Zm-6.12,0H633v-.92h3.67Zm-6.12,0H626.9v-.92h3.67Zm-6.11,0h-3.67v-.92h3.67Zm-6.12,0h-3.67v-.92h3.67Zm-6.12,0h-3.67v-.92h3.67Zm-6.12,0h-3.67v-.92h3.67Zm-6.11,0h-3.68v-.92H600Zm-6.12,0H590.2v-.92h3.67Zm-6.12,0h-3.67v-.92h3.67Zm-6.12,0H578v-.92h3.67Zm-6.11,0h-3.67v-.92h3.67Zm-6.12,0h-3.67v-.92h3.67Zm-6.12,0h-3.67v-.92h3.67Zm-6.12,0h-3.67v-.92h3.67Zm-6.11,0h-3.68v-.92h3.68Zm-6.12,0h-3.67v-.92h3.67Zm-6.12,0h-3.67v-.92h3.67Zm-6.12,0H529v-.92h3.67Zm-6.11,0h-3.67v-.92h3.67Zm-6.12,0h-3.67v-.92h3.67Zm-6.12,0h-3.67v-.92h3.67Zm-6.12,0h-3.67v-.92h3.67Zm-6.11,0h-3.68v-.92h3.68Zm-6.12,0h-3.67v-.92H496Zm-6.12,0H486.2v-.92h3.67Zm-6.12,0h-3.67v-.92h3.67Zm-6.11,0H474v-.92h3.67Zm-6.12,0h-3.67v-.92h3.67Zm-6.12,0h-3.67v-.92h3.67Zm-6.12,0h-3.67v-.92h3.67Zm-6.11,0h-3.68v-.92h3.68Zm-6.12,0h-3.67v-.92h3.67Zm-6.12,0h-3.67v-.92h3.67Zm-6.12,0h-3.67v-.92h3.67Zm-6.11,0H425v-.92h3.68Zm-6.12,0h-3.67v-.92h3.67Zm-6.12,0h-3.67v-.92h3.67Zm-6.12,0h-3.67v-.92h3.67Zm-6.11,0h-3.68v-.92h3.68Zm-6.12,0h-3.67v-.92h3.67Zm-6.12,0h-3.67v-.92H392Zm-6.12,0H382.2v-.92h3.67Zm-6.11,0h-3.68v-.92h3.68Zm-6.12,0H370v-.92h3.67Zm-6.12,0h-3.67v-.92h3.67Zm-6.12,0h-3.67v-.92h3.67Zm-6.11,0h-3.68v-.92h3.68Zm-6.12,0H345.5v-.92h3.67Zm-6.12,0h-3.67v-.92h3.67Zm-6.12,0h-3.67v-.92h3.67Zm-6.11,0h-3.68v-.92h3.68Zm-6.12,0H321v-.92h3.67Zm-6.12,0h-3.67v-.92h3.67Zm-6.12,0h-3.67v-.92h3.67Zm-6.11,0h-3.68v-.92h3.68Zm-6.12,0h-3.67v-.92h3.67Zm-6.12,0h-3.67v-.92h3.67Z"/><rect class="cls-5" x="834.9" y="416.29" width="1.84" height="0.92"/><rect class="cls-5" x="286.15" y="329.87" width="1.84" height="0.92"/><path class="cls-5" d="M832.45,330.79h-3.67v-.92h3.67Zm-6.12,0h-3.67v-.92h3.67Zm-6.12,0h-3.67v-.92h3.67Zm-6.11,0h-3.67v-.92h3.67Zm-6.12,0h-3.67v-.92H808Zm-6.12,0h-3.67v-.92h3.67Zm-6.11,0h-3.68v-.92h3.68Zm-6.12,0H786v-.92h3.67Zm-6.12,0h-3.67v-.92h3.67Zm-6.12,0h-3.67v-.92h3.67Zm-6.12,0H767.6v-.92h3.67Zm-6.11,0h-3.67v-.92h3.67Zm-6.12,0h-3.67v-.92H759Zm-6.12,0h-3.67v-.92h3.67Zm-6.11,0h-3.68v-.92h3.68Zm-6.12,0H737v-.92h3.67Zm-6.12,0H730.9v-.92h3.67Zm-6.12,0h-3.67v-.92h3.67Zm-6.11,0h-3.68v-.92h3.68Zm-6.12,0h-3.67v-.92h3.67Zm-6.12,0h-3.67v-.92h3.67Zm-6.12,0h-3.67v-.92H704Zm-6.11,0h-3.68v-.92h3.68Zm-6.12,0h-3.67v-.92h3.67Zm-6.12,0H682v-.92h3.67Zm-6.12,0h-3.67v-.92h3.67Zm-6.11,0h-3.68v-.92h3.68Zm-6.12,0h-3.67v-.92h3.67Zm-6.12,0h-3.67v-.92h3.67Zm-6.12,0h-3.67v-.92H655Zm-6.11,0h-3.68v-.92h3.68Zm-6.12,0h-3.67v-.92h3.67Zm-6.12,0H633v-.92h3.67Zm-6.12,0H626.9v-.92h3.67Zm-6.11,0h-3.67v-.92h3.67Zm-6.12,0h-3.67v-.92h3.67Zm-6.12,0h-3.67v-.92h3.67Zm-6.12,0h-3.67v-.92h3.67Zm-6.11,0h-3.68v-.92H600Zm-6.12,0H590.2v-.92h3.67Zm-6.12,0h-3.67v-.92h3.67Zm-6.12,0H578v-.92h3.67Zm-6.11,0h-3.67v-.92h3.67Zm-6.12,0h-3.67v-.92h3.67Zm-6.12,0h-3.67v-.92h3.67Zm-6.12,0h-3.67v-.92h3.67Zm-6.11,0h-3.68v-.92h3.68Zm-6.12,0h-3.67v-.92h3.67Zm-6.12,0h-3.67v-.92h3.67Zm-6.12,0H529v-.92h3.67Zm-6.11,0h-3.67v-.92h3.67Zm-6.12,0h-3.67v-.92h3.67Zm-6.12,0h-3.67v-.92h3.67Zm-6.12,0h-3.67v-.92h3.67Zm-6.11,0h-3.68v-.92h3.68Zm-6.12,0h-3.67v-.92H496Zm-6.12,0H486.2v-.92h3.67Zm-6.12,0h-3.67v-.92h3.67Zm-6.11,0H474v-.92h3.67Zm-6.12,0h-3.67v-.92h3.67Zm-6.12,0h-3.67v-.92h3.67Zm-6.12,0h-3.67v-.92h3.67Zm-6.11,0h-3.68v-.92h3.68Zm-6.12,0h-3.67v-.92h3.67Zm-6.12,0h-3.67v-.92h3.67Zm-6.12,0h-3.67v-.92h3.67Zm-6.11,0H425v-.92h3.68Zm-6.12,0h-3.67v-.92h3.67Zm-6.12,0h-3.67v-.92h3.67Zm-6.12,0h-3.67v-.92h3.67Zm-6.11,0h-3.68v-.92h3.68Zm-6.12,0h-3.67v-.92h3.67Zm-6.12,0h-3.67v-.92H392Zm-6.12,0H382.2v-.92h3.67Zm-6.11,0h-3.68v-.92h3.68Zm-6.12,0H370v-.92h3.67Zm-6.12,0h-3.67v-.92h3.67Zm-6.12,0h-3.67v-.92h3.67Zm-6.11,0h-3.68v-.92h3.68Zm-6.12,0H345.5v-.92h3.67Zm-6.12,0h-3.67v-.92h3.67Zm-6.12,0h-3.67v-.92h3.67Zm-6.11,0h-3.68v-.92h3.68Zm-6.12,0H321v-.92h3.67Zm-6.12,0h-3.67v-.92h3.67Zm-6.12,0h-3.67v-.92h3.67Zm-6.11,0h-3.68v-.92h3.68Zm-6.12,0h-3.67v-.92h3.67Zm-6.12,0h-3.67v-.92h3.67Z"/><rect class="cls-5" x="834.9" y="329.87" width="1.84" height="0.92"/><rect class="cls-5" x="286.15" y="243.44" width="1.84" height="0.92"/><path class="cls-5" d="M832.45,244.36h-3.67v-.92h3.67Zm-6.12,0h-3.67v-.92h3.67Zm-6.12,0h-3.67v-.92h3.67Zm-6.11,0h-3.67v-.92h3.67Zm-6.12,0h-3.67v-.92H808Zm-6.12,0h-3.67v-.92h3.67Zm-6.11,0h-3.68v-.92h3.68Zm-6.12,0H786v-.92h3.67Zm-6.12,0h-3.67v-.92h3.67Zm-6.12,0h-3.67v-.92h3.67Zm-6.12,0H767.6v-.92h3.67Zm-6.11,0h-3.67v-.92h3.67Zm-6.12,0h-3.67v-.92H759Zm-6.12,0h-3.67v-.92h3.67Zm-6.11,0h-3.68v-.92h3.68Zm-6.12,0H737v-.92h3.67Zm-6.12,0H730.9v-.92h3.67Zm-6.12,0h-3.67v-.92h3.67Zm-6.11,0h-3.68v-.92h3.68Zm-6.12,0h-3.67v-.92h3.67Zm-6.12,0h-3.67v-.92h3.67Zm-6.12,0h-3.67v-.92H704Zm-6.11,0h-3.68v-.92h3.68Zm-6.12,0h-3.67v-.92h3.67Zm-6.12,0H682v-.92h3.67Zm-6.12,0h-3.67v-.92h3.67Zm-6.11,0h-3.68v-.92h3.68Zm-6.12,0h-3.67v-.92h3.67Zm-6.12,0h-3.67v-.92h3.67Zm-6.12,0h-3.67v-.92H655Zm-6.11,0h-3.68v-.92h3.68Zm-6.12,0h-3.67v-.92h3.67Zm-6.12,0H633v-.92h3.67Zm-6.12,0H626.9v-.92h3.67Zm-6.11,0h-3.67v-.92h3.67Zm-6.12,0h-3.67v-.92h3.67Zm-6.12,0h-3.67v-.92h3.67Zm-6.12,0h-3.67v-.92h3.67Zm-6.11,0h-3.68v-.92H600Zm-6.12,0H590.2v-.92h3.67Zm-6.12,0h-3.67v-.92h3.67Zm-6.12,0H578v-.92h3.67Zm-6.11,0h-3.67v-.92h3.67Zm-6.12,0h-3.67v-.92h3.67Zm-6.12,0h-3.67v-.92h3.67Zm-6.12,0h-3.67v-.92h3.67Zm-6.11,0h-3.68v-.92h3.68Zm-6.12,0h-3.67v-.92h3.67Zm-6.12,0h-3.67v-.92h3.67Zm-6.12,0H529v-.92h3.67Zm-6.11,0h-3.67v-.92h3.67Zm-6.12,0h-3.67v-.92h3.67Zm-6.12,0h-3.67v-.92h3.67Zm-6.12,0h-3.67v-.92h3.67Zm-6.11,0h-3.68v-.92h3.68Zm-6.12,0h-3.67v-.92H496Zm-6.12,0H486.2v-.92h3.67Zm-6.12,0h-3.67v-.92h3.67Zm-6.11,0H474v-.92h3.67Zm-6.12,0h-3.67v-.92h3.67Zm-6.12,0h-3.67v-.92h3.67Zm-6.12,0h-3.67v-.92h3.67Zm-6.11,0h-3.68v-.92h3.68Zm-6.12,0h-3.67v-.92h3.67Zm-6.12,0h-3.67v-.92h3.67Zm-6.12,0h-3.67v-.92h3.67Zm-6.11,0H425v-.92h3.68Zm-6.12,0h-3.67v-.92h3.67Zm-6.12,0h-3.67v-.92h3.67Zm-6.12,0h-3.67v-.92h3.67Zm-6.11,0h-3.68v-.92h3.68Zm-6.12,0h-3.67v-.92h3.67Zm-6.12,0h-3.67v-.92H392Zm-6.12,0H382.2v-.92h3.67Zm-6.11,0h-3.68v-.92h3.68Zm-6.12,0H370v-.92h3.67Zm-6.12,0h-3.67v-.92h3.67Zm-6.12,0h-3.67v-.92h3.67Zm-6.11,0h-3.68v-.92h3.68Zm-6.12,0H345.5v-.92h3.67Zm-6.12,0h-3.67v-.92h3.67Zm-6.12,0h-3.67v-.92h3.67Zm-6.11,0h-3.68v-.92h3.68Zm-6.12,0H321v-.92h3.67Zm-6.12,0h-3.67v-.92h3.67Zm-6.12,0h-3.67v-.92h3.67Zm-6.11,0h-3.68v-.92h3.68Zm-6.12,0h-3.67v-.92h3.67Zm-6.12,0h-3.67v-.92h3.67Z"/><rect class="cls-5" x="834.9" y="243.44" width="1.84" height="0.92"/><rect class="cls-5" x="286.15" y="157.01" width="1.84" height="0.92"/><path class="cls-5" d="M832.45,157.93h-3.67V157h3.67Zm-6.12,0h-3.67V157h3.67Zm-6.12,0h-3.67V157h3.67Zm-6.11,0h-3.67V157h3.67Zm-6.12,0h-3.67V157H808Zm-6.12,0h-3.67V157h3.67Zm-6.11,0h-3.68V157h3.68Zm-6.12,0H786V157h3.67Zm-6.12,0h-3.67V157h3.67Zm-6.12,0h-3.67V157h3.67Zm-6.12,0H767.6V157h3.67Zm-6.11,0h-3.67V157h3.67Zm-6.12,0h-3.67V157H759Zm-6.12,0h-3.67V157h3.67Zm-6.11,0h-3.68V157h3.68Zm-6.12,0H737V157h3.67Zm-6.12,0H730.9V157h3.67Zm-6.12,0h-3.67V157h3.67Zm-6.11,0h-3.68V157h3.68Zm-6.12,0h-3.67V157h3.67Zm-6.12,0h-3.67V157h3.67Zm-6.12,0h-3.67V157H704Zm-6.11,0h-3.68V157h3.68Zm-6.12,0h-3.67V157h3.67Zm-6.12,0H682V157h3.67Zm-6.12,0h-3.67V157h3.67Zm-6.11,0h-3.68V157h3.68Zm-6.12,0h-3.67V157h3.67Zm-6.12,0h-3.67V157h3.67Zm-6.12,0h-3.67V157H655Zm-6.11,0h-3.68V157h3.68Zm-6.12,0h-3.67V157h3.67Zm-6.12,0H633V157h3.67Zm-6.12,0H626.9V157h3.67Zm-6.11,0h-3.67V157h3.67Zm-6.12,0h-3.67V157h3.67Zm-6.12,0h-3.67V157h3.67Zm-6.12,0h-3.67V157h3.67Zm-6.11,0h-3.68V157H600Zm-6.12,0H590.2V157h3.67Zm-6.12,0h-3.67V157h3.67Zm-6.12,0H578V157h3.67Zm-6.11,0h-3.67V157h3.67Zm-6.12,0h-3.67V157h3.67Zm-6.12,0h-3.67V157h3.67Zm-6.12,0h-3.67V157h3.67Zm-6.11,0h-3.68V157h3.68Zm-6.12,0h-3.67V157h3.67Zm-6.12,0h-3.67V157h3.67Zm-6.12,0H529V157h3.67Zm-6.11,0h-3.67V157h3.67Zm-6.12,0h-3.67V157h3.67Zm-6.12,0h-3.67V157h3.67Zm-6.12,0h-3.67V157h3.67Zm-6.11,0h-3.68V157h3.68Zm-6.12,0h-3.67V157H496Zm-6.12,0H486.2V157h3.67Zm-6.12,0h-3.67V157h3.67Zm-6.11,0H474V157h3.67Zm-6.12,0h-3.67V157h3.67Zm-6.12,0h-3.67V157h3.67Zm-6.12,0h-3.67V157h3.67Zm-6.11,0h-3.68V157h3.68Zm-6.12,0h-3.67V157h3.67Zm-6.12,0h-3.67V157h3.67Zm-6.12,0h-3.67V157h3.67Zm-6.11,0H425V157h3.68Zm-6.12,0h-3.67V157h3.67Zm-6.12,0h-3.67V157h3.67Zm-6.12,0h-3.67V157h3.67Zm-6.11,0h-3.68V157h3.68Zm-6.12,0h-3.67V157h3.67Zm-6.12,0h-3.67V157H392Zm-6.12,0H382.2V157h3.67Zm-6.11,0h-3.68V157h3.68Zm-6.12,0H370V157h3.67Zm-6.12,0h-3.67V157h3.67Zm-6.12,0h-3.67V157h3.67Zm-6.11,0h-3.68V157h3.68Zm-6.12,0H345.5V157h3.67Zm-6.12,0h-3.67V157h3.67Zm-6.12,0h-3.67V157h3.67Zm-6.11,0h-3.68V157h3.68Zm-6.12,0H321V157h3.67Zm-6.12,0h-3.67V157h3.67Zm-6.12,0h-3.67V157h3.67Zm-6.11,0h-3.68V157h3.68Zm-6.12,0h-3.67V157h3.67Zm-6.12,0h-3.67V157h3.67Z"/><rect class="cls-5" x="834.9" y="157.01" width="1.84" height="0.92"/><path class="cls-6" d="M405.75,490.45l-10.35,8.16h34l-10.35-8.16A10.73,10.73,0,0,0,405.75,490.45Z"/><path class="cls-6" d="M420.64,491l-5.4,7.57h34L443.85,491A14.24,14.24,0,0,0,420.64,491Z"/><path class="cls-6" d="M440.48,491l-5.39,7.57h34L463.69,491A14.24,14.24,0,0,0,440.48,491Z"/><path class="cls-6" d="M461.29,491.47l-6.36,7.14h34l-6.36-7.14A14.24,14.24,0,0,0,461.29,491.47Z"/><path class="cls-6" d="M480.16,491l-5.39,7.57h34L503.37,491A14.24,14.24,0,0,0,480.16,491Z"/><rect class="cls-7" x="450.57" y="386.28" width="3.02" height="98.93"/><path class="cls-8" d="M472.19,442.19c-7.29,7.29-20.07,6.35-20.07,6.35s-.94-12.78,6.35-20.07c.31-.3.62-.59.94-.87,8.78-7.53,21.18,4.87,13.65,13.65C472.78,441.57,472.49,441.88,472.19,442.19Z"/><path class="cls-9" d="M472.19,442.19c.3-.31.59-.62.87-.94,3.77-4.39,2.55-9.69-.71-12.94l-20.23,20.23S464.9,449.48,472.19,442.19Z"/><path class="cls-8" d="M432.06,442.19c7.29,7.29,20.06,6.35,20.06,6.35s.95-12.78-6.35-20.07q-.45-.45-.93-.87c-8.78-7.53-21.19,4.87-13.65,13.65C431.46,441.57,431.75,441.88,432.06,442.19Z"/><path class="cls-9" d="M432.06,442.19c-.31-.31-.6-.62-.87-.94-3.77-4.39-2.55-9.69.7-12.94l20.23,20.23S439.35,449.48,432.06,442.19Z"/><rect class="cls-7" x="447.69" y="401.24" width="30.55" height="3.02" transform="translate(-149.19 445.33) rotate(-45)"/><path class="cls-8" d="M491.91,387.32c-7.3,7.3-20.07,6.35-20.07,6.35s-.95-12.77,6.35-20.06a12.74,12.74,0,0,1,.94-.87c8.78-7.54,21.18,4.87,13.65,13.65Q492.36,386.87,491.91,387.32Z"/><path class="cls-9" d="M491.91,387.32q.45-.45.87-.93c3.76-4.39,2.55-9.69-.71-12.95l-20.23,20.23S484.61,394.62,491.91,387.32Z"/><path class="cls-8" d="M461.78,370.32c0,10.32-9.7,18.68-9.7,18.68s-9.7-8.36-9.7-18.68c0-.43,0-.85.05-1.28.88-11.53,18.42-11.53,19.3,0C461.77,369.47,461.78,369.89,461.78,370.32Z"/><path class="cls-9" d="M461.78,370.32c0-.43,0-.85,0-1.28-.44-5.76-5-8.65-9.65-8.65V389S461.78,380.64,461.78,370.32Z"/><rect class="cls-7" x="438.19" y="392.46" width="3.02" height="35.03" transform="translate(-161.11 431.01) rotate(-45)"/><path class="cls-8" d="M423.35,380c7.29,7.3,6.35,20.07,6.35,20.07s-12.77.94-20.07-6.35c-.3-.31-.59-.62-.87-.94-7.53-8.78,4.87-21.18,13.65-13.65C422.73,379.44,423.05,379.73,423.35,380Z"/><path class="cls-9" d="M423.35,380c-.3-.3-.62-.59-.94-.87-4.39-3.77-9.69-2.55-12.94.71L429.7,400.1S430.64,387.33,423.35,380Z"/><rect class="cls-10" x="395.48" y="498.61" width="113.36" height="4.9"/><path class="cls-6" d="M539.81,490.45l-10.34,8.16h34l-10.35-8.16A10.73,10.73,0,0,0,539.81,490.45Z"/><path class="cls-6" d="M554.7,491l-5.39,7.57h34L577.91,491A14.24,14.24,0,0,0,554.7,491Z"/><path class="cls-6" d="M574.54,491l-5.39,7.57h34L597.75,491A14.24,14.24,0,0,0,574.54,491Z"/><path class="cls-6" d="M595.35,491.47,589,498.61h34l-6.36-7.14A14.25,14.25,0,0,0,595.35,491.47Z"/><path class="cls-6" d="M614.22,491l-5.39,7.57h34L637.44,491A14.25,14.25,0,0,0,614.22,491Z"/><rect class="cls-10" x="529.71" y="498.61" width="113.36" height="4.9"/><rect class="cls-7" x="584.58" y="289.63" width="3.02" height="195.58"/><path class="cls-8" d="M606.2,442.19c-7.29,7.29-20.07,6.35-20.07,6.35s-.94-12.78,6.35-20.07c.31-.3.62-.59.94-.87,8.78-7.53,21.18,4.87,13.65,13.65C606.79,441.57,606.5,441.88,606.2,442.19Z"/><path class="cls-9" d="M606.2,442.19c.3-.31.59-.62.87-.94,3.77-4.39,2.55-9.69-.71-12.94l-20.23,20.23S598.91,449.48,606.2,442.19Z"/><path class="cls-8" d="M566.07,442.19c7.29,7.29,20.06,6.35,20.06,6.35s1-12.78-6.34-20.07c-.31-.3-.62-.59-.94-.87-8.78-7.53-21.19,4.87-13.65,13.65C565.47,441.57,565.76,441.88,566.07,442.19Z"/><path class="cls-9" d="M566.07,442.19c-.31-.31-.6-.62-.87-.94-3.77-4.39-2.55-9.69.7-12.94l20.23,20.23S573.36,449.48,566.07,442.19Z"/><rect class="cls-7" x="581.7" y="401.24" width="30.55" height="3.02" transform="translate(-109.94 540.12) rotate(-45)"/><path class="cls-8" d="M625.92,387.32c-7.3,7.3-20.07,6.35-20.07,6.35s-1-12.77,6.35-20.06a12.74,12.74,0,0,1,.94-.87c8.78-7.54,21.18,4.87,13.65,13.65Q626.37,386.87,625.92,387.32Z"/><path class="cls-9" d="M625.92,387.32q.45-.45.87-.93c3.76-4.39,2.55-9.69-.71-12.95l-20.23,20.23S618.62,394.62,625.92,387.32Z"/><path class="cls-11" d="M593.39,281.48c0,7.75-7.3,9.45-7.3,9.45s-7.29-1.7-7.29-9.45c0-.33,0-.65,0-1,.33-4.33,7.25-11.09,7.25-11.09s6.93,6.76,7.26,11.09C593.37,280.83,593.39,281.15,593.39,281.48Z"/><path class="cls-12" d="M588.86,287.48a2.75,2.75,0,1,1-5.33,0c0-.12,0-.24,0-.36.12-1.58,2.65-4.05,2.65-4.05s2.53,2.47,2.66,4.05C588.85,287.24,588.86,287.36,588.86,287.48Z"/><path class="cls-8" d="M590.05,290.21c-2.21,1.78-3.86.72-3.86.72s-.68-1.84,1.53-3.62l.28-.21c1.28-.93,4.32-1.1,4.32-1.1s-.82,2.92-2,4Z"/><path class="cls-8" d="M582.24,290.21c2.2,1.78,3.85.72,3.85.72s.69-1.84-1.52-3.62l-.28-.21C583,286.17,580,286,580,286s.82,2.92,2,4Z"/><rect class="cls-7" x="572.2" y="392.46" width="3.02" height="35.03" transform="translate(-121.86 525.77) rotate(-45)"/><path class="cls-8" d="M557.36,380c7.29,7.3,6.35,20.07,6.35,20.07s-12.77.94-20.07-6.35c-.3-.31-.59-.62-.87-.94-7.53-8.78,4.87-21.18,13.65-13.65C556.74,379.44,557.06,379.73,557.36,380Z"/><path class="cls-9" d="M557.36,380c-.3-.3-.62-.59-.94-.87-4.39-3.77-9.68-2.55-12.94.71l20.23,20.23S564.65,387.33,557.36,380Z"/><rect class="cls-7" x="567.79" y="331.77" width="3.02" height="47.62" transform="translate(-84.69 506.7) rotate(-45)"/><rect class="cls-7" x="546.77" y="350.18" width="18.65" height="3.02"/><path class="cls-8" d="M547.23,319.8c7.29,7.29,6.34,20.07,6.34,20.07s-12.77.94-20.06-6.35c-.31-.31-.6-.62-.87-.94-7.54-8.78,4.87-21.18,13.65-13.65C546.61,319.21,546.92,319.5,547.23,319.8Z"/><path class="cls-9" d="M547.23,319.8c-.31-.3-.62-.59-.94-.87-4.39-3.77-9.69-2.55-12.95.71l20.23,20.23S554.52,327.09,547.23,319.8Z"/><path class="cls-8" d="M532.13,342c10.32,0,18.68,9.7,18.68,9.7s-8.36,9.7-18.68,9.7c-.43,0-.85,0-1.28-.05-11.53-.88-11.53-18.42,0-19.3C531.28,342,531.7,342,532.13,342Z"/><path class="cls-9" d="M532.13,342c-.43,0-.85,0-1.28.05-5.76.44-8.65,5-8.65,9.65h28.61S542.45,342,532.13,342Z"/><rect class="cls-7" x="576.56" y="372.57" width="3.02" height="22.71" transform="translate(-102.16 521.2) rotate(-45)"/><path class="cls-8" d="M568.48,366.73c4.25,4.25,3.7,11.69,3.7,11.69s-7.44.55-11.69-3.7c-.18-.18-.34-.36-.51-.55-4.38-5.11,2.84-12.34,7.95-7.95C568.12,366.38,568.3,366.55,568.48,366.73Z"/><path class="cls-9" d="M568.48,366.73c-.18-.18-.36-.35-.55-.51a5.38,5.38,0,0,0-7.53.41l11.78,11.79S572.73,371,568.48,366.73Z"/><rect class="cls-7" x="580.01" y="365.67" width="42.09" height="3.02" transform="translate(-83.59 532.55) rotate(-45)"/><path class="cls-8" d="M625.73,350.56c-4.24,4.24-11.68,3.69-11.68,3.69s-.56-7.44,3.69-11.69c.18-.17.36-.34.55-.5,5.12-4.39,12.34,2.83,8,7.95C626.08,350.2,625.91,350.38,625.73,350.56Z"/><path class="cls-9" d="M625.73,350.56c.18-.18.35-.36.51-.55a5.37,5.37,0,0,0-.41-7.54l-11.78,11.78S621.49,354.8,625.73,350.56Z"/><rect class="cls-7" x="601.86" y="344.27" width="3.02" height="20.6"/><path class="cls-8" d="M609,335.08c0,6-5.65,10.88-5.65,10.88s-5.65-4.87-5.65-10.88c0-.25,0-.49,0-.74.51-6.72,10.73-6.72,11.24,0C609,334.59,609,334.83,609,335.08Z"/><path class="cls-9" d="M609,335.08c0-.25,0-.49,0-.74a5.37,5.37,0,0,0-5.62-5V346S609,341.09,609,335.08Z"/><rect class="cls-7" x="596.98" y="401.24" width="22.26" height="3.02"/><path class="cls-8" d="M627.46,408.41c-6,0-10.88-5.65-10.88-5.65s4.87-5.65,10.88-5.65l.75,0c6.72.52,6.72,10.73,0,11.25Z"/><path class="cls-9" d="M627.46,408.41l.75,0a5.38,5.38,0,0,0,5-5.62H616.58S621.45,408.41,627.46,408.41Z"/><rect class="cls-7" x="579.6" y="326.89" width="44.89" height="3.02" transform="translate(-55.88 521.9) rotate(-45)"/><path class="cls-8" d="M633.37,310.22c-7.3,7.3-20.07,6.35-20.07,6.35s-.94-12.77,6.35-20.06c.31-.31.62-.6.94-.87,8.78-7.54,21.18,4.86,13.65,13.64C634,309.61,633.67,309.92,633.37,310.22Z"/><path class="cls-9" d="M633.37,310.22c.3-.3.59-.61.87-.94,3.77-4.39,2.55-9.68-.71-12.94L613.3,316.57S626.07,317.52,633.37,310.22Z"/><path class="cls-8" d="M572.79,300.88c4.89,4.89,13.46,4.26,13.46,4.26s.63-8.57-4.26-13.46c-.2-.2-.41-.4-.63-.58-5.89-5.05-14.21,3.26-9.15,9.15C572.39,300.47,572.59,300.68,572.79,300.88Z"/><path class="cls-9" d="M572.79,300.88c-.2-.2-.4-.41-.58-.63a6.19,6.19,0,0,1,.47-8.68l13.57,13.57S577.68,305.77,572.79,300.88Z"/><rect class="cls-7" x="576.25" y="331.48" width="3.02" height="23.68" transform="translate(-73.54 509.1) rotate(-45)"/><path class="cls-8" d="M568.06,325.92c4.24,4.25,3.69,11.69,3.69,11.69s-7.44.55-11.68-3.7c-.18-.18-.35-.36-.51-.55-4.39-5.11,2.83-12.33,8-7.95C567.7,325.57,567.88,325.74,568.06,325.92Z"/><path class="cls-9" d="M568.06,325.92c-.18-.18-.36-.35-.55-.51a5.38,5.38,0,0,0-7.54.42l11.78,11.78S572.3,330.17,568.06,325.92Z"/><rect class="cls-7" x="569.13" y="285.82" width="3.02" height="43.93" transform="translate(-50.5 493.66) rotate(-45)"/><path class="cls-8" d="M555.16,284.11c4.25,4.25,3.7,11.68,3.7,11.68s-7.44.56-11.69-3.69c-.18-.18-.34-.36-.5-.55-4.39-5.11,2.83-12.34,8-7.95C554.8,283.76,555,283.93,555.16,284.11Z"/><path class="cls-9" d="M555.16,284.11c-.17-.18-.36-.35-.54-.51a5.38,5.38,0,0,0-7.54.41l11.78,11.78S559.41,288.36,555.16,284.11Z"/><rect class="cls-7" x="541.96" y="306.27" width="28.68" height="3.02"/><path class="cls-8" d="M534.8,302.13c6,0,10.88,5.65,10.88,5.65s-4.87,5.65-10.88,5.65l-.75,0c-6.72-.52-6.72-10.73,0-11.25Q534.42,302.13,534.8,302.13Z"/><path class="cls-9" d="M534.8,302.13q-.37,0-.75,0a5.38,5.38,0,0,0-5,5.62h16.67S540.81,302.13,534.8,302.13Z"/><rect class="cls-7" x="603.6" y="302.36" width="3.02" height="22.97"/><path class="cls-8" d="M610.76,294.8c0,6-5.65,10.88-5.65,10.88s-5.65-4.87-5.65-10.88c0-.25,0-.5,0-.74.51-6.72,10.73-6.72,11.24,0C610.75,294.3,610.76,294.55,610.76,294.8Z"/><path class="cls-9" d="M610.76,294.8c0-.25,0-.5,0-.74a5.37,5.37,0,0,0-5.62-5v16.66S610.76,300.81,610.76,294.8Z"/><path class="cls-8" d="M667.26,302.13c6,0,10.88,5.65,10.88,5.65s-4.88,5.65-10.88,5.65l-.75,0c-6.72-.52-6.72-10.73,0-11.25Q666.89,302.13,667.26,302.13Z"/><path class="cls-9" d="M667.26,302.13q-.37,0-.75,0a5.38,5.38,0,0,0-5,5.62h16.67S673.26,302.13,667.26,302.13Z"/><line class="cls-11" x1="450.36" y1="266.84" x2="450.46" y2="266.82"/><polyline class="cls-11" points="452.26 304.06 586.22 246.34 586.41 246.31 717.72 144 716.79 142.81 585.78 244.88 452.26 301.05"/><circle class="cls-8" cx="452.26" cy="304.06" r="9"/><path class="cls-13" d="M452.26,298.08a6,6,0,1,1-6,6,6,6,0,0,1,6-6m0-3a9,9,0,1,0,9,9,9,9,0,0,0-9-9Z"/><path class="cls-8" d="M595.1,245.59a9,9,0,1,1-9-9A9,9,0,0,1,595.1,245.59Z"/><path class="cls-13" d="M586.09,239.61a6,6,0,1,1-6,6,6,6,0,0,1,6-6m0-3a9,9,0,1,0,9,9,9,9,0,0,0-9-9Z"/><path class="cls-8" d="M726.25,143.4a9,9,0,1,1-9-9A9,9,0,0,1,726.25,143.4Z"/><path class="cls-13" d="M717.25,137.42a6,6,0,1,1-6,6,6,6,0,0,1,6-6m0-3a9,9,0,1,0,9,9,9,9,0,0,0-9-9Z"/><path class="cls-6" d="M672.54,490.45l-10.35,8.16h34l-10.34-8.16A10.73,10.73,0,0,0,672.54,490.45Z"/><path class="cls-6" d="M687.42,491,682,498.61h34L710.63,491A14.24,14.24,0,0,0,687.42,491Z"/><path class="cls-6" d="M707.26,491l-5.39,7.57h34L730.48,491A14.25,14.25,0,0,0,707.26,491Z"/><path class="cls-6" d="M728.07,491.47l-6.36,7.14h34l-6.36-7.14A14.25,14.25,0,0,0,728.07,491.47Z"/><path class="cls-6" d="M747,491l-5.39,7.57h34L770.16,491A14.24,14.24,0,0,0,747,491Z"/><rect class="cls-10" x="662.51" y="498.61" width="113.36" height="4.9"/><rect class="cls-7" x="717.04" y="192.94" width="3.02" height="292.27"/><path class="cls-8" d="M738.66,442.19c-7.29,7.29-20.07,6.35-20.07,6.35s-.94-12.78,6.35-20.07c.31-.3.62-.59.94-.87,8.78-7.53,21.18,4.87,13.65,13.65C739.25,441.57,739,441.88,738.66,442.19Z"/><path class="cls-9" d="M738.66,442.19c.3-.31.59-.62.87-.94,3.77-4.39,2.55-9.69-.71-12.94l-20.23,20.23S731.37,449.48,738.66,442.19Z"/><path class="cls-8" d="M698.53,442.19c7.29,7.29,20.06,6.35,20.06,6.35s.95-12.78-6.35-20.07q-.45-.45-.93-.87c-8.78-7.53-21.19,4.87-13.65,13.65C697.93,441.57,698.22,441.88,698.53,442.19Z"/><path class="cls-9" d="M698.53,442.19c-.31-.31-.6-.62-.87-.94-3.77-4.39-2.55-9.69.7-12.94l20.23,20.23S705.82,449.48,698.53,442.19Z"/><rect class="cls-7" x="714.16" y="401.24" width="30.56" height="3.02" transform="translate(-71.14 633.75) rotate(-45)"/><path class="cls-8" d="M758.38,387.32c-7.3,7.3-20.07,6.35-20.07,6.35s-.95-12.77,6.35-20.06a12.74,12.74,0,0,1,.94-.87c8.78-7.54,21.18,4.87,13.65,13.65Q758.83,386.87,758.38,387.32Z"/><path class="cls-9" d="M758.38,387.32q.45-.45.87-.93c3.76-4.39,2.55-9.69-.71-12.95l-20.23,20.23S751.08,394.62,758.38,387.32Z"/><rect class="cls-7" x="704.66" y="392.46" width="3.02" height="35.03" transform="translate(-83.06 619.41) rotate(-45)"/><path class="cls-8" d="M689.82,380c7.29,7.3,6.35,20.07,6.35,20.07s-12.77.94-20.07-6.35c-.3-.31-.59-.62-.87-.94-7.53-8.78,4.87-21.18,13.65-13.65C689.2,379.44,689.52,379.73,689.82,380Z"/><path class="cls-9" d="M689.82,380c-.3-.3-.62-.59-.94-.87-4.39-3.77-9.69-2.55-12.94.71l20.23,20.23S697.11,387.33,689.82,380Z"/><rect class="cls-7" x="700.25" y="331.77" width="3.02" height="47.62" transform="translate(-45.89 600.36) rotate(-45)"/><rect class="cls-7" x="679.23" y="350.18" width="18.65" height="3.02"/><path class="cls-8" d="M679.68,319.8c7.3,7.29,6.35,20.07,6.35,20.07s-12.77.94-20.06-6.35c-.31-.31-.6-.62-.87-.94-7.54-8.78,4.86-21.18,13.65-13.65Q679.23,319.35,679.68,319.8Z"/><path class="cls-9" d="M679.68,319.8q-.45-.45-.93-.87c-4.39-3.77-9.69-2.55-13,.71L686,339.87S687,327.09,679.68,319.8Z"/><path class="cls-8" d="M664.59,342c10.32,0,18.68,9.7,18.68,9.7s-8.36,9.7-18.68,9.7c-.43,0-.85,0-1.28-.05-11.53-.88-11.53-18.42,0-19.3C663.74,342,664.16,342,664.59,342Z"/><path class="cls-9" d="M664.59,342c-.43,0-.85,0-1.28.05-5.77.44-8.65,5-8.65,9.65h28.61S674.91,342,664.59,342Z"/><rect class="cls-7" x="704.21" y="205" width="3.02" height="36.4" transform="translate(48.88 564.39) rotate(-45)"/><path class="cls-8" d="M691.34,195.59c7.29,7.29,6.35,20.07,6.35,20.07s-12.78.94-20.07-6.35c-.3-.31-.59-.62-.87-.94-7.53-8.78,4.87-21.18,13.65-13.65C690.72,195,691,195.29,691.34,195.59Z"/><path class="cls-9" d="M691.34,195.59c-.31-.3-.62-.59-.94-.87-4.39-3.77-9.69-2.55-12.94.71l20.23,20.23S698.63,202.88,691.34,195.59Z"/><rect class="cls-7" x="709.01" y="372.57" width="3.02" height="22.71" transform="translate(-63.37 614.87) rotate(-45)"/><path class="cls-8" d="M700.94,366.73c4.25,4.25,3.7,11.69,3.7,11.69s-7.44.55-11.69-3.7c-.18-.18-.35-.36-.51-.55-4.39-5.11,2.84-12.34,7.95-7.95C700.58,366.38,700.76,366.55,700.94,366.73Z"/><path class="cls-9" d="M700.94,366.73c-.18-.18-.36-.35-.55-.51a5.39,5.39,0,0,0-7.54.41l11.79,11.79S705.19,371,700.94,366.73Z"/><rect class="cls-7" x="704.66" y="262.44" width="3.02" height="35.03" transform="translate(8.87 581.33) rotate(-45)"/><path class="cls-8" d="M689.82,250c7.29,7.3,6.35,20.07,6.35,20.07s-12.77.94-20.07-6.35c-.3-.31-.59-.62-.87-.94-7.53-8.78,4.87-21.18,13.65-13.65C689.2,249.42,689.52,249.71,689.82,250Z"/><path class="cls-9" d="M689.82,250c-.3-.3-.62-.59-.94-.87-4.39-3.77-9.69-2.55-12.94.71l20.23,20.23S697.11,257.31,689.82,250Z"/><rect class="cls-7" x="709.01" y="242.55" width="3.02" height="22.71" transform="translate(28.58 576.8) rotate(-45)"/><path class="cls-8" d="M700.94,236.71c4.25,4.25,3.7,11.69,3.7,11.69s-7.44.55-11.69-3.7c-.18-.18-.35-.36-.51-.55-4.39-5.11,2.84-12.34,7.95-8C700.58,236.36,700.76,236.53,700.94,236.71Z"/><path class="cls-9" d="M700.94,236.71c-.18-.18-.36-.35-.55-.51a5.39,5.39,0,0,0-7.54.41l11.79,11.79S705.19,241,700.94,236.71Z"/><rect class="cls-7" x="712.47" y="365.67" width="42.09" height="3.02" transform="translate(-44.8 626.19) rotate(-45)"/><path class="cls-8" d="M758.19,350.56c-4.25,4.24-11.69,3.69-11.69,3.69s-.55-7.44,3.7-11.69c.18-.17.36-.34.55-.5,5.11-4.39,12.34,2.83,8,7.95C758.54,350.2,758.37,350.38,758.19,350.56Z"/><path class="cls-9" d="M758.19,350.56c.18-.18.35-.36.51-.55a5.38,5.38,0,0,0-.41-7.54L746.5,354.25S753.94,354.8,758.19,350.56Z"/><rect class="cls-7" x="734.32" y="344.27" width="3.02" height="20.6"/><path class="cls-8" d="M741.48,335.08c0,6-5.65,10.88-5.65,10.88s-5.65-4.87-5.65-10.88c0-.25,0-.49,0-.74.51-6.72,10.73-6.72,11.24,0C741.47,334.59,741.48,334.83,741.48,335.08Z"/><path class="cls-9" d="M741.48,335.08c0-.25,0-.49,0-.74a5.38,5.38,0,0,0-5.62-5V346S741.48,341.09,741.48,335.08Z"/><rect class="cls-7" x="712.47" y="282.3" width="42.09" height="3.02" transform="translate(14.14 601.77) rotate(-45)"/><rect class="cls-7" x="729.44" y="401.24" width="22.26" height="3.02"/><path class="cls-8" d="M759.92,408.41c-6,0-10.88-5.65-10.88-5.65s4.87-5.65,10.88-5.65l.75,0c6.72.52,6.72,10.73,0,11.25Z"/><path class="cls-9" d="M759.92,408.41l.75,0a5.38,5.38,0,0,0,5-5.62H749S753.91,408.41,759.92,408.41Z"/><rect class="cls-7" x="714.16" y="234.31" width="30.56" height="3.02" transform="translate(46.9 584.86) rotate(-45)"/><path class="cls-8" d="M758.38,220.39c-7.3,7.29-20.07,6.35-20.07,6.35s-.95-12.77,6.35-20.07c.3-.3.62-.59.94-.87,8.78-7.53,21.18,4.87,13.65,13.65C759,219.77,758.68,220.09,758.38,220.39Z"/><path class="cls-9" d="M758.38,220.39c.3-.3.59-.62.87-.94,3.76-4.39,2.55-9.68-.71-12.94l-20.23,20.23S751.08,227.68,758.38,220.39Z"/><rect class="cls-7" x="729.44" y="234.31" width="22.26" height="3.02"/><path class="cls-8" d="M759.92,241.47c-6,0-10.88-5.65-10.88-5.65s4.87-5.65,10.88-5.65l.75,0c6.72.51,6.72,10.73,0,11.24Q760.3,241.47,759.92,241.47Z"/><path class="cls-9" d="M759.92,241.47q.38,0,.75,0a5.37,5.37,0,0,0,5-5.62H749S753.91,241.47,759.92,241.47Z"/><rect class="cls-7" x="712.06" y="326.89" width="44.89" height="3.02" transform="translate(-17.09 615.53) rotate(-45)"/><path class="cls-8" d="M765.83,310.22c-7.3,7.3-20.07,6.35-20.07,6.35s-.94-12.77,6.35-20.06a12.74,12.74,0,0,1,.94-.87c8.78-7.54,21.18,4.86,13.65,13.64C766.42,309.61,766.13,309.92,765.83,310.22Z"/><path class="cls-9" d="M765.83,310.22c.3-.3.59-.61.87-.94,3.77-4.39,2.55-9.68-.71-12.94l-20.23,20.23S758.53,317.52,765.83,310.22Z"/><path class="cls-8" d="M765.83,264.81c-7.3,7.29-20.07,6.35-20.07,6.35s-.94-12.77,6.35-20.07c.3-.3.62-.59.94-.87,8.78-7.53,21.18,4.87,13.65,13.65C766.42,264.19,766.13,264.5,765.83,264.81Z"/><path class="cls-9" d="M765.83,264.81c.3-.31.59-.62.87-.94,3.77-4.39,2.55-9.69-.71-12.94l-20.23,20.23S758.53,272.1,765.83,264.81Z"/><rect class="cls-7" x="708.71" y="331.48" width="3.02" height="23.68" transform="translate(-34.75 602.75) rotate(-45)"/><path class="cls-8" d="M700.52,325.92c4.24,4.25,3.69,11.69,3.69,11.69s-7.44.55-11.69-3.7c-.17-.18-.34-.36-.5-.55-4.39-5.11,2.83-12.33,8-7.95C700.16,325.57,700.34,325.74,700.52,325.92Z"/><path class="cls-9" d="M700.52,325.92c-.18-.18-.36-.35-.55-.51a5.38,5.38,0,0,0-7.54.42l11.78,11.78S704.76,330.17,700.52,325.92Z"/><rect class="cls-7" x="701.59" y="285.82" width="3.02" height="43.92" transform="translate(-11.71 587.31) rotate(-45)"/><path class="cls-8" d="M687.62,284.11c4.25,4.25,3.7,11.68,3.7,11.68s-7.44.56-11.69-3.69c-.18-.18-.34-.36-.51-.55-4.38-5.11,2.84-12.34,8-7.95C687.26,283.76,687.44,283.93,687.62,284.11Z"/><path class="cls-9" d="M687.62,284.11c-.18-.18-.36-.35-.55-.51a5.37,5.37,0,0,0-7.53.41l11.78,11.78S691.87,288.36,687.62,284.11Z"/><rect class="cls-7" x="674.42" y="306.27" width="28.68" height="3.02"/><rect class="cls-7" x="736.06" y="302.36" width="3.02" height="22.97"/><path class="cls-8" d="M743.22,294.8c0,6-5.65,10.88-5.65,10.88s-5.65-4.87-5.65-10.88c0-.25,0-.5,0-.74.51-6.72,10.73-6.72,11.24,0C743.21,294.3,743.22,294.55,743.22,294.8Z"/><path class="cls-9" d="M743.22,294.8c0-.25,0-.5,0-.74a5.38,5.38,0,0,0-5.62-5v16.66S743.22,300.81,743.22,294.8Z"/><rect class="cls-7" x="715.47" y="263.15" width="21.63" height="3.02" transform="translate(25.57 591.05) rotate(-45)"/><path class="cls-8" d="M743.53,255.44c-4.25,4.25-11.69,3.7-11.69,3.7s-.55-7.44,3.7-11.69c.17-.17.36-.34.54-.5,5.12-4.39,12.34,2.83,7.95,8C743.87,255.08,743.7,255.27,743.53,255.44Z"/><path class="cls-9" d="M743.53,255.44c.17-.17.34-.36.5-.54a5.37,5.37,0,0,0-.41-7.54l-11.78,11.78S739.28,259.69,743.53,255.44Z"/><path class="cls-14" d="M719,192.31c14.57-5.5,13.56,6.8,0,.65,13.61,6.15,5,15-.46.46,5.5,14.58-6.8,13.57-.64,0-6.16,13.62-15,5-.47-.45-14.58,5.5-13.56-6.8.05-.65-13.61-6.15-5-15,.45-.46-5.49-14.58,6.81-13.57.65.05C724.71,178.24,733.59,186.81,719,192.31Z"/><path class="cls-11" d="M719.91,192.61c30.53,0,20.16,21.87-.55,1.16,20.71,20.71-1.15,31.08-1.15.54,0,30.54-21.86,20.17-1.15-.54-20.71,20.71-31.08-1.16-.55-1.16-30.53,0-20.16-21.86.55-1.15-20.71-20.71,1.15-31.08,1.15-.54,0-30.54,21.86-20.17,1.15.54C740.07,170.75,750.44,192.61,719.91,192.61Z"/><path class="cls-15" d="M718.74,192.61c9.52,0,6.29,6.83-.17.36,6.46,6.47-.36,9.7-.36.17,0,9.53-6.82,6.3-.36-.17-6.46,6.47-9.7-.36-.17-.36-9.53,0-6.29-6.82.17-.35-6.46-6.47.36-9.7.36-.17,0-9.53,6.82-6.3.36.17C725,185.79,728.26,192.61,718.74,192.61Z"/><path class="cls-14" d="M722.63,192.61c-1.09,0-2.16,2.27-1.42,3-.74-.73-3,.34-3,1.42,0-1.08-2.26-2.15-3-1.42.74-.73-.33-3-1.42-3,1.09,0,2.16-2.26,1.42-3,.74.73,3-.34,3-1.42,0,1.08,2.26,2.15,3,1.42C720.47,190.35,721.54,192.61,722.63,192.61Z"/><circle class="cls-11" cx="717.51" cy="192.06" r="0.42"/><circle class="cls-11" cx="716.15" cy="194.61" r="0.42"/><circle class="cls-11" cx="718.52" cy="190.91" r="0.42"/><circle class="cls-11" cx="717.47" cy="194.29" r="0.42"/><circle class="cls-11" cx="716" cy="191.12" r="0.42"/><circle class="cls-11" cx="720.12" cy="194.71" r="0.42"/><path class="cls-11" d="M720.8,191.42a.43.43,0,0,1-.85,0,.43.43,0,0,1,.85,0Z"/><circle class="cls-11" cx="719.51" cy="192.4" r="0.42"/><circle class="cls-11" cx="718.31" cy="195.61" r="0.42"/><circle class="cls-11" cx="720.54" cy="193.67" r="0.42"/><circle class="cls-11" cx="716.71" cy="193.15" r="0.42"/><path class="cls-11" d="M717.79,190.7a.21.21,0,0,1-.21.21.21.21,0,0,1-.21-.21.21.21,0,0,1,.21-.21A.22.22,0,0,1,717.79,190.7Z"/><path class="cls-11" d="M717.2,191.25a.21.21,0,0,1-.21.21.21.21,0,0,1-.21-.21A.22.22,0,0,1,717,191,.21.21,0,0,1,717.2,191.25Z"/><path class="cls-11" d="M716.15,192.06a.21.21,0,0,1-.21.21.22.22,0,0,1-.21-.21.21.21,0,0,1,.21-.21A.21.21,0,0,1,716.15,192.06Z"/><path class="cls-11" d="M715.47,192.61a.22.22,0,0,1-.21.22.21.21,0,0,1-.21-.22.21.21,0,0,1,.21-.21A.22.22,0,0,1,715.47,192.61Z"/><path class="cls-11" d="M718,193.36a.21.21,0,0,1-.21.21.21.21,0,0,1-.21-.21.21.21,0,0,1,.21-.21A.22.22,0,0,1,718,193.36Z"/><path class="cls-11" d="M719.3,194.5a.21.21,0,0,1-.21.21.22.22,0,0,1-.21-.21.21.21,0,0,1,.21-.21A.21.21,0,0,1,719.3,194.5Z"/><path class="cls-11" d="M718.73,191.78a.21.21,0,0,1-.42,0,.21.21,0,1,1,.42,0Z"/><path class="cls-11" d="M718.31,189.69a.21.21,0,0,1-.21.21.21.21,0,0,1,0-.42A.21.21,0,0,1,718.31,189.69Z"/><path class="cls-11" d="M720.68,190.37a.21.21,0,0,1-.21.21.21.21,0,0,1,0-.42A.21.21,0,0,1,720.68,190.37Z"/><path class="cls-11" d="M717.42,190a.21.21,0,0,1-.22.21A.21.21,0,0,1,717,190a.22.22,0,0,1,.43,0Z"/><path class="cls-11" d="M716.92,192.32a.21.21,0,0,1-.21.21.21.21,0,0,1-.21-.21.21.21,0,0,1,.21-.21A.22.22,0,0,1,716.92,192.32Z"/><path class="cls-11" d="M721,192.48a.21.21,0,0,1-.21.21.21.21,0,0,1,0-.42A.21.21,0,0,1,721,192.48Z"/><path class="cls-11" d="M721.69,192.69a.21.21,0,0,1-.21.21.21.21,0,0,1,0-.42A.21.21,0,0,1,721.69,192.69Z"/><path class="cls-11" d="M719.88,193.79a.21.21,0,1,1-.42,0,.21.21,0,1,1,.42,0Z"/><path class="cls-11" d="M718.6,192.61a.21.21,0,0,1-.21.22.22.22,0,0,1,0-.43A.21.21,0,0,1,718.6,192.61Z"/><path class="cls-11" d="M719.36,190.07a.21.21,0,1,1-.42,0,.21.21,0,0,1,.42,0Z"/><path class="cls-11" d="M717.3,195a.22.22,0,0,1-.21.21.21.21,0,0,1-.21-.21.21.21,0,0,1,.21-.21A.21.21,0,0,1,717.3,195Z"/><path class="cls-11" d="M715.85,193.46a.21.21,0,0,1-.42,0,.21.21,0,0,1,.42,0Z"/><path class="cls-11" d="M719.15,193.36a.21.21,0,1,1-.42,0,.21.21,0,0,1,.42,0Z"/><path class="cls-11" d="M718.73,194.09a.21.21,0,0,1-.42,0,.21.21,0,0,1,.42,0Z"/><path class="cls-11" d="M716.64,190.41a.21.21,0,0,1-.21.21.21.21,0,0,1-.22-.21.22.22,0,0,1,.43,0Z"/><path class="cls-11" d="M719.67,190.91a.21.21,0,0,1-.42,0,.21.21,0,0,1,.42,0Z"/><polygon class="cls-16" points="486.54 247.29 419.14 247.29 422.17 253.9 483.51 253.9 486.54 247.29"/><polygon class="cls-17" points="486.54 260.51 419.14 260.51 422.17 253.9 483.51 253.9 486.54 260.51"/><polygon class="cls-5" points="452.82 278.87 419.11 260.51 486.54 260.51 452.82 278.87"/><polygon class="cls-5" points="484.13 212.31 461.58 212.31 444.1 212.31 421.55 212.31 419.14 247.29 440.48 247.29 465.19 247.29 486.54 247.29 484.13 212.31"/><text class="cls-18" transform="translate(427.51 237.35)">2024</text><polygon class="cls-16" points="618.7 197.74 551.3 197.74 554.33 204.35 615.67 204.35 618.7 197.74"/><polygon class="cls-17" points="618.7 210.96 551.3 210.96 554.33 204.35 615.67 204.35 618.7 210.96"/><polygon class="cls-5" points="584.98 229.31 551.27 210.96 618.7 210.96 584.98 229.31"/><polygon class="cls-5" points="616.28 162.76 593.74 162.76 576.26 162.76 553.71 162.76 551.3 197.74 572.64 197.74 597.35 197.74 618.7 197.74 616.28 162.76"/><text class="cls-18" transform="translate(558.9 190.6)">2025</text><polygon class="cls-16" points="750.71 95.98 683.31 95.98 686.34 102.59 747.68 102.59 750.71 95.98"/><polygon class="cls-17" points="750.71 109.2 683.31 109.2 686.34 102.59 747.68 102.59 750.71 109.2"/><polygon class="cls-5" points="716.99 127.56 683.28 109.2 750.71 109.2 716.99 127.56"/><polygon class="cls-5" points="748.3 61.01 725.75 61.01 708.27 61.01 685.72 61.01 683.31 95.98 704.65 95.98 729.36 95.98 750.71 95.98 748.3 61.01"/><text class="cls-18" transform="translate(693.56 89.1)">2026</text><path class="cls-4" d="M906.1,382c-43.4,93.4-142,217.1-251.29,231.11-24.43,3.14-19.82-21.52,2.79-47.39C677.72,542.66,721.37,510,742,484c15.36-19.39,14.52-52.26-12.27-51-54.35,2.54-185.87,186.76-412.5,155.93C222.54,576,135.67,522.65,68.74,419c89.77,249.36,371.81,375.27,617.34,274.58,138-56.6,234.46-171.7,272.32-304.88,14-49.06-31.82-50.8-52.3-6.73Z"/><path class="cls-2" d="M876,23.35a22.5,22.5,0,1,0-22.5,22.5A22.5,22.5,0,0,0,876,23.35Z"/></g></g></g></svg>