<svg xmlns="http://www.w3.org/2000/svg" xmlns:xlink="http://www.w3.org/1999/xlink" viewBox="0 0 648.98 330.32"><defs><style>.cls-1{fill:none;}.cls-2{fill:#0f2a55;}.cls-3{clip-path:url(#clip-path);}.cls-4{fill:#ffd195;}.cls-5{fill:#fbbb80;}.cls-6{fill:#def2fc;}.cls-7{fill:#b0d6e8;}.cls-8{fill:#65a3d6;}.cls-9{fill:#9dcdfd;}.cls-10{fill:#23454f;}.cls-11{fill:#cc681a;}.cls-12{fill:#fcb813;}.cls-13{fill:#ffcc02;}.cls-14{fill:#8a82db;}.cls-15{fill:#b1a4ff;}.cls-16{fill:#bf321b;}.cls-17{fill:#e54525;}.cls-18{fill:#605332;}.cls-19{fill:#ebae39;}.cls-20{clip-path:url(#clip-path-2);}.cls-21{fill:#e1841f;}.cls-22{fill:#f2d25e;}.cls-23{fill:#e69d25;}.cls-24{clip-path:url(#clip-path-3);}.cls-25{clip-path:url(#clip-path-4);}.cls-26{clip-path:url(#clip-path-5);}.cls-27{clip-path:url(#clip-path-6);}.cls-28{clip-path:url(#clip-path-7);}.cls-29{clip-path:url(#clip-path-8);}.cls-30{clip-path:url(#clip-path-9);}.cls-31{clip-path:url(#clip-path-10);}.cls-32{clip-path:url(#clip-path-11);}.cls-33{clip-path:url(#clip-path-12);}.cls-34{clip-path:url(#clip-path-13);}.cls-35{clip-path:url(#clip-path-14);}.cls-36{clip-path:url(#clip-path-15);}.cls-37{clip-path:url(#clip-path-16);}.cls-38{clip-path:url(#clip-path-17);}.cls-39{clip-path:url(#clip-path-18);}.cls-40{clip-path:url(#clip-path-19);}.cls-41{fill:#84ba4d;}.cls-42{fill:#d1d3d4;}.cls-43{fill:#34b56b;}.cls-44{fill:#ffd436;}.cls-45{fill:#7fc685;}</style><clipPath id="clip-path" transform="translate(264.79 3.41)"><path class="cls-1" d="M0,0H384.19a0,0,0,0,1,0,0V159.53A110.47,110.47,0,0,1,273.72,270H0a0,0,0,0,1,0,0V0A0,0,0,0,1,0,0Z"/></clipPath><clipPath id="clip-path-2" transform="translate(264.79 3.41)"><path class="cls-1" d="M151.85,234.5v11.92c0,4.13-22.06,7.48-49.27,7.48s-49.26-3.35-49.26-7.48V234.5Z"/></clipPath><clipPath id="clip-path-3" transform="translate(264.79 3.41)"><path class="cls-1" d="M148.38,220.78V232.7c0,4.13-22.06,7.48-49.27,7.48s-49.26-3.35-49.26-7.48V220.78Z"/></clipPath><clipPath id="clip-path-4" transform="translate(264.79 3.41)"><path class="cls-1" d="M160.14,207.24v11.91c0,4.14-22.06,7.48-49.27,7.48s-49.26-3.34-49.26-7.48V207.24Z"/></clipPath><clipPath id="clip-path-5" transform="translate(264.79 3.41)"><path class="cls-1" d="M150.63,193.69v11.92c0,4.13-22.06,7.48-49.27,7.48s-49.26-3.35-49.26-7.48V193.69Z"/></clipPath><clipPath id="clip-path-6" transform="translate(264.79 3.41)"><path class="cls-1" d="M159.16,180.14v11.92c0,4.13-22,7.48-49.26,7.48s-49.27-3.35-49.27-7.48V180.14Z"/></clipPath><clipPath id="clip-path-7" transform="translate(264.79 3.41)"><path class="cls-1" d="M323.6,231.83v11.91c0,4.13-22.05,7.48-49.26,7.48s-49.27-3.35-49.27-7.48V231.83Z"/></clipPath><clipPath id="clip-path-8" transform="translate(264.79 3.41)"><path class="cls-1" d="M320.14,218.11V230c0,4.13-22.06,7.48-49.27,7.48s-49.26-3.35-49.26-7.48V218.11Z"/></clipPath><clipPath id="clip-path-9" transform="translate(264.79 3.41)"><path class="cls-1" d="M331.89,204.56v11.92c0,4.13-22.05,7.48-49.26,7.48s-49.27-3.35-49.27-7.48V204.56Z"/></clipPath><clipPath id="clip-path-10" transform="translate(264.79 3.41)"><path class="cls-1" d="M322.39,191v11.91c0,4.13-22.06,7.48-49.27,7.48s-49.26-3.35-49.26-7.48V191Z"/></clipPath><clipPath id="clip-path-11" transform="translate(264.79 3.41)"><path class="cls-1" d="M330.92,177.47v11.91c0,4.13-22.06,7.48-49.26,7.48s-49.27-3.35-49.27-7.48V177.47Z"/></clipPath><clipPath id="clip-path-12" transform="translate(264.79 3.41)"><path class="cls-1" d="M324.89,164.54v11.91c0,4.13-22.06,7.48-49.26,7.48s-49.27-3.35-49.27-7.48V164.54Z"/></clipPath><clipPath id="clip-path-13" transform="translate(264.79 3.41)"><path class="cls-1" d="M315.38,151V162.9c0,4.13-22.05,7.48-49.26,7.48s-49.27-3.35-49.27-7.48V151Z"/></clipPath><clipPath id="clip-path-14" transform="translate(264.79 3.41)"><path class="cls-1" d="M323.92,137.44v11.91c0,4.13-22.06,7.48-49.27,7.48s-49.26-3.35-49.26-7.48V137.44Z"/></clipPath><clipPath id="clip-path-15" transform="translate(264.79 3.41)"><path class="cls-1" d="M15.93,234.5v11.92c0,4.13-22,7.48-49.26,7.48s-49.27-3.35-49.27-7.48V234.5Z"/></clipPath><clipPath id="clip-path-16" transform="translate(264.79 3.41)"><path class="cls-1" d="M23.07,221V233c0,4.13-22.06,7.48-49.27,7.48s-49.26-3.35-49.26-7.48V221Z"/></clipPath><clipPath id="clip-path-17" transform="translate(264.79 3.41)"><path class="cls-1" d="M15.06,207.49v11.92c0,4.13-22,7.48-49.26,7.48s-49.27-3.35-49.27-7.48V207.49Z"/></clipPath><clipPath id="clip-path-18" transform="translate(264.79 3.41)"><path class="cls-1" d="M-132.61,234.5v11.92c0,4.13-22,7.48-49.26,7.48s-49.27-3.35-49.27-7.48V234.5Z"/></clipPath><clipPath id="clip-path-19" transform="translate(264.79 3.41)"><path class="cls-1" d="M-125.47,221V233c0,4.13-22.06,7.48-49.27,7.48S-224,237.09-224,233V221Z"/></clipPath></defs><g id="Capa_2" data-name="Capa 2"><g id="Capa_1-2" data-name="Capa 1"><path class="cls-2" d="M264.79,3.41H649a0,0,0,0,1,0,0V162.95A110.47,110.47,0,0,1,538.51,273.41H264.79a0,0,0,0,1,0,0V3.41A0,0,0,0,1,264.79,3.41Z"/><g class="cls-3"><path class="cls-4" d="M83.84,93.39V49.68c0-7.36,10-7.36,10,0v30.5c0,1.71,3.4,2.3,3.4,0V42.12c0-5.85,9.86-6.24,9.86,0V80.57c0,1.12,2.69,1.58,2.69.07v-31c0-4.46,9-5.38,9,.53V81c0,1.31,2.17,1.25,2.17-.2V59.41c0-3.49,7.75-3.68,7.75.66v54.42c0,2.67-4.2,5.27-4.2,7.75v22.27H97.29L87.17,114.75l-8.28-14.59.66-5.59S83.84,94.75,83.84,93.39Z" transform="translate(264.79 3.41)"/><path class="cls-4" d="M87.55,144.51V125.58c0-6.31-12.8-11.49-15.43-15.65s-1.4-26.49-1.58-33.2,11.75-8.91,11.75.25V93.32c0,3,11.92,13,14.2,15.6s2.45,5.72,2.45,14v21.6Z" transform="translate(264.79 3.41)"/><path class="cls-5" d="M87.11,95.75A25.48,25.48,0,0,1,97.21,104c1.66,2.26,6.79,10.36,3.77,13a1.59,1.59,0,0,1-1.86,0,4.3,4.3,0,0,1-1.26-1.54c-2.33-4.11-3.58-8.65-6.37-12.51-1.48-2.06-2.82-3.89-5.27-4.87a7.57,7.57,0,0,1-1.59-.71,1.73,1.73,0,0,1-.83-1.44C83.92,94.13,86.31,95.39,87.11,95.75Z" transform="translate(264.79 3.41)"/><path class="cls-5" d="M121.09,93.77c-5.38.21-10.47,1.61-15.92,1.51-4.92-.09-9.61-1.27-14.4-2.23-.72-.14-1.29.94-.53,1.26,9.22,3.91,22.26,7.23,31.42,1.57A1.14,1.14,0,0,0,121.09,93.77Z" transform="translate(264.79 3.41)"/><rect class="cls-6" x="349.73" y="133.2" width="42.19" height="15.77" rx="1.58"/><path class="cls-7" d="M84.94,137.62V144a1.58,1.58,0,0,0,1.58,1.58h39a1.57,1.57,0,0,0,1.57-1.58v-10.9Z" transform="translate(264.79 3.41)"/><rect class="cls-8" x="347.45" y="141.08" width="46.75" height="59.94" rx="1.84"/><path class="cls-9" d="M82.66,172.3v130a1.84,1.84,0,0,0,1.84,1.84h43.07a1.84,1.84,0,0,0,1.84-1.84V164.43Z" transform="translate(264.79 3.41)"/><path class="cls-10" d="M123.47,142.06a4.67,4.67,0,1,0,4.67,4.67A4.67,4.67,0,0,0,123.47,142.06Z" transform="translate(264.79 3.41)"/><path class="cls-11" d="M127.64,146a4.67,4.67,0,1,1-4.66-4.67A4.66,4.66,0,0,1,127.64,146Z" transform="translate(264.79 3.41)"/><path class="cls-12" d="M126.77,146a3.8,3.8,0,1,1-3.79-3.8A3.79,3.79,0,0,1,126.77,146Z" transform="translate(264.79 3.41)"/><path class="cls-13" d="M123,149.79a3.78,3.78,0,0,0,2.28-.8L120,143.66a3.79,3.79,0,0,0-.81,2.28Z" transform="translate(264.79 3.41)"/><path class="cls-13" d="M121.58,142.47a4,4,0,0,0-1.15.71l5.36,5.36a3.91,3.91,0,0,0,.72-1.15Z" transform="translate(264.79 3.41)"/><path class="cls-4" d="M249.84,52.39V8.68c0-7.36,10-7.36,10,0v30.5c0,1.71,3.4,2.3,3.4,0V1.12c0-5.85,9.86-6.24,9.86,0V39.57c0,1.12,2.69,1.58,2.69.07v-31c0-4.46,9-5.38,9,.53V40c0,1.31,2.17,1.25,2.17-.2V18.41c0-3.49,7.75-3.68,7.75.66V73.49c0,2.67-4.2,5.27-4.2,7.75v22.27H263.29L253.17,73.75l-8.28-14.59.66-5.59S249.84,53.75,249.84,52.39Z" transform="translate(264.79 3.41)"/><path class="cls-4" d="M253.55,103.51V84.58c0-6.31-12.8-11.49-15.43-15.65s-1.4-26.49-1.58-33.2,11.75-8.91,11.75.25V52.32c0,3,11.92,13,14.2,15.6s2.45,5.72,2.45,14v21.6Z" transform="translate(264.79 3.41)"/><path class="cls-5" d="M253.11,54.75A25.48,25.48,0,0,1,263.21,63c1.66,2.26,6.79,10.36,3.77,13a1.59,1.59,0,0,1-1.86,0,4.3,4.3,0,0,1-1.26-1.54c-2.33-4.11-3.58-8.65-6.37-12.51-1.48-2.06-2.82-3.89-5.27-4.87a7.57,7.57,0,0,1-1.59-.71,1.73,1.73,0,0,1-.83-1.44C249.92,53.13,252.31,54.39,253.11,54.75Z" transform="translate(264.79 3.41)"/><path class="cls-5" d="M287.09,52.77c-5.38.21-10.47,1.61-15.92,1.51-4.92-.09-9.61-1.27-14.4-2.23-.72-.14-1.29.94-.53,1.26,9.22,3.91,22.26,7.23,31.42,1.57A1.14,1.14,0,0,0,287.09,52.77Z" transform="translate(264.79 3.41)"/><rect class="cls-6" x="515.73" y="92.2" width="42.19" height="15.77" rx="1.58"/><path class="cls-7" d="M250.94,96.62V103a1.58,1.58,0,0,0,1.58,1.58h39a1.57,1.57,0,0,0,1.57-1.58V92.08Z" transform="translate(264.79 3.41)"/><rect class="cls-14" x="513.45" y="100.08" width="46.75" height="59.94" rx="1.84"/><path class="cls-15" d="M248.66,131.3v130a1.84,1.84,0,0,0,1.84,1.84h43.07a1.84,1.84,0,0,0,1.84-1.84V123.43Z" transform="translate(264.79 3.41)"/><path class="cls-10" d="M289.47,101.06a4.67,4.67,0,1,0,4.67,4.67A4.67,4.67,0,0,0,289.47,101.06Z" transform="translate(264.79 3.41)"/><path class="cls-11" d="M293.64,105a4.67,4.67,0,1,1-4.66-4.67A4.66,4.66,0,0,1,293.64,105Z" transform="translate(264.79 3.41)"/><path class="cls-12" d="M292.77,105a3.8,3.8,0,1,1-3.79-3.8A3.79,3.79,0,0,1,292.77,105Z" transform="translate(264.79 3.41)"/><path class="cls-13" d="M289,108.79a3.78,3.78,0,0,0,2.28-.8L286,102.66a3.79,3.79,0,0,0-.81,2.28Z" transform="translate(264.79 3.41)"/><path class="cls-13" d="M287.58,101.47a4,4,0,0,0-1.15.71l5.36,5.36a3.91,3.91,0,0,0,.72-1.15Z" transform="translate(264.79 3.41)"/><path class="cls-4" d="M-201.16,142.67V99c0-7.36,10-7.36,10,0v30.5c0,1.7,3.4,2.3,3.4,0V91.4c0-5.85,9.86-6.25,9.86,0v38.45c0,1.12,2.69,1.58,2.69.07v-31c0-4.47,9-5.39,9,.53v30.82c0,1.32,2.17,1.25,2.17-.19V108.69c0-3.49,7.75-3.69,7.75.65v54.43c0,2.67-4.2,5.27-4.2,7.75v22.26h-27.22L-197.83,164l-8.28-14.59.66-5.59S-201.16,144-201.16,142.67Z" transform="translate(264.79 3.41)"/><path class="cls-4" d="M-197.45,193.78V174.85c0-6.31-12.8-11.48-15.43-15.64s-1.4-26.49-1.58-33.2,11.75-8.91,11.75.25V142.6c0,3,11.92,13,14.2,15.6s2.45,5.72,2.45,14v21.59Z" transform="translate(264.79 3.41)"/><path class="cls-5" d="M-197.89,145a25.59,25.59,0,0,1,10.1,8.25c1.66,2.26,6.79,10.35,3.77,13a1.56,1.56,0,0,1-1.86,0,4.14,4.14,0,0,1-1.26-1.54c-2.33-4.1-3.58-8.64-6.37-12.51-1.48-2-2.82-3.89-5.27-4.86a8.75,8.75,0,0,1-1.59-.71,1.73,1.73,0,0,1-.83-1.44C-201.08,143.4-198.69,144.66-197.89,145Z" transform="translate(264.79 3.41)"/><path class="cls-5" d="M-163.91,143.05c-5.38.21-10.47,1.6-15.92,1.51-4.92-.09-9.61-1.28-14.4-2.23-.72-.14-1.29.94-.53,1.26,9.22,3.9,22.26,7.23,31.42,1.57A1.14,1.14,0,0,0-163.91,143.05Z" transform="translate(264.79 3.41)"/><rect class="cls-6" x="64.73" y="182.47" width="42.19" height="15.77" rx="1.58"/><path class="cls-7" d="M-200.06,186.9v6.36a1.57,1.57,0,0,0,1.58,1.57h39a1.57,1.57,0,0,0,1.57-1.57v-10.9Z" transform="translate(264.79 3.41)"/><rect class="cls-16" x="62.45" y="190.36" width="46.75" height="139.96" rx="1.84"/><path class="cls-17" d="M-202.34,221.58V325.07a1.85,1.85,0,0,0,1.84,1.84h43.07a1.84,1.84,0,0,0,1.84-1.84V213.7Z" transform="translate(264.79 3.41)"/><path class="cls-18" d="M-161.53,191.34A4.67,4.67,0,0,0-166.2,196a4.67,4.67,0,0,0,4.67,4.67,4.67,4.67,0,0,0,4.67-4.67A4.67,4.67,0,0,0-161.53,191.34Z" transform="translate(264.79 3.41)"/><path class="cls-11" d="M-157.36,195.27a4.67,4.67,0,0,1-4.66,4.67,4.67,4.67,0,0,1-4.67-4.67,4.67,4.67,0,0,1,4.67-4.66A4.66,4.66,0,0,1-157.36,195.27Z" transform="translate(264.79 3.41)"/><path class="cls-12" d="M-158.23,195.27a3.8,3.8,0,0,1-3.79,3.8,3.8,3.8,0,0,1-3.8-3.8,3.8,3.8,0,0,1,3.8-3.79A3.79,3.79,0,0,1-158.23,195.27Z" transform="translate(264.79 3.41)"/><path class="cls-13" d="M-162,199.07a3.79,3.79,0,0,0,2.28-.81l-5.32-5.32a3.79,3.79,0,0,0-.81,2.28Z" transform="translate(264.79 3.41)"/><path class="cls-13" d="M-163.42,191.74a4,4,0,0,0-1.15.72l5.36,5.36a4,4,0,0,0,.72-1.15Z" transform="translate(264.79 3.41)"/><path class="cls-19" d="M151.85,234.5v11.92c0,4.13-22.06,7.48-49.27,7.48s-49.26-3.35-49.26-7.48V234.5Z" transform="translate(264.79 3.41)"/><g class="cls-20"><rect class="cls-21" x="413.22" y="232.97" width="2.33" height="27.31"/><rect class="cls-21" x="407.17" y="232.97" width="2.33" height="27.31"/><rect class="cls-21" x="400.27" y="232.97" width="2.33" height="27.31"/><rect class="cls-21" x="391.65" y="232.97" width="2.33" height="27.31"/><rect class="cls-21" x="382.18" y="232.97" width="2.33" height="27.31"/><rect class="cls-21" x="371.86" y="232.97" width="2.33" height="27.31"/><rect class="cls-21" x="319.18" y="232.97" width="2.33" height="27.31"/><rect class="cls-21" x="325.23" y="232.97" width="2.33" height="27.31"/><rect class="cls-21" x="332.13" y="232.97" width="2.33" height="27.31"/><rect class="cls-21" x="340.75" y="232.97" width="2.33" height="27.31"/><rect class="cls-21" x="350.22" y="232.97" width="2.33" height="27.31"/><rect class="cls-21" x="360.54" y="232.97" width="2.33" height="27.31"/></g><path class="cls-22" d="M53.32,234.28c0,4.13,22.05,7.48,49.26,7.48s49.27-3.35,49.27-7.48-22.06-7.48-49.27-7.48S53.32,230.15,53.32,234.28Z" transform="translate(264.79 3.41)"/><path class="cls-23" d="M63.42,233.49c0,1.92,17.53,3.47,39.16,3.47s39.16-1.55,39.16-3.47S124.21,230,102.58,230,63.42,231.58,63.42,233.49Z" transform="translate(264.79 3.41)"/><path class="cls-21" d="M140.06,234.5c-4.88-1.42-19.81-2.46-37.48-2.46s-32.6,1-37.48,2.46c-1.09-.32-1.68-.66-1.68-1,0-1.91,17.53-3.47,39.16-3.47s39.16,1.56,39.16,3.47C141.74,233.84,141.15,234.18,140.06,234.5Z" transform="translate(264.79 3.41)"/><path class="cls-19" d="M148.38,220.78V232.7c0,4.13-22.06,7.48-49.27,7.48s-49.26-3.35-49.26-7.48V220.78Z" transform="translate(264.79 3.41)"/><g class="cls-24"><rect class="cls-21" x="409.76" y="219.25" width="2.33" height="27.32"/><rect class="cls-21" x="403.71" y="219.25" width="2.33" height="27.32"/><rect class="cls-21" x="396.8" y="219.25" width="2.33" height="27.32"/><rect class="cls-21" x="388.19" y="219.25" width="2.33" height="27.32"/><rect class="cls-21" x="378.72" y="219.25" width="2.33" height="27.32"/><rect class="cls-21" x="368.39" y="219.25" width="2.33" height="27.32"/><rect class="cls-21" x="315.71" y="219.25" width="2.33" height="27.32"/><rect class="cls-21" x="321.76" y="219.25" width="2.33" height="27.32"/><rect class="cls-21" x="328.67" y="219.25" width="2.33" height="27.32"/><rect class="cls-21" x="337.28" y="219.25" width="2.33" height="27.32"/><rect class="cls-21" x="346.75" y="219.25" width="2.33" height="27.32"/><rect class="cls-21" x="357.08" y="219.25" width="2.33" height="27.32"/></g><path class="cls-22" d="M49.85,220.56c0,4.13,22.06,7.48,49.26,7.48s49.27-3.35,49.27-7.48-22.06-7.48-49.27-7.48S49.85,216.43,49.85,220.56Z" transform="translate(264.79 3.41)"/><path class="cls-23" d="M60,219.77c0,1.92,17.53,3.47,39.16,3.47s39.17-1.55,39.17-3.47-17.54-3.47-39.17-3.47S60,217.86,60,219.77Z" transform="translate(264.79 3.41)"/><path class="cls-21" d="M136.59,220.78c-4.88-1.42-19.81-2.46-37.48-2.46s-32.59,1-37.47,2.46c-1.1-.32-1.69-.66-1.69-1,0-1.91,17.53-3.47,39.16-3.47s39.17,1.56,39.17,3.47C138.28,220.12,137.69,220.46,136.59,220.78Z" transform="translate(264.79 3.41)"/><path class="cls-19" d="M160.14,207.24v11.91c0,4.14-22.06,7.48-49.27,7.48s-49.26-3.34-49.26-7.48V207.24Z" transform="translate(264.79 3.41)"/><g class="cls-25"><rect class="cls-21" x="421.51" y="205.7" width="2.33" height="27.32"/><rect class="cls-21" x="415.47" y="205.7" width="2.33" height="27.32"/><rect class="cls-21" x="408.56" y="205.7" width="2.33" height="27.32"/><rect class="cls-21" x="399.95" y="205.7" width="2.33" height="27.32"/><rect class="cls-21" x="390.48" y="205.7" width="2.33" height="27.32"/><rect class="cls-21" x="380.15" y="205.7" width="2.33" height="27.32"/><rect class="cls-21" x="327.47" y="205.7" width="2.33" height="27.32"/><rect class="cls-21" x="333.52" y="205.7" width="2.33" height="27.32"/><rect class="cls-21" x="340.42" y="205.7" width="2.33" height="27.32"/><rect class="cls-21" x="349.04" y="205.7" width="2.33" height="27.32"/><rect class="cls-21" x="358.51" y="205.7" width="2.33" height="27.32"/><rect class="cls-21" x="368.84" y="205.7" width="2.33" height="27.32"/></g><ellipse class="cls-22" cx="375.66" cy="210.43" rx="49.27" ry="7.48"/><ellipse class="cls-23" cx="375.66" cy="209.64" rx="39.16" ry="3.47"/><path class="cls-21" d="M148.35,207.24c-4.88-1.43-19.81-2.46-37.48-2.46s-32.6,1-37.47,2.46c-1.1-.32-1.69-.66-1.69-1,0-1.92,17.53-3.47,39.16-3.47S150,204.31,150,206.23C150,206.58,149.44,206.92,148.35,207.24Z" transform="translate(264.79 3.41)"/><path class="cls-19" d="M150.63,193.69v11.92c0,4.13-22.06,7.48-49.27,7.48s-49.26-3.35-49.26-7.48V193.69Z" transform="translate(264.79 3.41)"/><g class="cls-26"><rect class="cls-21" x="412.01" y="192.16" width="2.33" height="27.31"/><rect class="cls-21" x="405.96" y="192.16" width="2.33" height="27.31"/><rect class="cls-21" x="399.05" y="192.16" width="2.33" height="27.31"/><rect class="cls-21" x="390.44" y="192.16" width="2.33" height="27.31"/><rect class="cls-21" x="380.97" y="192.16" width="2.33" height="27.31"/><rect class="cls-21" x="370.64" y="192.16" width="2.33" height="27.31"/><rect class="cls-21" x="317.96" y="192.16" width="2.33" height="27.31"/><rect class="cls-21" x="324.01" y="192.16" width="2.33" height="27.31"/><rect class="cls-21" x="330.92" y="192.16" width="2.33" height="27.31"/><rect class="cls-21" x="339.53" y="192.16" width="2.33" height="27.31"/><rect class="cls-21" x="349" y="192.16" width="2.33" height="27.31"/><rect class="cls-21" x="359.33" y="192.16" width="2.33" height="27.31"/></g><ellipse class="cls-22" cx="366.15" cy="196.88" rx="49.27" ry="7.48"/><path class="cls-23" d="M62.2,192.68c0,1.92,17.53,3.47,39.16,3.47s39.17-1.55,39.17-3.47-17.54-3.47-39.17-3.47S62.2,190.76,62.2,192.68Z" transform="translate(264.79 3.41)"/><path class="cls-21" d="M138.84,193.69c-4.88-1.43-19.81-2.46-37.48-2.46s-32.59,1-37.47,2.46c-1.1-.32-1.69-.66-1.69-1,0-1.92,17.53-3.47,39.16-3.47s39.17,1.55,39.17,3.47C140.53,193,139.94,193.37,138.84,193.69Z" transform="translate(264.79 3.41)"/><path class="cls-19" d="M159.16,180.14v11.92c0,4.13-22,7.48-49.26,7.48s-49.27-3.35-49.27-7.48V180.14Z" transform="translate(264.79 3.41)"/><g class="cls-27"><rect class="cls-21" x="420.54" y="178.61" width="2.33" height="27.32"/><rect class="cls-21" x="414.49" y="178.61" width="2.33" height="27.32"/><rect class="cls-21" x="407.59" y="178.61" width="2.33" height="27.32"/><rect class="cls-21" x="398.97" y="178.61" width="2.33" height="27.32"/><rect class="cls-21" x="389.5" y="178.61" width="2.33" height="27.32"/><rect class="cls-21" x="379.18" y="178.61" width="2.33" height="27.32"/><rect class="cls-21" x="326.5" y="178.61" width="2.33" height="27.32"/><rect class="cls-21" x="332.55" y="178.61" width="2.33" height="27.32"/><rect class="cls-21" x="339.45" y="178.61" width="2.33" height="27.32"/><rect class="cls-21" x="348.06" y="178.61" width="2.33" height="27.32"/><rect class="cls-21" x="357.54" y="178.61" width="2.33" height="27.32"/><rect class="cls-21" x="367.86" y="178.61" width="2.33" height="27.32"/></g><path class="cls-22" d="M60.63,179.92c0,4.13,22.06,7.48,49.27,7.48s49.26-3.35,49.26-7.48-22-7.48-49.26-7.48S60.63,175.79,60.63,179.92Z" transform="translate(264.79 3.41)"/><path class="cls-19" d="M70.73,179.13c0,1.92,17.54,3.47,39.17,3.47s39.16-1.55,39.16-3.47-17.53-3.47-39.16-3.47S70.73,177.21,70.73,179.13Z" transform="translate(264.79 3.41)"/><path class="cls-21" d="M147.37,180.14c-4.87-1.42-19.8-2.46-37.47-2.46s-32.6,1-37.48,2.46c-1.09-.32-1.69-.66-1.69-1,0-1.92,17.54-3.47,39.17-3.47s39.16,1.55,39.16,3.47C149.06,179.48,148.47,179.82,147.37,180.14Z" transform="translate(264.79 3.41)"/><path class="cls-19" d="M323.6,231.83v11.91c0,4.13-22.05,7.48-49.26,7.48s-49.27-3.35-49.27-7.48V231.83Z" transform="translate(264.79 3.41)"/><g class="cls-28"><rect class="cls-21" x="584.98" y="230.29" width="2.33" height="27.31"/><rect class="cls-21" x="578.93" y="230.29" width="2.33" height="27.31"/><rect class="cls-21" x="572.03" y="230.29" width="2.33" height="27.31"/><rect class="cls-21" x="563.41" y="230.29" width="2.33" height="27.31"/><rect class="cls-21" x="553.94" y="230.29" width="2.33" height="27.31"/><rect class="cls-21" x="543.62" y="230.29" width="2.33" height="27.31"/><rect class="cls-21" x="490.94" y="230.29" width="2.33" height="27.31"/><rect class="cls-21" x="496.99" y="230.29" width="2.33" height="27.31"/><rect class="cls-21" x="503.89" y="230.29" width="2.33" height="27.31"/><rect class="cls-21" x="512.5" y="230.29" width="2.33" height="27.31"/><rect class="cls-21" x="521.98" y="230.29" width="2.33" height="27.31"/><rect class="cls-21" x="532.3" y="230.29" width="2.33" height="27.31"/></g><path class="cls-22" d="M225.07,231.61c0,4.13,22.06,7.47,49.27,7.47s49.26-3.34,49.26-7.47-22.05-7.48-49.26-7.48S225.07,227.47,225.07,231.61Z" transform="translate(264.79 3.41)"/><path class="cls-23" d="M235.17,230.82c0,1.92,17.54,3.47,39.17,3.47s39.16-1.55,39.16-3.47-17.53-3.47-39.16-3.47S235.17,228.9,235.17,230.82Z" transform="translate(264.79 3.41)"/><path class="cls-21" d="M311.81,231.83c-4.87-1.43-19.8-2.46-37.47-2.46s-32.6,1-37.48,2.46c-1.09-.32-1.69-.66-1.69-1,0-1.92,17.54-3.47,39.17-3.47s39.16,1.55,39.16,3.47C313.5,231.17,312.91,231.51,311.81,231.83Z" transform="translate(264.79 3.41)"/><path class="cls-19" d="M320.14,218.11V230c0,4.13-22.06,7.48-49.27,7.48s-49.26-3.35-49.26-7.48V218.11Z" transform="translate(264.79 3.41)"/><g class="cls-29"><rect class="cls-21" x="581.51" y="216.57" width="2.33" height="27.32"/><rect class="cls-21" x="575.47" y="216.57" width="2.33" height="27.32"/><rect class="cls-21" x="568.56" y="216.57" width="2.33" height="27.32"/><rect class="cls-21" x="559.95" y="216.57" width="2.33" height="27.32"/><rect class="cls-21" x="550.48" y="216.57" width="2.33" height="27.32"/><rect class="cls-21" x="540.15" y="216.57" width="2.33" height="27.32"/><rect class="cls-21" x="487.47" y="216.57" width="2.33" height="27.32"/><rect class="cls-21" x="493.52" y="216.57" width="2.33" height="27.32"/><rect class="cls-21" x="500.42" y="216.57" width="2.33" height="27.32"/><rect class="cls-21" x="509.04" y="216.57" width="2.33" height="27.32"/><rect class="cls-21" x="518.51" y="216.57" width="2.33" height="27.32"/><rect class="cls-21" x="528.83" y="216.57" width="2.33" height="27.32"/></g><path class="cls-22" d="M221.61,217.89c0,4.13,22,7.47,49.26,7.47s49.27-3.34,49.27-7.47-22.06-7.48-49.27-7.48S221.61,213.75,221.61,217.89Z" transform="translate(264.79 3.41)"/><path class="cls-23" d="M231.71,217.1c0,1.92,17.53,3.47,39.16,3.47S310,219,310,217.1s-17.54-3.47-39.17-3.47S231.71,215.18,231.71,217.1Z" transform="translate(264.79 3.41)"/><path class="cls-21" d="M308.35,218.11c-4.88-1.43-19.81-2.46-37.48-2.46s-32.6,1-37.48,2.46c-1.09-.32-1.68-.66-1.68-1,0-1.92,17.53-3.47,39.16-3.47S310,215.18,310,217.1C310,217.45,309.44,217.79,308.35,218.11Z" transform="translate(264.79 3.41)"/><path class="cls-19" d="M331.89,204.56v11.92c0,4.13-22.05,7.48-49.26,7.48s-49.27-3.35-49.27-7.48V204.56Z" transform="translate(264.79 3.41)"/><g class="cls-30"><rect class="cls-21" x="593.27" y="203.03" width="2.33" height="27.32"/><rect class="cls-21" x="587.22" y="203.03" width="2.33" height="27.32"/><rect class="cls-21" x="580.32" y="203.03" width="2.33" height="27.32"/><rect class="cls-21" x="571.7" y="203.03" width="2.33" height="27.32"/><rect class="cls-21" x="562.23" y="203.03" width="2.33" height="27.32"/><rect class="cls-21" x="551.91" y="203.03" width="2.33" height="27.32"/><rect class="cls-21" x="499.23" y="203.03" width="2.33" height="27.32"/><rect class="cls-21" x="505.28" y="203.03" width="2.33" height="27.32"/><rect class="cls-21" x="512.18" y="203.03" width="2.33" height="27.32"/><rect class="cls-21" x="520.8" y="203.03" width="2.33" height="27.32"/><rect class="cls-21" x="530.27" y="203.03" width="2.33" height="27.32"/><rect class="cls-21" x="540.59" y="203.03" width="2.33" height="27.32"/></g><ellipse class="cls-22" cx="547.42" cy="207.76" rx="49.27" ry="7.48"/><ellipse class="cls-23" cx="547.42" cy="206.97" rx="39.16" ry="3.47"/><path class="cls-21" d="M320.11,204.56c-4.88-1.42-19.81-2.46-37.48-2.46s-32.6,1-37.48,2.46c-1.09-.32-1.68-.65-1.68-1,0-1.91,17.53-3.47,39.16-3.47s39.16,1.56,39.16,3.47C321.79,203.91,321.2,204.24,320.11,204.56Z" transform="translate(264.79 3.41)"/><path class="cls-19" d="M322.39,191v11.91c0,4.13-22.06,7.48-49.27,7.48s-49.26-3.35-49.26-7.48V191Z" transform="translate(264.79 3.41)"/><g class="cls-31"><rect class="cls-21" x="583.76" y="189.48" width="2.33" height="27.31"/><rect class="cls-21" x="577.72" y="189.48" width="2.33" height="27.31"/><rect class="cls-21" x="570.81" y="189.48" width="2.33" height="27.31"/><rect class="cls-21" x="562.2" y="189.48" width="2.33" height="27.31"/><rect class="cls-21" x="552.73" y="189.48" width="2.33" height="27.31"/><rect class="cls-21" x="542.4" y="189.48" width="2.33" height="27.31"/><rect class="cls-21" x="489.72" y="189.48" width="2.33" height="27.31"/><rect class="cls-21" x="495.77" y="189.48" width="2.33" height="27.31"/><rect class="cls-21" x="502.67" y="189.48" width="2.33" height="27.31"/><rect class="cls-21" x="511.29" y="189.48" width="2.33" height="27.31"/><rect class="cls-21" x="520.76" y="189.48" width="2.33" height="27.31"/><rect class="cls-21" x="531.09" y="189.48" width="2.33" height="27.31"/></g><ellipse class="cls-22" cx="537.91" cy="194.21" rx="49.27" ry="7.48"/><path class="cls-23" d="M234,190c0,1.91,17.53,3.47,39.16,3.47s39.17-1.56,39.17-3.47-17.54-3.48-39.17-3.48S234,188.09,234,190Z" transform="translate(264.79 3.41)"/><path class="cls-21" d="M310.6,191c-4.88-1.43-19.81-2.47-37.48-2.47s-32.6,1-37.47,2.47c-1.1-.32-1.69-.66-1.69-1,0-1.92,17.53-3.48,39.16-3.48s39.17,1.56,39.17,3.48C312.29,190.36,311.69,190.7,310.6,191Z" transform="translate(264.79 3.41)"/><path class="cls-19" d="M330.92,177.47v11.91c0,4.13-22.06,7.48-49.26,7.48s-49.27-3.35-49.27-7.48V177.47Z" transform="translate(264.79 3.41)"/><g class="cls-32"><rect class="cls-21" x="592.3" y="175.93" width="2.33" height="27.32"/><rect class="cls-21" x="586.25" y="175.93" width="2.33" height="27.32"/><rect class="cls-21" x="579.35" y="175.93" width="2.33" height="27.32"/><rect class="cls-21" x="570.73" y="175.93" width="2.33" height="27.32"/><rect class="cls-21" x="561.26" y="175.93" width="2.33" height="27.32"/><rect class="cls-21" x="550.93" y="175.93" width="2.33" height="27.32"/><rect class="cls-21" x="498.26" y="175.93" width="2.33" height="27.32"/><rect class="cls-21" x="504.3" y="175.93" width="2.33" height="27.32"/><rect class="cls-21" x="511.21" y="175.93" width="2.33" height="27.32"/><rect class="cls-21" x="519.82" y="175.93" width="2.33" height="27.32"/><rect class="cls-21" x="529.29" y="175.93" width="2.33" height="27.32"/><rect class="cls-21" x="539.62" y="175.93" width="2.33" height="27.32"/></g><path class="cls-22" d="M232.39,177.24c0,4.13,22.06,7.48,49.27,7.48s49.26-3.35,49.26-7.48-22.06-7.48-49.26-7.48S232.39,173.11,232.39,177.24Z" transform="translate(264.79 3.41)"/><path class="cls-19" d="M242.49,176.46c0,1.91,17.54,3.47,39.17,3.47s39.16-1.56,39.16-3.47S303.29,173,281.66,173,242.49,174.54,242.49,176.46Z" transform="translate(264.79 3.41)"/><path class="cls-21" d="M319.13,177.47C314.25,176,299.32,175,281.66,175s-32.6,1-37.48,2.47c-1.1-.32-1.69-.66-1.69-1,0-1.92,17.54-3.47,39.17-3.47s39.16,1.55,39.16,3.47C320.82,176.81,320.23,177.15,319.13,177.47Z" transform="translate(264.79 3.41)"/><path class="cls-19" d="M324.89,164.54v11.91c0,4.13-22.06,7.48-49.26,7.48s-49.27-3.35-49.27-7.48V164.54Z" transform="translate(264.79 3.41)"/><g class="cls-33"><rect class="cls-21" x="586.27" y="163" width="2.33" height="27.32"/><rect class="cls-21" x="580.22" y="163" width="2.33" height="27.32"/><rect class="cls-21" x="573.32" y="163" width="2.33" height="27.32"/><rect class="cls-21" x="564.7" y="163" width="2.33" height="27.32"/><rect class="cls-21" x="555.23" y="163" width="2.33" height="27.32"/><rect class="cls-21" x="544.9" y="163" width="2.33" height="27.32"/><rect class="cls-21" x="492.23" y="163" width="2.33" height="27.32"/><rect class="cls-21" x="498.27" y="163" width="2.33" height="27.32"/><rect class="cls-21" x="505.18" y="163" width="2.33" height="27.32"/><rect class="cls-21" x="513.79" y="163" width="2.33" height="27.32"/><rect class="cls-21" x="523.26" y="163" width="2.33" height="27.32"/><rect class="cls-21" x="533.59" y="163" width="2.33" height="27.32"/></g><ellipse class="cls-22" cx="540.41" cy="167.73" rx="49.27" ry="7.48"/><path class="cls-23" d="M236.46,163.53c0,1.91,17.54,3.47,39.17,3.47s39.16-1.56,39.16-3.47-17.53-3.48-39.16-3.48S236.46,161.61,236.46,163.53Z" transform="translate(264.79 3.41)"/><path class="cls-21" d="M313.1,164.54c-4.88-1.43-19.81-2.47-37.47-2.47s-32.6,1-37.48,2.47c-1.1-.32-1.69-.66-1.69-1,0-1.92,17.54-3.48,39.17-3.48s39.16,1.56,39.16,3.48C314.79,163.88,314.2,164.22,313.1,164.54Z" transform="translate(264.79 3.41)"/><path class="cls-19" d="M315.38,151V162.9c0,4.13-22.05,7.48-49.26,7.48s-49.27-3.35-49.27-7.48V151Z" transform="translate(264.79 3.41)"/><g class="cls-34"><rect class="cls-21" x="576.76" y="149.45" width="2.33" height="27.31"/><rect class="cls-21" x="570.71" y="149.45" width="2.33" height="27.31"/><rect class="cls-21" x="563.81" y="149.45" width="2.33" height="27.31"/><rect class="cls-21" x="555.19" y="149.45" width="2.33" height="27.31"/><rect class="cls-21" x="545.72" y="149.45" width="2.33" height="27.31"/><rect class="cls-21" x="535.4" y="149.45" width="2.33" height="27.31"/><rect class="cls-21" x="482.72" y="149.45" width="2.33" height="27.31"/><rect class="cls-21" x="488.77" y="149.45" width="2.33" height="27.31"/><rect class="cls-21" x="495.67" y="149.45" width="2.33" height="27.31"/><rect class="cls-21" x="504.28" y="149.45" width="2.33" height="27.31"/><rect class="cls-21" x="513.76" y="149.45" width="2.33" height="27.31"/><rect class="cls-21" x="524.08" y="149.45" width="2.33" height="27.31"/></g><ellipse class="cls-22" cx="530.91" cy="154.18" rx="49.27" ry="7.48"/><path class="cls-23" d="M227,150c0,1.91,17.54,3.47,39.17,3.47s39.16-1.56,39.16-3.47-17.53-3.47-39.16-3.47S227,148.06,227,150Z" transform="translate(264.79 3.41)"/><path class="cls-21" d="M303.59,151c-4.87-1.43-19.8-2.47-37.47-2.47s-32.6,1-37.48,2.47c-1.09-.32-1.69-.66-1.69-1,0-1.92,17.54-3.47,39.17-3.47s39.16,1.55,39.16,3.47C305.28,150.33,304.69,150.67,303.59,151Z" transform="translate(264.79 3.41)"/><path class="cls-19" d="M323.92,137.44v11.91c0,4.13-22.06,7.48-49.27,7.48s-49.26-3.35-49.26-7.48V137.44Z" transform="translate(264.79 3.41)"/><g class="cls-35"><rect class="cls-21" x="585.29" y="135.9" width="2.33" height="27.32"/><rect class="cls-21" x="579.24" y="135.9" width="2.33" height="27.32"/><rect class="cls-21" x="572.34" y="135.9" width="2.33" height="27.32"/><rect class="cls-21" x="563.73" y="135.9" width="2.33" height="27.32"/><rect class="cls-21" x="554.26" y="135.9" width="2.33" height="27.32"/><rect class="cls-21" x="543.93" y="135.9" width="2.33" height="27.32"/><rect class="cls-21" x="491.25" y="135.9" width="2.33" height="27.32"/><rect class="cls-21" x="497.3" y="135.9" width="2.33" height="27.32"/><rect class="cls-21" x="504.2" y="135.9" width="2.33" height="27.32"/><rect class="cls-21" x="512.82" y="135.9" width="2.33" height="27.32"/><rect class="cls-21" x="522.29" y="135.9" width="2.33" height="27.32"/><rect class="cls-21" x="532.61" y="135.9" width="2.33" height="27.32"/></g><path class="cls-22" d="M225.39,137.21c0,4.14,22.05,7.48,49.26,7.48s49.27-3.34,49.27-7.48-22.06-7.47-49.27-7.47S225.39,133.08,225.39,137.21Z" transform="translate(264.79 3.41)"/><path class="cls-19" d="M235.49,136.43c0,1.92,17.53,3.47,39.16,3.47s39.17-1.55,39.17-3.47S296.28,133,274.65,133,235.49,134.51,235.49,136.43Z" transform="translate(264.79 3.41)"/><path class="cls-21" d="M312.13,137.44C307.25,136,292.32,135,274.65,135s-32.6,1-37.48,2.46c-1.09-.32-1.68-.66-1.68-1,0-1.92,17.53-3.47,39.16-3.47s39.17,1.55,39.17,3.47C313.82,136.78,313.22,137.12,312.13,137.44Z" transform="translate(264.79 3.41)"/><path class="cls-19" d="M15.93,234.5v11.92c0,4.13-22,7.48-49.26,7.48s-49.27-3.35-49.27-7.48V234.5Z" transform="translate(264.79 3.41)"/><g class="cls-36"><rect class="cls-21" x="277.31" y="232.97" width="2.33" height="27.32"/><rect class="cls-21" x="271.26" y="232.97" width="2.33" height="27.32"/><rect class="cls-21" x="264.36" y="232.97" width="2.33" height="27.32"/><rect class="cls-21" x="255.74" y="232.97" width="2.33" height="27.32"/><rect class="cls-21" x="246.27" y="232.97" width="2.33" height="27.32"/><rect class="cls-21" x="235.95" y="232.97" width="2.33" height="27.32"/><rect class="cls-21" x="183.27" y="232.97" width="2.33" height="27.32"/><rect class="cls-21" x="189.32" y="232.97" width="2.33" height="27.32"/><rect class="cls-21" x="196.22" y="232.97" width="2.33" height="27.32"/><rect class="cls-21" x="204.83" y="232.97" width="2.33" height="27.32"/><rect class="cls-21" x="214.3" y="232.97" width="2.33" height="27.32"/><rect class="cls-21" x="224.63" y="232.97" width="2.33" height="27.32"/></g><ellipse class="cls-22" cx="231.45" cy="237.69" rx="49.27" ry="7.48"/><path class="cls-23" d="M-72.5,233.49c0,1.92,17.54,3.47,39.17,3.47s39.16-1.55,39.16-3.47S-11.7,230-33.33,230-72.5,231.58-72.5,233.49Z" transform="translate(264.79 3.41)"/><path class="cls-21" d="M4.14,234.5C-.73,233.08-15.66,232-33.33,232s-32.6,1-37.48,2.46c-1.09-.32-1.69-.66-1.69-1,0-1.91,17.54-3.47,39.17-3.47s39.16,1.56,39.16,3.47C5.83,233.84,5.24,234.18,4.14,234.5Z" transform="translate(264.79 3.41)"/><path class="cls-19" d="M23.07,221V233c0,4.13-22.06,7.48-49.27,7.48s-49.26-3.35-49.26-7.48V221Z" transform="translate(264.79 3.41)"/><g class="cls-37"><rect class="cls-21" x="284.44" y="219.51" width="2.33" height="27.31"/><rect class="cls-21" x="278.4" y="219.51" width="2.33" height="27.31"/><rect class="cls-21" x="271.49" y="219.51" width="2.33" height="27.31"/><rect class="cls-21" x="262.88" y="219.51" width="2.33" height="27.31"/><rect class="cls-21" x="253.41" y="219.51" width="2.33" height="27.31"/><rect class="cls-21" x="243.08" y="219.51" width="2.33" height="27.31"/><rect class="cls-21" x="190.4" y="219.51" width="2.33" height="27.31"/><rect class="cls-21" x="196.45" y="219.51" width="2.33" height="27.31"/><rect class="cls-21" x="203.35" y="219.51" width="2.33" height="27.31"/><rect class="cls-21" x="211.97" y="219.51" width="2.33" height="27.31"/><rect class="cls-21" x="221.44" y="219.51" width="2.33" height="27.31"/><rect class="cls-21" x="231.77" y="219.51" width="2.33" height="27.31"/></g><ellipse class="cls-22" cx="238.59" cy="224.23" rx="49.27" ry="7.48"/><path class="cls-23" d="M-65.36,220c0,1.92,17.53,3.48,39.16,3.48S13,222,13,220s-17.54-3.47-39.17-3.47S-65.36,218.12-65.36,220Z" transform="translate(264.79 3.41)"/><path class="cls-21" d="M11.28,221c-4.88-1.42-19.81-2.46-37.48-2.46s-32.6,1-37.47,2.46c-1.1-.32-1.69-.66-1.69-1,0-1.91,17.53-3.47,39.16-3.47S13,218.12,13,220C13,220.38,12.37,220.72,11.28,221Z" transform="translate(264.79 3.41)"/><path class="cls-19" d="M15.06,207.49v11.92c0,4.13-22,7.48-49.26,7.48s-49.27-3.35-49.27-7.48V207.49Z" transform="translate(264.79 3.41)"/><g class="cls-38"><rect class="cls-21" x="276.44" y="205.96" width="2.33" height="27.31"/><rect class="cls-21" x="270.39" y="205.96" width="2.33" height="27.31"/><rect class="cls-21" x="263.49" y="205.96" width="2.33" height="27.31"/><rect class="cls-21" x="254.87" y="205.96" width="2.33" height="27.31"/><rect class="cls-21" x="245.4" y="205.96" width="2.33" height="27.31"/><rect class="cls-21" x="235.08" y="205.96" width="2.33" height="27.31"/><rect class="cls-21" x="182.4" y="205.96" width="2.33" height="27.31"/><rect class="cls-21" x="188.45" y="205.96" width="2.33" height="27.31"/><rect class="cls-21" x="195.35" y="205.96" width="2.33" height="27.31"/><rect class="cls-21" x="203.96" y="205.96" width="2.33" height="27.31"/><rect class="cls-21" x="213.44" y="205.96" width="2.33" height="27.31"/><rect class="cls-21" x="223.76" y="205.96" width="2.33" height="27.31"/></g><path class="cls-22" d="M-83.47,207.27c0,4.13,22.06,7.48,49.27,7.48s49.26-3.35,49.26-7.48-22-7.48-49.26-7.48S-83.47,203.14-83.47,207.27Z" transform="translate(264.79 3.41)"/><path class="cls-23" d="M-73.37,206.48c0,1.92,17.54,3.48,39.17,3.48S5,208.4,5,206.48-12.57,203-34.2,203-73.37,204.57-73.37,206.48Z" transform="translate(264.79 3.41)"/><path class="cls-21" d="M3.27,207.49C-1.6,206.07-16.53,205-34.2,205s-32.6,1-37.48,2.46c-1.09-.32-1.69-.65-1.69-1,0-1.91,17.54-3.47,39.17-3.47S5,204.57,5,206.48C5,206.84,4.37,207.17,3.27,207.49Z" transform="translate(264.79 3.41)"/><path class="cls-19" d="M-132.61,234.5v11.92c0,4.13-22,7.48-49.26,7.48s-49.27-3.35-49.27-7.48V234.5Z" transform="translate(264.79 3.41)"/><g class="cls-39"><rect class="cls-21" x="128.77" y="232.97" width="2.33" height="27.32"/><rect class="cls-21" x="122.72" y="232.97" width="2.33" height="27.32"/><rect class="cls-21" x="115.82" y="232.97" width="2.33" height="27.32"/><rect class="cls-21" x="107.2" y="232.97" width="2.33" height="27.32"/><rect class="cls-21" x="97.73" y="232.97" width="2.33" height="27.32"/><rect class="cls-21" x="87.41" y="232.97" width="2.33" height="27.32"/><rect class="cls-21" x="34.73" y="232.97" width="2.33" height="27.32"/><rect class="cls-21" x="40.78" y="232.97" width="2.33" height="27.32"/><rect class="cls-21" x="47.68" y="232.97" width="2.33" height="27.32"/><rect class="cls-21" x="56.3" y="232.97" width="2.33" height="27.32"/><rect class="cls-21" x="65.77" y="232.97" width="2.33" height="27.32"/><rect class="cls-21" x="76.09" y="232.97" width="2.33" height="27.32"/></g><ellipse class="cls-22" cx="82.92" cy="237.69" rx="49.27" ry="7.48"/><path class="cls-23" d="M-221,233.49c0,1.92,17.54,3.47,39.17,3.47s39.16-1.55,39.16-3.47S-160.24,230-181.87,230-221,231.58-221,233.49Z" transform="translate(264.79 3.41)"/><path class="cls-21" d="M-144.39,234.5c-4.88-1.42-19.81-2.46-37.48-2.46s-32.6,1-37.48,2.46c-1.09-.32-1.69-.66-1.69-1,0-1.91,17.54-3.47,39.17-3.47s39.16,1.56,39.16,3.47C-142.71,233.84-143.3,234.18-144.39,234.5Z" transform="translate(264.79 3.41)"/><path class="cls-19" d="M-125.47,221V233c0,4.13-22.06,7.48-49.27,7.48S-224,237.09-224,233V221Z" transform="translate(264.79 3.41)"/><g class="cls-40"><rect class="cls-21" x="135.9" y="219.51" width="2.33" height="27.31"/><rect class="cls-21" x="129.86" y="219.51" width="2.33" height="27.31"/><rect class="cls-21" x="122.95" y="219.51" width="2.33" height="27.31"/><rect class="cls-21" x="114.34" y="219.51" width="2.33" height="27.31"/><rect class="cls-21" x="104.87" y="219.51" width="2.33" height="27.31"/><rect class="cls-21" x="94.54" y="219.51" width="2.33" height="27.31"/><rect class="cls-21" x="41.86" y="219.51" width="2.33" height="27.31"/><rect class="cls-21" x="47.91" y="219.51" width="2.33" height="27.31"/><rect class="cls-21" x="54.82" y="219.51" width="2.33" height="27.31"/><rect class="cls-21" x="63.43" y="219.51" width="2.33" height="27.31"/><rect class="cls-21" x="72.9" y="219.51" width="2.33" height="27.31"/><rect class="cls-21" x="83.23" y="219.51" width="2.33" height="27.31"/></g><ellipse class="cls-22" cx="90.05" cy="224.23" rx="49.27" ry="7.48"/><path class="cls-23" d="M-213.9,220c0,1.92,17.53,3.48,39.16,3.48s39.17-1.56,39.17-3.48-17.54-3.47-39.17-3.47S-213.9,218.12-213.9,220Z" transform="translate(264.79 3.41)"/><path class="cls-21" d="M-137.26,221c-4.88-1.42-19.81-2.46-37.48-2.46s-32.59,1-37.47,2.46c-1.1-.32-1.69-.66-1.69-1,0-1.91,17.53-3.47,39.16-3.47s39.17,1.56,39.17,3.47C-135.57,220.38-136.17,220.72-137.26,221Z" transform="translate(264.79 3.41)"/><polygon class="cls-17" points="10.23 254.16 9.62 252.6 162.97 192.59 311.98 143.84 312.09 143.83 462.97 135.03 618.15 37.87 619.03 39.28 463.49 136.66 463.28 136.68 312.29 145.49 163.54 194.16 10.23 254.16"/><path class="cls-41" d="M-91.64,191a9.93,9.93,0,0,1-10.89,8.86,9.93,9.93,0,0,1-8.85-10.89,9.93,9.93,0,0,1,10.89-8.86A9.92,9.92,0,0,1-91.64,191Z" transform="translate(264.79 3.41)"/><path class="cls-42" d="M-100.84,183.4a6.6,6.6,0,0,1,5.89,7.23,6.6,6.6,0,0,1-7.23,5.88,6.6,6.6,0,0,1-5.89-7.23,6.59,6.59,0,0,1,7.23-5.88m.35-3.32a9.93,9.93,0,0,0-10.89,8.86,9.93,9.93,0,0,0,8.85,10.89A9.93,9.93,0,0,0-91.64,191a9.92,9.92,0,0,0-8.85-10.89Z" transform="translate(264.79 3.41)"/><path class="cls-41" d="M-245,251a9.93,9.93,0,0,1-10.89,8.86A9.92,9.92,0,0,1-264.73,249a9.92,9.92,0,0,1,10.88-8.86A9.92,9.92,0,0,1-245,251Z" transform="translate(264.79 3.41)"/><path class="cls-42" d="M-254.19,243.41a6.6,6.6,0,0,1,5.89,7.23,6.61,6.61,0,0,1-7.24,5.88,6.6,6.6,0,0,1-5.88-7.23,6.59,6.59,0,0,1,7.23-5.88m.34-3.32A9.92,9.92,0,0,0-264.73,249a9.92,9.92,0,0,0,8.85,10.89A9.93,9.93,0,0,0-245,251a9.92,9.92,0,0,0-8.86-10.89Z" transform="translate(264.79 3.41)"/><circle class="cls-41" cx="315.26" cy="144.98" r="9.92"/><path class="cls-42" d="M51.14,135a6.59,6.59,0,1,1-7.23,5.88A6.6,6.6,0,0,1,51.14,135m.34-3.32a9.93,9.93,0,1,0,8.86,10.89,9.92,9.92,0,0,0-8.86-10.89Z" transform="translate(264.79 3.41)"/><path class="cls-41" d="M208.31,133.45a9.92,9.92,0,1,1-8.85-10.89A9.91,9.91,0,0,1,208.31,133.45Z" transform="translate(264.79 3.41)"/><path class="cls-42" d="M199.12,125.87a6.59,6.59,0,1,1-7.24,5.89,6.61,6.61,0,0,1,7.24-5.89m.34-3.31a9.92,9.92,0,1,0,8.85,10.89,9.92,9.92,0,0,0-8.85-10.89Z" transform="translate(264.79 3.41)"/><path class="cls-41" d="M363.67,36.18a9.92,9.92,0,1,1-8.85-10.89A9.91,9.91,0,0,1,363.67,36.18Z" transform="translate(264.79 3.41)"/><path class="cls-42" d="M354.48,28.6a6.59,6.59,0,1,1-7.24,5.89,6.61,6.61,0,0,1,7.24-5.89m.34-3.31a9.92,9.92,0,1,0,8.85,10.89,9.92,9.92,0,0,0-8.85-10.89Z" transform="translate(264.79 3.41)"/><rect class="cls-43" x="87.33" y="155.86" width="2.13" height="70.18"/><circle class="cls-12" cx="88.39" cy="141.4" r="19.36"/><circle class="cls-44" cx="88.39" cy="140.21" r="19.36"/><circle class="cls-11" cx="88.39" cy="140.21" r="15.64"/><circle class="cls-12" cx="88.39" cy="140.21" r="14.57"/><path class="cls-13" d="M-176.17,151.35a14.49,14.49,0,0,0,8.73-3.08l-20.43-20.43a14.49,14.49,0,0,0-3.08,8.73Z" transform="translate(264.79 3.41)"/><path class="cls-13" d="M-181.75,123.25a14.73,14.73,0,0,0-4.4,2.74l20.55,20.56a14.46,14.46,0,0,0,2.74-4.41Z" transform="translate(264.79 3.41)"/><rect class="cls-12" x="87.77" y="121.34" width="1.24" height="2.62" rx="0.59"/><rect class="cls-12" x="87.77" y="156.33" width="1.24" height="2.62" rx="0.59"/><rect class="cls-12" x="-164.65" y="123.05" width="1.24" height="2.62" rx="0.59" transform="translate(304.68 155.82) rotate(45)"/><path class="cls-12" d="M-189.67,150.05l0,0a.6.6,0,0,1,0-.84l1-1a.59.59,0,0,1,.83,0l.05,0a.6.6,0,0,1,0,.84l-1,1A.6.6,0,0,1-189.67,150.05Z" transform="translate(264.79 3.41)"/><rect class="cls-12" x="-159.52" y="135.42" width="1.24" height="2.62" rx="0.59" transform="translate(242.62 299.05) rotate(90)"/><rect class="cls-12" x="-194.51" y="135.42" width="1.24" height="2.62" rx="0.59" transform="translate(207.63 334.03) rotate(90)"/><rect class="cls-12" x="-164.65" y="147.79" width="1.24" height="2.62" rx="0.59" transform="translate(90.21 373.93) rotate(135)"/><path class="cls-12" d="M-189.71,123.46l0,0a.62.62,0,0,1,.84,0l1,1a.6.6,0,0,1,0,.84l-.05,0a.59.59,0,0,1-.83,0l-1-1A.59.59,0,0,1-189.71,123.46Z" transform="translate(264.79 3.41)"/><rect class="cls-12" x="-172.26" y="118.59" width="1.24" height="2.62" rx="0.59" transform="translate(290.94 54.65) rotate(15.79)"/><rect class="cls-12" x="-181.77" y="152.25" width="1.24" height="2.62" rx="0.59" transform="translate(299.7 58.41) rotate(15.77)"/><rect class="cls-12" x="-161.75" y="126.88" width="1.24" height="2.62" rx="0.59" transform="translate(294.18 209.69) rotate(60.79)"/><rect class="cls-12" x="-192.28" y="143.96" width="1.24" height="2.62" rx="0.59" transform="translate(293.46 245.08) rotate(60.79)"/><rect class="cls-12" x="-160.18" y="140.18" width="1.24" height="2.62" rx="0.59" transform="translate(197.95 336.94) rotate(105.79)"/><rect class="cls-12" x="-193.85" y="130.67" width="1.24" height="2.62" rx="0.59" transform="translate(145.98 357.24) rotate(105.79)"/><rect class="cls-12" x="-168.48" y="150.68" width="1.24" height="2.62" rx="0.59" transform="translate(24.77 370.05) rotate(150.74)"/><rect class="cls-12" x="-185.56" y="120.16" width="1.24" height="2.62" rx="0.59" transform="translate(-22.13 321.23) rotate(150.74)"/><rect class="cls-12" x="-168.07" y="120.39" width="1.24" height="2.62" rx="0.59" transform="translate(303.5 106.51) rotate(30.85)"/><rect class="cls-12" x="-185.96" y="150.45" width="1.24" height="2.62" rx="0.59" transform="matrix(0.86, 0.51, -0.51, 0.86, 316.31, 119.4)"/><rect class="cls-12" x="-160.06" y="131.12" width="1.24" height="2.62" rx="0.59" transform="translate(272.88 257.87) rotate(75.78)"/><rect class="cls-12" x="-193.97" y="139.72" width="1.24" height="2.62" rx="0.59" transform="translate(255.71 297.16) rotate(75.76)"/><rect class="cls-12" x="-161.98" y="144.36" width="1.24" height="2.62" rx="0.59" transform="translate(146.22 362.23) rotate(120.72)"/><rect class="cls-12" x="-192.05" y="126.48" width="1.24" height="2.62" rx="0.59" transform="translate(85.42 361.05) rotate(120.72)"/><rect class="cls-12" x="-172.71" y="152.37" width="1.24" height="2.62" rx="0.59" transform="translate(-36.37 348.34) rotate(165.78)"/><rect class="cls-12" x="-181.32" y="118.47" width="1.24" height="2.62" rx="0.59" transform="translate(-61.66 283.69) rotate(165.78)"/><path class="cls-45" d="M-175.91,213.31s.9-23.33,24.71-19.19C-151.2,194.12-147.95,216.28-175.91,213.31Z" transform="translate(264.79 3.41)"/><path class="cls-43" d="M-151.2,194.12a112.89,112.89,0,0,0-24.71,19.19C-147.95,216.28-151.2,194.12-151.2,194.12Z" transform="translate(264.79 3.41)"/><path class="cls-45" d="M-175.91,175.26s.72-18.72,19.83-15.39C-156.08,159.87-153.48,177.64-175.91,175.26Z" transform="translate(264.79 3.41)"/><path class="cls-43" d="M-156.08,159.87a90.48,90.48,0,0,0-19.83,15.39C-153.48,177.64-156.08,159.87-156.08,159.87Z" transform="translate(264.79 3.41)"/><path class="cls-45" d="M-176.38,196.14s-.79-20.67-21.89-17C-198.27,179.14-201.14,198.77-176.38,196.14Z" transform="translate(264.79 3.41)"/><path class="cls-43" d="M-198.27,179.14a99.93,99.93,0,0,1,21.89,17C-201.14,198.77-198.27,179.14-198.27,179.14Z" transform="translate(264.79 3.41)"/><rect class="cls-43" x="372.33" y="111.86" width="2.13" height="70.18"/><circle class="cls-12" cx="108.61" cy="93.98" r="19.36" transform="translate(256.97 181.51) rotate(-76.72)"/><circle class="cls-44" cx="108.61" cy="92.79" r="19.36" transform="translate(258.13 180.59) rotate(-76.72)"/><circle class="cls-11" cx="373.39" cy="96.21" r="15.64"/><circle class="cls-12" cx="108.61" cy="92.79" r="14.57" transform="translate(258.13 180.59) rotate(-76.72)"/><path class="cls-13" d="M108.83,107.35a14.49,14.49,0,0,0,8.73-3.08L97.13,83.84a14.49,14.49,0,0,0-3.08,8.73Z" transform="translate(264.79 3.41)"/><path class="cls-13" d="M103.25,79.25A14.73,14.73,0,0,0,98.85,82l20.55,20.56a14.46,14.46,0,0,0,2.74-4.41Z" transform="translate(264.79 3.41)"/><rect class="cls-12" x="372.77" y="77.34" width="1.24" height="2.62" rx="0.59"/><rect class="cls-12" x="372.77" y="112.33" width="1.24" height="2.62" rx="0.59"/><rect class="cls-12" x="120.35" y="79.05" width="1.24" height="2.62" rx="0.59" transform="translate(357.05 -58.59) rotate(45)"/><path class="cls-12" d="M95.33,106.05l0,0a.6.6,0,0,1,0-.84l1-1a.59.59,0,0,1,.83,0l0,0a.6.6,0,0,1,0,.84l-1,1A.6.6,0,0,1,95.33,106.05Z" transform="translate(264.79 3.41)"/><rect class="cls-12" x="125.48" y="91.42" width="1.24" height="2.62" rx="0.59" transform="translate(483.62 -29.95) rotate(90)"/><rect class="cls-12" x="90.49" y="91.42" width="1.24" height="2.62" rx="0.59" transform="translate(448.63 5.03) rotate(90)"/><rect class="cls-12" x="120.35" y="103.79" width="1.24" height="2.62" rx="0.59" transform="translate(545.62 97.29) rotate(135)"/><rect class="cls-12" x="95.62" y="79.05" width="1.24" height="2.62" rx="0.59" transform="translate(485.9 72.55) rotate(135)"/><rect class="cls-12" x="112.74" y="74.59" width="1.24" height="2.62" rx="0.59" transform="translate(289.72 -24.57) rotate(15.79)"/><rect class="cls-12" x="103.23" y="108.25" width="1.24" height="2.62" rx="0.59" transform="translate(298.46 -20.68) rotate(15.77)"/><rect class="cls-12" x="123.25" y="82.88" width="1.24" height="2.62" rx="0.59" transform="translate(401.69 -61.6) rotate(60.79)"/><rect class="cls-12" x="92.72" y="99.96" width="1.24" height="2.62" rx="0.59" transform="translate(400.97 -26.21) rotate(60.79)"/><rect class="cls-12" x="124.82" y="96.18" width="1.24" height="2.62" rx="0.59" transform="translate(518.17 6.73) rotate(105.79)"/><rect class="cls-12" x="91.15" y="86.67" width="1.24" height="2.62" rx="0.59" transform="translate(466.16 26.97) rotate(105.77)"/><rect class="cls-12" x="116.52" y="106.68" width="1.24" height="2.62" rx="0.59" transform="translate(536.91 148.38) rotate(150.74)"/><rect class="cls-12" x="99.44" y="76.16" width="1.24" height="2.62" rx="0.59" transform="translate(490.01 99.57) rotate(150.74)"/><rect class="cls-12" x="116.93" y="76.39" width="1.24" height="2.62" rx="0.59" transform="translate(321.09 -45.79) rotate(30.77)"/><rect class="cls-12" x="99.04" y="106.45" width="1.24" height="2.62" rx="0.59" transform="translate(333.83 -32.38) rotate(30.72)"/><rect class="cls-12" x="124.94" y="87.12" width="1.24" height="2.62" rx="0.59" transform="translate(445.17 -51.61) rotate(75.76)"/><rect class="cls-12" x="91.03" y="95.72" width="1.24" height="2.62" rx="0.59" transform="translate(427.99 -12.23) rotate(75.78)"/><rect class="cls-12" x="123.02" y="100.36" width="1.24" height="2.62" rx="0.59" transform="translate(538.99 50.75) rotate(120.72)"/><rect class="cls-12" x="92.95" y="82.48" width="1.24" height="2.62" rx="0.59" transform="translate(478.2 49.57) rotate(120.72)"/><rect class="cls-12" x="112.29" y="108.37" width="1.24" height="2.62" rx="0.59" transform="translate(514.21 191.47) rotate(165.69)"/><rect class="cls-12" x="103.68" y="74.47" width="1.24" height="2.62" rx="0.59" transform="translate(488.81 127.03) rotate(165.78)"/><path class="cls-45" d="M109.09,169.31S110,146,133.8,150.12C133.8,150.12,137.05,172.28,109.09,169.31Z" transform="translate(264.79 3.41)"/><path class="cls-43" d="M133.8,150.12a112.89,112.89,0,0,0-24.71,19.19C137.05,172.28,133.8,150.12,133.8,150.12Z" transform="translate(264.79 3.41)"/><path class="cls-45" d="M109.09,131.26s.72-18.72,19.83-15.39C128.92,115.87,131.52,133.64,109.09,131.26Z" transform="translate(264.79 3.41)"/><path class="cls-43" d="M128.92,115.87a90.48,90.48,0,0,0-19.83,15.39C131.52,133.64,128.92,115.87,128.92,115.87Z" transform="translate(264.79 3.41)"/><path class="cls-45" d="M108.62,152.14s-.79-20.67-21.89-17C86.73,135.14,83.86,154.77,108.62,152.14Z" transform="translate(264.79 3.41)"/><path class="cls-43" d="M86.73,135.14a99.93,99.93,0,0,1,21.89,17C83.86,154.77,86.73,135.14,86.73,135.14Z" transform="translate(264.79 3.41)"/><rect class="cls-43" x="536.33" y="69.86" width="2.13" height="70.18"/><circle class="cls-12" cx="272.61" cy="51.98" r="19.36" transform="matrix(0.23, -0.97, 0.97, 0.23, 424.17, 308.77)"/><circle class="cls-44" cx="272.61" cy="50.79" r="19.36" transform="translate(425.33 307.85) rotate(-76.72)"/><circle class="cls-11" cx="537.39" cy="54.21" r="15.64"/><circle class="cls-12" cx="272.61" cy="50.79" r="14.57" transform="translate(425.33 307.85) rotate(-76.72)"/><path class="cls-13" d="M272.83,65.35a14.49,14.49,0,0,0,8.73-3.08L261.13,41.84a14.49,14.49,0,0,0-3.08,8.73Z" transform="translate(264.79 3.41)"/><path class="cls-13" d="M267.25,37.25a14.73,14.73,0,0,0-4.4,2.74L283.4,60.55a14.46,14.46,0,0,0,2.74-4.41Z" transform="translate(264.79 3.41)"/><rect class="cls-12" x="536.77" y="35.34" width="1.24" height="2.62" rx="0.59"/><rect class="cls-12" x="536.77" y="70.33" width="1.24" height="2.62" rx="0.59"/><rect class="cls-12" x="284.35" y="37.05" width="1.24" height="2.62" rx="0.59" transform="translate(375.38 -186.86) rotate(45)"/><path class="cls-12" d="M259.33,64.05l0,0a.6.6,0,0,1,0-.84l1-1a.59.59,0,0,1,.83,0l.05,0a.6.6,0,0,1,0,.84l-1,1A.6.6,0,0,1,259.33,64.05Z" transform="translate(264.79 3.41)"/><rect class="cls-12" x="289.48" y="49.42" width="1.24" height="2.62" rx="0.59" transform="translate(605.62 -235.95) rotate(90)"/><rect class="cls-12" x="254.49" y="49.42" width="1.24" height="2.62" rx="0.59" transform="translate(570.63 -200.97) rotate(90)"/><rect class="cls-12" x="284.35" y="61.79" width="1.24" height="2.62" rx="0.59" transform="translate(795.89 -90.37) rotate(135)"/><rect class="cls-12" x="259.62" y="37.05" width="1.24" height="2.62" rx="0.59" transform="translate(736.17 -115.11) rotate(135)"/><rect class="cls-12" x="276.74" y="32.59" width="1.24" height="2.62" rx="0.59" transform="translate(284.48 -70.78) rotate(15.79)"/><rect class="cls-12" x="267.23" y="66.25" width="1.24" height="2.62" rx="0.59" transform="matrix(0.96, 0.27, -0.27, 0.96, 293.22, -66.82)"/><rect class="cls-12" x="287.25" y="40.88" width="1.24" height="2.62" rx="0.59" transform="translate(449 -226.25) rotate(60.79)"/><rect class="cls-12" x="256.72" y="57.96" width="1.24" height="2.62" rx="0.59" transform="translate(448.28 -190.86) rotate(60.79)"/><rect class="cls-12" x="288.82" y="54.18" width="1.24" height="2.62" rx="0.59" transform="translate(686.38 -204.51) rotate(105.79)"/><rect class="cls-12" x="255.15" y="44.67" width="1.24" height="2.62" rx="0.59" transform="translate(634.3 -184.27) rotate(105.77)"/><rect class="cls-12" x="280.52" y="64.68" width="1.24" height="2.62" rx="0.59" transform="translate(823.47 -10.41) rotate(150.74)"/><rect class="cls-12" x="263.44" y="34.16" width="1.24" height="2.62" rx="0.59" transform="translate(776.57 -59.22) rotate(150.74)"/><rect class="cls-12" x="280.93" y="34.39" width="1.24" height="2.62" rx="0.59" transform="translate(322.69 -135.6) rotate(30.77)"/><rect class="cls-12" x="263.04" y="64.45" width="1.24" height="2.62" rx="0.59" transform="translate(335.39 -122.06) rotate(30.72)"/><rect class="cls-12" x="288.94" y="45.12" width="1.24" height="2.62" rx="0.59" transform="translate(528.11 -242.24) rotate(75.76)"/><rect class="cls-12" x="255.03" y="53.72" width="1.24" height="2.62" rx="0.59" transform="translate(511 -202.89) rotate(75.78)"/><rect class="cls-12" x="287.02" y="58.36" width="1.24" height="2.62" rx="0.59" transform="translate(750.67 -153.69) rotate(120.72)"/><rect class="cls-12" x="256.95" y="40.48" width="1.24" height="2.62" rx="0.59" transform="translate(689.87 -154.87) rotate(120.72)"/><rect class="cls-12" x="276.29" y="66.37" width="1.24" height="2.62" rx="0.59" transform="translate(826.75 68.24) rotate(165.69)"/><rect class="cls-12" x="267.68" y="32.47" width="1.24" height="2.62" rx="0.59" transform="translate(801.47 4.04) rotate(165.78)"/><path class="cls-45" d="M273.09,127.31S274,104,297.8,108.12C297.8,108.12,301.05,130.28,273.09,127.31Z" transform="translate(264.79 3.41)"/><path class="cls-43" d="M297.8,108.12a112.89,112.89,0,0,0-24.71,19.19C301.05,130.28,297.8,108.12,297.8,108.12Z" transform="translate(264.79 3.41)"/><path class="cls-45" d="M273.09,89.26s.72-18.72,19.83-15.39C292.92,73.87,295.52,91.64,273.09,89.26Z" transform="translate(264.79 3.41)"/><path class="cls-43" d="M292.92,73.87a90.48,90.48,0,0,0-19.83,15.39C295.52,91.64,292.92,73.87,292.92,73.87Z" transform="translate(264.79 3.41)"/><path class="cls-45" d="M272.62,110.14s-.79-20.67-21.89-17C250.73,93.14,247.86,112.77,272.62,110.14Z" transform="translate(264.79 3.41)"/><path class="cls-43" d="M250.73,93.14a99.93,99.93,0,0,1,21.89,17C247.86,112.77,250.73,93.14,250.73,93.14Z" transform="translate(264.79 3.41)"/></g></g></g></svg>