<svg xmlns="http://www.w3.org/2000/svg" xmlns:xlink="http://www.w3.org/1999/xlink" viewBox="0 0 350.85 47.47"><defs><style>.cls-1{fill:none;}.cls-2,.cls-5{fill:#e54525;}.cls-3{clip-path:url(#clip-path);}.cls-4{fill:#eb6f57;}.cls-4,.cls-5,.cls-6{fill-rule:evenodd;}.cls-6,.cls-7{fill:#0f2a55;}</style><clipPath id="clip-path"><path class="cls-1" d="M23.74,47.47A23.74,23.74,0,1,1,43.49,10.58a2.77,2.77,0,1,1-4.6,3.07A18.21,18.21,0,1,0,38.74,34a2.77,2.77,0,0,1,4.56,3.14A23.76,23.76,0,0,1,23.74,47.47Z"/></clipPath></defs><g id="Capa_2" data-name="Capa 2"><g id="Capa_1-2" data-name="Capa 1"><path class="cls-2" d="M23.74,47.47A23.74,23.74,0,1,1,43.49,10.58a2.77,2.77,0,1,1-4.6,3.07A18.21,18.21,0,1,0,38.74,34a2.77,2.77,0,0,1,4.56,3.14A23.76,23.76,0,0,1,23.74,47.47Z"/><g class="cls-3"><path class="cls-4" d="M43.05,23.89A20.78,20.78,0,1,0,22.27,44.67,20.78,20.78,0,0,0,43.05,23.89Z"/></g><path class="cls-5" d="M11.47,19c1.21-3,4.1-6.94,7.47-7.53.75-.13.64.64,0,1.47s-1.9,1.82-2.5,2.66c-.45.62-.38,1.64.45,1.56,1.68-.15,5.5-6.06,12.58-5.42a10.84,10.84,0,0,1,8,4.92,14.52,14.52,0,0,0-27.56,2.2c-.37,1.54,1.06,1.53,1.63.14Z"/><path class="cls-5" d="M14.26,17.24c.91-1.19,2.53-4,4.21-5.28-1.91.25-4.15,2.86-5.19,4.38-.6.88-.11,2.31,1,.9Z"/><path class="cls-6" d="M35.74,29.79c-1.35,2.9-4.41,6.74-7.81,7.17-.76.1-.61-.66.09-1.47s2-1.73,2.62-2.54c.48-.6.45-1.62-.38-1.58-1.69.08-5.77,5.8-12.81,4.84a10.83,10.83,0,0,1-7.72-5.27A14.52,14.52,0,0,0,37.36,30c.44-1.53-1-1.58-1.62-.21Z"/><path class="cls-6" d="M32.88,31.4c-1,1.15-2.72,3.89-4.46,5.09,1.92-.17,4.28-2.68,5.39-4.14.64-.85.21-2.31-.93-1Z"/><path class="cls-7" d="M79.21,43.38a19.89,19.89,0,0,1-10-2.44A16.74,16.74,0,0,1,62.55,34,21.8,21.8,0,0,1,60.19,23.7a22.14,22.14,0,0,1,2.36-10.42,16.73,16.73,0,0,1,6.66-6.93,19.78,19.78,0,0,1,10-2.44A23.2,23.2,0,0,1,87.85,5.5a14.63,14.63,0,0,1,6.22,4.44,1.77,1.77,0,0,1,.44,1.21,1.68,1.68,0,0,1-.77,1.42,2,2,0,0,1-1.1.33,2.22,2.22,0,0,1-1.75-.82,11.09,11.09,0,0,0-4.77-3.45,18.52,18.52,0,0,0-7-1.21,15.31,15.31,0,0,0-7.9,2A13,13,0,0,0,66.14,15a19.6,19.6,0,0,0-1.78,8.66,19.3,19.3,0,0,0,1.78,8.58,12.93,12.93,0,0,0,5.15,5.62,15.46,15.46,0,0,0,7.92,2,20.27,20.27,0,0,0,7.38-1.23,11.91,11.91,0,0,0,5-3.43,2.4,2.4,0,0,1,1.75-.88,1.61,1.61,0,0,1,1.1.39,1.87,1.87,0,0,1,.76,1.42,2,2,0,0,1-.49,1.26,15.2,15.2,0,0,1-6.39,4.36,24.63,24.63,0,0,1-9.07,1.62Z"/><path class="cls-7" d="M120.6,43.38a20.31,20.31,0,0,1-10-2.44,17.78,17.78,0,0,1-7-6.93,20.64,20.64,0,0,1-2.55-10.36,20.59,20.59,0,0,1,2.55-10.39,17.79,17.79,0,0,1,7-6.91,21.61,21.61,0,0,1,20,0,17.79,17.79,0,0,1,7,6.91,20.59,20.59,0,0,1,2.55,10.39A20.64,20.64,0,0,1,137.57,34a17.78,17.78,0,0,1-7,6.93,20.35,20.35,0,0,1-10,2.44Zm0-3.51A16.12,16.12,0,0,0,128.52,38,13.8,13.8,0,0,0,134,32.39a18,18,0,0,0,2-8.74A17.82,17.82,0,0,0,134,14.82a13.62,13.62,0,0,0-5.59-5.54,16.65,16.65,0,0,0-7.87-1.86,16,16,0,0,0-7.86,1.92,13.56,13.56,0,0,0-5.46,5.59,18.23,18.23,0,0,0-2,8.72,18,18,0,0,0,2,8.74A13.71,13.71,0,0,0,112.68,38a16.12,16.12,0,0,0,7.92,1.92Z"/><path class="cls-7" d="M147.79,43.38a1.94,1.94,0,0,1-1.48-.58,2.25,2.25,0,0,1-.54-1.61V18.82a15.65,15.65,0,0,1,1.94-7.92,12.94,12.94,0,0,1,5.57-5.18,20.77,20.77,0,0,1,17,0,13,13,0,0,1,5.54,5.18,15.55,15.55,0,0,1,1.94,7.92V41.19a2.29,2.29,0,0,1-.52,1.61,1.89,1.89,0,0,1-1.5.58,2,2,0,0,1-1.51-.58,2.19,2.19,0,0,1-.58-1.61V18.66q0-5.33-3.12-8.28t-8.72-3q-5.47,0-8.69,3a10.79,10.79,0,0,0-3.2,8.23V41.19a2.22,2.22,0,0,1-.55,1.61,2,2,0,0,1-1.54.58Z"/><path class="cls-7" d="M193.24,42.83A7.31,7.31,0,0,1,188,41.08a6.47,6.47,0,0,1-1.86-4.94V11A6.34,6.34,0,0,1,188,6.21a7.1,7.1,0,0,1,5.12-1.75h17c1.43,0,2.14.58,2.14,1.75a1.44,1.44,0,0,1-.55,1.21,2.49,2.49,0,0,1-1.59.44H193.19a2.69,2.69,0,0,0-2.11.88,3.29,3.29,0,0,0-.8,2.3V21.51H206c1.42,0,2.14.58,2.14,1.75a1.5,1.5,0,0,1-.58,1.26A2.51,2.51,0,0,1,206,25H190.28V36.25a3.33,3.33,0,0,0,.8,2.31,2.72,2.72,0,0,0,2.11.87h18.14c1.43,0,2.14.57,2.14,1.7a1.47,1.47,0,0,1-.58,1.26,2.45,2.45,0,0,1-1.56.44Z"/><path class="cls-7" d="M251.51,40.31a1.9,1.9,0,0,1,.5,1.32,1.58,1.58,0,0,1-.82,1.42,2.07,2.07,0,0,1-1.05.33,2.27,2.27,0,0,1-1.75-1.1L235.45,26.11l-13,16.17a2.27,2.27,0,0,1-1.75,1.1,1.73,1.73,0,0,1-1.81-1.75,1.9,1.9,0,0,1,.49-1.32l13.71-17.1L220.16,7a2.23,2.23,0,0,1-.44-1.32,1.57,1.57,0,0,1,.77-1.48,1.77,1.77,0,0,1,1-.33A2.35,2.35,0,0,1,223.17,5L235.45,20.3,247.68,5a2.27,2.27,0,0,1,1.75-1.1,1.7,1.7,0,0,1,.93.33,1.62,1.62,0,0,1,.83,1.48A1.93,1.93,0,0,1,250.75,7l-13,16.17,13.75,17.1Z"/><path class="cls-7" d="M263.08,43.38a1.94,1.94,0,0,1-1.48-.58,2.25,2.25,0,0,1-.54-1.61V6.1a2.25,2.25,0,0,1,.54-1.61,1.94,1.94,0,0,1,1.48-.58,2,2,0,0,1,1.54.6,2.33,2.33,0,0,1,.55,1.59V41.19a2.33,2.33,0,0,1-.55,1.59,2,2,0,0,1-1.54.6Z"/><path class="cls-7" d="M293.73,43.38a20.35,20.35,0,0,1-10-2.44,17.78,17.78,0,0,1-7-6.93,20.74,20.74,0,0,1-2.54-10.36,20.69,20.69,0,0,1,2.54-10.39,17.79,17.79,0,0,1,7-6.91,21.63,21.63,0,0,1,20,0,17.79,17.79,0,0,1,7,6.91,20.59,20.59,0,0,1,2.55,10.39A20.64,20.64,0,0,1,310.7,34a17.78,17.78,0,0,1-7,6.93,20.35,20.35,0,0,1-10,2.44Zm0-3.51A16.12,16.12,0,0,0,301.65,38a13.71,13.71,0,0,0,5.48-5.56,17.86,17.86,0,0,0,2-8.74,17.82,17.82,0,0,0-2.05-8.83,13.67,13.67,0,0,0-5.59-5.54,16.65,16.65,0,0,0-7.87-1.86,16.06,16.06,0,0,0-7.87,1.92,13.54,13.54,0,0,0-5.45,5.59,18.11,18.11,0,0,0-2,8.72,17.86,17.86,0,0,0,2,8.74A13.71,13.71,0,0,0,285.81,38a16.12,16.12,0,0,0,7.92,1.92Z"/><path class="cls-7" d="M320.92,43.38a1.94,1.94,0,0,1-1.48-.58,2.26,2.26,0,0,1-.55-1.61V18.82a15.55,15.55,0,0,1,1.95-7.92,13,13,0,0,1,5.56-5.18,18.77,18.77,0,0,1,8.5-1.81,18.56,18.56,0,0,1,8.47,1.81,13,13,0,0,1,5.54,5.18,15.65,15.65,0,0,1,1.94,7.92V41.19a2.29,2.29,0,0,1-.52,1.61,1.9,1.9,0,0,1-1.51.58,2,2,0,0,1-1.5-.58,2.15,2.15,0,0,1-.58-1.61V18.66q0-5.33-3.12-8.28c-2.09-2-5-3-8.72-3s-6.55,1-8.69,3a10.75,10.75,0,0,0-3.2,8.23V41.19a2.26,2.26,0,0,1-.55,1.61,2,2,0,0,1-1.54.58Z"/></g></g></svg>