<?xml version="1.0" encoding="utf-8"?>
<!-- Generator: Adobe Illustrator 25.2.3, SVG Export Plug-In . SVG Version: 6.00 Build 0)  -->
<svg version="1.1" id="Capa_1" xmlns="http://www.w3.org/2000/svg" xmlns:xlink="http://www.w3.org/1999/xlink" x="0px" y="0px"
	 viewBox="0 0 80 88.4" style="enable-background:new 0 0 80 88.4;" xml:space="preserve">
<style type="text/css">
	.st0{fill:#9FCFFF;}
</style>
<path class="st0" d="M0.7,0C0.3,0,0,0.3,0,0.7c0,0,0,0,0,0v80.8c0,0.6,0.2,1.2,0.7,1.6C1.6,84,3.1,84,4,83.1C4,83,4.1,83,4.2,82.9
	l19.5-26.4l9.8-13.3L61.1,4c0.7-1,0.6-2.4-0.3-3.3C60.3,0.3,59.7,0,59,0H0.7z"/>
<path class="st0" d="M46.8,43.4l27.8,38c0.8,1.1,0.6,2.7-0.6,3.5c-0.4,0.3-1,0.5-1.5,0.5H16.6c-1.4,0-2.5-1.1-2.5-2.5
	c0-0.5,0.2-1.1,0.5-1.5l28.1-38c0.8-1.1,2.5-1.4,3.6-0.5C46.5,43,46.7,43.2,46.8,43.4"/>
</svg>
