<?xml version="1.0" encoding="utf-8"?>
<!-- Generator: Adobe Illustrator 25.2.3, SVG Export Plug-In . SVG Version: 6.00 Build 0)  -->
<svg version="1.1" id="Capa_1" xmlns="http://www.w3.org/2000/svg" xmlns:xlink="http://www.w3.org/1999/xlink" x="0px" y="0px"
	 viewBox="0 0 266.7 266.7" style="enable-background:new 0 0 266.7 266.7;" xml:space="preserve">
<style type="text/css">
	.st0{fill:#FFFFFF;}
	.st1{opacity:0.7;fill-rule:evenodd;clip-rule:evenodd;fill:url(#SVGID_1_);enable-background:new    ;}
	.st2{opacity:0.7;fill-rule:evenodd;clip-rule:evenodd;fill:url(#SVGID_2_);enable-background:new    ;}
	.st3{opacity:0.7;}
	.st4{opacity:0.7;fill-rule:evenodd;clip-rule:evenodd;enable-background:new    ;}
	.st5{opacity:0.4;fill-rule:evenodd;clip-rule:evenodd;fill:url(#SVGID_3_);enable-background:new    ;}
	.st6{opacity:0.4;fill-rule:evenodd;clip-rule:evenodd;fill:url(#SVGID_4_);enable-background:new    ;}
	.st7{opacity:0.4;fill-rule:evenodd;clip-rule:evenodd;fill:url(#SVGID_5_);enable-background:new    ;}
	.st8{font-family:'Poppins-SemiBold';}
	.st9{font-size:16.8421px;}
	.st10{font-family:'Montserrat-ExtraBold';}
	.st11{font-size:27.1665px;}
	.st12{font-size:27.2885px;}
	.st13{font-size:27.1666px;}
	.st14{font-size:27.1557px;}
	.st15{font-size:27.2005px;}
	.st16{fill:#0C0A15;}
	.st17{fill:#292A2E;}
	.st18{opacity:0.5;fill:#915230;enable-background:new    ;}
	.st19{opacity:0.5;fill:#0C0A15;enable-background:new    ;}
	.st20{fill:#F2F6F9;}
	.st21{fill:#110B0B;}
	.st22{fill:url(#SVGID_6_);}
	.st23{opacity:0.17;fill:#5B496C;enable-background:new    ;}
	.st24{opacity:0.38;fill:#FFFFFF;enable-background:new    ;}
	.st25{fill:#CCCCCC;}
	.st26{fill:#15161A;}
	.st27{fill:url(#SVGID_7_);}
	.st28{fill:url(#SVGID_8_);}
	.st29{fill:#1B1923;}
	.st30{clip-path:url(#SVGID_10_);}
	.st31{fill:url(#SVGID_11_);}
	.st32{clip-path:url(#SVGID_13_);}
	.st33{fill:url(#SVGID_14_);}
</style>
<circle class="st0" cx="133.4" cy="133.4" r="133.4"/>
<g>
	<g id="Capa_2_1_">
		<g id="Capa_1-2">
			<g>
				
					<radialGradient id="SVGID_1_" cx="-533.2121" cy="48.6425" r="535.3891" gradientTransform="matrix(-0.9435 -0.3313 -0.3313 0.9435 -309.6049 -57.4216)" gradientUnits="userSpaceOnUse">
					<stop  offset="0.27" style="stop-color:#FFFFFF"/>
					<stop  offset="0.31" style="stop-color:#C4F4FF"/>
					<stop  offset="0.37" style="stop-color:#7FE6FF"/>
					<stop  offset="0.42" style="stop-color:#49DCFF"/>
					<stop  offset="0.47" style="stop-color:#21D4FF"/>
					<stop  offset="0.5" style="stop-color:#09D0FF"/>
					<stop  offset="0.53" style="stop-color:#00CEFF"/>
					<stop  offset="0.6" style="stop-color:#00A1D6"/>
					<stop  offset="0.68" style="stop-color:#007AB2"/>
					<stop  offset="0.75" style="stop-color:#00629C"/>
					<stop  offset="0.78" style="stop-color:#005994"/>
					<stop  offset="0.82" style="stop-color:#004573"/>
					<stop  offset="0.88" style="stop-color:#002742"/>
					<stop  offset="0.93" style="stop-color:#00121E"/>
					<stop  offset="0.97" style="stop-color:#000508"/>
					<stop  offset="1" style="stop-color:#000000"/>
				</radialGradient>
				<path class="st1" d="M105.5,233.4c-11.1,0.2-20.7-8.6-23.8-19.3C78.4,203,80,191.4,80.8,181c0.7-9.2-0.6-18-5.9-25.6
					c-6.5-9.2-16.6-18.4-21.3-30.6c-5.7,19.8-4.5,40.9,3.5,59.9c8.3,19.5,23,35.6,41.7,45.6c13.2,0.8,25.8-7.5,36.5-13.9
					c4.5-2.7,8.7-4.7,12.8-5.4c4.1-0.7,8.2,0,12.7,1c10.3,2.3,22.4,5.7,35.2,3.5c13.1-2.3,25.4-12.1,27.3-25
					C200.6,232.7,150,251.1,105.5,233.4z"/>
				
					<radialGradient id="SVGID_2_" cx="18.8491" cy="-411.9959" r="286.4703" gradientTransform="matrix(1 0 0 -1 0 268)" gradientUnits="userSpaceOnUse">
					<stop  offset="0.27" style="stop-color:#FFFFFF"/>
					<stop  offset="0.31" style="stop-color:#C4F4FF"/>
					<stop  offset="0.37" style="stop-color:#7FE6FF"/>
					<stop  offset="0.42" style="stop-color:#49DCFF"/>
					<stop  offset="0.47" style="stop-color:#21D4FF"/>
					<stop  offset="0.5" style="stop-color:#09D0FF"/>
					<stop  offset="0.53" style="stop-color:#00CEFF"/>
					<stop  offset="0.6" style="stop-color:#00A1D6"/>
					<stop  offset="0.68" style="stop-color:#007AB2"/>
					<stop  offset="0.75" style="stop-color:#00629C"/>
					<stop  offset="0.78" style="stop-color:#005994"/>
					<stop  offset="0.82" style="stop-color:#004573"/>
					<stop  offset="0.88" style="stop-color:#002742"/>
					<stop  offset="0.93" style="stop-color:#00121E"/>
					<stop  offset="0.97" style="stop-color:#000508"/>
					<stop  offset="1" style="stop-color:#000000"/>
				</radialGradient>
				<path class="st2" d="M47.7,161.7c-2.7-15.8-1.4-32,3.8-47.2c-0.7-0.1-1.2-0.2-1.5,0C44.5,129.6,44.1,146.2,47.7,161.7z"/>
				<g class="st3">
					<path class="st4" d="M51.5,114.5l-0.4-0.1c-17.4,45.6,3,96.9,46.9,118.2c20.9,10,44.7,11.9,66.9,5.4
						c21.3-6.5,39.4-20.8,50.9-39.9c10.7-18.4,14.2-40.1,9.8-60.9c-4.4-19.7-15.8-37.2-32.2-49.1c-15.6-11.1-34.7-16.2-53.7-14.3
						c-18,1.9-34.6,10.2-47.1,23.2c-13.9,3.2-29.4,8.6-39.3,20.3c10.9-36.4,47.3-65,85.9-66.2s76.8,25,89.2,60.9
						c10.8,28,7,61.7-9.8,86.6s-46.6,41.1-76.8,41.5c-30.1,0.4-60.3-14.8-77.9-39.3S41.5,142.9,51.5,114.5z"/>
				</g>
				<g class="st3">
					
						<radialGradient id="SVGID_3_" cx="-148.819" cy="2565.9983" r="557.8941" gradientTransform="matrix(-0.393 0.9195 0.9195 0.393 -2224.4226 -603.3068)" gradientUnits="userSpaceOnUse">
						<stop  offset="0.27" style="stop-color:#FFFFFF"/>
						<stop  offset="0.31" style="stop-color:#C4F4FF"/>
						<stop  offset="0.37" style="stop-color:#7FE6FF"/>
						<stop  offset="0.42" style="stop-color:#49DCFF"/>
						<stop  offset="0.47" style="stop-color:#21D4FF"/>
						<stop  offset="0.5" style="stop-color:#09D0FF"/>
						<stop  offset="0.53" style="stop-color:#00CEFF"/>
						<stop  offset="0.6" style="stop-color:#00A1D6"/>
						<stop  offset="0.68" style="stop-color:#007AB2"/>
						<stop  offset="0.75" style="stop-color:#00629C"/>
						<stop  offset="0.78" style="stop-color:#005994"/>
						<stop  offset="0.82" style="stop-color:#004573"/>
						<stop  offset="0.88" style="stop-color:#002742"/>
						<stop  offset="0.93" style="stop-color:#00121E"/>
						<stop  offset="0.97" style="stop-color:#000508"/>
						<stop  offset="1" style="stop-color:#000000"/>
					</radialGradient>
					<path class="st5" d="M106.4,233.7c-1.6,1.5-3.5,1.7-3.9,0.7c-0.8-1.6-0.5-4.2-0.1-7.2c1-7.2,3.3-14.3,4.2-20.7
						c19.9,11.7,46.3,11.9,66.2,0.6c4.7,4.1,10.1,9.7,16.7,13.6c2.9,1.8,5.7,3.1,7.9,2.8c1.8-0.2,2.9-2.3,2.7-4.7
						C174.5,239.6,137.1,245.6,106.4,233.7z"/>
					
						<radialGradient id="SVGID_4_" cx="728.858" cy="2993.9822" r="600.5301" gradientTransform="matrix(0.15 0.99 0.99 -0.15 -2811.24 -68.53)" gradientUnits="userSpaceOnUse">
						<stop  offset="0.27" style="stop-color:#FFFFFF"/>
						<stop  offset="0.31" style="stop-color:#C4F4FF"/>
						<stop  offset="0.37" style="stop-color:#7FE6FF"/>
						<stop  offset="0.42" style="stop-color:#49DCFF"/>
						<stop  offset="0.47" style="stop-color:#21D4FF"/>
						<stop  offset="0.5" style="stop-color:#09D0FF"/>
						<stop  offset="0.53" style="stop-color:#00CEFF"/>
						<stop  offset="0.6" style="stop-color:#00A1D6"/>
						<stop  offset="0.68" style="stop-color:#007AB2"/>
						<stop  offset="0.75" style="stop-color:#00629C"/>
						<stop  offset="0.78" style="stop-color:#005994"/>
						<stop  offset="0.82" style="stop-color:#004573"/>
						<stop  offset="0.88" style="stop-color:#002742"/>
						<stop  offset="0.93" style="stop-color:#00121E"/>
						<stop  offset="0.97" style="stop-color:#000508"/>
						<stop  offset="1" style="stop-color:#000000"/>
					</radialGradient>
					<path class="st6" d="M149,239.7c20.9,2.6,42.1-9.2,52.1-26.5c9.6-16.7,9.8-36.2,6.9-52.7c5.4-20.6,0.9-44.8-13.1-63.1
						c13.7,5.6,27.1,15.2,34.9,29c7.8,13.8,8.6,32,1,46.4C220.1,208.3,186,236.2,149,239.7z"/>
					
						<radialGradient id="SVGID_5_" cx="1709.1654" cy="2900.3076" r="935.3771" gradientTransform="matrix(0.6421 0.7666 0.7666 -0.6421 -3051.4463 663.639)" gradientUnits="userSpaceOnUse">
						<stop  offset="0.27" style="stop-color:#FFFFFF"/>
						<stop  offset="0.31" style="stop-color:#C4F4FF"/>
						<stop  offset="0.37" style="stop-color:#7FE6FF"/>
						<stop  offset="0.42" style="stop-color:#49DCFF"/>
						<stop  offset="0.47" style="stop-color:#21D4FF"/>
						<stop  offset="0.5" style="stop-color:#09D0FF"/>
						<stop  offset="0.53" style="stop-color:#00CEFF"/>
						<stop  offset="0.6" style="stop-color:#00A1D6"/>
						<stop  offset="0.68" style="stop-color:#007AB2"/>
						<stop  offset="0.75" style="stop-color:#00629C"/>
						<stop  offset="0.78" style="stop-color:#005994"/>
						<stop  offset="0.82" style="stop-color:#004573"/>
						<stop  offset="0.88" style="stop-color:#002742"/>
						<stop  offset="0.93" style="stop-color:#00121E"/>
						<stop  offset="0.97" style="stop-color:#000508"/>
						<stop  offset="1" style="stop-color:#000000"/>
					</radialGradient>
					<path class="st7" d="M96.3,229.1c19.8,12.1,43.4,16,66,11.1c22.2-5.1,41.6-18.5,54.1-37.6c11.7-18.3,15.9-40.3,11.9-61.6
						c-4-19.8-15.2-37.4-31.4-49.5c-6.9-14.6-19-28-34.7-35.3c21,3.4,40,14.3,53.5,30.7c13.3,16.5,20.1,37.4,19,58.6
						c0.1,32.2-17.9,64.3-45.5,80.9S124.7,244.2,96.3,229.1z"/>
				</g>
			</g>
			<text transform="matrix(1 0 0 1 94.0211 221.2725)" class="st8 st9">Chinchiná</text>
			<text transform="matrix(-0.1858 -0.9826 0.9826 -0.1858 41.6219 176.5045)" class="st10 st11">P</text>
			<text transform="matrix(-1.623086e-02 -0.9999 0.9999 -1.623086e-02 38.1344 158.8509)" class="st10 st11">A</text>
			<text transform="matrix(0.1692 -0.9856 0.9856 0.1692 37.9612 138.383)" class="st10 st12">S</text>
			<text transform="matrix(0.3294 -0.9442 0.9442 0.3294 40.6989 121.7912)" class="st10 st13">E</text>
			<text transform="matrix(0.4959 -0.8684 0.8684 0.4959 46.2309 105.2769)" class="st10 st11">A</text>
			<text transform="matrix(0.6593 -0.7518 0.7518 0.6593 56.237 87.4597)" class="st10 st11">D</text>
			<text transform="matrix(0.8 -0.6 0.6 0.8 70.3332 71.2046)" class="st10 st11">O</text>
			<text transform="matrix(0.903 -0.4296 0.4296 0.903 88.0124 58.0231)" class="st10 st11">R</text>
			<text transform="matrix(0.9829 -0.184 0.184 0.9829 112.5122 47.3278)" class="st10 st13">C</text>
			<text transform="matrix(0.9999 1.623085e-02 -1.623085e-02 0.9999 131.0717 43.5376)" class="st10 st11">A</text>
			<text transform="matrix(0.9801 0.1985 -0.1985 0.9801 151.4879 43.6066)" class="st10 st11">N</text>
			<text transform="matrix(0.9404 0.3401 -0.3401 0.9404 172.1451 48.2077)" class="st10 st14">I</text>
			<text transform="matrix(0.8833 0.4689 -0.4689 0.8833 180.3635 50.6077)" class="st10 st11">N</text>
			<text transform="matrix(0.769 0.6392 -0.6392 0.769 198.9477 60.3101)" class="st10 st15">O</text>
			<path d="M122.1,209.6c-0.3-0.6-0.8-1.8-1.9-1.8c-1.1,0-1.6,1.2-1.9,1.8s0,1.4,0.6,1.4c0.8,0,0.9-0.4,1.2-0.4
				c0.4,0,0.5,0.4,1.2,0.4C122,211,122.3,210.2,122.1,209.6z"/>
			<path d="M122.7,207.9c0-0.4-0.3-0.9-0.5-0.9c-0.2,0-0.5,0.6-0.5,0.9s0.2,0.7,0.5,0.7l0,0C122.4,208.6,122.7,208.2,122.7,207.9z"
				/>
			<path d="M118.8,207.9c0-0.4-0.3-0.9-0.5-0.9c-0.2,0-0.5,0.6-0.5,0.9s0.2,0.7,0.5,0.7l0,0C118.5,208.6,118.8,208.2,118.8,207.9z"
				/>
			<path d="M121.5,206.9c0-0.4-0.3-0.9-0.5-0.9c-0.2,0-0.5,0.6-0.5,0.9c0,0.4,0.2,0.7,0.5,0.7l0,0
				C121.3,207.5,121.5,207.2,121.5,206.9z"/>
			<path d="M119.9,206.9c0-0.4-0.3-0.9-0.5-0.9c-0.2,0-0.5,0.6-0.5,0.9c0,0.4,0.2,0.7,0.5,0.7l0,0
				C119.7,207.6,119.9,207.2,119.9,206.9z"/>
			<path d="M159.3,209.5c-0.3-0.6-0.8-1.8-1.9-1.8s-1.6,1.2-1.9,1.8s0,1.4,0.6,1.4c0.8,0,0.9-0.4,1.2-0.4c0.4,0,0.5,0.4,1.2,0.4
				C159.3,211,159.6,210.1,159.3,209.5z"/>
			<path d="M159.9,207.8c0-0.4-0.3-0.9-0.5-0.9c-0.2,0-0.5,0.6-0.5,0.9c0,0.4,0.2,0.7,0.5,0.7l0,0
				C159.7,208.5,159.9,208.1,159.9,207.8z"/>
			<path d="M156,207.8c0-0.4-0.3-0.9-0.5-0.9c-0.2,0-0.5,0.6-0.5,0.9c0,0.4,0.2,0.7,0.5,0.7l0,0C155.8,208.5,156,208.1,156,207.8z"
				/>
			<path d="M158.7,206.8c0-0.4-0.3-0.9-0.5-0.9c-0.2,0-0.5,0.6-0.5,0.9c0,0.3,0.2,0.6,0.5,0.7l0,0
				C158.5,207.4,158.7,207.1,158.7,206.8z"/>
			<path d="M157.2,206.8c0-0.4-0.3-0.9-0.5-0.9c-0.2,0-0.5,0.6-0.5,0.9s0.2,0.7,0.5,0.7l0,0C157,207.5,157.2,207.1,157.2,206.8z"/>
			<path class="st16" d="M201.2,189.9c-5.1,2.5-15.2-3.2-18.3-3.2c3.3,3.1,7.3,5.2,11.6,6.3c-4.8,1.1-14-5.4-14-5.4s0.1,4,6.9,7.4
				c-7-0.5-10.6-7.1-21.6-5.5c1.6,3.5,12.5,3.8,12.5,3.8s-8.2,1.2-12.6-1c-1.7-0.9-3.5-1.7-5.4-2.2c1.2-2.4,1.7-4.3,1.6-5.4
				c-0.2-1.5-1.4-1.5-3.3,0.9c0.2-0.6,0.4-1.3,0.5-1.9c1.5-7.4-0.2-15.3-3.2-19c-3-3.7-8.2-8.7-9.5-16c-1.4-7.3,0.9-13.6,2.7-16.4
				c1.8-2.8,7.5-8.6,13.6-10.7c-3.7,0.9-8.6,4-13,7.5c2.4-4.9,8.1-10.4,11.7-12c-4.7,1.8-9.7,6.1-9.7,6.1c1.4-1.9,3.1-3.6,5-5
				c-2,0.4-5.8,3.9-6.3,4.3c2.5-3.4,5.6-6.3,9-8.7c-2.8,1.4-5.5,3-8,4.7c1.3-3,3.2-5.8,5.4-8.3c-1.7,1.3-3.4,2.9-4.8,4.5
				c0.5-2.2,1.2-4.3,2.1-6.3c-1.6,1.6-3.2,5.6-3.5,6.1c0.6-2.3,1-4.6,1.4-7l0,0c0.2-1.1,0.2-2.3,0.3-3.5c-1,2.9-3.5,5.2-6.5,5.8
				c3.4-3.4,3.8-6.1,3.8-6.1c-1.1,2.3-3.2,4-5.7,4.5c0.3-1.9,1.5-3.6,3.2-4.5l-3.5,1.3c0.8-0.9,1.5-1.9,2-3c-0.9,0.7-2,1.3-3.2,1.6
				l0.8-1.7c4.2-0.2,7.5-0.9,8.6-3.3c1.4-3.2,0.3-7.9,0.3-7.9s1.3,3.6,1.3,5.4c0.8-0.8,1-4.6,1-4.6c0.4,1,0.6,2.1,0.6,3.2
				c1-5,2.9-9.8,5.4-14.3c-0.9,5.5,0,8.4,0,8.4s1.2-6.2,4.1-9.7c-0.3,1.5-0.3,3-0.2,4.5c0.7-1.6,1.5-3.1,2.5-4.5
				c-0.2,0.7-0.3,1.4-0.2,2.2c0,0,14.7-15.6,21.1-16.1c6.4-0.5,9.2,13,9.2,22.7s-2.4,23.7-2.4,26.2c0,2.4,2.4,5.5,2.4,5.5l-4.7-2.7
				c2.6,2.2,4.7,5,6.1,8.2c-1.8-1.5-4.1-2.4-6.4-2.7c4.7,3.1,8.3,7.6,10.2,12.9c-2.5-2.3-5.5-4-8.7-5c0,0,4.6,5.1,6,7.5
				c-4.1-4.1-6-3.6-6-3.6c0,1.8,0.6,3.5,1.6,4.9c1.7,2.4-0.1,6,2.1,7.3s6.3,4.8,6.8,9.8c-1.4-3.9-3.8-6.8-7.8-8.2
				c0,2.2,4.4,4.8,5.6,8.1c-2.2-1.9-5.1-5.1-8.9-4.1c2.7,4.3,4.9,9,11.4,12.3c-7.3-1.7-9.9-4.7-12.9-1c2.2,0.7,4.8,4.6,6.6,7.5
				c-2.1-2.7-5.5-5.3-7.8-3c0,0,2.7,1.1,3.2,3.7c-0.8-1.1-2.4-1.3-3.4-0.5c-0.5,0.3-0.8,0.8-0.9,1.4c2,3.4,7.9,3.3,9.6,7.9
				c-1.6-1.6-9-5.5-14.5,0.6C184.9,184.4,193.5,191.2,201.2,189.9z"/>
			<path class="st16" d="M76.7,189.9c5.1,2.5,15.2-3.2,18.3-3.2c-3.3,3.1-7.3,5.2-11.6,6.3c4.8,1.1,14-5.4,14-5.4s-0.1,4-6.9,7.4
				c7-0.5,10.6-7.1,21.6-5.5c-1.6,3.5-12.5,3.8-12.5,3.8s8.2,1.2,12.6-1c1.7-0.9,3.5-1.7,5.4-2.2c-2.8-5.6-1.6-8.6,1.7-4.5
				c-0.2-0.6-0.4-1.3-0.5-1.9c-1.5-7.4,0.2-15.3,3.2-19c3-3.7,8.2-8.7,9.6-16c1.4-7.3-0.9-13.6-2.7-16.4c-1.8-2.8-7.5-8.6-13.6-10.7
				c3.7,0.9,8.6,4,13,7.5c-2.3-4.9-8.1-10.4-11.7-12c4.7,1.8,9.7,6.1,9.7,6.1c-1.4-1.9-3.1-3.6-5-5c2,0.4,5.8,3.9,6.3,4.3
				c-2.5-3.4-5.5-6.3-9-8.8c2.8,1.4,5.5,3,8,4.7c-1.3-3-3.2-5.8-5.4-8.3c1.7,1.4,3.3,2.9,4.8,4.5c-0.5-2.2-1.2-4.3-2.1-6.3
				c1.6,1.6,3.2,5.6,3.5,6.1c-0.2-0.7-1.6-6.6-1.6-10.5c1,2.9,3.5,5.2,6.5,5.8c-3.4-3.4-3.8-6.1-3.8-6.1c1.1,2.3,3.2,4,5.7,4.5
				c-0.3-1.9-1.5-3.6-3.2-4.5l3.5,1.3c-0.8-0.9-1.5-1.9-2-3c0.9,0.7,2,1.3,3.2,1.6l-0.8-1.7c-4.2-0.2-7.5-0.9-8.6-3.3
				c-1.4-3.2-0.3-7.9-0.3-7.9s-1.3,3.6-1.3,5.4c-0.8-0.8-1-4.6-1-4.6c-0.4,1-0.7,2.1-0.7,3.2c-1-5-2.9-9.8-5.4-14.3
				c0.9,5.5,0,8.4,0,8.4s-1.1-6.2-4.1-9.7c0.3,1.5,0.3,3,0.2,4.5c-0.7-1.6-1.5-3.1-2.5-4.5c0.2,0.7,0.3,1.4,0.2,2.2
				c0,0-14.7-15.6-21.1-16.1c-6.4-0.5-9.2,13-9.2,22.7s2.4,23.7,2.4,26.2c0,2.4-2.4,5.5-2.4,5.5l4.8-2.7c-2.6,2.2-4.7,5-6.1,8.2
				c1.8-1.5,4.1-2.4,6.4-2.7c-4.7,3.1-8.3,7.6-10.2,12.9c2.5-2.3,5.5-4,8.7-5c0,0-4.6,5.1-6,7.5c4.1-4.1,6-3.6,6-3.6
				c0,1.8-0.6,3.5-1.6,4.9c-1.7,2.4,0.1,6-2.1,7.3c-2.2,1.3-6.3,4.8-6.8,9.8c1.4-3.9,3.8-6.9,7.8-8.3c0,2.2-4.3,4.8-5.6,8.1
				c2.2-1.9,5.1-5.1,8.9-4.1c-2.7,4.3-4.9,9-11.4,12.3c7.3-1.7,9.9-4.7,12.9-1c-2.2,0.7-4.8,4.6-6.6,7.5c2.1-2.7,5.5-5.3,7.8-3
				c0,0-2.7,1.1-3.2,3.7c0.8-1.1,2.4-1.3,3.5-0.5c0.5,0.3,0.8,0.8,0.9,1.4c-2,3.4-7.9,3.3-9.6,7.9c1.6-1.6,9-5.5,14.5,0.6
				C93,184.4,84.4,191.2,76.7,189.9z"/>
			<path class="st17" d="M89.7,161.4c0,0,8.3-0.6,11.9-4.3c-6.5,7.9-6.5,9-9,10.5c3.7-1.2,7.4-4.4,7.9-4.8
				c-0.7,0.6-7.4,7.1-3.1,12.7c-0.1-0.5-1.2-4.7,2-7.3c2.3,5.2,1.9,10.6-2.7,15.2c3.5-1.9,5.8-5.4,6.2-9.4c2.2,3,7.8-3.2,5.1,6
				c2.9-5.3,6.8-0.9,7.9,4.8c0.2-1.5,1.4-1.5,3.3,0.9c-0.2-0.6-0.4-1.3-0.5-1.9c-1.5-7.4,0.2-15.3,3.2-19c3-3.7,8.2-8.7,9.6-16
				c1.4-7.3-0.9-13.6-2.7-16.4c-1.8-2.8-7.5-8.6-13.6-10.7c3.7,0.9,8.6,4,13,7.5c-2.3-4.9-8.1-10.4-11.7-12c4.7,1.8,9.7,6.1,9.7,6.1
				c-1.4-1.9-3.1-3.6-5-5c2,0.4,5.8,3.9,6.3,4.3c-2.5-3.4-5.6-6.3-9-8.8c2.8,1.4,5.5,3,8,4.7c-1.3-3-3.2-5.8-5.4-8.3
				c1.7,1.4,3.3,2.9,4.8,4.5c-0.5-2.2-1.2-4.3-2.1-6.3c1.6,1.6,3.2,5.6,3.5,6.1c-0.6-2.3-1-4.6-1.4-7l0,0
				c-2.5-5.3-10.9-4.7-14.4-10.8c-0.6,4.3,7.2,5.1,8.5,9.2c-1.8-1.8-7.9-1-9.9-2.9c0.3,3.6,6,2.3,6.9,4.9c-3.9,0-9-1.6-11.3,1.7
				c2.5-1.3,7.3-1.5,8.2,2.6c-1.1,1.1-10.2-2.1-16.9,5.5c3.6-1.7,9.6-3.5,12.1-1.5c-6,0.7-12.5,0-18.8,10.6c2.9-2.9,9-5.8,11.7-5.8
				c-1.9,5.3-10.5,5.3-13.7,14.7c4.7-5.6,10.2-8.9,17.8-10c-12.5,9.1-6.9,19.6-14.6,22.2c3.9-0.7,7.4-3.1,9.4-6.5
				c0,0,0.9,5.3-9.3,12.9c4,0,9.2-2.7,10.6-4.6C99.3,157.9,89.7,161.4,89.7,161.4z"/>
			<path class="st17" d="M188.2,161.4c0,0-8.3-0.6-11.9-4.3c6.5,7.9,6.5,9,9,10.5c-3.7-1.2-7.4-4.4-7.9-4.8
				c0.7,0.6,7.4,7.1,3.1,12.7c0.1-0.5,1.2-4.7-2-7.3c-2.4,5.2-1.9,10.6,2.7,15.2c-3.5-1.9-5.8-5.4-6.2-9.4c-2.2,3-7.8-3.2-5,6
				c-2.9-5.3-6.8-0.9-7.9,4.8c-0.2-1.5-1.4-1.5-3.3,0.9c0.2-0.6,0.4-1.3,0.5-1.9c1.5-7.4-0.2-15.3-3.2-19c-3-3.7-8.2-8.7-9.5-16
				c-1.4-7.3,0.9-13.6,2.7-16.4s7.5-8.6,13.6-10.7c-3.7,0.9-8.6,4-13,7.5c2.4-4.9,8.1-10.4,11.7-12c-4.7,1.8-9.7,6.1-9.7,6.1
				c1.4-1.9,3.1-3.6,5-5c-2,0.4-5.8,3.9-6.3,4.3c2.5-3.4,5.6-6.3,9-8.7c-2.8,1.4-5.5,3-8,4.7c1.3-3,3.2-5.8,5.4-8.3
				c-1.7,1.4-3.3,2.9-4.8,4.5c0.5-2.2,1.2-4.3,2.1-6.3c-1.6,1.6-3.2,5.6-3.5,6.1c0.6-2.3,1-4.6,1.4-7l0,0
				c2.5-5.3,10.9-4.7,14.4-10.8c0.6,4.3-7.2,5.1-8.5,9.2c1.8-1.8,7.9-1,9.9-2.9c-0.3,3.6-6,2.3-6.9,4.9c3.9,0,9-1.6,11.3,1.7
				c-2.5-1.3-7.3-1.5-8.2,2.6c1.1,1.1,10.2-2.1,16.9,5.5c-3.6-1.7-9.6-3.5-12.1-1.5c6,0.7,12.5,0,18.8,10.6c-2.9-2.9-9-5.8-11.7-5.8
				c1.9,5.3,10.5,5.3,13.7,14.7c-4.7-5.6-10.2-8.9-17.8-10c12.5,9.1,6.9,19.6,14.6,22.2c-3.9-0.7-7.4-3.1-9.4-6.5
				c0,0-0.9,5.3,9.3,12.9c-4,0-9.2-2.7-10.6-4.6C178.6,157.9,188.2,161.4,188.2,161.4z"/>
			<path class="st18" d="M144.2,137.8c12.9-10.9,23.7-6,27.9,0.9c-0.9-8.1-10.7-9.4-10.7-9.4s5.8-0.6,13.5,5.1
				C167.2,122.4,156.2,123.6,144.2,137.8z"/>
			<path class="st18" d="M133.8,137.8c-12.9-10.9-23.7-6-27.9,0.9c0.9-8.1,10.7-9.4,10.7-9.4s-5.8-0.6-13.5,5.1
				C110.7,122.4,121.8,123.6,133.8,137.8z"/>
			<path class="st19" d="M139,157.5c3.5,8.3,11.2,19.1,20,14.7c1.4-7.7-9-15.4-5.6-18.8s3.1-0.4,9.3-2.4c6.2-2,8.6-5.9,5.9-9.6
				c-9.6-13-20.6-0.4-17.4-4.9c3-4.2,6.3-8.1,9.9-11.7c3.5-3.5-1.8-29.2-12.6-12.2c-4.4,6.9-7.6,14.5-9.4,22.4
				c-1.9-8-5-15.5-9.4-22.4c-10.9-17-16,8.8-12.6,12.2c3.6,3.6,7,7.5,9.9,11.7c3.2,4.5-7.8-8.1-17.5,4.9c-2.7,3.7-0.3,7.6,5.9,9.6
				c6.2,2,6-1,9.3,2.4s-7,11-5.6,18.8C127.7,176.7,135.5,165.8,139,157.5z"/>
			<path class="st18" d="M148.2,162.2c4.8-10.9,13.2-10.7,20.1-2.8c6.9,7.9,3.9,7.7,7,12.8c-7.8-7.8-10.2-10.1-14.3-8.6
				c3,2.1,6.6,2.8,7.9,8.6c-5.2-5.2-14.5-4.8-15.2,0.4C153.1,177.8,148.2,162.2,148.2,162.2z"/>
			<path class="st18" d="M129.7,162.2c-4.8-10.9-13.2-10.7-20.1-2.8c-6.9,7.9-3.9,7.7-7.1,12.8c7.8-7.8,10.3-10.1,14.3-8.6
				c-3,2.1-6.6,2.8-7.9,8.6c5.2-5.2,14.5-4.8,15.2,0.4S129.7,162.2,129.7,162.2z"/>
			<path class="st20" d="M139,102.1L139,102.1c1.5,0,3,0,4.3-0.1l-0.8,1.7c1.2-0.3,2.2-0.8,3.2-1.6c-0.5,1.1-1.1,2.1-1.9,3.1
				l3.5-1.3c-1.7,0.9-2.9,2.6-3.2,4.5c2.5-0.5,4.6-2.2,5.7-4.5c0,0-0.4,2.7-3.8,6.1c3-0.7,5.5-2.9,6.5-5.8c0,3.9-1.5,9.7-1.6,10.5
				c0.2-0.5,1.8-4.5,3.5-6.1c-1,2-1.7,4.1-2.2,6.2c1.4-1.7,3-3.2,4.8-4.5c-2.3,2.4-4.1,5.2-5.4,8.3c2.5-1.8,5.2-3.4,8-4.7
				c-3.5,2.4-6.5,5.4-9,8.8c0.5-0.4,4.3-3.9,6.3-4.3c-1.9,1.4-3.6,3.1-5,5c0,0,5-4.3,9.7-6.1c-3.6,1.6-9.4,7-11.7,12
				c4.4-3.5,9.3-6.5,13-7.5c-6,2-11.8,7.9-13.6,10.7s-4.1,9.1-2.7,16.4c1.4,7.3,6.5,12.3,9.5,16c3,3.7,4.7,11.6,3.2,19
				c-0.1,0.6-0.3,1.3-0.5,1.9l0,0c-2,6.5-6.8,11.9-11.8,11.9c-5.4,0-5.7-2.3-7.9-2.3l0,0c-2.1,0-2.5,2.3-7.9,2.3
				c-4.9,0-9.8-5.4-11.8-11.9l0,0c-0.2-0.6-0.4-1.3-0.5-1.9c-1.5-7.4,0.2-15.3,3.2-19c3-3.7,8.2-8.7,9.6-16s-0.9-13.6-2.7-16.4
				c-1.8-2.8-7.5-8.6-13.6-10.7c3.7,0.9,8.6,4,13,7.5c-2.3-4.9-8.1-10.4-11.7-12c4.7,1.8,9.7,6.1,9.7,6.1c-1.4-1.9-3.1-3.6-5-5
				c2,0.4,5.8,3.9,6.3,4.3c-2.5-3.4-5.6-6.3-9.1-8.8c2.8,1.4,5.5,3,8,4.7c-1.3-3-3.2-5.8-5.4-8.3c1.7,1.4,3.3,2.9,4.8,4.5
				c-0.5-2.2-1.2-4.3-2.1-6.3c1.6,1.6,3.2,5.6,3.5,6.1c-0.2-0.7-1.6-6.6-1.6-10.5c1,2.9,3.5,5.2,6.5,5.8c-3.4-3.4-3.8-6.1-3.8-6.1
				c1.1,2.3,3.2,4,5.7,4.5c-0.3-1.9-1.5-3.6-3.2-4.5l3.5,1.3c-0.8-0.9-1.5-1.9-2-3c0.9,0.7,2,1.3,3.2,1.6l-0.8-1.7
				C136,102.1,137.5,102.1,139,102.1L139,102.1z"/>
			<path class="st21" d="M139,176.2c1.1,0,2.3,0,3.4,0.2c3,0.3,4.8,1,5.8,2.1c0.1,0.1,0.2,0.2,0.2,0.2c0.7,0.8,1.1,1.8,1.1,2.8
				c0,0.3,0.1,0.5,0.1,0.8v0.1c0,0.3,0,0.5,0,0.8c0.2,0.8,0.1,1.6-0.2,2.3c-0.1,0.6-0.3,1.3-0.6,1.8c-0.7,1.4-1.8,2.6-3,3.5
				c-1.9,1.5-4.3,2.3-6.7,2.3l0,0c-2.4,0-4.8-0.8-6.7-2.3c-1.3-0.9-2.3-2.1-3-3.5c-0.3-0.6-0.5-1.2-0.6-1.8
				c-0.4-0.7-0.4-1.5-0.2-2.3c0-0.3,0-0.5,0-0.8v-0.1c0-0.2,0-0.5,0.1-0.8c0.1-1,0.5-2,1.1-2.8l0.2-0.2c1-1,2.8-1.7,5.8-2.1
				C136.8,176.3,137.9,176.2,139,176.2L139,176.2z"/>
			
				<radialGradient id="SVGID_6_" cx="139.2123" cy="-19440.8672" r="14.0106" gradientTransform="matrix(1 0 0 -0.3 0 -5652.6499)" gradientUnits="userSpaceOnUse">
				<stop  offset="0" style="stop-color:#7B7988"/>
				<stop  offset="1" style="stop-color:#3F3C51"/>
			</radialGradient>
			<path class="st22" d="M139,176.7L139,176.7c8.7,0,9.8,2.5,10.1,4.8c0,0.3,0.1,0.6,0.1,0.9c0,0.3,0,0.5-0.1,0.8l0,0
				c-0.2,1-0.7,1.2-1.5,0.7c-1.5-0.8-3.1-1.2-4.8-1.2c-1.9,0-2.4,1.1-1.9,3.2c0.6,2.2,4.3,2.6,5.3,0.6c1-1.9,1.5-2.3,2.4-1.8
				c0.2,0.1,0.3,0.3,0.2,0.5l0,0c0,1.2-1.7,3.8-3.5,5c-1.9,1.4-4.1,2.2-6.4,2.2l0,0c-2.3,0-4.6-0.8-6.4-2.2c-1.7-1.2-3.5-3.9-3.5-5
				l0,0c0-0.2,0.1-0.4,0.2-0.5c1-0.5,1.4-0.2,2.4,1.8c1,2,4.7,1.5,5.3-0.6c0.6-2.2,0-3.2-1.9-3.2c-1.7,0-3.3,0.4-4.8,1.2
				c-0.8,0.5-1.4,0.3-1.5-0.7l0,0c0-0.3-0.1-0.5-0.1-0.8c0-0.2,0-0.5,0.1-0.9C129.1,179.2,130.2,176.7,139,176.7L139,176.7z"/>
			<path class="st23" d="M139,176.7L139,176.7c8.7,0,9.8,2.5,10.1,4.8c0,0.3,0.1,0.6,0.1,0.9c-1.9-2.1-4.7-2.6-10.1-2.6l0,0
				c-5.5,0-8.3,0.4-10.1,2.6c0-0.2,0-0.5,0.1-0.9C129.2,179.2,130.3,176.7,139,176.7L139,176.7z"/>
			<path class="st21" d="M148.8,185.3c0-0.2-0.1-0.4-0.2-0.5c-1-0.5-1.4-0.2-2.4,1.8s-4.7,1.5-5.3-0.6c-0.6-2.2,0-3.2,1.9-3.2
				c1.7,0,3.3,0.4,4.8,1.2c0.8,0.5,1.4,0.3,1.5-0.7C149.3,183.9,149.2,184.7,148.8,185.3z"/>
			<path class="st21" d="M129.1,185.3c0-0.2,0.1-0.4,0.2-0.5c1-0.5,1.4-0.2,2.4,1.8c1,2,4.7,1.5,5.3-0.6c0.6-2.2,0-3.2-1.9-3.2
				c-1.7,0-3.3,0.4-4.8,1.2c-0.8,0.5-1.4,0.3-1.5-0.7C128.7,183.9,128.7,184.7,129.1,185.3z"/>
			<path class="st24" d="M143.5,179.5c0,0.4-0.8,0.7-1.7,0.7s-1.8-0.3-1.8-0.7c0-0.4,0.8-0.7,1.8-0.7S143.5,179.1,143.5,179.5z"/>
			<path class="st25" d="M139,158.3c1.1,0,2.2,0.4,3,1.1c1.8,1.6,0.8,3.5,2.4,5.7c2.2,2.9,5.9,6.7,4,13.5c-0.1-0.1-0.1-0.2-0.2-0.2
				c-1-1-2.8-1.7-5.8-2.1c-1.1-0.1-2.3-0.2-3.4-0.2l0,0c-1.1,0-2.3,0-3.4,0.2c-3,0.3-4.8,1-5.8,2.1l-0.2,0.2
				c-1.9-6.8,1.8-10.7,4-13.5c1.7-2.2,0.6-4,2.4-5.7C136.8,158.7,137.9,158.3,139,158.3z"/>
			<circle class="st25" cx="141.9" cy="194.4" r="0.3"/>
			<circle class="st25" cx="136" cy="194.4" r="0.3"/>
			<circle class="st25" cx="143.9" cy="195.4" r="0.3"/>
			<path class="st25" d="M133.7,195.4c0,0.2,0.2,0.3,0.3,0.3c0.2,0,0.3-0.2,0.3-0.3c0-0.2-0.1-0.3-0.3-0.3c0,0,0,0,0,0
				C133.9,195.1,133.7,195.2,133.7,195.4z"/>
			<path class="st25" d="M144.4,193.3c0,0.1-0.1,0.3-0.3,0.3c-0.1,0-0.3-0.1-0.3-0.3c0-0.1,0.1-0.3,0.3-0.3S144.4,193.2,144.4,193.3
				L144.4,193.3z"/>
			<path class="st25" d="M133.5,193.3c0,0.1,0.1,0.3,0.3,0.3c0.1,0,0.2-0.2,0.2-0.3c0-0.1-0.1-0.2-0.2-0.2
				C133.7,193,133.5,193.1,133.5,193.3z"/>
			<path class="st25" d="M146,195.8c0,0.2-0.2,0.4-0.4,0.4l0,0c-0.2,0-0.4-0.2-0.4-0.4c0,0,0,0,0,0c0-0.2,0.2-0.4,0.4-0.4
				c0,0,0,0,0,0C145.8,195.4,145.9,195.6,146,195.8C146,195.8,146,195.8,146,195.8z"/>
			<path class="st25" d="M132,195.8c0,0.2,0.1,0.4,0.3,0.5c0.2,0,0.4-0.1,0.5-0.3c0,0,0-0.1,0-0.1c0-0.2-0.2-0.4-0.5-0.3
				C132.1,195.5,132,195.6,132,195.8z"/>
			<path class="st25" d="M147.3,193.3c0,0.1-0.1,0.3-0.3,0.3c-0.1,0-0.3-0.1-0.3-0.3c0-0.1,0.1-0.3,0.3-0.3
				C147.2,193,147.3,193.2,147.3,193.3L147.3,193.3z"/>
			<path class="st25" d="M130.6,193.3c0,0.1,0.1,0.3,0.3,0.3c0.1,0,0.2-0.2,0.2-0.3c0-0.1-0.1-0.2-0.2-0.2
				C130.7,193,130.6,193.1,130.6,193.3z"/>
			<path class="st25" d="M148.5,195.7c0,0.1-0.1,0.3-0.3,0.3c-0.1,0-0.3-0.1-0.3-0.3s0.1-0.3,0.3-0.3l0,0
				C148.4,195.4,148.5,195.5,148.5,195.7z"/>
			<path class="st25" d="M129.4,195.7c0,0.2,0.1,0.3,0.3,0.3c0.2,0,0.3-0.1,0.3-0.3c0-0.2-0.1-0.3-0.3-0.3c0,0,0,0,0,0
				C129.6,195.4,129.4,195.5,129.4,195.7C129.4,195.7,129.4,195.7,129.4,195.7z"/>
			<path class="st25" d="M150,192.5c0,0.3-0.2,0.5-0.5,0.6c-0.3,0-0.5-0.2-0.6-0.5s0.2-0.5,0.5-0.6c0,0,0,0,0,0
				C149.8,192,150,192.2,150,192.5z"/>
			<path class="st25" d="M128,192.5c0,0.3,0.2,0.5,0.5,0.5c0.3,0,0.5-0.2,0.5-0.5c0-0.3-0.2-0.5-0.5-0.5c0,0,0,0,0,0
				C128.2,192,128,192.2,128,192.5z"/>
			<path class="st25" d="M147.9,191.4c0,0.3-0.2,0.5-0.5,0.5s-0.5-0.2-0.5-0.5s0.2-0.5,0.5-0.5l0,0
				C147.7,191,147.9,191.2,147.9,191.4z"/>
			<path class="st25" d="M130,191.4c0,0.3,0.2,0.5,0.5,0.5s0.5-0.2,0.5-0.5s-0.2-0.5-0.5-0.5l0,0C130.2,191,130,191.2,130,191.4z"/>
			<path class="st25" d="M149.7,194.4c0,0.2-0.2,0.4-0.4,0.4c-0.2,0-0.4-0.2-0.4-0.4c0-0.2,0.2-0.4,0.4-0.4
				C149.5,194,149.7,194.2,149.7,194.4L149.7,194.4z"/>
			<path class="st25" d="M128.2,194.4c0,0.2,0.2,0.4,0.4,0.4c0.2,0,0.4-0.2,0.4-0.4c0-0.2-0.2-0.4-0.4-0.4
				C128.4,194,128.2,194.2,128.2,194.4L128.2,194.4z"/>
			<path class="st25" d="M153.1,192.2c0,0.2-0.1,0.3-0.3,0.4c-0.2,0-0.3-0.1-0.4-0.3c0-0.2,0.1-0.3,0.3-0.4c0,0,0,0,0,0
				C152.9,191.9,153.1,192,153.1,192.2C153.1,192.2,153.1,192.2,153.1,192.2z"/>
			<path class="st25" d="M124.8,192.2c0,0.2,0.1,0.3,0.3,0.4c0.2,0,0.3-0.1,0.4-0.3c0-0.2-0.1-0.3-0.3-0.4c0,0,0,0,0,0
				C125,191.9,124.8,192.1,124.8,192.2z"/>
			<path class="st25" d="M150.9,190.7c0.1,0.2-0.1,0.5-0.3,0.6c-0.2,0.1-0.5-0.1-0.6-0.3c0-0.1,0-0.2,0-0.2
				c-0.1-0.2,0.1-0.5,0.3-0.6c0.2-0.1,0.5,0.1,0.6,0.3C150.9,190.5,150.9,190.6,150.9,190.7z"/>
			<path class="st25" d="M127,190.7c0.1,0.2,0.3,0.4,0.6,0.3c0.1,0,0.3-0.2,0.3-0.3c-0.1-0.2-0.3-0.4-0.6-0.3
				C127.2,190.4,127.1,190.5,127,190.7z"/>
			<path class="st25" d="M152.1,194c0,0.2-0.2,0.4-0.4,0.4c-0.2,0-0.4-0.2-0.4-0.4c0-0.2,0.2-0.4,0.4-0.4c0,0,0,0,0,0
				C151.9,193.6,152.1,193.8,152.1,194z"/>
			<path class="st25" d="M125.8,194c0,0.2,0.2,0.4,0.4,0.4c0.2,0,0.4-0.2,0.4-0.4s-0.2-0.4-0.4-0.4c0,0,0,0,0,0
				C126,193.6,125.9,193.8,125.8,194z"/>
			<path class="st25" d="M153.5,190c0,0.1,0,0.2-0.2,0.2c-0.1,0-0.2,0-0.2-0.2c0,0,0-0.1,0-0.1c0-0.1,0.1-0.2,0.2-0.2l0,0
				C153.4,189.8,153.5,189.9,153.5,190C153.5,190,153.5,190,153.5,190z"/>
			<path class="st25" d="M124.4,190c0,0.1,0.1,0.2,0.2,0.2c0.1,0,0.2-0.1,0.2-0.2s-0.1-0.2-0.2-0.2c0,0,0,0,0,0
				C124.5,189.8,124.4,189.9,124.4,190L124.4,190z"/>
			<path class="st25" d="M152.2,188.6c0,0.2-0.1,0.3-0.3,0.3c0,0,0,0,0,0c-0.2,0-0.3-0.1-0.3-0.3s0.1-0.3,0.3-0.3
				C152.1,188.4,152.2,188.5,152.2,188.6C152.2,188.6,152.2,188.6,152.2,188.6z"/>
			<path class="st25" d="M125.7,188.6c0,0.2,0.1,0.3,0.3,0.3c0,0,0,0,0,0c0.2,0,0.3-0.1,0.3-0.3s-0.1-0.3-0.3-0.3
				C125.8,188.4,125.7,188.5,125.7,188.6C125.7,188.6,125.7,188.6,125.7,188.6z"/>
			<circle class="st25" cx="155.5" cy="188.1" r="0.3"/>
			<circle class="st25" cx="122.4" cy="188.1" r="0.3"/>
			<path class="st26" d="M139,195.3L139,195.3c2.1,0,2.5,2.3,7.9,2.3c4.9,0,9.8-5.4,11.8-11.9l0,0c3.3-4.1,4.6-1.1,1.7,4.5
				c-0.5,1-1.1,2-1.7,3c-4.9,7.4-8.5,11.3-19.7,11.3l0,0c-11.2,0-14.8-3.9-19.7-11.3c-0.6-1-1.2-1.9-1.7-3c-2.8-5.6-1.6-8.6,1.7-4.5
				l0,0c2,6.5,6.8,11.9,11.8,11.9C136.5,197.6,136.8,195.3,139,195.3L139,195.3z"/>
			<path class="st16" d="M118.5,183.9c-0.3-1.8-0.8-3.7-1.3-5.5c-0.3-0.9-0.6-1.8-0.9-2.7c-0.3-0.9-0.7-1.8-1.1-2.7
				c-0.2-0.5-0.8-0.7-1.3-0.4c-0.5,0.2-0.7,0.8-0.4,1.3l0,0c0,0,0,0.1,0.1,0.1l0,0c0.5,0.7,1,1.5,1.4,2.3c0.4,0.8,0.9,1.6,1.3,2.4
				c0.8,1.7,1.5,3.4,2.1,5.2c0,0,0.1,0.1,0.1,0.1c0,0,0,0,0,0C118.5,184,118.5,184,118.5,183.9C118.5,183.9,118.5,183.9,118.5,183.9
				z"/>
			
				<radialGradient id="SVGID_7_" cx="166.7415" cy="155.2731" r="41.7124" gradientTransform="matrix(1 0 0 -1 0 268)" gradientUnits="userSpaceOnUse">
				<stop  offset="0" style="stop-color:#350E0E"/>
				<stop  offset="1" style="stop-color:#756562"/>
			</radialGradient>
			<path class="st27" d="M170,83.7c6.1-9.6,15.3-14.1,17.9-14.5s5.9,3.2,5.9,15.8s-2.4,25.3-2.4,28.2c-1-3.1-2.5-6-4.4-8.6
				c0,0,4.1,16.7,2.9,12.8c-1.2-4-1.9-4.3-1.9-4.3s1.2,3.8,0.5,5.5c-3.5,0.3-2.5-10.9-12.6-5.8c4.2-4.2,9.3-5.7,8.3-5.7
				s-10,2.7-10,2.7s5.7-7,10.4-8.8c-7.2-0.5-8.1,2.8-12.4,3.2c6-6,10.2-8.5,10.2-8.5s-7.4,0.2-11.1,4.5c2.3-4.7,13.7-9.5,13.7-9.5
				c-5.3-0.8-10.8,0.2-15.4,3c2.8-3.4,14.8-8.5,14.8-8.5S173.5,87,168.9,90c5.3-6.5,13.8-11.6,13.8-11.6s-4.9-0.9-12.9,7.1l5.5-5.5
				L170,83.7z"/>
			
				<radialGradient id="SVGID_8_" cx="-740.3126" cy="155.2731" r="41.7124" gradientTransform="matrix(-1 0 0 -1 -629.13 268)" gradientUnits="userSpaceOnUse">
				<stop  offset="0" style="stop-color:#350E0E"/>
				<stop  offset="1" style="stop-color:#756562"/>
			</radialGradient>
			<path class="st28" d="M107.9,83.7c-6.1-9.6-15.3-14.1-17.9-14.5c-2.6-0.4-5.9,3.2-5.9,15.8s2.4,25.3,2.4,28.2
				c1-3.1,2.5-6,4.4-8.6c0,0-4.1,16.7-2.9,12.8c1.2-4,1.9-4.3,1.9-4.3s-1.2,3.8-0.5,5.5c3.5,0.3,2.5-10.9,12.6-5.8
				c-4.2-4.2-9.3-5.7-8.3-5.7s10,2.7,10,2.7s-5.7-7-10.3-8.8c7.2-0.5,8.1,2.8,12.4,3.2c-6-6-10.3-8.4-10.3-8.4s7.4,0.2,11.1,4.5
				c-2.3-4.7-13.6-9.5-13.6-9.5c5.3-0.8,10.8,0.2,15.4,3c-2.8-3.4-14.8-8.5-14.8-8.5s10.9,1.7,15.4,4.8
				c-5.3-6.5-13.8-11.7-13.8-11.7s4.9-0.9,12.9,7.1l-5.5-5.5L107.9,83.7z"/>
			<path class="st16" d="M159.4,183.9c0.3-1.8,0.8-3.7,1.3-5.5c0.3-0.9,0.6-1.8,0.9-2.7c0.3-0.9,0.7-1.8,1.1-2.7
				c0.2-0.5,0.8-0.7,1.3-0.4c0.5,0.2,0.7,0.8,0.4,1.3l0,0l-0.1,0.1l0,0c-0.5,0.7-1,1.5-1.4,2.3s-0.9,1.6-1.3,2.4
				c-0.8,1.7-1.5,3.4-2.1,5.2c0,0-0.1,0.1-0.1,0.1c0,0,0,0,0,0C159.4,184,159.4,184,159.4,183.9
				C159.4,183.9,159.4,183.9,159.4,183.9z"/>
			<path class="st16" d="M149.7,145.3c-0.3,0.1-0.6-0.1-0.6-0.4c0-0.2,0-0.3,0.1-0.5c5.6-6.3,11-4.6,12.8-3.5
				c1.6,0.9,3.6,3.1,5.3,4.2c0.1,0.1,0.1,0.2,0.1,0.3c0,0.1-0.1,0.1-0.2,0.1c-1.9,0-2.9,0.9-4.6,1.8c-2.8,1.4-6.2,1-8.6-1.1
				C152.8,145.2,151.2,144.9,149.7,145.3z"/>
			<path class="st29" d="M151.1,143.7c2.8-2.8,5.8-3.7,8.6-3.1c2.9,0.6,5.5,3.9,6.4,4.3c-1.9,0.4-4,2.9-7.1,2.7
				c-3.1-0.2-4.3-3.2-7.8-3.1C151.3,144.2,151.2,143.9,151.1,143.7z"/>
			<g>
				<defs>
					<path id="SVGID_9_" d="M151.1,143.7c2.8-2.8,5.8-3.7,8.6-3.1c2.9,0.6,5.5,3.9,6.4,4.3c-1.9,0.4-4,2.9-7.1,2.7
						c-3.1-0.2-4.3-3.2-7.8-3.1C151.3,144.2,151.2,143.9,151.1,143.7z"/>
				</defs>
				<clipPath id="SVGID_10_">
					<use xlink:href="#SVGID_9_"  style="overflow:visible;"/>
				</clipPath>
				<g class="st30">
					
						<radialGradient id="SVGID_11_" cx="158.2212" cy="124.5931" r="4.981" gradientTransform="matrix(1 0 0 -1 0 268)" gradientUnits="userSpaceOnUse">
						<stop  offset="0.58" style="stop-color:#C87A32"/>
						<stop  offset="0.66" style="stop-color:#C5772E"/>
						<stop  offset="0.75" style="stop-color:#BD6F21"/>
						<stop  offset="0.85" style="stop-color:#AF610B"/>
						<stop  offset="0.88" style="stop-color:#A85A00"/>
					</radialGradient>
					<path class="st31" d="M163.2,143.4c0,2.8-2.2,5-5,5c-2.8,0-5-2.2-5-5c0-2.8,2.2-5,5-5C161,138.4,163.2,140.7,163.2,143.4
						C163.2,143.4,163.2,143.4,163.2,143.4z"/>
					<path class="st16" d="M160.4,143.4c0,1.2-1,2.2-2.2,2.2c-1.2,0-2.2-1-2.2-2.2c0-1.2,1-2.2,2.2-2.2c0,0,0,0,0,0
						C159.4,141.2,160.4,142.2,160.4,143.4z"/>
				</g>
			</g>
			<path class="st0" d="M161,143.2c-0.1,0.6-0.7,0.9-1.2,0.8c-0.6-0.1-0.9-0.7-0.8-1.2c0,0,0,0,0-0.1c0.2-0.6,0.7-0.9,1.3-0.7
				C160.8,142.1,161.1,142.6,161,143.2z M161,141.6c0,0.1,0.3,0.4,0.4,0.9c0.2,0.5,0.2,0.9,0.2,0.9c0.1,0.1,0.2-0.4,0-1
				C161.5,141.8,161,141.5,161,141.6L161,141.6z M160.3,141.2c-0.2,0-0.3,0.1-0.4,0.2c0,0.2,0.1,0.3,0.2,0.4l0,0
				c0.2,0,0.4-0.1,0.4-0.2C160.6,141.4,160.5,141.2,160.3,141.2L160.3,141.2z"/>
			<path class="st16" d="M128.2,145.3c0.3,0.1,0.5-0.1,0.6-0.4c0-0.2,0-0.4-0.1-0.5c-5.6-6.3-11-4.6-12.8-3.5
				c-1.6,0.9-3.6,3.1-5.3,4.2c-0.1,0.1-0.1,0.2,0,0.3c0,0.1,0.1,0.1,0.2,0.1c1.9,0,2.9,0.9,4.6,1.8c2.8,1.4,6.2,1,8.6-1.1
				C125.1,145.2,126.7,144.9,128.2,145.3z"/>
			<path class="st29" d="M126.8,143.7c-2.8-2.8-5.8-3.7-8.6-3.1c-2.9,0.6-5.5,3.9-6.4,4.3c1.9,0.4,4,2.9,7.1,2.7s4.4-3.2,7.8-3.1
				C126.7,144.2,126.7,143.9,126.8,143.7z"/>
			<g>
				<defs>
					<path id="SVGID_12_" d="M126.8,143.7c-2.8-2.8-5.8-3.7-8.6-3.1c-2.9,0.6-5.5,3.9-6.4,4.3c1.9,0.4,4,2.9,7.1,2.7
						s4.4-3.2,7.8-3.1C126.7,144.2,126.7,143.9,126.8,143.7z"/>
				</defs>
				<clipPath id="SVGID_13_">
					<use xlink:href="#SVGID_12_"  style="overflow:visible;"/>
				</clipPath>
				<g class="st32">
					
						<radialGradient id="SVGID_14_" cx="119.7028" cy="124.5931" r="4.981" gradientTransform="matrix(1 0 0 -1 0 268)" gradientUnits="userSpaceOnUse">
						<stop  offset="0.58" style="stop-color:#C87A32"/>
						<stop  offset="0.66" style="stop-color:#C5772E"/>
						<stop  offset="0.75" style="stop-color:#BD6F21"/>
						<stop  offset="0.85" style="stop-color:#AF610B"/>
						<stop  offset="0.88" style="stop-color:#A85A00"/>
					</radialGradient>
					<path class="st33" d="M114.7,143.4c0,2.8,2.2,5,5,5c2.8,0,5-2.2,5-5s-2.2-5-5-5c0,0,0,0,0,0
						C116.9,138.4,114.7,140.7,114.7,143.4C114.7,143.4,114.7,143.4,114.7,143.4z"/>
					<path class="st16" d="M117.5,143.4c0,1.2,1,2.2,2.2,2.2c1.2,0,2.2-1,2.2-2.2c0-1.2-1-2.2-2.2-2.2c0,0,0,0,0,0
						C118.5,141.2,117.5,142.2,117.5,143.4z"/>
				</g>
			</g>
			<path class="st0" d="M122.5,143.2c-0.1,0.6-0.7,0.9-1.3,0.8c-0.6-0.1-0.9-0.7-0.8-1.3c0.1-0.6,0.7-0.9,1.3-0.8c0,0,0,0,0,0
				C122.3,142.1,122.6,142.7,122.5,143.2z M122.5,141.6c0,0.1,0.3,0.4,0.4,0.9s0.2,0.9,0.2,0.9c0.1,0.1,0.2-0.4,0-1
				C123,141.8,122.5,141.6,122.5,141.6L122.5,141.6z M121.8,141.2c-0.2,0-0.3,0.1-0.4,0.2c0,0,0,0,0,0c0,0.2,0.1,0.3,0.2,0.4
				c0,0,0,0,0,0c0.2,0,0.3-0.1,0.4-0.2C122.1,141.4,122,141.2,121.8,141.2L121.8,141.2z"/>
			<path class="st25" d="M139,153.4c1.2-5.1,3.6-9.8,3.1-15.3c-0.5-5.5,0.4-11.1,4.7-16.2c-1.4,0-5,4.3-5,4.3c1.7-3,3.1-6.2,4.2-9.5
				c1.5-4.7-4-5.4-4.6-8.6c-0.3-1.7-1.3-2.8-2.4-3c-1,0.2-2,1.3-2.4,3c-0.6,3.3-6.1,3.9-4.6,8.6c1.1,3.3,2.5,6.5,4.2,9.5
				c0,0-3.6-4.3-5-4.3c4.3,5.1,5.2,10.7,4.7,16.2S137.8,148.3,139,153.4z"/>
		</g>
	</g>
</g>
</svg>
